<?xml version="1.0" encoding="utf-8"?>
<!-- Generator: Adobe Illustrator 24.0.1, SVG Export Plug-In . SVG Version: 6.00 Build 0)  -->
<svg version="1.1" id="_27_ifrs" xmlns="http://www.w3.org/2000/svg" xmlns:xlink="http://www.w3.org/1999/xlink" x="0px" y="0px"
	 viewBox="0 0 650 400" style="enable-background:new 0 0 650 400;" xml:space="preserve">
<style type="text/css">
	.st0{fill:#FF9949;}
	.st1{font-family:'Corbel';}
	.st2{font-size:16px;}
	.st3{letter-spacing:1.1;}
	.st4{letter-spacing:11.1;}
	.st5{letter-spacing:8.9;}
	.st6{letter-spacing:2.2;}
	.st7{font-family:'Corbel-Bold';}
	.st8{font-size:18px;}
	.st9{font-size:15px;}
	.st10{fill:none;stroke:#000000;stroke-width:2;stroke-miterlimit:10;}
	.st11{fill:none;stroke:#000000;stroke-width:2.076;stroke-miterlimit:10;}
</style>
<title>23</title>
<g id="bg">
	<rect class="st0" width="650" height="400"/>
</g>
<g id="KEY_ACHIVE">
	<g id="Multiple_Source_:_each_countries_had_different_systems_and_cons">
		<text transform="matrix(0.9 0 0 1 81.916 298.3848)" class="st1 st2 st3">Adoption</text>
		<text transform="matrix(0.9 0 0 1 146.3486 298.3848)" class="st1 st2 st4"> </text>
		<text transform="matrix(0.9 0 0 1 159.6123 298.3848)" class="st1 st2 st3">Increase:</text>
		<text transform="matrix(0.9 0 0 1 222.6074 298.3848)" class="st1 st2 st4"> </text>
		<text transform="matrix(0.9 0 0 1 235.8701 298.3848)" class="st1 st2 st3">we</text>
		<text transform="matrix(0.9 0 0 1 255.4468 298.3848)" class="st1 st2 st4"> </text>
		<text transform="matrix(0.9 0 0 1 268.709 298.3848)" class="st1 st2 st3">placed</text>
		<text transform="matrix(0.9 0 0 1 314.4165 298.3848)" class="st1 st2 st4"> </text>
		<text transform="matrix(0.9 0 0 1 327.6797 298.3848)" class="st1 st2 st3">stratgegy</text>
		<text transform="matrix(0.9 0 0 1 394.4507 298.3848)" class="st1 st2 st5"> </text>
		<text transform="matrix(0.9 0 0 1 405.5967 298.3848)" class="st1 st2 st3">Agency</text>
		<text transform="matrix(0.9 0 0 1 456.8442 298.3848)" class="st1 st2 st4"> </text>
		<text transform="matrix(0.9 0 0 1 470.1064 298.3848)" class="st1 st2 st3">licence</text>
		<text transform="matrix(0.9 0 0 1 518.8984 298.3848)" class="st1 st2 st4"> </text>
		<text transform="matrix(0.9 0 0 1 532.1606 298.3848)" class="st1 st2 st3">with </text>
		<text transform="matrix(0.9 0 0 1 81.916 318.3848)" class="st1 st2 st3">insurance</text>
		<text transform="matrix(0.9 0 0 1 148.793 318.3848)" class="st1 st2 st6"> </text>
		<text transform="matrix(0.9 0 0 1 153.9053 318.3848)" class="st1 st2 st3">company</text>
		<text transform="matrix(0.9 0 0 1 216.583 318.3848)" class="st1 st2 st6"> </text>
		<text transform="matrix(0.9 0 0 1 221.6948 318.3848)" class="st1 st2 st3">intergration</text>
		<text transform="matrix(0.9 0 0 1 305.7056 318.3848)" class="st1 st2 st6"> </text>
		<text transform="matrix(0.9 0 0 1 310.8174 318.3848)" class="st1 st2 st3">was</text>
		<text transform="matrix(0.9 0 0 1 337.1831 318.3848)" class="st1 st2 st6"> </text>
		<text transform="matrix(0.9 0 0 1 342.2949 318.3848)" class="st1 st2 st3">unique</text>
		<text transform="matrix(0.9 0 0 1 389.3174 318.3848)" class="st1 st2 st6"> </text>
		<text transform="matrix(0.9 0 0 1 394.4282 318.3848)" class="st1 st2 st3">and</text>
		<text transform="matrix(0.9 0 0 1 420.0278 318.3848)" class="st1 st2 st6"> </text>
		<text transform="matrix(0.9 0 0 1 425.1401 318.3848)" class="st1 st2 st3">we</text>
		<text transform="matrix(0.9 0 0 1 444.7168 318.3848)" class="st1 st2 st6"> </text>
		<text transform="matrix(0.9 0 0 1 449.8286 318.3848)" class="st1 st2 st3">were</text>
		<text transform="matrix(0.9 0 0 1 483.5527 318.3848)" class="st1 st2 st6"> </text>
		<text transform="matrix(0.9 0 0 1 488.6646 318.3848)" class="st1 st2 st3">first</text>
		<text transform="matrix(0.9 0 0 1 516.3496 318.3848)" class="st1 st2 st6"> </text>
		<text transform="matrix(0.9 0 0 1 521.4614 318.3848)" class="st1 st2 st3">in</text>
		<text transform="matrix(0.9 0 0 1 534.5547 318.3848)" class="st1 st2 st6"> </text>
		<text transform="matrix(0.9 0 0 1 539.667 318.3848)" class="st1 st2 st3">the </text>
		<text transform="matrix(0.9 0 0 1 81.916 338.3848)" class="st1 st2 st3">philippines</text>
	</g>
	<g id="KEY_ACHIVEMENTS:">
		<text transform="matrix(0.9 0 0 1 80.6509 277.729)" class="st7 st8 st3">KEY</text>
		<text transform="matrix(0.9 0 0 1 114.0068 277.729)" class="st7 st8"> </text>
		<text transform="matrix(0.9 0 0 1 117.8481 277.729)" class="st7 st8 st3">A</text>
		<text transform="matrix(0.9 0 0 1 129.5518 277.729)" class="st7 st8 st3">CHIVEMENTS:</text>
	</g>
</g>
<text transform="matrix(0.9 0 0 1 79.0801 130.2939)" class="st1 st9 st3">Life end client web app to end policy information, application status, </text>
<text transform="matrix(0.9 0 0 1 79.0801 148.7402)" class="st1 st9 st3">digital idenit</text>
<text transform="matrix(0.9 0 0 1 163.0615 148.7402)" class="st1 st9">y</text>
<text transform="matrix(0.9 0 0 1 170.0859 148.7402)" class="st1 st9 st3">, service request</text>
<rect x="67" y="109" class="st10" width="514.8" height="48.9"/>
<rect x="67" y="57" class="st10" width="514.8" height="52"/>
<rect x="67" y="255" class="st11" width="514.8" height="97.4"/>
<g id="_1st_row">
	<g id="PROJECT_NAME_IFRS-17">
		<text transform="matrix(0.9 0 0 1 426.0659 80.7778)" class="st1 st8 st3">PROGRAM NAME</text>
		<text transform="matrix(0.9 0 0 1 464.7515 98.7778)" class="st7 st8">T</text>
		<text transform="matrix(0.9 0 0 1 474.8101 98.7778)" class="st7 st8 st3">OUCH</text>
	</g>
	<g id="ROLE_PROJECT_MANAGER">
		<text transform="matrix(0.9 0 0 1 137.291 78.9351)" class="st1 st8 st3">ROLE</text>
		<text transform="matrix(0.9 0 0 1 99.6357 96.9351)" class="st7 st8 st3">DIGI</text>
		<text transform="matrix(0.9 0 0 1 135.4873 96.9351)" class="st7 st8">T</text>
		<text transform="matrix(0.9 0 0 1 145.0713 96.9351)" class="st7 st8 st3">AL HEAD</text>
	</g>
</g>
<rect x="248.9" y="47.3" class="st0" width="167" height="20.4"/>
<g>
	<path d="M249.8,66.1l7.5-18.3h1.9l7.5,18.3h-2.4l-2.2-5.5h-7.6l-2.2,5.5H249.8z M258.2,50.7c-0.8,2.3-1.6,4.3-2.3,6.2l-0.7,1.7h6.1
		l-0.7-1.7C259.8,55,259,52.8,258.2,50.7L258.2,50.7z"/>
	<path d="M271.6,47.8v16.3h8.9v2h-11.2V47.8H271.6z"/>
	<path d="M286.2,47.8v16.3h8.9v2h-11.2V47.8H286.2z"/>
	<path d="M298.6,66.1V47.8h2.2v18.3L298.6,66.1L298.6,66.1z"/>
	<path d="M303.6,66.1l7.5-18.3h1.9l7.5,18.3h-2.4l-2.2-5.5h-7.6l-2.2,5.5H303.6z M312,50.7c-0.8,2.3-1.6,4.3-2.3,6.2l-0.7,1.7h6.1
		l-0.7-1.7C313.6,55,312.8,52.8,312,50.7L312,50.7z"/>
	<path d="M332.6,58.1c1.1,1.6,2.2,3.3,3.3,5h0.1c-0.1-1.8-0.2-3.6-0.2-5.4v-9.7h2.2v18.3h-2.2L328.6,56c-1.2-1.8-2.3-3.4-3.3-5h-0.1
		c0.1,1.7,0.2,3.6,0.2,5.8v9.3h-2.2V47.8h2.2L332.6,58.1z"/>
	<path d="M355.3,47.8v1.4l-10.6,14.9h10.7v2h-13.7v-1.4l10.6-14.9h-10.4v-2C341.9,47.8,355.3,47.8,355.3,47.8z"/>
	<path d="M366.9,66.1h-2.2V47.8h5.1c0.8,0,1.5,0,2.1,0.1s1.2,0.2,1.8,0.4c1.1,0.4,1.9,1,2.5,1.8c0.6,0.8,0.8,1.7,0.8,2.9
		c0,0.9-0.2,1.7-0.6,2.5c-0.4,0.7-0.9,1.3-1.6,1.8s-1.6,0.8-2.6,1.1c-1,0.2-2.1,0.4-3.4,0.4c-0.6,0-1.2,0-1.9-0.1L366.9,66.1
		L366.9,66.1z M366.9,56.6c0.3,0,0.6,0.1,0.9,0.1s0.6,0,0.9,0c1,0,1.9-0.1,2.7-0.2c0.8-0.1,1.3-0.4,1.8-0.7c0.5-0.3,0.8-0.7,1-1.1
		c0.2-0.4,0.3-1,0.3-1.5c0-0.7-0.2-1.3-0.5-1.8s-0.8-0.8-1.5-1c-0.4-0.1-0.8-0.2-1.4-0.3c-0.5-0.1-1.1-0.1-1.8-0.1h-2.6v6.6H366.9z"
		/>
	<path d="M390.1,58.1c1.1,1.6,2.2,3.3,3.3,5h0.1c-0.1-1.8-0.2-3.6-0.2-5.4v-9.7h2.2v18.3h-2.2L386.1,56c-1.2-1.8-2.3-3.4-3.3-5h-0.1
		c0.1,1.7,0.2,3.6,0.2,5.8v9.3h-2.2V47.8h2.2L390.1,58.1z"/>
	<path d="M409.1,56.7c0.6,0.1,1.1,0.2,1.5,0.5c0.4,0.3,0.8,0.5,1.2,0.8c0.4,0.3,0.6,0.7,0.7,1.2c0.2,0.5,0.3,1,0.3,1.6
		c0,0.4-0.1,0.9-0.2,1.3c-0.1,0.5-0.3,0.9-0.6,1.4c-0.3,0.4-0.7,0.9-1.1,1.2c-0.5,0.4-1.1,0.7-1.8,0.9c-0.5,0.2-1.1,0.3-1.8,0.4
		c-0.7,0.1-1.4,0.1-2.4,0.1h-4.7V47.8h4.5c0.4,0,0.8,0,1.1,0s0.6,0,0.9,0.1c0.3,0,0.5,0.1,0.8,0.1c0.2,0,0.5,0.1,0.7,0.1
		c0.6,0.2,1.1,0.4,1.5,0.6c0.5,0.3,0.9,0.6,1.2,1c0.3,0.4,0.6,0.8,0.8,1.3c0.2,0.5,0.3,1,0.3,1.5c0,0.4-0.1,0.9-0.2,1.3
		c-0.1,0.4-0.3,0.8-0.5,1.1c-0.2,0.3-0.5,0.7-0.9,0.9C410,56,409.6,56.3,409.1,56.7L409.1,56.7z M405.8,55.8c0.4,0,0.8,0,1.1-0.1
		s0.6-0.1,0.9-0.2c0.7-0.2,1.2-0.6,1.5-1.1s0.5-1.1,0.5-1.7c0-0.7-0.2-1.2-0.5-1.7c-0.3-0.4-0.8-0.7-1.5-1c-0.3-0.1-0.7-0.2-1.2-0.2
		s-1-0.1-1.6-0.1h-2.5v5.9h3.3V55.8z M402.4,57.8v6.4h2.7c0.6,0,1.2,0,1.8-0.1c0.5-0.1,1-0.2,1.4-0.3c0.4-0.1,0.8-0.3,1.1-0.5
		c0.3-0.2,0.5-0.5,0.7-0.7c0.2-0.2,0.3-0.5,0.4-0.8c0.1-0.3,0.1-0.6,0.1-0.9s0-0.7-0.1-1c-0.1-0.3-0.2-0.6-0.4-0.8
		c-0.2-0.2-0.4-0.5-0.7-0.6c-0.3-0.2-0.7-0.3-1.1-0.4c-0.3-0.1-0.6-0.1-0.9-0.1s-0.8,0-1.3,0h-3.7V57.8z"/>
</g>
</svg>
