<svg id="_33_duck_creek" data-name=" 33 duck creek" xmlns="http://www.w3.org/2000/svg" viewBox="0 0 650 400"><defs><style>.cls-1{fill:#0f41a6;}.cls-10,.cls-11,.cls-12,.cls-13,.cls-17,.cls-18,.cls-2,.cls-7{isolation:isolate;}.cls-10,.cls-11,.cls-12,.cls-13,.cls-17,.cls-18,.cls-21,.cls-3,.cls-4,.cls-5,.cls-6,.cls-7{font-size:18px;}.cls-10,.cls-11,.cls-12,.cls-13,.cls-17,.cls-18,.cls-20,.cls-21,.cls-3,.cls-4,.cls-5,.cls-6,.cls-7{fill:#fff;}.cls-13,.cls-17,.cls-18,.cls-20,.cls-21,.cls-3,.cls-4,.cls-5,.cls-6,.cls-7{font-family:Corbel-Bold, Corbel;font-weight:700;}.cls-3,.cls-4,.cls-5,.cls-6{text-decoration:underline;}.cls-10,.cls-15,.cls-3,.cls-7{letter-spacing:0.07em;}.cls-4{letter-spacing:0.03em;}.cls-18,.cls-5{letter-spacing:0.07em;}.cls-12,.cls-13,.cls-6{letter-spacing:0.08em;}.cls-19,.cls-8,.cls-9{fill:none;stroke:#fff;stroke-miterlimit:10;}.cls-8{stroke-width:2.11px;}.cls-9{stroke-width:1.88px;}.cls-10,.cls-11,.cls-12{font-family:Corbel;}.cls-11{letter-spacing:0.05em;}.cls-14{letter-spacing:0.06em;}.cls-16{letter-spacing:0em;}.cls-17{letter-spacing:0.05em;}.cls-19{stroke-width:2px;}.cls-20{font-size:36px;}.cls-22{letter-spacing:-0.04em;}.cls-23{letter-spacing:-0.04em;}.cls-24{letter-spacing:-0.02em;}.cls-25{letter-spacing:-0.07em;}.cls-26{letter-spacing:-0.06em;}</style></defs><title>35</title><g id="bg"><rect class="cls-1" width="650" height="400"/></g><g class="cls-2"><text class="cls-3" transform="translate(80.65 277.73) scale(0.9 1)">KEY</text><text class="cls-4" transform="translate(114.01 277.73) scale(0.9 1)"> </text><text class="cls-5" transform="translate(117.85 277.73) scale(0.9 1)">A</text><text class="cls-6" transform="translate(129.55 277.73) scale(0.9 1)">CHIVEMENTS</text><text class="cls-7" transform="translate(239.44 277.73) scale(0.9 1)">:</text></g><rect class="cls-8" x="68" y="258.77" width="514" height="93.65"/><rect class="cls-9" x="68" y="109" width="514" height="53.41"/><g id="_1st_row" data-name=" 1st row"><g id="PROJECT_NAME_DUCKCREEK" data-name="PROJECT NAME DUCKCREEK"><g class="cls-2"><text class="cls-10" transform="translate(431.52 80.78) scale(0.9 1)">PR</text><text class="cls-11" transform="translate(452.78 80.78) scale(0.9 1)">O</text><text class="cls-12" transform="translate(465.39 80.78) scale(0.9 1)">JECT NAME</text><text class="cls-13" transform="translate(452.78 98.78) scale(0.9 1)">AHA<tspan class="cls-14" x="40.28" y="0"> </tspan><tspan class="cls-15" x="44.99" y="0">JA</tspan><tspan class="cls-16" x="66.76" y="0">P</tspan><tspan class="cls-15" x="77.51" y="0">AN</tspan></text></g></g><g id="ROLE_PROJECT_MANAGER" data-name="ROLE PROJECT MANAGER"><g class="cls-2"><text class="cls-12" transform="translate(137.29 78.94) scale(0.9 1)">ROLE</text><text class="cls-7" transform="translate(77.15 96.94) scale(0.9 1)">PR</text><text class="cls-17" transform="translate(99.48 96.94) scale(0.9 1)">O</text><text class="cls-7" transform="translate(112.16 96.94) scale(0.9 1)">JECT MAN</text><text class="cls-18" transform="translate(195.46 96.94) scale(0.9 1)">A</text><text class="cls-13" transform="translate(207.16 96.94) scale(0.9 1)">GER</text></g><rect class="cls-19" x="68" y="58.5" width="514" height="50.5"/></g></g><rect class="cls-1" x="290.66" y="42.84" width="79.56" height="29"/><text class="cls-20" transform="translate(299.96 71.84)">AIG</text><text class="cls-21" transform="translate(77.15 130.47)">Implementation of<tspan class="cls-22" x="145.45" y="0"> </tspan><tspan x="148.46" y="0">Guidewire </tspan><tspan class="cls-23" x="231.29" y="0">P</tspan><tspan x="241.31" y="0">olicy</tspan><tspan class="cls-22" x="277.48" y="0"> </tspan><tspan x="280.49" y="0">Center and Billing</tspan><tspan class="cls-22" x="418.4" y="0"> </tspan><tspan x="421.41" y="0">Center</tspan><tspan x="0" y="21.6">for</tspan><tspan class="cls-23" x="22.17" y="21.6"> </tspan><tspan x="25.08" y="21.6">AIG</tspan><tspan class="cls-24" x="53.98" y="21.6"> </tspan><tspan x="57.34" y="21.6">Japan P&amp;C Division</tspan></text><text class="cls-21" transform="translate(80.65 299.49)"><tspan class="cls-24">R</tspan><tspan x="10.95" y="0">esource Rampup: finding</tspan><tspan class="cls-22" x="203.8" y="0"> </tspan><tspan x="206.81" y="0">Guidewire with</tspan><tspan class="cls-24" x="324.5" y="0"> </tspan><tspan x="327.86" y="0">Japan L2 skill and </tspan><tspan x="0" y="21.6">many at</tspan><tspan class="cls-22" x="63.63" y="21.6"> </tspan><tspan x="66.64" y="21.6">Onsite was really a tough ask, we achived it with our</tspan><tspan x="0" y="43.2">partner</tspan><tspan class="cls-25" x="57.79" y="43.2"> </tspan><tspan class="cls-26" x="60.27" y="43.2">T</tspan><tspan x="69.39" y="43.2">eam</tspan></text></svg>