<svg id="Layer_1_Image" data-name="Layer 1 Image" xmlns="http://www.w3.org/2000/svg" viewBox="0 0 112.246 14.264"><defs><style>.cls-1{fill:none;}.cls-2{fill:#074bb1;}.cls-3{fill:#267cf9;}.cls-4,.cls-5{fill:#fff;}.cls-5{font-size:9.263px;font-family:MyriadPro-Bold, Myriad Pro;font-weight:700;}.cls-6{letter-spacing:-0.008em;}</style></defs><title>base_page_icon_work</title><rect class="cls-1" y="1.354" width="112.246" height="12.857"/><path class="cls-2" d="M33.212,13.806q-12.045,0-24.091,0A11.506,11.506,0,0,1,5.8,13.371a9.838,9.838,0,0,1-2.962-1.42A7.018,7.018,0,0,1,.572,9.3,5.148,5.148,0,0,1,0,6.861a5.821,5.821,0,0,1,1.124-3.28A7.357,7.357,0,0,1,2.782,1.906,9.6,9.6,0,0,1,6.385.3,13.429,13.429,0,0,1,9.3,0Q25.332.006,41.365,0a27.6,27.6,0,0,1,3.266.178,23.155,23.155,0,0,1,3.876.828,18.27,18.27,0,0,1,3.129,1.268,14.656,14.656,0,0,1,1.812,1.071c.31.22.607.453.929.665a6.591,6.591,0,0,1,.964.817c.418.41.825.829,1.2,1.265a11.784,11.784,0,0,1,1.781,2.777,10.088,10.088,0,0,1,.782,2.372,5.674,5.674,0,0,1,.166,1.748c-.02.152.1.282.024.449a.579.579,0,0,1-.63.384c-.354-.034-.706-.013-1.058-.013Q45.408,13.8,33.212,13.806Zm.025-.353q12.225,0,24.45,0a6.881,6.881,0,0,1,.952.019c.136.019.268-.043.243-.169-.1-.521-.051-1.048-.137-1.573a11.9,11.9,0,0,0-.451-1.792,10.622,10.622,0,0,0-1.462-2.813,13.173,13.173,0,0,0-2.489-2.648,17.413,17.413,0,0,0-1.571-1.138,17.715,17.715,0,0,0-2.654-1.383A20.389,20.389,0,0,0,46.779.889,18.749,18.749,0,0,0,42.618.364Q26.022.337,9.426.354a14.391,14.391,0,0,0-1.5.04A10.441,10.441,0,0,0,5.4.933,8.7,8.7,0,0,0,2.47,2.677,5.839,5.839,0,0,0,.5,6.272,4.974,4.974,0,0,0,.934,9.06a7.091,7.091,0,0,0,3.635,3.472,10.185,10.185,0,0,0,4.355.926Q21.08,13.441,33.237,13.453Z"/><path class="cls-3" d="M33.268,13.453q-12.205,0-24.411.005a10.259,10.259,0,0,1-4.372-.926A7.109,7.109,0,0,1,.835,9.06,4.958,4.958,0,0,1,.4,6.272,5.837,5.837,0,0,1,2.377,2.677,8.745,8.745,0,0,1,5.317.933,10.522,10.522,0,0,1,7.858.394a14.513,14.513,0,0,1,1.5-.04q16.662,0,33.325.01a18.9,18.9,0,0,1,4.178.525,20.507,20.507,0,0,1,3.352,1.069A17.826,17.826,0,0,1,52.88,3.341a17.384,17.384,0,0,1,1.578,1.138,13.2,13.2,0,0,1,2.5,2.648A10.615,10.615,0,0,1,58.425,9.94a11.907,11.907,0,0,1,.453,1.792c.086.525.032,1.052.137,1.573.025.126-.108.188-.244.169a6.925,6.925,0,0,0-.955-.019Q45.542,13.452,33.268,13.453Z"/><path class="cls-4" d="M50.166,6.288V6.7c-.163.048-.224.234-.462.2a5.79,5.79,0,0,0-1.02,0c-.2,0-.262.089-.262.248,0,1.511,0,3.021,0,4.531,0,.487-.05.544-.636.585l-.945,0c-.573-.039-.67-.123-.669-.606,0-1.33,0-2.66.01-3.99a2.3,2.3,0,0,0-.522-1.42,2.5,2.5,0,0,0-1.565-.774,2.372,2.372,0,0,0-1.652.287A3.385,3.385,0,0,1,42.073,6a1.706,1.706,0,0,0-.765.862,2.134,2.134,0,0,0-.182,1.061c-.013,1.33.042,2.66-.013,3.99-.008.18-.083.269-.31.3-.186.03-.389-.028-.56.071H39.8c-.116-.093-.263-.037-.394-.051-.3-.03-.439-.13-.444-.371q-.024-1.026-.024-2.05c0-.895.008-1.789.006-2.684,0-.236-.076-.278-.378-.267-.258.01-.517.015-.775.013-.218,0-.383-.088-.419-.266a.508.508,0,0,1,.176-.544c.32-.257.6-.559.935-.789a.916.916,0,0,0,.446-.962c-.01-.09-.005-.181-.006-.271,0-.856,0-1.713,0-2.57,0-.29.132-.462.386-.468.489-.012.978-.005,1.467,0,.2,0,.3.074.334.256.076.459,0,.917.033,1.374.005.07-.044.165.067.2s.188-.042.256-.1c.105-.093.2-.2.307-.287A8,8,0,0,0,43,1.368a.945.945,0,0,1,1.258-.159c.184.1.255.269.41.384a14.837,14.837,0,0,1,1.458,1.2c.461.447.984.848,1.472,1.275C48.446,4.813,49.365,5.505,50.166,6.288Z"/><path class="cls-4" d="M42.231,9.564a15.2,15.2,0,0,1,.056-1.982A.918.918,0,0,1,43.6,6.975a.727.727,0,0,1,.391.333,1.729,1.729,0,0,1,.253.865c0,.7.006,1.4,0,2.1a.647.647,0,0,1-.278.488c-.382.342-.779.671-1.184,1a.889.889,0,0,1-.116.095c-.1.055-.208.131-.325.093s-.109-.164-.11-.26C42.23,11.049,42.231,10.418,42.231,9.564Z"/><text class="cls-5" transform="translate(6.35 11.949)"><tspan class="cls-6">W</tspan><tspan x="8.151" y="0">ORK</tspan></text></svg>