<?xml version="1.0" encoding="utf-8"?>
<!-- Generator: Adobe Illustrator 19.1.0, SVG Export Plug-In . SVG Version: 6.00 Build 0)  -->
<svg version="1.1" id="Layer_1" xmlns="http://www.w3.org/2000/svg" xmlns:xlink="http://www.w3.org/1999/xlink" x="0px" y="0px"
	 viewBox="249.4 359.8 473.2 74.4" style="enable-background:new 249.4 359.8 473.2 74.4;" xml:space="preserve">
<style type="text/css">
	.st0{fill:#666766;}
	.st1{fill:#00739D;}
</style>
<g>
	<g>
		<g>
			<path class="st0" d="M385,415.7c-2.5,1.3-5.1,2.2-7.8,2.8c-2.7,0.6-5.5,0.9-8.3,0.9c-3,0-5.8-0.5-8.3-1.4s-4.7-2.3-6.6-4
				c-1.8-1.8-3.3-3.9-4.3-6.4s-1.5-5.3-1.5-8.4s0.5-5.9,1.5-8.4s2.5-4.6,4.3-6.4s4-3.1,6.6-4c2.5-0.9,5.3-1.4,8.3-1.4
				c3.1,0,5.9,0.4,8.5,1.1s4.9,2,6.8,3.8l-6,6.5c-1.2-1.2-2.5-2.1-3.9-2.7s-3.3-0.9-5.4-0.9c-1.8,0-3.5,0.3-4.9,0.9
				c-1.5,0.6-2.7,1.5-3.8,2.6c-1.1,1.1-1.9,2.4-2.4,3.9c-0.6,1.5-0.8,3.2-0.8,4.9c0,1.8,0.3,3.5,0.8,5c0.6,1.5,1.4,2.8,2.4,3.9
				c1.1,1.1,2.3,2,3.8,2.6s3.1,0.9,4.9,0.9s3.4-0.2,4.8-0.6c1.3-0.4,2.4-0.8,3.2-1.3v-6.2H370v-7.8h15V415.7z"/>
			<path class="st0" d="M433.1,403.6c0,2.3-0.3,4.4-1,6.3s-1.7,3.6-3.1,5s-3.1,2.5-5.1,3.3s-4.4,1.2-7,1.2c-2.7,0-5-0.4-7.1-1.2
				c-2-0.8-3.7-1.9-5.1-3.3s-2.4-3.1-3.1-5s-1-4-1-6.3V380h8.5v23.3c0,1.2,0.2,2.3,0.6,3.3s0.9,1.9,1.6,2.6s1.5,1.3,2.5,1.7
				c1,0.4,2,0.6,3.1,0.6s2.2-0.2,3.1-0.6s1.8-1,2.4-1.7c0.7-0.7,1.2-1.6,1.6-2.6s0.6-2.1,0.6-3.3V380h8.5V403.6z"/>
			<path class="st0" d="M449,379.9h8.5v38.5H449V379.9z"/>
			<path class="st0" d="M473.3,379.9H486c3.1,0,6,0.3,8.8,1s5.2,1.8,7.3,3.3c2.1,1.5,3.7,3.5,4.9,6c1.2,2.5,1.8,5.5,1.8,9
				c0,3.1-0.6,5.9-1.8,8.2c-1.2,2.4-2.8,4.4-4.8,6s-4.3,2.8-6.9,3.7c-2.6,0.8-5.3,1.2-8.2,1.2h-13.9v-38.4H473.3z M481.8,410.6h4.4
				c2,0,3.8-0.2,5.5-0.6s3.1-1.1,4.4-2c1.2-0.9,2.2-2.1,2.9-3.6c0.7-1.5,1.1-3.3,1.1-5.5c0-1.9-0.4-3.5-1.1-4.9s-1.7-2.5-2.9-3.5
				c-1.2-0.9-2.6-1.6-4.2-2c-1.6-0.5-3.3-0.7-5.1-0.7h-5L481.8,410.6L481.8,410.6z"/>
			<path class="st0" d="M523,379.9h26.1v7.8h-17.7v7.2h16.7v7.8h-16.7v7.8H550v7.8h-27V379.9z"/>
			<path class="st0" d="M561.1,379.9h9.2l6.1,24.7h0.1l8-24.7h7.9l8,25.3h0.1l6.5-25.3h8.6l-11.2,38.5h-7.6l-8.5-26.6h-0.1
				l-8.5,26.6h-7.3L561.1,379.9z"/>
			<path class="st0" d="M627.5,379.9h8.5v38.5h-8.5V379.9z"/>
			<path class="st0" d="M651.8,379.9h14.9c2,0,3.8,0.2,5.6,0.6s3.3,1,4.6,1.9s2.4,2.1,3.2,3.6s1.2,3.4,1.2,5.6c0,2.7-0.7,5-2.1,6.9
				c-1.4,1.9-3.5,3.1-6.2,3.6l9.8,16.2h-10.2l-8-15.4h-4.2v15.4h-8.5L651.8,379.9L651.8,379.9z M660.3,395.8h5c0.8,0,1.6,0,2.4-0.1
				c0.9-0.1,1.6-0.2,2.3-0.5s1.3-0.7,1.7-1.3c0.5-0.6,0.7-1.4,0.7-2.4s-0.2-1.8-0.6-2.3c-0.4-0.6-0.9-1-1.5-1.3s-1.3-0.5-2.1-0.6
				s-1.6-0.2-2.3-0.2h-5.5v8.7H660.3z"/>
			<path class="st0" d="M695.5,379.9h26.1v7.8H704v7.2h16.7v7.8H704v7.8h18.6v7.8h-27.1V379.9z"/>
		</g>
	</g>
	<polygon class="st1" points="323.8,374.7 323.8,359.8 264.3,359.8 249.4,359.8 249.4,374.7 249.4,419.3 249.4,434.2 249.4,434.2 
		264.3,434.2 264.3,434.2 294,434.2 294,419.3 264.3,419.3 264.3,374.7 	"/>
	<polygon class="st1" points="323.8,389.6 323.8,404.4 323.8,404.4 323.8,434.2 308.9,434.2 308.9,404.4 279.1,404.4 279.1,389.6 	
		"/>
</g>
</svg>
