<svg id="Layer_1" data-name="Layer 1" xmlns="http://www.w3.org/2000/svg" viewBox="0 0 316.79 379.06"><defs><style>.cls-1{fill:#5663aa;}.cls-2{fill:#23bae6;}.cls-3{fill:#fff;}</style></defs><title>AKUR8 logo white</title><path class="cls-1" d="M195.57,72.15c12.05,10.06,18.65,23.26,23.76,37.91,20.41,58.6,41.41,117,62.18,175.46,2.86,8.07,2.83,7-5,7-14.82,0-29.68-.87-44.45,0-24.93,1.39-50.19-19-57.72-41C168.08,233.29,161.49,215.15,155,197c-.55-1.55-1.29-3-1.94-4.54a11.36,11.36,0,0,0-.35-2Q134.37,138.7,116,86.94q-5-14-10-27.94h0l54.36.15a54.87,54.87,0,0,1,14.16,2.2C182.27,63.46,188.89,67.87,195.57,72.15Z" transform="translate(-3.94 -7.35)"/><path class="cls-2" d="M106,59q5,14,10,27.94,18.39,51.77,36.75,103.54a11.36,11.36,0,0,1,.35,2c-3.33,8.69-6.37,17.51-12.57,24.77-12.87,15.1-28.57,24-49,23.62-15.48-.3-31-.11-46.46,0-3.42,0-4.29-.55-3-4.12q31.12-87.18,62.05-174.44C104.51,61.12,104.52,59.62,106,59Z" transform="translate(-3.94 -7.35)"/><path class="cls-2" d="M195.57,72.15c-6.68-4.28-13.3-8.69-21.11-10.8a54.87,54.87,0,0,0-14.16-2.2L105.94,59C111.15,29.72,138,7.59,163.86,7.47c16.79-.07,33.58,0,50.37-.12,3.68,0,4.15.89,2.92,4.28C209.85,31.76,202.75,52,195.57,72.15Z" transform="translate(-3.94 -7.35)"/><path class="cls-3" d="M254.6,357c6.44,3.16,6.84,8.63,7,14.25.13,4.71-.79,9.6,3.3,14.46-4.94,0-8.86-.06-12.77,0-2.17.05-2.24-1.52-2.61-2.95-1-3.77-.51-7.62-.67-11.44-.31-7.29-2.19-9.19-9.29-9.36-12.16-.29-12.16-.29-12.16,12a37.25,37.25,0,0,0,0,6c.82,4.94-1.16,6.22-5.93,5.89-6.47-.45-6.49-.11-6.49-6.76q0-21.72,0-43.46c0-7.4,2.86-10.34,10.26-10.34s15-.1,22.45.43c7.93.57,13.36,5.4,15,12.41C264.55,345.53,261.87,352.1,254.6,357Zm-17.92-21.15c-9.32,0-9.32,0-9.32,9.22a33.45,33.45,0,0,1,0,3.47c-.26,2.45.44,3.64,3.22,3.48,4-.22,7.94.05,11.91-.12,5.58-.23,8.11-2.8,8.08-7.88,0-5.35-2.66-7.91-8.42-8.15C240.32,335.83,238.5,335.89,236.68,335.88Z" transform="translate(-3.94 -7.35)"/><path class="cls-3" d="M130.67,385.73c-5.24,0-9.54-.17-13.82.07-2.54.13-3.48-1.45-4.62-3.08-5.35-7.59-10.72-15.18-16.26-23-4.27,3.07-7.19,6.36-6.19,11.93a26.92,26.92,0,0,1,0,6.47c-.18,2.43,1.25,6.21-.73,7-3,1.21-6.81.62-10.27.57-2,0-1.57-1.78-1.57-3,0-18.13,0-36.27,0-54.4,0-2,.52-2.84,2.76-3,9.89-.8,9.89-.89,9.89,8.85q0,6.74,0,13.47c0,.33.07.66.16,1.43,2.48-1,3.71-3.21,5.33-4.87,3.38-3.44,7.09-6.69,9.83-10.6,5.84-8.36,13.77-9.48,23.64-7.59l-18.37,18.43c-5.84,5.84-5.84,5.84-1,12.38Z" transform="translate(-3.94 -7.35)"/><path class="cls-3" d="M194.21,347.31c0,5.82.2,11.65-.05,17.47-.59,13.9-7.09,20.46-21,21.51a36,36,0,0,1-5,.07c-15-.87-21.94-8-22.13-23.13-.13-9.82,0-19.64-.05-29.46,0-4.34,1.7-7.46,5.88-8.79,5.49-1.74,7-.52,7,5.16,0,11.48-.13,23,.12,34.45.18,8,4.41,11.62,12.1,11.14,6.28-.38,9.73-3.19,10-9.55.46-12.13.53-24.29.34-36.42-.06-4.05.78-5.93,5.08-5.15a9,9,0,0,0,3,0c3.76-.58,5.22.64,4.95,4.73-.4,6-.11,12-.11,18Z" transform="translate(-3.94 -7.35)"/><path class="cls-3" d="M3.94,385.74c6.71-18.78,13.1-36.94,19.72-55C25.39,326,35,323,39.26,325.5a3.83,3.83,0,0,1,1.32,2c6.82,19.23,13.61,38.47,20.52,58-1.22.11-2,.21-2.79.23-10.44.22-10.54.25-13.88-9.46-.78-2.26-1.66-3.33-4.15-3.12s-5,.05-7.49.05c-10.81,0-10.9,0-14.62,9.88-.81,2.16-1.86,2.79-4,2.69C11,385.63,7.88,385.74,3.94,385.74Zm36.12-23-7.53-23.39-7.71,23.39Z" transform="translate(-3.94 -7.35)"/><path class="cls-3" d="M312.59,352.69c6.37,4.62,9.23,10.83,7.77,18.62-2.12,11.27-14,17.31-27.2,14.13-6.74-1.62-11.38-5.67-13-12.33-1.75-7-.7-13.69,5.46-18.44,2.15-1.66,1.66-2.22,0-3.89a14.69,14.69,0,0,1,3.95-23.57,22.73,22.73,0,0,1,21.15.09C320.59,332.38,321.38,344,312.59,352.69Zm-12.73,5.36c-5.35.13-8.36,3.71-8.18,9.71.18,5.6,3.43,8.87,8.67,8.72s8.58-4,8.32-9.71C308.42,361.29,305,357.92,299.86,358.05Zm7.67-16.14c.08-4.53-2.87-7.53-7.41-7.55s-7.46,2.85-7.43,7.45c0,4.42,2.67,7.12,7.09,7.25C304.41,349.2,307.45,346.4,307.53,341.91Z" transform="translate(-3.94 -7.35)"/></svg>