<svg id="Layer_1" data-name="Layer 1" xmlns="http://www.w3.org/2000/svg" viewBox="0 0 461.39 330.84"><defs><style>.cls-1{fill:#f2502e;}</style></defs><title>earnix logo on top</title><path class="cls-1" d="M294.13,364.25c-.87-5.36,1.91-9.27,5.41-12.78,5.94-6,12.12-11.65,17.91-17.72s12-12,17.92-18c5.39-5.48,11-10.72,16.38-16.23,2.59-2.66,5-5.43,8.45-7.09a15.69,15.69,0,0,1,12.17-1.11,19.39,19.39,0,0,1,6.91,3.79c3.09,2.69,4,6.21,4.68,9.8,1.05,5.51-1.08,10.06-4.83,14.1C374,324.5,368.7,329.8,363.3,335c-4.94,4.78-9.53,9.92-14.57,14.58-5.45,5-10.44,10.53-15.72,15.74-3.88,3.82-7.77,7.65-11.63,11.49-3.51,3.49-8,4.65-12.94,4-2.87-.36-5.78-.84-8.05-2.78C296.17,374.48,293.23,370.22,294.13,364.25Z" transform="translate(-145.11 -251.44)"/><path class="cls-1" d="M392.49,346.28c0-.7,0-1.41,0-2.1a8.88,8.88,0,0,1,3.28-7.82,73.6,73.6,0,0,0,6.54-6.56c2.94-3,6.36-5.52,8.9-9,1.8-2.45,4.46-4.24,6.57-6.48,1.34-1.41,3.31-2.29,3.87-4.39.15-.55.66-.75,1.08-.92,1.87-.73,1.64-1.94.91-3.37-.88-1.75-2.41-2.79-3.88-4a60.12,60.12,0,0,1-7.26-7.19,68.33,68.33,0,0,0-6.66-6.63c-2.91-2.51-5.25-5.61-8.05-8.21a16.66,16.66,0,0,1-5.59-10.41c-.36-3.31-.32-7,2.36-9.86.71-.75,1.14-1.77,1.85-2.52,4.24-4.48,9.49-6,15.35-4.34a12.48,12.48,0,0,1,6.55,4.33c2.15,3,5.2,4.82,7.59,7.43,4.48,4.88,9.24,9.47,14.15,13.93,1.68,1.52,3.18,3.28,4.94,4.78,1.61,1.38,2.69,1.55,4.29.12,1.25-1.12,2.35-2.4,3.54-3.59,2.42-2.45,4.89-4.87,7.28-7.36a23.1,23.1,0,0,0,3.64-3.95,1.94,1.94,0,0,1,1.45-1.08,1.28,1.28,0,0,0,1-.63c1.63-3.1,5.31-4.38,6.89-7.29,1.13-2.08,3.53-2.4,4.52-4.47.51-1.1,2.12-.84,3.25-1.09a6.64,6.64,0,0,0,2.69-1.1,5.21,5.21,0,0,1,5.75-.45,50.47,50.47,0,0,0,5.47,2.59c5.24,2,6.19,6.6,7.13,11.19.44,2.18-.67,4.23-1,6.34-.76,4.72-4.54,7-7.32,10.1-2.21,2.44-4.58,4.73-6.81,7.16-2,2.11-4.12,4.1-6.28,6-3.41,3.09-6.38,6.59-9.68,9.78-1.08,1-.87,2-.17,3.35,2.22,4.21,6.38,6.48,9.42,9.84,2.8,3.09,6.34,5.51,8.38,9.28.1.18.19.42.35.51,2.73,1.48,4.6,4,6.89,5.94a37.73,37.73,0,0,1,6,7.39c.74,1.06.13,2.61.24,3.94.57,7.07-3.07,11.93-8.79,15.16-3.24,1.83-7.17,1.31-10.86.67-2.91-.5-5.05-2.24-7.05-4.21-4.26-4.21-8.6-8.36-12.73-12.71s-8.74-8.14-12.71-12.62c-2.24-2.53-3.16-2.44-5.46-.06-2.5,2.6-5,5.19-7.64,7.66-3.05,2.9-6.1,5.85-9,8.86-3.17,3.26-6.68,6.19-9.54,9.79a9,9,0,0,1-7.5,3.55,4.69,4.69,0,0,0-.84,0c-7.35,1.25-12.32-2.42-16.31-8a7.05,7.05,0,0,1-1-3.82c0-1.19,0-2.39,0-3.58Z" transform="translate(-145.11 -251.44)"/><path class="cls-1" d="M374.09,443.29c-.26-3.62,1.28-6.74,4.1-9.68,4-4.21,8-8.61,12.41-12.31,5.23-4.38,8.86-10.31,14.56-14.16a15.78,15.78,0,0,0,3.19-3.59,26.49,26.49,0,0,1,5.87-5.66,17.16,17.16,0,0,0,4.35-4.44c2.4-3.43,6.08-5.58,8.73-8.74,3.42-4.09,7.53-7.49,11.14-11.39a3.14,3.14,0,0,1,1.09-.57c2.06-.87,4.41-.7,6.4-1.89a2.38,2.38,0,0,1,1.84.11,7.3,7.3,0,0,0,3,.74c4.88-.16,7.15,3.67,9.31,6.75,2,2.91,1.88,6.88,1.74,10.57-.21,5.43-4.15,8.44-7.5,11.81-2.69,2.7-5.58,5.18-7.82,8.34s-5.81,5.44-8.71,8.17a17.46,17.46,0,0,0-3.79,4.36,7.09,7.09,0,0,1-2.64,2.66,17.1,17.1,0,0,0-3.67,3.09c-4.19,4.22-7.87,9-12.51,12.72-2.41,1.94-3.58,5-6.2,6.62a16.84,16.84,0,0,0-5.71,5.13c-2.54,4.14-6.48,6-10.77,7.46a10.16,10.16,0,0,1-5.62.16C379.07,457.58,374,452.34,374.09,443.29Z" transform="translate(-145.11 -251.44)"/><path class="cls-1" d="M295.07,444.66a23.57,23.57,0,0,1,.35-5.17,12.1,12.1,0,0,1,4.38-7c2.05-1.8,3.52-4.29,5.66-5.93,1.81-1.38,2.92-3.32,4.71-4.7,2.05-1.56,3.67-3.68,5.55-5.48,2.51-2.4,4.73-5.07,7.3-7.41a33.73,33.73,0,0,0,3.51-3.74,48.73,48.73,0,0,1,4.18-3.91c2.29-2.2,4.24-4.77,6.63-6.74s4.18-4.56,6.59-6.51c1.37-1.11,2.33-2.85,3.68-3.81,1.9-1.36,2.75-3.8,5.22-4.51,1.08-.3,1.79-1.6,2.37-2.47,1-1.55,2.58-2.5,3.77-3.82,1.61-1.78,4.17-1.34,6.28-2,3.44-1,6.94-.07,9.69,1.3a13.64,13.64,0,0,1,6.63,7c1.36,3.71,1,7.69.58,11.59-.33,2.74-2.29,4.47-4,6.28a116.79,116.79,0,0,1-10.12,10,95.35,95.35,0,0,0-6.76,6.89c-2.92,3-6.57,5.38-8.78,9.09-.69,1.15-2.07,1.61-3,2.66-1.72,1.92-3.78,3.58-5.58,5.47-1.57,1.67-3.13,3.36-4.74,5a36.43,36.43,0,0,1-3.64,3.39,21.39,21.39,0,0,0-3.88,4.19A18.27,18.27,0,0,1,328,448a32.39,32.39,0,0,0-6.26,5.89c-3.9,5-8.95,5.19-14.35,5.08a5.48,5.48,0,0,1-3.18-1,10.45,10.45,0,0,0-3.53-1.76,3.71,3.71,0,0,1-2.67-2.47C296.88,450.56,294.06,447.9,295.07,444.66Z" transform="translate(-145.11 -251.44)"/><path class="cls-1" d="M492.93,538.15q0-20.65,0-41.32c0-.92.32-1.32,1.24-1.32,6,0,12,0,18,0,1,0,1.54.45,1.54,1.63q-.06,39.87,0,79.76c0,.79,0,1.59,0,2.39,0,1.39-.34,1.79-1.75,1.79-3.08,0-6.16,0-9.24,0h-7c-2.73,0-2.79-.06-2.79-2.83V538.15Z" transform="translate(-145.11 -251.44)"/><path class="cls-1" d="M197.7,543H167.84c-.72,0-1.43.15-2.14.17-1.21,0-1.55.72-1.43,1.72.2,1.78.14,3.7.84,5.26.61,1.38.7,3.14,2.16,4.11a1.1,1.1,0,0,1,.35.61,9.91,9.91,0,0,0,3,4.13,6.36,6.36,0,0,1,.94.93c1.1,1.63,2.84,2.18,4.53,2.9a23.91,23.91,0,0,1,3.88,1.8,7.38,7.38,0,0,0,3.53,1c4.24.42,8.52.91,12.72,0a35.39,35.39,0,0,0,8-2.88c2.34-1.15,4.27-2.84,6.47-4.14.82-.49,1.29-1.59,2.51-1.32.23.06.56,0,.67.18,1,1.33,2.52,2.05,3.55,3.32a34.37,34.37,0,0,0,3.63,3.61c1.1,1,1.85,2.34,3,3.28.35.27,0,.65-.27.9q-3.78,3-7.42,6.12c-1.44,1.24-3.14,1.62-4.68,2.48a77.29,77.29,0,0,1-7.7,3.36c-.19.08-.37.24-.55.23-1.67,0-3.16.69-4.73,1a46,46,0,0,1-8.46.54c-3.32.09-6.62-.31-9.93-.3-1.16,0-2-.8-3.18-1a13.94,13.94,0,0,1-4-.75c-2.43-1.16-4.89-2.27-7.33-3.4a9.6,9.6,0,0,0-1-.47c-3.06-1-5.15-3.24-7.31-5.41-.57-.57-1.37-.82-1.85-1.5-1.38-1.92-2.74-3.86-4.18-5.74-2.76-3.58-3.85-7.93-5.42-12-.61-1.58-.43-3.45-.69-5.18-.64-4.28-.15-8.57-.2-12.86,0-2.58.72-5.1.77-7.7,0-.77.9-1.23.94-2.13.12-2.47,1.46-4.5,2.52-6.65a39,39,0,0,1,2.21-4.32c.88-1.33,1.51-2.84,2.83-3.86a8.76,8.76,0,0,0,1.76-1.93c.68-1,1.78-1.51,2.57-2.43,1.83-2.14,4.52-3.18,6.73-4.82,2.57-1.91,5.59-2.57,8.4-3.78,1-.43,2.21-.35,3.26-.68,5-1.56,10-1.33,15.14-1.22a39.92,39.92,0,0,1,9.39,1.57A17.26,17.26,0,0,1,207.3,498c.07,0,.12.11.19.14,5.17,2,9.1,5.57,12.71,9.62a28.45,28.45,0,0,1,5.65,8.45c.84,2.17,1.79,4.29,2.53,6.51,1.84,5.49,2.1,11.11,2.06,16.79,0,3.2-.23,3.42-3.35,3.42H197.7Zm-9.94-14.46h20.61c1.59,0,1.83-.29,1.88-1.89.08-3.09-1.27-5.57-3.22-7.84a26.66,26.66,0,0,0-6.6-5.18c-1-.58-2.26-.65-3-1.67,0-.07-.22-.06-.34-.07-3.39-.17-6.72-1.11-10.17-.78s-6.89.53-10.06,2.06a16.67,16.67,0,0,0-4.45,2.53c-1.72,1.62-3.63,3-5,5a21.56,21.56,0,0,0-2.48,5.4c-.48,1.39.19,2.17,1.68,2.38a7.64,7.64,0,0,0,1,0Z" transform="translate(-145.11 -251.44)"/><path class="cls-1" d="M403.63,538.69q0-19.94,0-39.88a4.25,4.25,0,0,1,.14-1.54,1.8,1.8,0,0,1,1.94-1.36c4.24.07,8.48,0,12.71,0,1.11,0,2.2-.05,3.31,0s1.35.46,1.34,1.44c0,2.56,0,5.11,0,7.67,0,1.36.17,1.44,1.44.85a2.08,2.08,0,0,0,.83-.67,23.84,23.84,0,0,1,7.6-6.73c1.3-.78,2.75-1,4-1.73a11.48,11.48,0,0,1,3.83-1.43,39.57,39.57,0,0,1,10.65-.89,42.42,42.42,0,0,1,8.73,1.61,34.3,34.3,0,0,1,6.1,2.49c2.49,1.32,4.14,3.69,6.69,4.88a1,1,0,0,1,.38.44c1.12,2.09,2.51,4,3.81,6a5.62,5.62,0,0,1,.62,1.42,13.61,13.61,0,0,0,1.44,3.38c.85,1.31.44,2.88.78,4.31,1.81,7.68.77,15.49.94,23.23.18,8.94,0,17.88,0,26.83,0,3.32.13,6.65.18,10,0,1.4-.18,1.59-1.59,1.6H463.35c-1.54,0-1.7-.17-1.7-1.73q0-22.1,0-44.19c0-3.44.1-6.85-1-10.24-1.38-4.1-3.17-7.68-7.1-10a19.43,19.43,0,0,0-9.12-2.57c-.88-.05-1.77.06-2.64,0-3-.28-5.51,1.07-8.17,2.19-3.07,1.28-4.95,3.76-7.18,5.93-.14.14-.33.29-.36.46-.38,1.81-1.4,3.36-2.09,5-1.38,3.36-1,6.8-1.05,10.23,0,11.25,0,22.51,0,33.77,0,2.84-.13,5.68-.2,8.52v.12c.08,2.48.08,2.48-2.41,2.48h-15c-1.56,0-1.63-.08-1.63-1.63V538.69Z" transform="translate(-145.11 -251.44)"/><path class="cls-1" d="M535.32,580.53h-9.11c-.43,0-1,.12-1.15-.4s.36-.75.66-1.1a7.84,7.84,0,0,0,2.11-3.35c.1-.46.22-.84.72-1,.14,0,.34-.15.37-.27.56-2.07,2.34-3.34,3.51-5a59.29,59.29,0,0,1,5.39-7.13,26.57,26.57,0,0,0,2.64-3.74c1.17-1.73,1.92-3.7,3.59-5.15a16.49,16.49,0,0,0,2.8-4c.73-1.19,2.23-1.81,2.61-3.19.74-2.72,3.21-4.1,4.62-6.29.78-1.19.71-1.88,0-3.15a42.79,42.79,0,0,0-3.24-4.3c-.71-.95-1.27-2.06-2-3.06s-1.26-2.11-2.5-2.58a.38.38,0,0,1-.2-.29c-.08-1.55-1.18-2.67-2.06-3.66-1.36-1.54-1.39-4.13-3.78-4.84a.78.78,0,0,1-.42-.4c-.82-1.87-2.6-3-3.58-4.82a13.77,13.77,0,0,1-1.23-2.23c-.24-.7-.92-1-1.39-1.52-1.65-1.69-2.62-3.88-4.19-5.58-1-1.13-1.7-2.49-2.7-3.63a5.69,5.69,0,0,1-1.35-2.85c-.12-.78.1-1.13,1-1.18,4.32-.26,8.63-.1,13-.15,1,0,2.09.1,3.11,0,2.42-.29,3.72.94,4.88,2.91a20,20,0,0,0,3.45,4.47,17.08,17.08,0,0,1,2.23,3.17,80.83,80.83,0,0,0,4.92,6.86c1.43,1.75,2.58,3.72,4,5.44,1,1.15,1.83,2.37,2.77,3.54s1.26,1,1.83-.22c.08-.18.14-.42.28-.52,2.36-1.74,3.54-4.4,5.22-6.66,2.3-3.08,4.47-6.24,6.78-9.31,1.33-1.77,2.5-3.67,3.94-5.35,1-1.2,1.61-2.73,3-3.67a2.35,2.35,0,0,1,1.42-.49l18.35,0c.31,0,.7-.14.89.18s-.24.52-.37.78c-.91,1.91-2.42,3.42-3.41,5.28-.46.87-1.46,1.18-2,2.14-1.68,3.16-4.16,5.81-6.09,8.81-1.61,2.5-3.76,4.57-5.34,7.13a19.85,19.85,0,0,1-2.81,3.48,9.85,9.85,0,0,0-1.25,1.74c-1,1.61-2.26,3.12-3.22,4.74s-2.42,3-3.31,4.74a6,6,0,0,1-.76,1.07c-1.34,1.61-1.52,2.79-.18,4.4,2.42,2.89,4.66,5.92,6.87,9,1.78,2.47,3.5,5,5.4,7.37,1.41,1.75,2.08,3.94,3.54,5.61.83,1,1.43,2,2.2,3a47.49,47.49,0,0,0,3.41,4.1,13.47,13.47,0,0,1,1.73,2.82,14,14,0,0,0,2.17,2.81c1.09,1.1,1.56,2.59,2.57,3.77.83,1,.31,1.69-1,1.69H588.19a4.16,4.16,0,0,1-3.78-2.06c-1.59-2.25-3.13-4.56-4.87-6.74s-3.92-4.45-5-7.29a1.29,1.29,0,0,0-.38-.6c-1.52-1.12-2.21-2.88-3.36-4.28a35.4,35.4,0,0,1-2.67-4.05,3.58,3.58,0,0,0-1.84-1.78,1.84,1.84,0,0,0-2.39,1.26c-.56,1.4-1.8,2.29-2.53,3.56-2,3.48-4.95,6.21-7.15,9.55a34.67,34.67,0,0,1-4.52,5.87,2.14,2.14,0,0,0-.62,1c-.46,2-2.22,3.24-3.24,4.91a1.6,1.6,0,0,1-1.56.65c-3,0-6,0-9,0Z" transform="translate(-145.11 -251.44)"/><path class="cls-1" d="M308.4,581a1.85,1.85,0,0,1-.29-1.66,4.89,4.89,0,0,0,.06-2,21.13,21.13,0,0,1,0-5.15,1.61,1.61,0,0,0-.24-1c-.2-.32-.24-.85-.74-.83s-.51.54-.71.87a13.41,13.41,0,0,1-5.09,5.34,6.31,6.31,0,0,0-1.35,1,6.12,6.12,0,0,1-2,1.23,13.45,13.45,0,0,0-3.66,1.54c-1,.77-2.41.39-3.58.75a37.41,37.41,0,0,1-11.2,1.22,17.1,17.1,0,0,1-4.76-.31c-3.56-1-7.42-.93-10.75-2.87-1.81-1.06-3.8-1.83-5.58-2.9-1.3-.78-2.47-1.87-3.73-2.75-2.46-1.73-4.33-4.06-6.43-6.13a28.49,28.49,0,0,1-2.09-3,36.6,36.6,0,0,1-4.07-7.63,35,35,0,0,1-2.48-8,66.92,66.92,0,0,1-.82-14.74,40.37,40.37,0,0,1,.94-6.24c.19-1,.39-2,.48-3a10.87,10.87,0,0,1,1.19-3.28c.81-1.89,2.21-3.47,2.67-5.52a10.64,10.64,0,0,1,1.33-2.76c1.72-3,4.37-5.13,6.83-7.42,1.27-1.17,2.47-2.43,3.86-3.51a36.46,36.46,0,0,1,8-4.79A10.25,10.25,0,0,1,266,497c1.39-.32,2.46-1.47,4-1.44a9.46,9.46,0,0,0,2.37-.25,40.51,40.51,0,0,1,11.56-1.05c2.44.13,4.73.93,7.1,1.3,1.87.29,3.42,1.44,5.3,1.67a1.68,1.68,0,0,1,1,.74,2.85,2.85,0,0,0,2.23,1.22,4.72,4.72,0,0,1,2.81,1.63,18.11,18.11,0,0,0,2.73,2.59,3.39,3.39,0,0,1,1.12,2.06c.15.54.54.75.91,1s.76.13.89-.31a7.09,7.09,0,0,0,.39-2.1c0-2.36,0-4.71,0-7.07,0-.9.26-1.29,1.23-1.29,5.15,0,10.31,0,15.47,0a12.89,12.89,0,0,1,2.13.25c.77.12.84.72.84,1.36,0,3,0,6,0,9v71.62c0,2.77,0,2.77-2.7,2.77h-15.6c-.47,0-1-.11-1.37.26Zm-24.63-69.05c-4.92-.62-9.1,1.3-13.31,3.09a1.18,1.18,0,0,0-.46.37,9.6,9.6,0,0,1-2.55,2,54.62,54.62,0,0,0-3.88,3.88,12.6,12.6,0,0,0-2.25,3.21,21,21,0,0,0-1.75,3.69,26.26,26.26,0,0,0-1.61,9.68,18.87,18.87,0,0,1,.05,3.19c-.28,2.52.89,4.72,1.4,7.07a2,2,0,0,0,.36.75c1.45,1.89,1.65,4.41,3.57,6.17s3.24,4.14,5.83,5.14a.9.9,0,0,1,.37.3,6.42,6.42,0,0,0,4,2.26c1.77.41,3.32,1.36,5.19,1.58a42.15,42.15,0,0,0,10.35-.07,19.2,19.2,0,0,0,6.5-2.43,26.37,26.37,0,0,0,8.79-7.25c.8-1.05,1.26-2.35,2-3.3,1.09-1.33,1.45-2.89,2.14-4.33.91-1.91.77-4,1-6.09.14-1.54-.1-3.13.1-4.66.35-2.54-.81-4.79-1.11-7.19,0-.11-.13-.2-.19-.31-.8-1.62-2-3-2.68-4.73a7.48,7.48,0,0,0-2.11-3.24c-2.14-1.68-4-3.65-6.41-5.08a37.3,37.3,0,0,0-4.23-2.22C290,512.18,286.89,511.32,283.77,511.92Z" transform="translate(-145.11 -251.44)"/><path class="cls-1" d="M361,556.7q0,11,0,22c0,1.71-.13,1.83-1.86,1.83-5.24,0-10.48,0-15.71,0-1.06,0-1.47-.26-1.5-1.4-.28-11.85-.16-23.69-.17-35.54q0-19.62,0-39.23c0-2.39.15-4.78.2-7.17,0-.92.36-1.34,1.37-1.33,5.48,0,11,0,16.43,0,.92,0,1.33.3,1.26,1.25-.23,2.9.4,5.8,0,8.71-.06.49,0,.94.58,1.16s.84-.27,1.06-.65a22.75,22.75,0,0,1,8.35-8,25.16,25.16,0,0,1,10.73-3.48c1.82-.16,3.64-.33,5.45-.56,1.5-.2,2.83.35,4.25.44.36,0,.47.37.56.69a9.34,9.34,0,0,1,.43,2.46c0,3.31.13,6.64-.08,9.94-.09,1.49.49,3.06-.35,4.53-.24.43-.39.45-.84.53-4.12.69-8.31-.47-12.43.51-4.53,1.09-8.61,2.82-11.85,6.39-1.76,1.94-2.81,4.22-4.18,6.36-1.76,2.74-1.51,5.73-1.6,8.59-.24,7.3-.08,14.61-.08,21.91Z" transform="translate(-145.11 -251.44)"/><path class="cls-1" d="M503.21,484.25c-2.8,0-5.6,0-8.4,0-.65,0-1.08-.11-1.07-.89,0-.51-.16-1-.16-1.54q0-7.84,0-15.69c0-1.59.23-1.84,1.78-1.81,1.71,0,3.43.18,5.14.17,2.91,0,5.83-.13,8.74-.16s4,1,3.8,4c-.26,3.58-.15,7.16-.17,10.74a25.79,25.79,0,0,1,0,4c-.14.89-.46,1.15-1.29,1.14C508.81,484.23,506,484.25,503.21,484.25Z" transform="translate(-145.11 -251.44)"/></svg>