<svg id="Layer_1" data-name="Layer 1" xmlns="http://www.w3.org/2000/svg" viewBox="0 0 513.74 319.1"><defs><style>.cls-1{fill:#7f35b2;}.cls-2{fill:#345499;}.cls-3{fill:#327fef;}.cls-4{fill:#5663aa;}.cls-5{fill:#23bae6;}.cls-6{fill:#fff;}.cls-7{fill:#ffe8ff;}</style></defs><title>wtw_radar and akur8</title><path class="cls-1" d="M195.42,168.06a74.62,74.62,0,1,1-5.85-110.79l11.16-11.16a90.34,90.34,0,1,0,31.74,78.78,1.47,1.47,0,0,0-1.47-1.62H218.11a1.48,1.48,0,0,0-1.46,1.3,74.19,74.19,0,0,1-21.23,43.49Z" transform="translate(-52.35 -10.6)"/><path class="cls-1" d="M142.71,150.76a35.35,35.35,0,1,1,18.7-65.32l11.32-11.32A51.05,51.05,0,1,0,192.86,125a1.46,1.46,0,0,0-1.45-1.72h-13.1a1.47,1.47,0,0,0-1.42,1.12A35.4,35.4,0,0,1,142.71,150.76Z" transform="translate(-52.35 -10.6)"/><path class="cls-2" d="M169.16,99.9V77.68l-2.45,2.46v22.21Zm6.38-6.38V71.3l-2.45,2.45V96Zm6.38-6.39V64.92l-2.45,2.45V89.59Zm-38.29,29.14V103.21l-2.45,2.45v8.15Zm12.77-3.61V90.45l-2.46,2.45v22.22Zm-7.15,7.15L150,119V96.83l-2.45,2.45v20.78a1.45,1.45,0,0,0,1.69-.25Zm13.53-13.53V84.06l-2.46,2.46v22.22Zm37.86-37.86.43-.43V46.54l-.41-.36-2,2V70.44Zm6.81-6.81V52.48c-.45-.47-.9-.95-1.37-1.41s-.72-.68-1.08-1v14ZM194.69,74.37V52.15l-2.46,2.46V76.82Zm-6.38,6.38V58.53L185.85,61V83.21Z" transform="translate(-52.35 -10.6)"/><path class="cls-3" d="M210.83,58.23a1.48,1.48,0,0,0,.08-2q-1.68-1.92-3.46-3.74v9.13ZM205,64.06v-14q-1.92-1.81-3.93-3.52V68Zm-6.38,6.38V48.23l-3.93,3.92V74.37Zm-6.39,6.38V54.61l-2.72,2.72-1.2,1.2V80.75Zm-6.38,6.39V61l-3.93,3.93V87.13Zm-25.53,25.53V86.52l-3.92,3.93v22.21Zm-19.14-3.08-3,3a1.48,1.48,0,0,0,0,2.08h0l3,3Zm38.29-16.07V67.37l-3.93,3.93V93.52Zm-32.3,30.22a1.44,1.44,0,0,0,.39.25V99.28l-3.93,3.93v13.06l3.54,3.54ZM173.09,96V73.75l-3.93,3.93V99.9Zm-6.38,6.38V80.14l-3.93,3.92v22.22Zm-12.77,12.77V92.9L150,96.83v22.22Z" transform="translate(-52.35 -10.6)"/><path class="cls-4" d="M471.68,65.28c10.16,8.49,15.73,19.63,20,32,17.22,49.45,34.94,98.72,52.47,148.06,2.42,6.82,2.39,5.92-4.21,5.92-12.5,0-25-.73-37.51,0-21,1.17-42.35-16-48.71-34.55-5.28-15.41-10.84-30.71-16.3-46-.47-1.31-1.09-2.56-1.64-3.83a11.17,11.17,0,0,0-.3-1.65q-15.5-43.69-31-87.37Q400.31,66,396.06,54.18h0l45.88.12a46.1,46.1,0,0,1,11.95,1.86C460.45,58,466,61.67,471.68,65.28Z" transform="translate(-52.35 -10.6)"/><path class="cls-5" d="M396.06,54.18Q400.29,66,404.5,77.76q15.53,43.68,31,87.37a11.17,11.17,0,0,1,.3,1.65c-2.81,7.34-5.38,14.77-10.61,20.91-10.86,12.74-24.11,20.26-41.34,19.93-13.07-.26-26.14-.1-39.21,0-2.89,0-3.62-.46-2.54-3.48Q368.39,130.59,394.47,57C394.83,56,394.83,54.7,396.06,54.18Z" transform="translate(-52.35 -10.6)"/><path class="cls-5" d="M471.68,65.28C466,61.67,460.45,58,453.86,56.17a46.1,46.1,0,0,0-11.95-1.86L396,54.19c4.4-24.72,27.05-43.39,48.89-43.49,14.16-.06,28.33,0,42.5-.1,3.1,0,3.5.75,2.47,3.61C483.72,31.2,477.73,48.25,471.68,65.28Z" transform="translate(-52.35 -10.6)"/><path class="cls-6" d="M512.94,303.09c5.17,2.55,5.5,6.94,5.62,11.45.11,3.79-.63,7.72,2.66,11.63-4,0-7.12-.05-10.27,0-1.75,0-1.8-1.22-2.09-2.37-.77-3-.42-6.12-.55-9.19-.24-5.86-1.75-7.39-7.46-7.52-9.77-.24-9.77-.24-9.77,9.62a29.68,29.68,0,0,0,0,4.81c.65,4-.94,5-4.77,4.73-5.2-.36-5.22-.09-5.22-5.44,0-11.64,0-23.28,0-34.92,0-6,2.29-8.32,8.24-8.32s12.05-.08,18,.35c6.38.45,10.74,4.34,12.09,10C520.94,293.85,518.78,299.13,512.94,303.09Zm-14.4-17c-7.49,0-7.49,0-7.49,7.41a26,26,0,0,1,0,2.79c-.2,2,.36,2.93,2.59,2.8,3.18-.18,6.39,0,9.57-.09,4.49-.19,6.53-2.26,6.5-6.34,0-4.3-2.14-6.36-6.77-6.55C501.46,286.05,500,286.1,498.54,286.09Z" transform="translate(-52.35 -10.6)"/><path class="cls-6" d="M413.33,326.16c-4.21,0-7.67-.13-11.11,0-2,.11-2.79-1.16-3.71-2.47l-13.08-18.51c-3.42,2.47-5.77,5.11-5,9.59a21,21,0,0,1,0,5.2c-.14,2,1,5-.58,5.63-2.42,1-5.47.5-8.25.45-1.6,0-1.27-1.42-1.27-2.43,0-14.58,0-29.15,0-43.72,0-1.65.41-2.29,2.21-2.44,8-.64,7.95-.71,7.95,7.11q0,5.42,0,10.83c0,.27.05.53.12,1.15,2-.82,3-2.58,4.29-3.91,2.72-2.77,5.7-5.38,7.9-8.53,4.69-6.72,11.07-7.62,19-6.1-5.07,5.09-9.91,10-14.77,14.82-4.68,4.7-4.69,4.69-.83,9.95Z" transform="translate(-52.35 -10.6)"/><path class="cls-6" d="M464.4,295.28c0,4.68.16,9.37,0,14-.48,11.18-5.7,16.45-16.92,17.29a31.57,31.57,0,0,1-4,.06c-12.09-.7-17.63-6.45-17.78-18.6-.1-7.89,0-15.78,0-23.67,0-3.49,1.37-6,4.73-7.06,4.41-1.4,5.65-.43,5.66,4.14,0,9.23-.11,18.46.09,27.69.14,6.4,3.55,9.34,9.73,9,5-.31,7.82-2.57,8-7.68.37-9.75.42-19.52.27-29.28,0-3.25.63-4.76,4.08-4.14a7.16,7.16,0,0,0,2.4,0c3-.47,4.19.51,4,3.8-.32,4.79-.09,9.62-.09,14.44Z" transform="translate(-52.35 -10.6)"/><path class="cls-6" d="M311.47,326.17c5.39-15.1,10.53-29.69,15.85-44.22,1.39-3.79,9.11-6.21,12.54-4.2a3.06,3.06,0,0,1,1.06,1.59c5.48,15.46,10.94,30.92,16.49,46.64-1,.08-1.61.17-2.24.18-8.4.18-8.47.2-11.16-7.6-.62-1.82-1.33-2.68-3.33-2.51s-4,0-6,0c-8.69,0-8.77,0-11.75,7.94a2.79,2.79,0,0,1-3.2,2.17C317.17,326.08,314.63,326.17,311.47,326.17Zm29-18.48-6.05-18.8c-2.22,6.73-4.18,12.66-6.2,18.8Z" transform="translate(-52.35 -10.6)"/><path class="cls-6" d="M559.55,299.6c5.11,3.72,7.42,8.71,6.24,15-1.7,9.06-11.22,13.92-21.86,11.36-5.42-1.3-9.14-4.56-10.48-9.92-1.41-5.64-.56-11,4.38-14.81,1.74-1.34,1.34-1.79,0-3.13A11.8,11.8,0,0,1,541,279.13a18.25,18.25,0,0,1,17,.07C566,283.28,566.61,292.61,559.55,299.6Zm-10.24,4.31c-4.3.11-6.72,3-6.57,7.81.14,4.5,2.76,7.13,7,7s6.89-3.2,6.68-7.81C556.19,306.52,553.46,303.81,549.31,303.91Zm6.17-13a5.62,5.62,0,0,0-6-6.07c-3.7,0-6,2.29-6,6s2.15,5.72,5.7,5.83C553,296.8,555.41,294.55,555.48,290.94Z" transform="translate(-52.35 -10.6)"/><path class="cls-6" d="M283.92,323.7h.6l0,6H284Z" transform="translate(-52.35 -10.6)"/><path class="cls-6" d="M283.9,317.7h.6l0,6h-.6Z" transform="translate(-52.35 -10.6)"/><path class="cls-6" d="M283.88,311.7h.6l0,6h-.6Z" transform="translate(-52.35 -10.6)"/><path class="cls-6" d="M283.85,305.7h.6l0,6h-.6Z" transform="translate(-52.35 -10.6)"/><path class="cls-6" d="M283.83,299.7h.6l0,6h-.6Z" transform="translate(-52.35 -10.6)"/><path class="cls-6" d="M283.81,293.7h.6l0,6h-.6Z" transform="translate(-52.35 -10.6)"/><path class="cls-6" d="M283.79,287.7h.6l0,6h-.6Z" transform="translate(-52.35 -10.6)"/><path class="cls-6" d="M283.76,281.7h.6l0,6h-.6Z" transform="translate(-52.35 -10.6)"/><path class="cls-6" d="M283.74,275.7h.6l0,6h-.6Z" transform="translate(-52.35 -10.6)"/><path class="cls-6" d="M283.72,269.7h.6l0,6h-.6Z" transform="translate(-52.35 -10.6)"/><path class="cls-6" d="M283.7,263.7h.6l0,6h-.6Z" transform="translate(-52.35 -10.6)"/><path class="cls-6" d="M283.67,257.7h.6l0,6h-.6Z" transform="translate(-52.35 -10.6)"/><path class="cls-6" d="M283.65,251.7h.6l0,6h-.6Z" transform="translate(-52.35 -10.6)"/><path class="cls-6" d="M283.63,245.7h.6l0,6h-.6Z" transform="translate(-52.35 -10.6)"/><path class="cls-6" d="M283.61,239.7h.6l0,6h-.6Z" transform="translate(-52.35 -10.6)"/><path class="cls-6" d="M283.58,233.7h.6l0,6h-.6Z" transform="translate(-52.35 -10.6)"/><path class="cls-6" d="M283.56,227.7h.6l0,6h-.6Z" transform="translate(-52.35 -10.6)"/><path class="cls-6" d="M283.54,221.7h.6l0,6h-.6Z" transform="translate(-52.35 -10.6)"/><path class="cls-6" d="M283.52,215.7h.6l0,6h-.6Z" transform="translate(-52.35 -10.6)"/><path class="cls-6" d="M283.5,209.7h.59l0,6h-.6Z" transform="translate(-52.35 -10.6)"/><path class="cls-6" d="M283.47,203.7h.6l0,6h-.59Z" transform="translate(-52.35 -10.6)"/><path class="cls-6" d="M283.45,197.7h.6l0,6h-.6Z" transform="translate(-52.35 -10.6)"/><path class="cls-6" d="M283.43,191.7h.6l0,6h-.6Z" transform="translate(-52.35 -10.6)"/><path class="cls-6" d="M283.4,185.7h.6l0,6h-.6Z" transform="translate(-52.35 -10.6)"/><path class="cls-6" d="M283.38,179.7h.6l0,6h-.6Z" transform="translate(-52.35 -10.6)"/><path class="cls-6" d="M283.36,173.7h.6l0,6h-.6Z" transform="translate(-52.35 -10.6)"/><path class="cls-6" d="M283.34,167.7h.6l0,6h-.6Z" transform="translate(-52.35 -10.6)"/><path class="cls-6" d="M283.31,161.7h.6l0,6h-.6Z" transform="translate(-52.35 -10.6)"/><path class="cls-6" d="M283.29,155.7h.6l0,6h-.6Z" transform="translate(-52.35 -10.6)"/><path class="cls-6" d="M283.27,149.7h.6l0,6h-.6Z" transform="translate(-52.35 -10.6)"/><path class="cls-6" d="M283.25,143.7h.6l0,6h-.6Z" transform="translate(-52.35 -10.6)"/><path class="cls-6" d="M283.22,137.7h.6l0,6h-.6Z" transform="translate(-52.35 -10.6)"/><path class="cls-6" d="M283.2,131.7h.6l0,6h-.6Z" transform="translate(-52.35 -10.6)"/><path class="cls-6" d="M283.18,125.7h.6l0,6h-.6Z" transform="translate(-52.35 -10.6)"/><path class="cls-6" d="M283.16,119.7h.6l0,6h-.6Z" transform="translate(-52.35 -10.6)"/><path class="cls-6" d="M283.13,113.7h.6l0,6h-.6Z" transform="translate(-52.35 -10.6)"/><path class="cls-6" d="M283.11,107.7h.6l0,6h-.6Z" transform="translate(-52.35 -10.6)"/><path class="cls-6" d="M283.09,101.7h.6l0,6h-.6Z" transform="translate(-52.35 -10.6)"/><path class="cls-6" d="M283.07,95.7h.6l0,6h-.6Z" transform="translate(-52.35 -10.6)"/><path class="cls-6" d="M283,89.7h.6l0,6h-.6Z" transform="translate(-52.35 -10.6)"/><path class="cls-6" d="M283,83.7h.6l0,6H283Z" transform="translate(-52.35 -10.6)"/><path class="cls-6" d="M283,77.7h.6l0,6H283Z" transform="translate(-52.35 -10.6)"/><path class="cls-6" d="M283,71.7h.6l0,6H283Z" transform="translate(-52.35 -10.6)"/><path class="cls-6" d="M283,65.7h.6l0,6H283Z" transform="translate(-52.35 -10.6)"/><path class="cls-6" d="M282.93,59.7h.6l0,6H283Z" transform="translate(-52.35 -10.6)"/><path class="cls-6" d="M282.91,53.7h.6l0,6h-.6Z" transform="translate(-52.35 -10.6)"/><path class="cls-6" d="M282.89,47.7h.6l0,6h-.6Z" transform="translate(-52.35 -10.6)"/><path class="cls-6" d="M282.86,41.7h.6l0,6h-.6Z" transform="translate(-52.35 -10.6)"/><path class="cls-6" d="M282.84,35.7h.6l0,6h-.6Z" transform="translate(-52.35 -10.6)"/><path class="cls-6" d="M282.82,29.7h.6l0,6h-.6Z" transform="translate(-52.35 -10.6)"/><path class="cls-6" d="M282.8,23.7h.6l0,6h-.6Z" transform="translate(-52.35 -10.6)"/><path class="cls-6" d="M282.77,17.7h.6l0,6h-.6Z" transform="translate(-52.35 -10.6)"/><path class="cls-6" d="M282.75,11.7h.6l0,6h-.6Z" transform="translate(-52.35 -10.6)"/><path id="Layer" class="cls-7" d="M226,225.09l-16.15,41.75H196.24l-6.8-23.31-6.86,23.31H169l-12-31.13H149.6v14c0,6.58,2.66,7.67,6.3,7.67l.72,0,.72-.07.71-.11.7-.15,3.72,9.69c-.72.18-1.45.34-2.18.47s-1.47.24-2.2.33-1.49.16-2.23.2-1.49.07-2.23.07c-12.47,0-17.78-5.1-17.78-17V235.71h-5.68l-12,31.13h-13.6l-6.8-23.31-6.87,23.31H77.27l-16-41.75H76.68l8,25.23,7.67-25.23H103l7.75,25.23,8-25.23h17.06v-7.5l13.75-3v10.45h18.81l8,25.23,7.68-25.23h10.63l7.74,25.23,8-25.23Z" transform="translate(-52.35 -10.6)"/><path class="cls-6" d="M69.85,281.73h8.83q8.83,0,12,.68a8.26,8.26,0,0,1,5.09,3.48q2,2.81,2,8.94,0,5.6-1.4,7.52c-.93,1.29-2.75,2.06-5.48,2.31q3.7.93,5,2.46A7.23,7.23,0,0,1,97.39,310a44,44,0,0,1,.32,7.1V329.7H86.12V313.76c0-2.57-.2-4.16-.61-4.77s-1.46-.92-3.18-.92V329.7H69.85Zm12.48,8.21V300.6a5.58,5.58,0,0,0,3-.57q.84-.58.84-3.75v-2.64c0-1.52-.27-2.52-.81-3A4.62,4.62,0,0,0,82.33,289.94Z" transform="translate(-52.35 -10.6)"/><path class="cls-6" d="M124.1,281.73l7.13,48H118.48l-.67-8.62h-4.46l-.75,8.62H99.71l6.36-48Zm-6.61,30.85q-.94-8.16-1.9-20.15-1.91,13.77-2.4,20.15Z" transform="translate(-52.35 -10.6)"/><path class="cls-6" d="M133.35,281.73h9.33q9,0,12.23.83a9.33,9.33,0,0,1,4.84,2.73,8.51,8.51,0,0,1,2.07,4.22,63,63,0,0,1,.42,9.14v16.8a38.71,38.71,0,0,1-.61,8.64,6.44,6.44,0,0,1-2.12,3.4,8.69,8.69,0,0,1-3.73,1.72,33.4,33.4,0,0,1-6.7.49H133.35Zm12.47,8.21v31.55c1.8,0,2.91-.36,3.32-1.08s.63-2.68.63-5.88V295.89a24.6,24.6,0,0,0-.21-4.17,2,2,0,0,0-.95-1.35A6.1,6.1,0,0,0,145.82,289.94Z" transform="translate(-52.35 -10.6)"/><path class="cls-6" d="M188.45,281.73l7.14,48H182.84l-.67-8.62h-4.46L177,329.7h-12.9l6.36-48Zm-6.61,30.85q-.94-8.16-1.9-20.15-1.91,13.77-2.39,20.15Z" transform="translate(-52.35 -10.6)"/><path class="cls-6" d="M197.71,281.73h8.83q8.82,0,12,.68a8.29,8.29,0,0,1,5.1,3.48q2,2.81,2,8.94c0,3.73-.47,6.24-1.39,7.52s-2.76,2.06-5.49,2.31q3.7.93,5,2.46a7.41,7.41,0,0,1,1.59,2.83,45.83,45.83,0,0,1,.31,7.1V329.7H214V313.76q0-3.86-.6-4.77c-.41-.61-1.47-.92-3.19-.92V329.7H197.71Zm12.47,8.21V300.6a5.56,5.56,0,0,0,2.95-.57q.84-.58.84-3.75v-2.64c0-1.52-.27-2.52-.81-3A4.62,4.62,0,0,0,210.18,289.94Z" transform="translate(-52.35 -10.6)"/></svg>