<svg id="Layer_1" data-name="Layer 1" xmlns="http://www.w3.org/2000/svg" viewBox="0 0 600.94 322"><defs><style>.cls-1{fill:#5663aa;}.cls-2{fill:#23bae6;}.cls-3,.cls-4{fill:#fff;}.cls-4{stroke:#fff;stroke-miterlimit:10;stroke-width:4px;}.cls-5{fill:#7f35b2;}.cls-6{fill:#345499;}.cls-7{fill:#327fef;}</style></defs><title>wtw_radar and acur8</title><path class="cls-1" d="M524.78,65.28c10.17,8.49,15.74,19.63,20.05,32,17.22,49.45,34.94,98.72,52.47,148.06,2.42,6.82,2.39,5.92-4.21,5.92-12.51,0-25.05-.73-37.51,0-21,1.17-42.35-16-48.71-34.55-5.29-15.41-10.85-30.71-16.31-46-.46-1.31-1.08-2.56-1.64-3.83a10,10,0,0,0-.29-1.65q-15.5-43.69-31-87.37Q453.42,66,449.17,54.18h0l45.87.12a46.11,46.11,0,0,1,12,1.86C513.56,58,519.14,61.67,524.78,65.28Z" transform="translate(-18.26 -9.7)"/><path class="cls-2" d="M449.17,54.18Q453.4,66,457.61,77.76q15.52,43.68,31,87.37a10,10,0,0,1,.29,1.65c-2.8,7.34-5.37,14.77-10.6,20.91C467.46,200.43,454.21,208,437,207.62c-13.07-.26-26.14-.1-39.21,0-2.89,0-3.62-.46-2.54-3.48Q421.5,130.59,447.58,57C447.94,56,447.94,54.7,449.17,54.18Z" transform="translate(-18.26 -9.7)"/><path class="cls-2" d="M524.78,65.28C519.14,61.67,513.56,58,507,56.17a46.11,46.11,0,0,0-12-1.86l-45.87-.12C453.54,29.47,476.19,10.8,498,10.7c14.16-.06,28.33,0,42.5-.1,3.1,0,3.5.75,2.46,3.61C536.83,31.2,530.84,48.25,524.78,65.28Z" transform="translate(-18.26 -9.7)"/><path class="cls-3" d="M566.05,303.09c5.17,2.55,5.5,6.94,5.62,11.45.1,3.79-.64,7.72,2.66,11.63-4,0-7.13-.05-10.27,0-1.75,0-1.8-1.22-2.09-2.37-.78-3-.42-6.12-.55-9.19-.24-5.86-1.75-7.39-7.46-7.52-9.78-.24-9.78-.24-9.78,9.62a29.68,29.68,0,0,0,.05,4.81c.65,4-.94,5-4.77,4.73-5.2-.36-5.22-.09-5.22-5.44,0-11.64,0-23.28,0-34.92,0-6,2.3-8.32,8.25-8.32s12-.08,18,.35c6.38.45,10.74,4.34,12.09,10C574.05,293.85,571.89,299.13,566.05,303.09Zm-14.4-17c-7.5,0-7.5,0-7.49,7.41a26,26,0,0,1,0,2.79c-.21,2,.36,2.93,2.59,2.8,3.18-.18,6.39,0,9.57-.09,4.49-.19,6.53-2.26,6.5-6.34,0-4.3-2.14-6.36-6.77-6.55C554.57,286.05,553.11,286.1,551.65,286.09Z" transform="translate(-18.26 -9.7)"/><path class="cls-3" d="M466.44,326.16c-4.21,0-7.67-.13-11.11,0-2,.11-2.79-1.16-3.72-2.47-4.3-6.1-8.61-12.2-13.07-18.51-3.42,2.47-5.77,5.11-5,9.59a21,21,0,0,1,0,5.2c-.14,2,1,5-.58,5.63-2.42,1-5.47.5-8.25.45-1.6,0-1.27-1.42-1.27-2.43,0-14.58,0-29.15,0-43.72,0-1.65.41-2.29,2.21-2.44,7.95-.64,7.95-.71,7.95,7.11q0,5.42,0,10.83c0,.27.05.53.12,1.15,2-.82,3-2.58,4.29-3.91,2.72-2.77,5.7-5.38,7.9-8.53,4.69-6.72,11.07-7.62,19-6.1l-14.77,14.82c-4.69,4.7-4.69,4.69-.83,9.95Z" transform="translate(-18.26 -9.7)"/><path class="cls-3" d="M517.5,295.28c0,4.68.17,9.37,0,14-.48,11.18-5.7,16.45-16.92,17.29a31.57,31.57,0,0,1-4,.06c-12.09-.7-17.63-6.45-17.78-18.6-.1-7.89,0-15.78,0-23.67,0-3.49,1.37-6,4.73-7.06,4.41-1.4,5.65-.43,5.65,4.14,0,9.23-.1,18.46.1,27.69.14,6.4,3.55,9.34,9.72,9,5.05-.31,7.82-2.57,8-7.68.37-9.75.42-19.52.27-29.28,0-3.25.63-4.76,4.08-4.14a7.16,7.16,0,0,0,2.4,0c3-.47,4.19.51,4,3.8-.32,4.79-.09,9.62-.09,14.44Z" transform="translate(-18.26 -9.7)"/><path class="cls-3" d="M364.58,326.17c5.39-15.1,10.53-29.69,15.85-44.22,1.39-3.79,9.11-6.21,12.54-4.2a3.06,3.06,0,0,1,1.06,1.59C399.51,294.8,405,310.26,410.52,326c-1,.08-1.61.17-2.24.18-8.4.18-8.47.2-11.16-7.6-.62-1.82-1.33-2.68-3.33-2.51s-4,0-6,0c-8.69,0-8.77,0-11.75,7.94a2.79,2.79,0,0,1-3.21,2.17C370.28,326.08,367.74,326.17,364.58,326.17Zm29-18.48c-2-6.21-3.9-12.11-6.06-18.8-2.21,6.73-4.17,12.66-6.19,18.8Z" transform="translate(-18.26 -9.7)"/><path class="cls-3" d="M612.66,299.6c5.11,3.72,7.41,8.71,6.24,15-1.7,9.06-11.22,13.92-21.86,11.36-5.42-1.3-9.14-4.56-10.48-9.92-1.41-5.64-.56-11,4.38-14.81,1.73-1.34,1.34-1.79,0-3.13a11.8,11.8,0,0,1,3.18-18.94,18.25,18.25,0,0,1,17,.07C619.09,283.28,619.72,292.61,612.66,299.6Zm-10.24,4.31c-4.3.11-6.72,3-6.57,7.81.14,4.5,2.76,7.13,7,7s6.89-3.2,6.68-7.81C609.3,306.52,606.57,303.81,602.42,303.91Zm6.17-13a5.62,5.62,0,0,0-6-6.07c-3.7,0-6,2.29-6,6s2.15,5.72,5.7,5.83C606.08,296.8,608.52,294.55,608.59,290.94Z" transform="translate(-18.26 -9.7)"/><path class="cls-4" d="M338.31,323.7h1.26l.05,6h-1.26Z" transform="translate(-18.26 -9.7)"/><path class="cls-4" d="M338.27,317.7h1.25l.05,6h-1.26Z" transform="translate(-18.26 -9.7)"/><path class="cls-4" d="M338.22,311.7h1.26l0,6h-1.25Z" transform="translate(-18.26 -9.7)"/><path class="cls-4" d="M338.17,305.7h1.26l.05,6h-1.26Z" transform="translate(-18.26 -9.7)"/><path class="cls-4" d="M338.13,299.7h1.25l.05,6h-1.26Z" transform="translate(-18.26 -9.7)"/><path class="cls-4" d="M338.08,293.7h1.26l0,6h-1.25Z" transform="translate(-18.26 -9.7)"/><path class="cls-4" d="M338,287.7h1.26l0,6h-1.26Z" transform="translate(-18.26 -9.7)"/><path class="cls-4" d="M338,281.7h1.26l.05,6H338Z" transform="translate(-18.26 -9.7)"/><path class="cls-4" d="M337.94,275.7h1.25l.05,6H338Z" transform="translate(-18.26 -9.7)"/><path class="cls-4" d="M337.89,269.7h1.26l0,6h-1.25Z" transform="translate(-18.26 -9.7)"/><path class="cls-4" d="M337.84,263.7h1.26l0,6h-1.26Z" transform="translate(-18.26 -9.7)"/><path class="cls-4" d="M337.8,257.7h1.25l.05,6h-1.26Z" transform="translate(-18.26 -9.7)"/><path class="cls-4" d="M337.75,251.7H339l0,6H337.8Z" transform="translate(-18.26 -9.7)"/><path class="cls-4" d="M337.7,245.7H339l.05,6h-1.26Z" transform="translate(-18.26 -9.7)"/><path class="cls-4" d="M337.65,239.7h1.26l0,6H337.7Z" transform="translate(-18.26 -9.7)"/><path class="cls-4" d="M337.61,233.7h1.26l0,6h-1.26Z" transform="translate(-18.26 -9.7)"/><path class="cls-4" d="M337.56,227.7h1.26l.05,6h-1.26Z" transform="translate(-18.26 -9.7)"/><path class="cls-4" d="M337.51,221.7h1.26l.05,6h-1.26Z" transform="translate(-18.26 -9.7)"/><path class="cls-4" d="M337.47,215.7h1.25l0,6h-1.26Z" transform="translate(-18.26 -9.7)"/><path class="cls-4" d="M337.42,209.7h1.26l0,6h-1.25Z" transform="translate(-18.26 -9.7)"/><path class="cls-4" d="M337.37,203.7h1.26l.05,6h-1.26Z" transform="translate(-18.26 -9.7)"/><path class="cls-4" d="M337.32,197.7h1.26l.05,6h-1.26Z" transform="translate(-18.26 -9.7)"/><path class="cls-4" d="M337.28,191.7h1.25l.05,6h-1.26Z" transform="translate(-18.26 -9.7)"/><path class="cls-4" d="M337.23,185.7h1.26l0,6h-1.25Z" transform="translate(-18.26 -9.7)"/><path class="cls-4" d="M337.18,179.7h1.26l.05,6h-1.26Z" transform="translate(-18.26 -9.7)"/><path class="cls-4" d="M337.13,173.7h1.26l.05,6h-1.26Z" transform="translate(-18.26 -9.7)"/><path class="cls-4" d="M337.09,167.7h1.26l0,6h-1.26Z" transform="translate(-18.26 -9.7)"/><path class="cls-4" d="M337,161.7h1.26l.05,6h-1.26Z" transform="translate(-18.26 -9.7)"/><path class="cls-4" d="M337,155.7h1.26l.05,6H337Z" transform="translate(-18.26 -9.7)"/><path class="cls-4" d="M337,149.7h1.25l.05,6H337Z" transform="translate(-18.26 -9.7)"/><path class="cls-4" d="M336.9,143.7h1.26l0,6H337Z" transform="translate(-18.26 -9.7)"/><path class="cls-4" d="M336.85,137.7h1.26l.05,6H336.9Z" transform="translate(-18.26 -9.7)"/><path class="cls-4" d="M336.81,131.7h1.25l.05,6h-1.26Z" transform="translate(-18.26 -9.7)"/><path class="cls-4" d="M336.76,125.7H338l0,6h-1.25Z" transform="translate(-18.26 -9.7)"/><path class="cls-4" d="M336.71,119.7H338l0,6h-1.26Z" transform="translate(-18.26 -9.7)"/><path class="cls-4" d="M336.66,113.7h1.26l.05,6h-1.26Z" transform="translate(-18.26 -9.7)"/><path class="cls-4" d="M336.62,107.7h1.25l.05,6h-1.26Z" transform="translate(-18.26 -9.7)"/><path class="cls-4" d="M336.57,101.7h1.26l0,6h-1.25Z" transform="translate(-18.26 -9.7)"/><path class="cls-4" d="M336.52,95.7h1.26l.05,6h-1.26Z" transform="translate(-18.26 -9.7)"/><path class="cls-4" d="M336.48,89.7h1.25l0,6h-1.26Z" transform="translate(-18.26 -9.7)"/><path class="cls-4" d="M336.43,83.7h1.25l.05,6h-1.25Z" transform="translate(-18.26 -9.7)"/><path class="cls-4" d="M336.38,77.7h1.26l0,6h-1.25Z" transform="translate(-18.26 -9.7)"/><path class="cls-4" d="M336.33,71.7h1.26l.05,6h-1.26Z" transform="translate(-18.26 -9.7)"/><path class="cls-4" d="M336.28,65.7h1.26l0,6h-1.26Z" transform="translate(-18.26 -9.7)"/><path class="cls-4" d="M336.24,59.7h1.26l0,6h-1.26Z" transform="translate(-18.26 -9.7)"/><path class="cls-4" d="M336.19,53.7h1.26l.05,6h-1.26Z" transform="translate(-18.26 -9.7)"/><path class="cls-4" d="M336.14,47.7h1.26l.05,6h-1.26Z" transform="translate(-18.26 -9.7)"/><path class="cls-4" d="M336.1,41.7h1.25l0,6h-1.26Z" transform="translate(-18.26 -9.7)"/><path class="cls-4" d="M336.05,35.7h1.26l0,6H336.1Z" transform="translate(-18.26 -9.7)"/><path class="cls-4" d="M336,29.7h1.26l.05,6h-1.26Z" transform="translate(-18.26 -9.7)"/><path class="cls-4" d="M336,23.7h1.25l.05,6H336Z" transform="translate(-18.26 -9.7)"/><path class="cls-4" d="M335.91,17.7h1.26l0,6H336Z" transform="translate(-18.26 -9.7)"/><path class="cls-4" d="M335.86,11.7h1.26l.05,6h-1.26Z" transform="translate(-18.26 -9.7)"/><path class="cls-5" d="M181.1,179.76A85,85,0,0,1,57.81,176.4c-29.64-33-28.64-83.9,2.2-115.76a85.05,85.05,0,0,1,114.44-7L187.15,41a102.82,102.82,0,1,0,36.13,89.67,1.69,1.69,0,0,0-1.68-1.84H206.93a1.67,1.67,0,0,0-1.66,1.47,84.5,84.5,0,0,1-24.17,49.51Z" transform="translate(-18.26 -9.7)"/><path class="cls-5" d="M121.1,160.07a40.23,40.23,0,1,1,21.29-74.35l12.88-12.89a58.11,58.11,0,1,0,22.92,57.91,1.66,1.66,0,0,0-1.65-2H161.63a1.68,1.68,0,0,0-1.62,1.27A40.3,40.3,0,0,1,121.1,160.07Z" transform="translate(-18.26 -9.7)"/><path class="cls-6" d="M151.21,102.18V76.89l-2.79,2.79V105Zm7.27-7.27V69.63l-2.8,2.79V97.71Zm7.26-7.26V62.36L163,65.16V90.44Zm-43.58,33.16V106l-2.8,2.79V118Zm14.52-4.1V91.42l-2.79,2.79V119.5Zm-8.13,8.12.87-.86V98.68l-2.79,2.8v23.65a1.65,1.65,0,0,0,1.92-.3ZM144,109.44V84.15l-2.8,2.8v25.29ZM187,66.35l.49-.49V41.44l-.46-.4-2.33,2.32V68.65Zm7.76-7.76V48.2c-.52-.53-1-1.08-1.57-1.6s-.82-.77-1.23-1.16v16ZM180.27,73.12V47.83l-2.8,2.8V75.91ZM173,80.39V55.1l-2.79,2.79V83.18Z" transform="translate(-18.26 -9.7)"/><path class="cls-7" d="M198.64,54.75a1.67,1.67,0,0,0,.09-2.29q-1.9-2.18-3.93-4.26V58.59ZM192,61.39v-16c-1.45-1.37-2.94-2.71-4.47-4V65.86Zm-7.26,7.26V43.36l-4.47,4.47V73.12Zm-7.27,7.26V50.63l-3.09,3.09L173,55.1V80.39Zm-7.26,7.27V57.89l-4.47,4.47V87.65Zm-29.06,29.06V87l-4.47,4.47v25.29Zm-21.79-3.5-3.45,3.45a1.68,1.68,0,0,0,0,2.37h0l3.45,3.45ZM163,90.44V65.16l-4.47,4.47V94.91Zm-36.77,34.39a1.48,1.48,0,0,0,.45.3V101.48L122.16,106v14.86l4,4Zm29.5-27.12V72.42l-4.47,4.47v25.29ZM148.42,105V79.68L144,84.15v25.29ZM133.89,119.5V94.21l-4.47,4.47V124Z" transform="translate(-18.26 -9.7)"/><path id="Layer" class="cls-3" d="M307.58,86.76l-13,33.53H283.67l-5.46-18.72-5.51,18.72H261.79l-9.61-25h-6v11.26c0,5.29,2.13,6.16,5,6.16l.59,0,.57,0,.57-.09.57-.12,3,7.79c-.58.14-1.17.27-1.75.37s-1.19.2-1.78.27-1.19.13-1.79.16-1.19,0-1.79,0c-10,0-14.28-4.09-14.28-13.66V95.28H230.6l-9.68,25H210l-5.46-18.72L199,120.29H188.1L175.24,86.76h12.39L194.1,107l6.15-20.26h8.54L215,107l6.43-20.26h13.71v-6l11.05-2.37v8.4h15.1L267.77,107l6.16-20.26h8.54L288.69,107l6.41-20.26Z" transform="translate(-18.26 -9.7)"/><path class="cls-3" d="M27.62,236.85H43.49q15.88,0,21.5,1.23a14.78,14.78,0,0,1,9.16,6.26q3.55,5,3.55,16.06,0,10.08-2.51,13.53t-9.85,4.16q6.66,1.65,9,4.42a13.12,13.12,0,0,1,2.85,5.09q.56,2.32.56,12.76v22.75H56.87V294.45c0-4.62-.37-7.48-1.09-8.58s-2.64-1.65-5.73-1.65v38.89H27.62Zm22.43,14.76v19.18q3.78,0,5.3-1T56.87,263v-4.74c0-2.73-.49-4.53-1.47-5.38S52.64,251.61,50.05,251.61Z" transform="translate(-18.26 -9.7)"/><path class="cls-3" d="M125.15,236.85,138,323.11H115.06l-1.21-15.51h-8l-1.35,15.51H81.29l11.45-86.26Zm-11.88,55.46q-1.71-14.65-3.42-36.22-3.43,24.77-4.3,36.22Z" transform="translate(-18.26 -9.7)"/><path class="cls-3" d="M141.79,236.85h16.78q16.25,0,22,1.5a16.83,16.83,0,0,1,8.71,4.9,15.51,15.51,0,0,1,3.73,7.59q.73,4.18.74,16.44v30.2q0,11.63-1.09,15.53a11.74,11.74,0,0,1-3.81,6.13,15.94,15.94,0,0,1-6.71,3.09,61.11,61.11,0,0,1-12,.88H141.79Zm22.43,14.76v56.74q4.84,0,6-1.94t1.12-10.58V262.32a44.89,44.89,0,0,0-.37-7.51,3.61,3.61,0,0,0-1.7-2.43C168.34,251.87,166.67,251.61,164.22,251.61Z" transform="translate(-18.26 -9.7)"/><path class="cls-3" d="M240.87,236.85l12.83,86.26H230.77l-1.2-15.51h-8l-1.35,15.51H197l11.44-86.26ZM229,292.31q-1.69-14.65-3.41-36.22-3.44,24.77-4.31,36.22Z" transform="translate(-18.26 -9.7)"/><path class="cls-3" d="M257.5,236.85h15.88q15.87,0,21.5,1.23a14.8,14.8,0,0,1,9.16,6.26q3.54,5,3.54,16.06,0,10.08-2.5,13.53t-9.86,4.16q6.66,1.65,8.95,4.42A13.12,13.12,0,0,1,307,287.6q.57,2.32.56,12.76v22.75H286.75V294.45q0-6.93-1.09-8.58t-5.73-1.65v38.89H257.5Zm22.43,14.76v19.18q3.78,0,5.3-1c1-.69,1.52-2.94,1.52-6.74v-4.74c0-2.73-.49-4.53-1.46-5.38S282.52,251.61,279.93,251.61Z" transform="translate(-18.26 -9.7)"/></svg>