<svg id="Layer_1" data-name="Layer 1" xmlns="http://www.w3.org/2000/svg" viewBox="0 0 410.413 167.764"><defs><style>.cls-1{fill:#fff;}.cls-2{fill:#498ac9;}.cls-3{fill:#222;}.cls-4{fill:#232323;}.cls-5{fill:#242424;}.cls-6{fill:#262525;}.cls-7{fill:#272626;}.cls-8{fill:#302f2f;}.cls-9{fill:#383938;}.cls-10{fill:#fafbfc;}.cls-11{fill:#4989c8;}.cls-12{fill:#4789c9;}.cls-13{fill:#4487c7;}.cls-14{fill:#4689c8;}.cls-15{fill:#4588c8;}.cls-16{fill:#327ab9;}.cls-17{fill:#3374b0;}.cls-18{fill:#3277b5;}.cls-19{fill:#2e74b4;}.cls-20{fill:#fbfcfc;}.cls-21{fill:#f7f8f8;}.cls-22{fill:#fdfeff;}.cls-23{fill:#f9f9fa;}.cls-24{fill:#f8fafb;}.cls-25{fill:#232324;}.cls-26{fill:#3673ac;}.cls-27{fill:#4288c8;}.cls-28{fill:#ef584c;}.cls-29{fill:#272a2b;}.cls-30{fill:#25282a;}.cls-31{fill:#96d4d5;}.cls-32{fill:#5f474e;}.cls-33{fill:#64c5b7;}.cls-34{opacity:0.45;}.cls-35{fill:#020202;}.cls-36{opacity:0.6;}.cls-37{opacity:0.8;}.cls-38{fill:#030303;}</style></defs><title>blockchain_tools</title><rect class="cls-1" y="1.906" width="410.413" height="165.859"/><path class="cls-2" d="M167.1,161.334c4.4,0,8.793.019,13.189-.017.8-.006,1.162.178,1.074,1.031a9.4,9.4,0,0,0,0,1.775c.074.847-.318,1.06-1.1,1.059q-13.189-.028-26.38,0c-.806,0-1.079-.238-1.07-1.068.028-2.78,0-2.78,2.782-2.78Z" transform="translate(-3.829 -0.236)"/><path class="cls-2" d="M34.48,161.333c4.4,0,8.8.018,13.2-.017.792-.006,1.055.244.992,1.014a15.2,15.2,0,0,0,0,2.058c.031.581-.236.793-.769.782-.156,0-.312,0-.468,0q-12.97,0-25.939,0c-1.311,0-1.311,0-1.331-1.264-.039-2.575-.039-2.575,2.518-2.575Z" transform="translate(-3.829 -0.236)"/><path class="cls-3" d="M175.407,144.45c0-1.876.04-3.71-.019-5.54-.026-.8.246-1.014,1.008-.985,1.4.053,2.81.036,4.214.006.491-.011.724.055.722.636q-.029,7.96,0,15.921c0,.469-.1.656-.616.645-1.5-.034-3-.038-4.5,0-.548.014-.747-.273-.965-.689-1.136-2.17-2.3-4.325-3.448-6.488-.113-.211-.153-.546-.47-.459-.263.072-.137.378-.138.576-.009,2.092-.025,4.183.006,6.275.008.578-.1.815-.751.792-1.5-.052-3-.038-4.5,0-.552.012-.755-.122-.753-.72q.033-7.868,0-15.734c0-.582.208-.757.768-.749,1.654.026,3.31.039,4.963-.006.631-.018.879.335,1.122.788q1.407,2.624,2.819,5.243C174.982,144.141,175.034,144.363,175.407,144.45Z" transform="translate(-3.829 -0.236)"/><path class="cls-3" d="M32.288,146.329c.224.166.312.281.42.3,2.4.526,2.781,2.267,2.7,4.147-.1,2.443-1.218,3.722-3.359,4.158a24.155,24.155,0,0,1-4.567.176c-2.214.031-4.429-.007-6.642.019-.526.006-.69-.14-.688-.678.018-5.27.011-10.54.009-15.809,0-.391-.035-.733.561-.716,3.489.1,6.985-.153,10.47.134,3.918.322,4.8,3.27,3.8,6.264C34.6,145.509,33.5,145.89,32.288,146.329Z" transform="translate(-3.829 -0.236)"/><path class="cls-3" d="M134.89,146.593c0,2.59-.021,5.18.015,7.769.008.621-.172.788-.778.773-1.559-.041-3.122-.051-4.68,0-.694.024-.821-.233-.8-.856.041-1.528-.008-3.058.024-4.586.012-.57-.1-.821-.752-.835-2.659-.055-2.659-.078-2.659,2.567,0,1-.021,2,.009,3,.016.512-.13.72-.68.709-1.622-.03-3.245-.027-4.867,0-.507.008-.716-.114-.714-.669q.027-7.909,0-15.819c0-.5.119-.728.685-.715,1.622.039,3.246.046,4.867.007.563-.014.7.192.7.7-.016,1.591.022,3.183-.019,4.773-.017.664.21.847.859.85,2.557.015,2.557.036,2.557-2.5,0-1.061.015-2.122-.007-3.182-.01-.475.132-.658.641-.647,1.622.037,3.245.051,4.867.019.618-.012.714.25.709.784-.021,2.62-.01,5.24-.01,7.861Z" transform="translate(-3.829 -0.236)"/><path class="cls-3" d="M51.8,146.4a33.889,33.889,0,0,1,.341-5.167,3.646,3.646,0,0,1,2.872-2.963,11.661,11.661,0,0,1,3.607-.415,27.933,27.933,0,0,1,6.052.361,3.946,3.946,0,0,1,3.165,3.418,38.8,38.8,0,0,1-.083,10.343,3.672,3.672,0,0,1-3.121,2.942,24.844,24.844,0,0,1-9.293,0,3.84,3.84,0,0,1-3.333-3.711C51.859,149.719,51.833,148.224,51.8,146.4Z" transform="translate(-3.829 -0.236)"/><path class="cls-3" d="M102.992,155.12c-2.268,0-4.407,0-6.546,0-.383,0-.431-.308-.563-.53-1.089-1.845-2.162-3.7-3.262-5.537-.1-.174-.091-.593-.457-.454-.309.118-.128.43-.128.666,0,1.685-.006,3.371.009,5.057,0,.552-.106.838-.78.814-1.622-.057-3.247-.033-4.87-.01-.478.007-.644-.124-.643-.628q.027-7.914,0-15.827c0-.589.206-.752.76-.743,1.623.025,3.247.035,4.869-.006.549-.013.616.22.612.662-.013,1.686-.008,3.372,0,5.057,0,.206-.1.484.158.586.368.148.378-.25.487-.422,1.067-1.676,2.148-3.346,3.145-5.064a1.458,1.458,0,0,1,1.5-.817c1.56.043,3.122.008,4.683.015.267,0,.638-.14.755.171.057.153-.179.436-.316.637-1.5,2.208-3,4.426-4.541,6.608a1.062,1.062,0,0,0-.008,1.4C99.566,149.486,101.23,152.243,102.992,155.12Z" transform="translate(-3.829 -0.236)"/><path class="cls-3" d="M145.668,137.94c1.155,0,2.313.055,3.463-.022.661-.044.888.257,1.043.785q1.509,5.133,3.025,10.264c.526,1.785,1.037,3.575,1.595,5.35.185.587.174.841-.56.819-1.559-.049-3.121-.027-4.682-.008-.5.006-.756-.078-.894-.659-.444-1.87-.483-1.861-2.4-1.861-.874,0-1.751.039-2.622-.013-.62-.038-.865.2-1.016.785-.451,1.749-.477,1.742-2.322,1.742-1.124,0-2.249-.032-3.371.012-.592.023-.771-.119-.591-.715.863-2.849,1.7-5.706,2.554-8.559.708-2.376,1.439-4.746,2.116-7.13.162-.57.364-.836,1.009-.8C143.231,137.982,144.45,137.941,145.668,137.94Z" transform="translate(-3.829 -0.236)"/><path class="cls-3" d="M109.928,146.578c0,.842-.018,1.685.005,2.526.037,1.356.649,2.025,2.009,2.05a18.749,18.749,0,0,0,3.919-.112c.552-.106.873,0,.826.69-.059.869-.021,1.746-.011,2.619,0,.334,0,.627-.439.671-3.195.326-6.4.659-9.536-.344a3.983,3.983,0,0,1-2.753-3.446,29.566,29.566,0,0,1-.008-9.3,4.088,4.088,0,0,1,3.153-3.645,22.632,22.632,0,0,1,8.9-.13.609.609,0,0,1,.612.736c-.031.872-.023,1.746,0,2.619.013.516-.181.588-.68.56-1.368-.078-2.742-.091-4.113-.067a1.705,1.705,0,0,0-1.867,1.86c-.006.093-.011.187-.011.28Q109.927,145.363,109.928,146.578Z" transform="translate(-3.829 -0.236)"/><path class="cls-3" d="M70.4,146.332a16.309,16.309,0,0,1,.683-5.618,3.9,3.9,0,0,1,2.408-2.291,11.9,11.9,0,0,1,4.417-.576,29.456,29.456,0,0,1,4.569.241c.592.095.949.253.874.981a21,21,0,0,0-.014,2.433c.007.455-.084.631-.64.592-1.4-.1-2.806-.117-4.208-.089-1.145.023-1.629.61-1.742,1.763a27.1,27.1,0,0,0,0,5.507c.131,1.241.592,1.818,1.861,1.87a18.475,18.475,0,0,0,4.016-.092c.614-.109.935,0,.882.732a22.9,22.9,0,0,0,0,2.527c.017.419-.11.664-.529.707-3.165.325-6.338.664-9.451-.321-2.048-.648-2.721-2.33-2.933-4.256A24.109,24.109,0,0,1,70.4,146.332Z" transform="translate(-3.829 -0.236)"/><path class="cls-3" d="M37.8,146.5c0-2.591.013-5.181-.011-7.771-.006-.59.129-.827.782-.8,1.5.053,3,.065,4.493,0,.749-.033.949.171.941.921-.04,3.619.005,7.24-.036,10.859-.01.844.2,1.162,1.093,1.116,1.463-.074,2.933,0,4.4-.028.522-.009.723.157.706.7-.033,1-.043,2,0,3,.027.58-.228.653-.717.651-3.62-.017-7.24-.029-10.86,0-.7.007-.812-.255-.8-.868C37.818,151.677,37.8,149.087,37.8,146.5Z" transform="translate(-3.829 -0.236)"/><path class="cls-3" d="M156.211,146.5c0-2.56.022-5.12-.014-7.679-.01-.7.189-.918.9-.894,1.559.052,3.121.035,4.681,0,.531-.01.79.073.787.7q-.031,7.914,0,15.826c0,.54-.171.692-.7.683-1.654-.028-3.309-.038-4.962,0-.627.017-.707-.246-.7-.774C156.222,151.74,156.211,149.118,156.211,146.5Z" transform="translate(-3.829 -0.236)"/><path class="cls-1" d="M26.3,149.644c.019-1.672-.172-1.456,1.205-1.467,1.418-.011,1.666.215,1.667,1.451,0,1.357-.232,1.547-1.885,1.543C26.3,151.168,26.3,151.168,26.3,149.644Z" transform="translate(-3.829 -0.236)"/><path class="cls-1" d="M26.3,143.343c.018-1.556-.153-1.337,1.235-1.348,1.424-.011,1.637.177,1.636,1.368,0,1.249-.253,1.439-1.9,1.434C26.3,144.795,26.3,144.795,26.3,143.343Z" transform="translate(-3.829 -0.236)"/><path class="cls-1" d="M61.775,146.576c0,1.027.017,2.055,0,3.082-.024,1.109-.436,1.5-1.539,1.517-1.788.031-2.029-.087-2.134-1.878a32.04,32.04,0,0,1,.1-6.337,1,1,0,0,1,1.037-.969c2.257-.192,2.532.053,2.545,2.343,0,.747,0,1.494,0,2.242Z" transform="translate(-3.829 -0.236)"/><path class="cls-1" d="M145.625,142.8q.508,1.953,1.017,3.906c.024.09.026.185.048.275.4,1.591.4,1.591-1.293,1.591-1.5,0-1.52,0-1.171-1.45s.74-2.874,1.113-4.31Z" transform="translate(-3.829 -0.236)"/><path class="cls-4" d="M93.783,162.664c0,1.372-.016,2.663.008,3.953.01.541-.041.85-.739.85s-.747-.316-.743-.854c.015-2.278.006-4.556,0-6.834,0-.371-.076-.811.476-.828.464-.015.974-.2,1.266.457.607,1.373,1.288,2.714,1.94,4.067l.25-.041c0-1.19.008-2.38,0-3.569,0-.485-.055-.936.66-.947s.779.418.777.97c-.009,2.247,0,4.494-.008,6.74,0,.315.109.77-.392.8-.469.032-.976.147-1.251-.508-.5-1.2-1.093-2.364-1.651-3.541A1.081,1.081,0,0,0,93.783,162.664Z" transform="translate(-3.829 -0.236)"/><path class="cls-4" d="M121.918,163.028a12.306,12.306,0,0,1,.171-2.712,1.62,1.62,0,0,1,1.348-1.353,7,7,0,0,1,1.58-.1c1.76.046,2.2.546,2.361,2.283a28.907,28.907,0,0,1-.026,4.385,1.809,1.809,0,0,1-1.916,1.951c-2.882.192-3.5-.382-3.518-3.253C121.917,163.888,121.918,163.544,121.918,163.028Z" transform="translate(-3.829 -0.236)"/><path class="cls-3" d="M108.22,163.148c0,.809.05,1.623-.011,2.428a1.827,1.827,0,0,1-1.969,1.909l-.094.006c-2.736.154-3.305-.372-3.339-3.12-.013-1.059-.015-2.119.008-3.177.036-1.648.693-2.289,2.351-2.335.031,0,.062,0,.093,0,2.466-.039,2.935.41,3,2.887.012.467,0,.935,0,1.4Z" transform="translate(-3.829 -0.236)"/><path class="cls-4" d="M87.059,163.26c0,1.187-.016,2.374.008,3.56.01.482-.131.676-.641.636-.447-.034-.894.061-.863-.634.033-.748-.027-1.5.017-2.247.033-.566-.148-.776-.729-.763-1.956.042-1.538-.126-1.581,1.5a9.134,9.134,0,0,0,.007,1.216c.074.681-.156.918-.875.936-.834.021-.623-.507-.625-.925-.014-2.279.014-4.559-.028-6.838-.011-.592.2-.766.737-.783.591-.019.868.168.786.809a10.4,10.4,0,0,0-.007,1.31c0,1.387.64,1.839,1.986,1.44.341-.1.318-.326.318-.576,0-.687.033-1.375-.008-2.06-.036-.59.071-.934.775-.934.755,0,.74.44.73.979C87.044,161.012,87.059,162.136,87.059,163.26Z" transform="translate(-3.829 -0.236)"/><path class="cls-3" d="M137.468,164.952a10.222,10.222,0,0,0,.013,1.5c.118.785-.319.966-.944,1.014-.093.007-.187.011-.28.016-3.248.173-3.842-.378-3.863-3.634a13.228,13.228,0,0,1,.192-3.352,1.881,1.881,0,0,1,1.553-1.541,8.413,8.413,0,0,1,2.976.075c.577.1.295.516.342.8.063.379-.211.365-.476.358-.623-.016-1.247-.017-1.87-.028a.936.936,0,0,0-1.068.819,13.233,13.233,0,0,0-.018,4.457,1.207,1.207,0,0,0,1.6.88.423.423,0,0,0,.367-.457c0-.5,0-1,0-1.5,0-.291-.07-.463-.415-.457-.555.011-.525-.4-.53-.787-.006-.514.337-.494.7-.509,1.718-.072,1.717-.077,1.717,1.6Z" transform="translate(-3.829 -0.236)"/><path class="cls-4" d="M63.466,163.087c0-1.123.025-2.248-.011-3.37-.018-.554.149-.808.726-.8.967.021,1.935.012,2.9,0,.48,0,.718.136.719.7s-.262.6-.686.577c-.311-.02-.624,0-.936,0-1.218,0-1.154,0-1.237,1.22-.063.932.267,1.236,1.151,1.116a3.06,3.06,0,0,1,1.024.024c.44.093.255.5.288.78.038.339-.156.431-.455.42-.249-.009-.5,0-.749,0-1.237,0-1.185,0-1.254,1.274-.048.872.18,1.286,1.115,1.148.366-.055.751.024,1.121-.018.528-.059.611.191.61.648,0,.479-.149.665-.646.65-1-.032-2-.041-3,0-.557.022-.7-.212-.694-.714C63.479,165.522,63.466,164.3,63.466,163.087Z" transform="translate(-3.829 -0.236)"/><path class="cls-4" d="M145.035,162.481c.348-.946.724-1.884,1.03-2.844.131-.413.323-.654.753-.687.277-.022.6-.125.8.091.244.255-.048.516-.132.754a17.191,17.191,0,0,1-.757,1.9,8.61,8.61,0,0,0-1.058,4.924c.082.671-.218.83-.856.851-.689.022-.711-.347-.651-.807.333-2.54-1.14-4.573-1.881-6.812-.085-.256-.573-.622-.062-.823s1.135-.306,1.419.407c.4,1,.764,2.02,1.143,3.031Z" transform="translate(-3.829 -0.236)"/><path class="cls-4" d="M74.112,163.219c0,.249,0,.5,0,.748.022,2.149.032,2.179,2.159,2.241.425.012.56.163.57.523s-.06.7-.522.728a8.006,8.006,0,0,1-2.143-.043,1.644,1.644,0,0,1-1.37-1.457,17.328,17.328,0,0,1-.019-5.3,1.747,1.747,0,0,1,1.886-1.774,13.324,13.324,0,0,1,1.5.011c.547.012.607.352.614.816.01.593-.349.437-.678.429-1.737-.045-1.947.152-1.99,1.864C74.1,162.408,74.113,162.813,74.112,163.219Z" transform="translate(-3.829 -0.236)"/><path class="cls-4" d="M55.5,163.788c0-.9-.033-1.808.011-2.709.034-.7-.23-.949-.922-.892-.407.033-.945.228-.919-.607.025-.769.5-.648.944-.653,1.153-.011,2.306,0,3.458,0,.461,0,.724.1.731.68.009.637-.328.66-.753.592-.9-.144-1.111.267-1.086,1.1.052,1.774,0,3.551.023,5.326.006.555-.095.846-.765.849-.707,0-.737-.351-.725-.876.022-.934.006-1.869.006-2.8Z" transform="translate(-3.829 -0.236)"/><path class="cls-5" d="M113.458,163.146c0-1.184.025-2.368-.01-3.55-.018-.569.244-.689.73-.669.455.018.747.081.734.677-.04,1.867.014,3.737-.031,5.6-.017.722.171,1.058.935.952.3-.042.623.013.932-.013.473-.04.682.123.665.628-.016.449-.115.7-.634.68-.9-.031-1.808-.04-2.709,0-.538.026-.621-.228-.616-.669C113.467,165.575,113.458,164.36,113.458,163.146Z" transform="translate(-3.829 -0.236)"/><path class="cls-1" d="M125.965,163.274c-.04.727-.1,1.316-.1,1.9.008.748-.322,1.042-1.069,1.065-.768.023-1.316-.166-1.336-1.016-.033-1.365-.045-2.732,0-4.1.025-.825.593-1.057,1.349-1.026.713.03,1.078.309,1.063,1.076C125.857,161.923,125.935,162.667,125.965,163.274Z" transform="translate(-3.829 -0.236)"/><path class="cls-1" d="M106.745,163.2c0,.683-.005,1.367,0,2.05a.866.866,0,0,1-.961.988c-.64.019-1.382.065-1.426-.786a41.785,41.785,0,0,1,.007-4.56c.05-.855.818-.759,1.444-.755a.834.834,0,0,1,.926.92c.018.714,0,1.428,0,2.143Z" transform="translate(-3.829 -0.236)"/><path class="cls-5" d="M16.244,98.163c.478-.752.881-1.556,2-1.53a1.786,1.786,0,0,1,1.6.771,1.243,1.243,0,0,0,1.253.573c2.466-.02,4.932-.029,7.4,0a1.863,1.863,0,0,0,1.472-.618c2.213-2.245,4.462-4.454,6.672-6.7a1.755,1.755,0,0,1,1.388-.57c6.679.019,13.359.037,20.038-.011a4.622,4.622,0,0,1,3.169,1.066c-.064.22-.239.229-.44.228q-11.142-.025-22.283-.053a1.694,1.694,0,0,0-1.311.56c-2.213,2.245-4.456,4.459-6.667,6.706a1.946,1.946,0,0,1-1.544.664c-2.684-.043-5.368-.022-8.052-.016-.356,0-.682-.049-.978.347-1.12,1.5-2.771,1.269-3.554-.449a1.347,1.347,0,0,0-.16-.221Z" transform="translate(-3.829 -0.236)"/><path class="cls-3" d="M80.4,93.248c-2-1.162-3.861-2.228-5.705-3.32-.414-.245-.694-.037-1.015.15-1.693.982-3.4,1.941-5.077,2.952a1.192,1.192,0,0,1-1.372,0Q56.556,86.842,45.861,80.687a1.285,1.285,0,0,1-.719-1.272q.022-12.27,0-24.54a1.428,1.428,0,0,1,.831-1.4c5.391-3.079,10.761-6.194,16.138-9.3,1.749-1.01,3.516-1.989,5.24-3.04a1.179,1.179,0,0,1,1.367.113q4.959,2.868,9.906,5.759c.831.483,1.671.953,2.5,1.441.5.3.7.21.689-.415-.027-1.873-.022-3.747,0-5.62a.924.924,0,0,0-.543-.978,8.12,8.12,0,0,0-.727-.412c-2.086-.72-2.614-2.11-2.563-4.317.172-7.52.074-15.047.051-22.571a1.372,1.372,0,0,1,.8-1.389Q89.541,6.609,100.211.4a.943.943,0,0,1,1.1.027q8.1,4.689,16.223,9.357c1.8,1.04,3.59,2.1,5.4,3.121a1.059,1.059,0,0,1,.6,1.048q-.018,12.363-.014,24.727c0,.617-.125,1.091-.788,1.3-.229.072-.409.3-.639.377-2.115.7-2.75,2.182-2.447,4.3a18.969,18.969,0,0,1,.021,3.181c-.019.708.055,1,.843.534,4.017-2.356,8.07-4.652,12.084-7.011a1.656,1.656,0,0,1,1.934-.013q10.428,6.078,20.9,12.071a1.6,1.6,0,0,1,.954,1.591q-.054,12.129,0,24.259a1.484,1.484,0,0,1-.882,1.5q-10.6,6.067-21.146,12.211a1.3,1.3,0,0,1-1.529,0c-1.691-1.039-3.432-2-5.143-3.006a.831.831,0,0,0-.94-.025c-1.634.955-3.276,1.895-4.914,2.841-.471.272-.845.6-.041.88,1.58.545,1.8,1.669,1.779,3.2-.078,7.679-.046,15.36-.021,23.041a1.572,1.572,0,0,1-.92,1.6q-10.6,6.056-21.142,12.206a1.233,1.233,0,0,1-1.423.029c-4.047-2.371-8.115-4.705-12.175-7.053-3.037-1.756-6.061-3.537-9.118-5.257a1.2,1.2,0,0,1-.741-1.219q.03-12.411,0-24.821a1.047,1.047,0,0,1,.627-1.106C79.213,94.028,79.718,93.667,80.4,93.248Z" transform="translate(-3.829 -0.236)"/><path class="cls-3" d="M142.707,30.542c5.557,0,11.114-.011,16.671.014a1.983,1.983,0,0,0,1.547-.65q9.45-9.49,18.939-18.941a1.882,1.882,0,0,0,.694-1.687A1.781,1.781,0,0,1,182.587,7.3a2.023,2.023,0,0,1,1.873,2.14,1.955,1.955,0,0,1-2.33,1.73c-.619-.155-.856.169-1.176.488q-9.738,9.73-19.464,19.474a2.2,2.2,0,0,1-1.715.719q-16.9-.033-33.811-.027c-.36,0-.851.244-1.061-.3-.244-.634.056-.974.852-.974Q134.232,30.54,142.707,30.542Z" transform="translate(-3.829 -0.236)"/><path class="cls-3" d="M61.745,31.83c-4.557,0-9.114-.013-13.67.015a2.168,2.168,0,0,1-1.707-.7Q36.643,21.366,26.879,11.63a1.141,1.141,0,0,0-1.266-.447A1.889,1.889,0,0,1,23.427,9.4a1.951,1.951,0,0,1,1.787-2.106,1.81,1.81,0,0,1,2.074,1.946,2.006,2.006,0,0,0,.693,1.691q9.512,9.477,18.976,19a1.974,1.974,0,0,0,1.553.624q13.577-.027,27.153-.007c.419,0,.952-.212.95.609,0,.754-.439.676-.917.676Q68.72,31.828,61.745,31.83Z" transform="translate(-3.829 -0.236)"/><path class="cls-3" d="M58.491,106.23c-5.65,0-11.3.009-16.949-.015a1.8,1.8,0,0,0-1.393.579q-9.6,9.624-19.221,19.23A1.454,1.454,0,0,0,20.4,127.4a1.88,1.88,0,0,1-1.907,2.155,1.938,1.938,0,0,1-1.916-2.254,1.863,1.863,0,0,1,2.336-1.63.933.933,0,0,0,.964-.379c6.05-6.054,12.143-12.065,18.114-18.2a6.23,6.23,0,0,1,5-2.1c10.862.121,21.725.052,32.588.062.335,0,.778-.206.992.246.263.559-.044.929-.758.929q-8.661,0-17.324,0Z" transform="translate(-3.829 -0.236)"/><path class="cls-3" d="M139.536,105.05c4.5,0,8.989.017,13.483-.017a2.063,2.063,0,0,1,1.622.681q9.654,9.695,19.333,19.364a1.337,1.337,0,0,0,1.433.525,1.909,1.909,0,0,1,2.119,1.868,1.994,1.994,0,0,1-1.854,2.079,1.862,1.862,0,0,1-2.016-1.857,2.291,2.291,0,0,0-.934-2.057q-9.41-9.37-18.777-18.784a1.989,1.989,0,0,0-1.554-.635q-13.294.03-26.59,0c-.3,0-.8.3-.905-.326s.1-.859.783-.855C130.3,105.064,134.917,105.05,139.536,105.05Z" transform="translate(-3.829 -0.236)"/><path class="cls-3" d="M123.894,93.208c1.218-.782,1.416-.778,2.133.208a.988.988,0,0,0,.942.428c1-.015,2,.019,3-.012a4.241,4.241,0,0,1,2.837.639,1.5,1.5,0,0,0,1.83-.141,2.988,2.988,0,0,1,1.843-.5q8.383.023,16.766,0a1.521,1.521,0,0,1,1.215.5c2.948,2.99,5.937,5.939,8.892,8.922a2.246,2.246,0,0,0,1.788.746c2.809-.052,5.619-.027,8.429-.014a1.207,1.207,0,0,0,1.169-.539,1.973,1.973,0,0,1,2.886-.3,1.93,1.93,0,0,1,.083,2.835,1.841,1.841,0,0,1-2.864-.081,1.578,1.578,0,0,0-1.492-.664c-2.9.021-5.808-.007-8.711.022a2.277,2.277,0,0,1-1.813-.72c-2.948-3-5.946-5.954-8.905-8.944a1.883,1.883,0,0,0-1.473-.6q-12.5.025-25.008-.014a1.772,1.772,0,0,0-1.7.841c-.166.252-.489.5-.765.3-.2-.144-.123-.524-.009-.791C125.571,93.919,125.431,93.617,123.894,93.208Z" transform="translate(-3.829 -0.236)"/><path class="cls-3" d="M27.7,105.245c-.437,0-.874.008-1.31,0a1.949,1.949,0,0,0-1.928.746,1.778,1.778,0,0,1-2.783-.044,1.953,1.953,0,1,1,2.964-2.538,1.22,1.22,0,0,0,1.228.58c1.372-.034,2.9.339,4.074-.147s2-1.813,2.972-2.782c2.251-2.247,4.5-4.492,6.733-6.759a1.452,1.452,0,0,1,1.144-.469q12.315.016,24.628,0a1.947,1.947,0,0,1,1.3.408,1.525,1.525,0,0,0,1.014.412,1.581,1.581,0,0,1,1.405.6.741.741,0,0,0,1.1.015.926.926,0,0,0,.412-1.128c-.112-.286-.318-.581.046-.813.329-.21.591-.065.772.246.2.345.537.26.838.262,1.248.006,2.5-.015,3.745.016.237.006.726-.264.694.273-.026.415-.049.928-.771.894-1.183-.057-2.372,0-3.557-.022a1.212,1.212,0,0,0-1.168.563,1.839,1.839,0,0,1-3.135.014,1.355,1.355,0,0,0-1.248-.583q-12.641.021-25.283,0a1.908,1.908,0,0,0-1.476.616c-2.85,2.877-5.736,5.72-8.561,8.621a2.758,2.758,0,0,1-2.532,1.027A8.94,8.94,0,0,0,27.7,105.245Z" transform="translate(-3.829 -0.236)"/><path class="cls-4" d="M141.141,28.071c-5.055,0-10.11.006-15.164-.01-.452,0-1.123.3-1.1-.656.023-.89.653-.594,1.072-.6q14.931-.021,29.861,0a2.079,2.079,0,0,0,1.633-.674q5.721-5.774,11.5-11.493a1.157,1.157,0,0,0,.412-1.283,1.9,1.9,0,0,1,1.742-2.287,2,2,0,0,1,2.136,1.77,1.864,1.864,0,0,1-1.931,2.119,1.976,1.976,0,0,0-1.616.7c-3.834,3.872-7.7,7.712-11.53,11.588a2.584,2.584,0,0,1-2.038.839C151.126,28.049,146.133,28.07,141.141,28.071Z" transform="translate(-3.829 -0.236)"/><path class="cls-4" d="M60.287,109.976c-5.057,0-10.113.009-15.169-.012a1.975,1.975,0,0,0-1.551.645q-5.7,5.749-11.445,11.444a1.444,1.444,0,0,0-.537,1.43,1.817,1.817,0,0,1-1.769,2.23,1.925,1.925,0,0,1-2.094-1.992A1.9,1.9,0,0,1,30,121.865c.623.083.843-.34,1.145-.64q5.935-5.9,11.835-11.835a1.788,1.788,0,0,1,1.367-.64q15.819.025,31.638-.007c.561,0,.585.211.618.64.049.65-.354.595-.775.595Q68.059,109.972,60.287,109.976Z" transform="translate(-3.829 -0.236)"/><path class="cls-4" d="M63.551,28.072c-4.058,0-8.116-.011-12.173.011a1.789,1.789,0,0,1-1.4-.578C46,23.5,42,19.513,38.014,15.505a1.6,1.6,0,0,0-1.3-.543,1.964,1.964,0,0,1-2.1-1.994,2.013,2.013,0,0,1,2.225-1.888,1.906,1.906,0,0,1,1.654,2.438.928.928,0,0,0,.311,1.041q5.871,5.849,11.721,11.717a1.782,1.782,0,0,0,1.412.529q11.892-.018,23.784,0c.4,0,.881-.173.9.576s-.391.7-.892.7Q69.639,28.066,63.551,28.072Z" transform="translate(-3.829 -0.236)"/><path class="cls-5" d="M138.331,41.977c.328-.348.691-.2,1.006-.2,6.616-.01,13.233-.021,19.849.011a2.376,2.376,0,0,0,1.872-.793c2.911-2.959,5.866-5.874,8.786-8.823a1.623,1.623,0,0,1,1.3-.552c1.309.035,2.621.007,3.932.01a1.228,1.228,0,0,0,1.17-.577,1.924,1.924,0,0,1,2.862-.364,1.979,1.979,0,0,1,.036,2.968,1.947,1.947,0,0,1-2.878-.3,1.169,1.169,0,0,0-1.156-.568c-1.341.031-2.793-.285-3.993.133s-1.97,1.761-2.922,2.7q-3.462,3.422-6.883,6.886a1.783,1.783,0,0,1-1.4.575c-6.21-.019-12.422-.043-18.632.016A5.03,5.03,0,0,1,138.331,41.977Z" transform="translate(-3.829 -0.236)"/><path class="cls-4" d="M140.125,91.234a5.207,5.207,0,0,1,3.529-1.155c4.119.076,8.24.038,12.361.013a1.76,1.76,0,0,1,1.39.571c2.212,2.246,4.46,4.457,6.671,6.7a1.88,1.88,0,0,0,1.475.616q6.368-.033,12.735,0a1.376,1.376,0,0,0,1.319-.62,1.9,1.9,0,0,1,2.8-.269,1.972,1.972,0,0,1,.13,2.831,1.859,1.859,0,0,1-2.863-.049,1.6,1.6,0,0,0-1.5-.655c-4.307.016-8.615-.016-12.922.031a2.335,2.335,0,0,1-1.863-.793c-2.07-2.121-4.2-4.187-6.261-6.315a2.468,2.468,0,0,0-1.959-.827c-4.867.047-9.734.047-14.6.057A1.944,1.944,0,0,1,140.125,91.234Z" transform="translate(-3.829 -0.236)"/><path class="cls-4" d="M63.048,41.771A3.7,3.7,0,0,1,60.1,43.1c-4.024-.072-8.051-.042-12.076-.012a1.957,1.957,0,0,1-1.549-.616c-3-3.031-6.022-6.033-9.019-9.064a1.865,1.865,0,0,0-1.466-.628c-2.839.032-5.679.027-8.518,0a1.373,1.373,0,0,0-1.256.572,1.959,1.959,0,0,1-2.947.225,2.088,2.088,0,0,1,0-2.788A1.923,1.923,0,0,1,26.2,31a1.582,1.582,0,0,0,1.443.63c3.026-.019,6.053,0,9.08-.021a1.659,1.659,0,0,1,1.3.551c3,3.034,6.04,6.039,9.045,9.074a1.664,1.664,0,0,0,1.306.54c4.555-.018,9.111-.008,13.667-.006Z" transform="translate(-3.829 -0.236)"/><path class="cls-4" d="M137.726,108.76c3.87,0,7.741.025,11.611-.021a2.355,2.355,0,0,1,1.863.8q5.865,5.919,11.779,11.791a1.2,1.2,0,0,0,1.185.507,1.892,1.892,0,0,1,2.15,1.908,1.917,1.917,0,0,1-2.107,1.966,1.83,1.83,0,0,1-1.779-2.235,1.388,1.388,0,0,0-.543-1.491Q156.178,116.3,150.5,110.6a1.987,1.987,0,0,0-1.559-.634q-11.565.025-23.129,0c-.344,0-.926.314-.935-.5-.007-.6.224-.711.773-.708,4.026.022,8.052.012,12.079.012Z" transform="translate(-3.829 -0.236)"/><path class="cls-3" d="M144.526,45.512h13.041c1.53,0,3.061-.042,4.589.018a2.1,2.1,0,0,0,1.706-.725c2.206-2.237,4.455-4.433,6.654-6.678a1.528,1.528,0,0,1,1.226-.492c2.748.015,5.5,0,8.242.012a1.085,1.085,0,0,0,1.073-.527,1.858,1.858,0,0,1,2.3-.722,1.89,1.89,0,0,1,1.279,1.876,1.918,1.918,0,0,1-1.52,1.887,1.763,1.763,0,0,1-2.025-.794,1.247,1.247,0,0,0-1.173-.554c-2.529.016-5.058.023-7.587-.005a1.545,1.545,0,0,0-1.214.52c-2.259,2.274-4.546,4.519-6.793,6.805a1.756,1.756,0,0,1-1.386.57c-5.026-.016-10.053-.048-15.078.018A5.12,5.12,0,0,1,144.526,45.512Z" transform="translate(-3.829 -0.236)"/><path class="cls-3" d="M56.982,45.513a4.734,4.734,0,0,1-3.218,1.205c-2.963-.073-5.929-.034-8.893-.015a1.662,1.662,0,0,1-1.308-.544c-2.189-2.223-4.42-4.4-6.607-6.628a2.169,2.169,0,0,0-1.707-.732c-4.181.035-8.363.024-12.545,0a1.453,1.453,0,0,0-1.334.624,1.912,1.912,0,0,1-2.942.209,2.078,2.078,0,0,1,.076-2.853,1.912,1.912,0,0,1,2.928.352,1.193,1.193,0,0,0,1.185.507c4.431,0,8.862.014,13.293-.017a2.041,2.041,0,0,1,1.624.69c2.179,2.23,4.405,4.414,6.6,6.633a1.759,1.759,0,0,0,1.388.58c3.433-.03,6.865-.015,10.3-.015Z" transform="translate(-3.829 -0.236)"/><path class="cls-4" d="M136.737,23.057c3.621,0,7.242-.01,10.863.011a1.652,1.652,0,0,0,1.31-.545c1.214-1.257,2.442-2.5,3.708-3.706a2.036,2.036,0,0,0,.792-1.84,1.822,1.822,0,0,1,1.7-1.97,1.973,1.973,0,0,1,2.148,1.527,1.887,1.887,0,0,1-1.943,2.348,2.055,2.055,0,0,0-1.838.789c-1.34,1.4-2.739,2.735-4.088,4.122a1.674,1.674,0,0,1-1.313.544q-11.143-.023-22.288-.015c-.4,0-.891.169-.91-.574s.415-.694.906-.693Q131.259,23.063,136.737,23.057Z" transform="translate(-3.829 -0.236)"/><path class="cls-3" d="M64.494,113.714c-3.649,0-7.3.012-10.947-.012a1.854,1.854,0,0,0-1.478.591q-1.886,1.948-3.839,3.829a1.763,1.763,0,0,0-.693,1.689,1.59,1.59,0,0,1-1.121,1.833,1.845,1.845,0,0,1-2-.262,1.955,1.955,0,0,1-.635-2.174,1.838,1.838,0,0,1,2.111-1.26,1.086,1.086,0,0,0,1.133-.4c1.467-1.486,2.965-2.94,4.425-4.432a1.773,1.773,0,0,1,1.39-.578q11.6.018,23.2-.02c.424,0,.55.116.565.508.018.441-.066.7-.6.694-1.995-.022-3.992-.009-5.988-.009Z" transform="translate(-3.829 -0.236)"/><path class="cls-4" d="M67.709,24.325c-2.62,0-5.24-.016-7.859.011a1.87,1.87,0,0,1-1.48-.614C57.028,22.338,55.638,21,54.3,19.611a1.822,1.822,0,0,0-1.761-.722,1.69,1.69,0,0,1-1.787-1.082,1.8,1.8,0,0,1,.252-2.089,1.884,1.884,0,0,1,1.919-.682,1.848,1.848,0,0,1,1.524,2.122,1.373,1.373,0,0,0,.423,1.236c1.4,1.366,2.8,2.74,4.162,4.148a1.627,1.627,0,0,0,1.3.53c5.114-.018,10.228-.013,15.343-.012.446,0,.94-.157.933.631s-.513.631-.954.632Q71.685,24.331,67.709,24.325Z" transform="translate(-3.829 -0.236)"/><path class="cls-3" d="M133.526,112.519c2.65,0,5.3.01,7.951-.01a1.24,1.24,0,0,1,.964.451c1.508,1.528,3.034,3.038,4.547,4.56a1.156,1.156,0,0,0,1.2.41,1.933,1.933,0,1,1-1.7,1.684,1.11,1.11,0,0,0-.405-1.183c-1.406-1.362-2.783-2.754-4.144-4.161a1.755,1.755,0,0,0-1.394-.569c-4.928.023-9.857.016-14.785.011-.4,0-.882.167-.885-.581s.492-.567.884-.568c2.589-.009,5.178,0,7.767,0Z" transform="translate(-3.829 -0.236)"/><path class="cls-5" d="M135.773,38.025c3.308,0,6.617-.01,9.926.009a1.178,1.178,0,0,0,1.212-.607,1.964,1.964,0,1,1,3.192,2.255,1.914,1.914,0,0,1-2.944.037,1.556,1.556,0,0,0-1.34-.445q-9.412,0-18.823,0c-.5,0-.995-.075-1.492-.069-.41.006-.625-.07-.621-.56,0-.516.223-.624.682-.622C128.967,38.031,132.37,38.026,135.773,38.025Z" transform="translate(-3.829 -0.236)"/><path class="cls-4" d="M65.524,98.756c-3.369,0-6.737,0-10.106-.006a1.322,1.322,0,0,0-1.437.717,1.868,1.868,0,0,1-2.834.506,1.967,1.967,0,1,1,2.63-2.907,1.62,1.62,0,0,0,1.315.523c6.925-.011,13.849,0,20.773-.018.483,0,.748.014.752.61,0,.66-.4.575-.8.575Q70.671,98.755,65.524,98.756Z" transform="translate(-3.829 -0.236)"/><path class="cls-5" d="M68.8,39.28c-2.339,0-4.679,0-7.019-.005a1.274,1.274,0,0,0-1.056.431A1.977,1.977,0,1,1,61,37.545c.277.525.662.476,1.09.476q6.833,0,13.664.012c.346,0,.833-.228.864.492.024.576-.113.763-.71.755-2.371-.032-4.742-.013-7.113-.013Z" transform="translate(-3.829 -0.236)"/><path class="cls-4" d="M132.5,97.581c2.213,0,4.427-.008,6.64.007a1.262,1.262,0,0,0,1.056-.439,1.962,1.962,0,1,1,2.71,2.8,1.893,1.893,0,0,1-2.895-.541,1.19,1.19,0,0,0-1.275-.656q-6.5.006-13-.007c-.35,0-.841.209-.856-.5-.011-.549.184-.68.7-.675C127.884,97.6,130.191,97.581,132.5,97.581Z" transform="translate(-3.829 -0.236)"/><path class="cls-4" d="M66.219,128.52a1.813,1.813,0,0,1-1.877-2.145,1.779,1.779,0,0,1,2.2-1.678,1.106,1.106,0,0,0,1.134-.407q3.7-3.722,7.407-7.428c.4-.4.9-.987,1.388-.476.467.485-.028.967-.486,1.413-2.529,2.46-4.994,4.984-7.512,7.454-.419.412-.305.841-.3,1.291A1.788,1.788,0,0,1,66.219,128.52Z" transform="translate(-3.829 -0.236)"/><path class="cls-4" d="M132.767,10.522a1.948,1.948,0,0,1,1.88-2.272,2.007,2.007,0,0,1,2.049,2.072,1.964,1.964,0,0,1-2.255,1.825,1.244,1.244,0,0,0-1.2.425c-2.51,2.543-5.05,5.057-7.588,7.573-.163.162-.281.5-.572.391-.345-.13-.15-.487-.189-.744a1.371,1.371,0,0,1,.5-1.233q3.45-3.4,6.875-6.835C132.622,11.374,133.017,11.026,132.767,10.522Z" transform="translate(-3.829 -0.236)"/><path class="cls-4" d="M37.755,80.162c-1.714,0-3.428.006-5.142,0a.929.929,0,0,0-.909.455,1.959,1.959,0,1,1-2.939-2.556,1.9,1.9,0,0,1,2.923.283,1.151,1.151,0,0,0,1.155.534q5.049-.009,10.1,0c.414,0,.873-.139.872.6s-.431.691-.916.69C41.183,80.159,39.469,80.162,37.755,80.162Z" transform="translate(-3.829 -0.236)"/><path class="cls-5" d="M130.4,34.28c1.217,0,2.434-.018,3.65,0a2.386,2.386,0,0,0,2.35-.854,1.814,1.814,0,0,1,2.716.206,2.112,2.112,0,0,1-.185,2.784,1.881,1.881,0,0,1-2.748-.22,1.607,1.607,0,0,0-1.576-.667c-2.963.013-5.926,0-8.889,0-.457,0-.842.046-.848-.645-.007-.723.423-.611.852-.611Q128.064,34.282,130.4,34.28Z" transform="translate(-3.829 -0.236)"/><path class="cls-3" d="M163.22,57.914c-1.592,0-3.184,0-4.776,0-.409,0-.778.078-.779-.581,0-.634.32-.607.756-.606,3.184.008,6.368,0,9.552.009a1.371,1.371,0,0,0,1.337-.585,1.933,1.933,0,0,1,2.886-.307,2.093,2.093,0,0,1,.012,2.94,1.94,1.94,0,0,1-2.883-.275A1.372,1.372,0,0,0,168,57.906C166.4,57.926,164.812,57.913,163.22,57.914Z" transform="translate(-3.829 -0.236)"/><path class="cls-4" d="M70.914,102.5c-1.589,0-3.178.007-4.767,0a1.228,1.228,0,0,0-1.241.585A1.958,1.958,0,1,1,62,100.48a1.94,1.94,0,0,1,2.871.228,1.336,1.336,0,0,0,1.314.629c3.178-.015,6.356-.005,9.534-.009.472,0,.929-.1.894.668-.036.8-.566.489-.931.494C74.092,102.508,72.5,102.5,70.914,102.5Z" transform="translate(-3.829 -0.236)"/><path class="cls-5" d="M71.695,35.539c-1.341,0-2.682.01-4.023-.005a1.135,1.135,0,0,0-1.087.518,1.877,1.877,0,0,1-2.924.281,2.038,2.038,0,0,1-.02-2.852,1.97,1.97,0,0,1,2.951.271,1.18,1.18,0,0,0,1.166.533c2.681-.013,5.363-.008,8.045,0,.375,0,.81-.152.809.542,0,.626-.3.723-.8.718C74.439,35.531,73.067,35.538,71.695,35.539Z" transform="translate(-3.829 -0.236)"/><path class="cls-5" d="M48.266,83.7a1.51,1.51,0,0,1-1.052.161q-3.924.015-7.846,0A1.235,1.235,0,0,0,38.2,84.4a1.881,1.881,0,0,1-2.926.252,2.107,2.107,0,0,1,0-2.861,2.012,2.012,0,0,1,2.956.281,1.194,1.194,0,0,0,1.163.535c1.992-.013,3.985,0,5.977,0A3.532,3.532,0,0,1,48.266,83.7Z" transform="translate(-3.829 -0.236)"/><path class="cls-4" d="M42.516,72.642a1.809,1.809,0,0,1-1.7-.723c-1.2-1.264-2.466-2.46-3.687-3.7a.845.845,0,0,0-.951-.333,1.8,1.8,0,0,1-2.067-.891,1.968,1.968,0,0,1,2.53-2.8,1.869,1.869,0,0,1,1.1,2.069,1.016,1.016,0,0,0,.3,1.055c1.179,1.151,2.352,2.307,3.5,3.487a1.551,1.551,0,0,0,1.378.586c.4-.047.875-.175.886.57s-.439.685-.914.679Z" transform="translate(-3.829 -0.236)"/><path class="cls-4" d="M158.583,64.268a1.378,1.378,0,0,1,1.423.485c1.186,1.232,2.438,2.4,3.621,3.635a1.5,1.5,0,0,0,1.369.54,1.8,1.8,0,0,1,2.089,1.921,1.929,1.929,0,1,1-3.815-.333.992.992,0,0,0-.327-.978c-1.252-1.21-2.459-2.466-3.693-3.695-.192-.192-.38-.452-.693-.432-.56.035-.977-.014-.872-.767C157.794,63.863,158.387,64.414,158.583,64.268Z" transform="translate(-3.829 -0.236)"/><path class="cls-4" d="M129.474,101.328c1,0,1.994-.024,2.99.008a2.11,2.11,0,0,0,2.151-.838,1.851,1.851,0,0,1,2.658-.027,2.016,2.016,0,0,1,.11,2.775,1.864,1.864,0,0,1-2.651.141c-.707-.96-1.582-.9-2.536-.892-2.18.01-4.36,0-6.54,0-.4,0-.782.087-.784-.574,0-.646.35-.6.772-.6C126.921,101.333,128.2,101.329,129.474,101.328Z" transform="translate(-3.829 -0.236)"/><path class="cls-4" d="M40.644,59.369c-.654,0-1.311.035-1.963-.008a1.511,1.511,0,0,0-1.485.662,1.865,1.865,0,0,1-2.808.074,2.065,2.065,0,0,1,.062-2.86,1.9,1.9,0,0,1,2.744.13,1.69,1.69,0,0,0,1.651.721c1.433-.037,2.868,0,4.3-.016.468-.007.674.116.664.627-.01.471-.145.687-.641.675C42.328,59.352,41.486,59.368,40.644,59.369Z" transform="translate(-3.829 -0.236)"/><path class="cls-4" d="M167.084,78.142a1.724,1.724,0,0,1-1.214,1.785,1.692,1.692,0,0,1-2.168-.556,1.58,1.58,0,0,0-1.573-.676c-1.275.03-2.552,0-3.827.014-.388,0-.645-.022-.628-.534.014-.446.072-.675.6-.662,1.368.034,2.738-.011,4.106.022a1.268,1.268,0,0,0,1.235-.594,1.738,1.738,0,0,1,2.137-.69A1.766,1.766,0,0,1,167.084,78.142Z" transform="translate(-3.829 -0.236)"/><path class="cls-5" d="M159.963,53c.405,0,.812-.022,1.216.005a1.616,1.616,0,0,0,1.72-.761,1.941,1.941,0,0,1,2.677-.188,2.009,2.009,0,0,1,.193,2.839,1.826,1.826,0,0,1-2.642.2,2.52,2.52,0,0,0-2.458-.887c-.778.034-1.559.016-2.339,0-.253-.005-.541.095-.652-.329-.152-.579-.287-1.012.6-.9A12.934,12.934,0,0,0,159.963,53Z" transform="translate(-3.829 -0.236)"/><path class="cls-5" d="M127.73,128.522a1.743,1.743,0,0,1-1.851-1.963,1.831,1.831,0,0,0-.738-1.754c-.531-.481-1.03-1-1.526-1.516-.17-.177-.594-.4-.231-.646.283-.194.6-.748,1.1-.253.66.664,1.336,1.312,1.985,1.986a.936.936,0,0,0,.977.325,1.932,1.932,0,1,1,.288,3.821Z" transform="translate(-3.829 -0.236)"/><path class="cls-5" d="M75.082,10.539c-.289.7.326,1.046.762,1.458.514.485.988.962.753,1.759-.047.162.09.4-.162.47-.224.062-.311-.165-.436-.286-.467-.456-.934-.915-1.381-1.391a1.181,1.181,0,0,0-1.137-.41,1.949,1.949,0,0,1-2.306-1.849,1.983,1.983,0,0,1,1.882-2.037C74.351,8.218,75.131,9.065,75.082,10.539Z" transform="translate(-3.829 -0.236)"/><path class="cls-5" d="M72.612,41.955a1.084,1.084,0,0,1,.908-.181,1.573,1.573,0,0,0,1.647-.72,1.491,1.491,0,0,1,2.209-.306,14.759,14.759,0,0,0,2.665,1.533c.225.109.506.2.419.518-.082.3-.377.292-.623.26a1.951,1.951,0,0,0-2.068.844,1.056,1.056,0,0,1-1.431.268C75.1,43.478,73.9,42.727,72.612,41.955Z" transform="translate(-3.829 -0.236)"/><path class="cls-5" d="M153.292,83.769c.169-.473.59-.505.889-.688.852-.523,1.725-1.013,2.58-1.531a1.538,1.538,0,0,1,2.085.34,1.927,1.927,0,0,1,.164,2.48,1.971,1.971,0,0,1-2.218.745.647.647,0,0,0-.082-.044c-.666-.184-.858-1-1.48-1.174C154.624,83.731,153.949,83.952,153.292,83.769Z" transform="translate(-3.829 -0.236)"/><path class="cls-6" d="M128.918,41.953A5.064,5.064,0,0,1,125.74,43.1c-1.33-.115-2.678-.026-4.018-.038-.227,0-.53.088-.59-.283-.052-.318.19-.406.405-.54a2.892,2.892,0,0,1,1.661-.484c1.619.04,3.241.011,4.862.018A1.1,1.1,0,0,1,128.918,41.953Z" transform="translate(-3.829 -0.236)"/><path class="cls-7" d="M43.548,51.643a1.71,1.71,0,0,1,.978.233c.2.153.582.3.45.572a.612.612,0,0,1-.857.3,1.02,1.02,0,0,0-1.539.527c-.3.716.2,1.108.793,1.323.373.136.494.335.4.683-.108.42-.406.256-.673.2a1.937,1.937,0,0,1,.445-3.836Z" transform="translate(-3.829 -0.236)"/><path class="cls-6" d="M51.632,87.1a1.56,1.56,0,0,1,.188-.9c.174-.23.371-.342.631-.189.206.121.417.232.246.577a1.008,1.008,0,0,0,.395,1.447.908.908,0,0,0,1.342-.414c.276-.443.483-.166.744-.026.441.237.133.511-.008.675a1.885,1.885,0,0,1-2.032.8A1.914,1.914,0,0,1,51.632,87.1Z" transform="translate(-3.829 -0.236)"/><path class="cls-8" d="M79.151,45.611c.459-.009.975-.37,1.318.15.094.143.1.543-.12.557C79.853,46.349,79.505,45.971,79.151,45.611Z" transform="translate(-3.829 -0.236)"/><path class="cls-9" d="M131.245,40.508a2.633,2.633,0,0,1-1.426.792A1.212,1.212,0,0,1,131.245,40.508Z" transform="translate(-3.829 -0.236)"/><path class="cls-10" d="M18.223,97.579a.928.928,0,0,1,1.058.971.95.95,0,0,1-1.011,1.069,1.012,1.012,0,0,1-1.025-1.093A.944.944,0,0,1,18.223,97.579Z" transform="translate(-3.829 -0.236)"/><path class="cls-1" d="M114.764,48.271c.807,2.722-.583,4.2-2.923,5.112-.831.323-1.014.88-1.011,1.73q.04,12.129-.011,24.258a1.375,1.375,0,0,0,.8,1.384c3.3,1.862,6.572,3.768,9.862,5.645.517.295.687.481.033.841-1.576.87-3.145,1.757-4.673,2.707a1.351,1.351,0,0,1-1.6-.024c-4.565-2.654-9.153-5.269-13.71-7.938A1.307,1.307,0,0,0,100,81.968c-4.618,2.684-9.257,5.334-13.87,8.026a1.148,1.148,0,0,1-1.348.011c-1.6-.958-3.2-1.9-4.836-2.8-.641-.353-.432-.5.036-.763,3.285-1.886,6.554-3.8,9.849-5.671a1.356,1.356,0,0,0,.822-1.36q-.037-12.27.009-24.54a1.365,1.365,0,0,0-.869-1.449c-.506-.231-.946-.623-1.464-.8-1.426-.5-1.765-1.487-1.64-2.9.122-1.363.022-2.745.029-4.119,0-.953.065-.983.918-.491,4.17,2.4,8.344,4.793,12.5,7.218a.98.98,0,0,0,1.169.03q6.236-3.632,12.5-7.208c.253-.145.5-.488.815-.291.267.164.126.519.131.787C114.773,46.522,114.764,47.4,114.764,48.271Z" transform="translate(-3.829 -0.236)"/><path class="cls-11" d="M151.473,54.709q-2.217,1.287-4.418,2.566c-4.113,2.38-8.239,4.738-12.33,7.156a1.867,1.867,0,0,1-2.129.094q-8.053-4.7-16.125-9.371c-.861-.5-.84-.673.036-1.178q6.136-3.534,12.268-7.079c1.4-.806,2.81-1.59,4.206-2.4a1.089,1.089,0,0,1,1.215-.006q4.948,2.882,9.915,5.736c2.206,1.269,4.421,2.524,6.63,3.787A1.808,1.808,0,0,1,151.473,54.709Z" transform="translate(-3.829 -0.236)"/><path class="cls-11" d="M118.486,13.861c-.09.3-.373.388-.608.525q-3.459,2.025-6.924,4.041c-3.091,1.789-6.2,3.544-9.273,5.365a1.547,1.547,0,0,1-1.8.007c-3.512-2.057-7.043-4.079-10.569-6.111q-2.707-1.56-5.42-3.115c-1.153-.663-1.155-.723.026-1.4,5.087-2.922,10.224-5.761,15.23-8.815a2.62,2.62,0,0,1,3.238.027c3.748,2.261,7.573,4.393,11.366,6.579,1.423.82,2.84,1.652,4.259,2.479C118.2,13.546,118.43,13.593,118.486,13.861Z" transform="translate(-3.829 -0.236)"/><path class="cls-11" d="M50.039,54.521c1.43-.84,2.859-1.692,4.3-2.523,4.247-2.447,8.507-4.873,12.741-7.342a1.486,1.486,0,0,1,1.7-.007c4.431,2.576,8.879,5.121,13.321,7.677q1.452.836,2.9,1.681c.837.489.841.638.015,1.117q-8.138,4.72-16.274,9.447a1.426,1.426,0,0,1-1.619,0c-2.973-1.744-5.964-3.46-8.95-5.183q-3.714-2.144-7.435-4.276A1.463,1.463,0,0,1,50.039,54.521Z" transform="translate(-3.829 -0.236)"/><path class="cls-11" d="M118.5,95.316c-.111.327-.451.4-.7.549q-4.791,2.791-9.6,5.555c-2.287,1.319-4.585,2.621-6.859,3.962a1.032,1.032,0,0,1-1.2.018q-8.212-4.77-16.443-9.513c-.854-.494-.866-.617-.039-1.1,2.823-1.636,5.662-3.244,8.484-4.882,2.416-1.4,4.833-2.8,7.216-4.262a2.294,2.294,0,0,1,2.65-.092c4.407,2.608,8.845,5.163,13.273,7.735.911.53,1.829,1.049,2.739,1.581C118.209,94.978,118.418,95.071,118.5,95.316Z" transform="translate(-3.829 -0.236)"/><path class="cls-12" d="M131.784,78.436q0,4.726,0,9.451c0,.992-.148,1.065-.988.579-5.348-3.1-10.691-6.2-16.054-9.269a1.863,1.863,0,0,1-1.067-1.854c.037-6.02.016-12.04.016-18.06,0-1.508.015-1.529,1.289-.794,5.354,3.087,10.694,6.2,16.056,9.266a1.309,1.309,0,0,1,.765,1.324C131.768,72.2,131.785,75.317,131.784,78.436Z" transform="translate(-3.829 -0.236)"/><path class="cls-12" d="M98.885,119.2q0,4.679,0,9.358c0,1.015-.093,1.057-.96.557q-8.23-4.748-16.468-9.484a1.106,1.106,0,0,1-.574-1.079q.017-9.546.034-19.09c0-.835.109-.865,1.017-.341q5.408,3.12,10.814,6.242c1.776,1.028,3.521,2.112,5.327,3.082a1.433,1.433,0,0,1,.823,1.49C98.875,113.022,98.886,116.11,98.885,119.2Z" transform="translate(-3.829 -0.236)"/><path class="cls-12" d="M48.162,57.847c2.938,1.7,5.7,3.312,8.478,4.91,2.743,1.58,5.48,3.174,8.25,4.705a1.974,1.974,0,0,1,1.215,1.949c-.039,6.149-.014,12.3-.022,18.446,0,1.032-.066,1.054-.94.55q-8.073-4.662-16.152-9.313a1.589,1.589,0,0,1-.936-1.546c.028-6.179.017-12.359.022-18.539C48.078,58.676,48.125,58.344,48.162,57.847Z" transform="translate(-3.829 -0.236)"/><path class="cls-13" d="M102.6,119.2c0-3.057.016-6.115-.01-9.172a1.726,1.726,0,0,1,1.037-1.741c4.441-2.5,8.831-5.1,13.239-7.655.908-.527,1.819-1.051,2.735-1.564s1.029-.441,1.028.606q0,7.768-.016,15.537c0,1.123-.009,2.246,0,3.369a1.12,1.12,0,0,1-.65,1.111c-4.049,2.306-8.077,4.651-12.114,6.98-1.477.852-2.964,1.687-4.437,2.545-.583.34-.8.251-.8-.47.025-3.182.011-6.364.011-9.546Z" transform="translate(-3.829 -0.236)"/><path class="cls-13" d="M102.636,37.661c0-3.059.022-6.118-.015-9.177a1.52,1.52,0,0,1,.954-1.559c4.065-2.284,8.076-4.664,12.105-7.011,1.318-.768,2.629-1.546,3.954-2.3.834-.475.973-.413.974.478.01,6.274,0,12.548.011,18.821a1.5,1.5,0,0,1-.9,1.459c-5.362,3.072-10.7,6.184-16.048,9.28-1.033.6-1.042.589-1.042-.628q0-4.681,0-9.363Z" transform="translate(-3.829 -0.236)"/><path class="cls-14" d="M138.39,66.49c2.031-1.235,4.067-2.462,6.184-3.548,2.088-1.1,4.112-2.32,6.135-3.535.479-.287,1.007-.462,1.486-.761.652-.407,1.126-.094,1.184.7.081,1.123-.1,2.239-.108,3.361q-.025,6.734.111,13.466c.006.28,0,.561,0,.842a2.432,2.432,0,0,1-1.435,2.359c-2.369,1.285-4.712,2.631-6.988,4.083a3.336,3.336,0,0,1-.6.242c-1.818,1.147-3.714,2.165-5.564,3.258v0c-.569.38-1.217.61-1.788,1-.9.607-1.489.284-1.5-.811-.03-2.774-.009-5.549-.011-8.323q0-4.068,0-8.136c0-.468.042-.933.074-1.4a1.934,1.934,0,0,1,1.337-1.831A5.777,5.777,0,0,0,138.39,66.49Z" transform="translate(-3.829 -0.236)"/><path class="cls-15" d="M72.828,87.123a23.061,23.061,0,0,1-2.451,1.5c-.393.264-.567.062-.575-.353-.005-.281-.006-.561-.006-.842q0-7.109,0-14.216c0-1.339-.061-2.678-.077-4.018a1.43,1.43,0,0,1,.714-1.407q7.56-4.292,15.107-8.609c.4-.177.749-.449,1.162-.6.582-.211.918-.046.919.608,0,.686.077,1.371.081,2.054.024,4.089.1,8.181-.034,12.267-.045,1.39.047,2.787-.111,4.182a1.9,1.9,0,0,1-1.311,1.643.7.7,0,0,1-.866-.1.628.628,0,0,1,.042-.932c1.018-.744.82-1.8.821-2.815q.007-6.508,0-13.017c0-.281.015-.563-.011-.843-.068-.729-.313-.873-.98-.537-1.167.589-2.266,1.3-3.407,1.938a26.14,26.14,0,0,0-4.283,2.618,1.256,1.256,0,0,1-.542.347,43.922,43.922,0,0,0-4.992,2.746,1.374,1.374,0,0,0-.641,1.268c.009,5,0,9.991.011,14.986,0,.922.153.994.985.627a12.274,12.274,0,0,0,2.276-1.269,12.614,12.614,0,0,1,2.465-1.1.585.585,0,0,1,.821.216c.178.351-.039.591-.324.773C76.048,85.245,74.436,86.18,72.828,87.123Z" transform="translate(-3.829 -0.236)"/><path class="cls-16" d="M77.327,65.582a4.89,4.89,0,0,1,2.211-1.6c1.924-1.04,3.809-2.144,5.712-3.219.8-.449,1.241-.2,1.243.741.013,5.148.005,10.3.007,15.442a1.3,1.3,0,0,1-.671,1.24c-.308.177-.606.477-.393.838.243.412.645.208.989.058,1.156-.507,1.025-1.673.948-2.506-.1-1.1.061-2.157.064-3.232q.018-6.831,0-13.663c0-1.212-.089-1.262-1.2-.725a1.2,1.2,0,0,1-.7.221,5.824,5.824,0,0,1,1.631-1.037c.419-.247.669-.166.675.4.011,1.057.1,2.114.1,3.172q.023,6.546.01,13.091c0,1.04-.01,2.081-.048,3.121a1.5,1.5,0,0,1-.929,1.207q-6.861,3.834-13.62,7.842a2.09,2.09,0,0,1-.53.145,32.5,32.5,0,0,1,3.83-2.443c.1-.064.269-.077.324-.165.232-.375,1.1-.434.8-.96s-.779.12-1.19.217c-1.629.383-2.808,1.617-4.318,2.224-.786.317-1.14.176-1.141-.663-.009-5.18,0-10.36-.012-15.54a1.224,1.224,0,0,1,.56-1.111,35.032,35.032,0,0,1,5.272-2.924c.046.486-.361.617-.662.806q-1.7,1.074-3.479,2.023a1.825,1.825,0,0,0-1.053,1.8c.027,4.712.011,9.424.015,14.136,0,1.031.038,1.074.971.544,4.1-2.324,8.165-4.7,12.249-7.048A1.6,1.6,0,0,0,85.87,76.5c-.009-4.775,0-9.549-.01-14.323,0-.882-.119-.951-.911-.539-2.076,1.082-4.042,2.355-6.084,3.5C78.4,65.394,77.96,65.85,77.327,65.582Z" transform="translate(-3.829 -0.236)"/><path class="cls-17" d="M99.017,37.85c0,3.153-.016,6.306.013,9.458.007.784-.184.966-.888.556-2.035-1.185-4.086-2.342-6.125-3.521-3.519-2.034-7.027-4.087-10.556-6.1a1.083,1.083,0,0,1-.6-1.034c-.292-5.3-.088-10.6-.105-15.906,0-1.145.125-2.3.112-3.451-.006-.544.156-.681.643-.407,1.27.715,2.554,1.405,3.817,2.132,4.249,2.45,8.484,4.924,12.743,7.357a1.674,1.674,0,0,1,.953,1.648C99,31.669,99.015,34.76,99.017,37.85Z" transform="translate(-3.829 -0.236)"/><path class="cls-18" d="M144.2,83.737c2.685-1.687,5.462-3.214,8.21-4.793.883-.508.723-1.482.758-2.266.076-1.737-.043-3.478-.116-5.218-.13-3.115-.054-6.239-.026-9.358a26.38,26.38,0,0,0,.169-2.784c-.059-.624-.438-.84-.932-.561-1.6.905-3.226,1.78-4.818,2.706a8.344,8.344,0,0,1-2.87,1.479,20.292,20.292,0,0,1,3.156-1.915c1.642-.94,3.277-1.892,4.918-2.832.827-.474.9-.434.9.563q0,9.49,0,18.982a1.21,1.21,0,0,1-.562,1.189q-4.14,2.4-8.286,4.784a.779.779,0,0,1-.275.039A.146.146,0,0,1,144.2,83.737Z" transform="translate(-3.829 -0.236)"/><path class="cls-19" d="M138.39,66.49a1.875,1.875,0,0,1-1.171,1c-1.319.408-1.434,1.436-1.439,2.48-.03,5.762-.017,11.525-.011,17.287,0,.839.34,1.02,1.114.6a5.365,5.365,0,0,1,1.913-.9,14.942,14.942,0,0,1-3,1.828c-.246.134-.4.076-.422-.242-.026-.37-.125-.737-.126-1.105-.008-6.077.006-12.153-.022-18.229a1.562,1.562,0,0,1,.853-1.52C136.841,67.266,137.621,66.887,138.39,66.49Z" transform="translate(-3.829 -0.236)"/><path class="cls-19" d="M144.2,83.737l.226.015a37.381,37.381,0,0,1-5.63,3.2c.6-.84,1.645-1.006,2.434-1.575A26.13,26.13,0,0,1,144.2,83.737Z" transform="translate(-3.829 -0.236)"/><path class="cls-10" d="M181.441,9.2a.977.977,0,0,1,1-.966A.951.951,0,0,1,183.5,9.249a1.01,1.01,0,0,1-1.091,1.021C181.816,10.261,181.49,9.846,181.441,9.2Z" transform="translate(-3.829 -0.236)"/><path class="cls-20" d="M26.38,9.346a.928.928,0,0,1-.986.925.99.99,0,0,1-1.041-1.063.954.954,0,0,1,1.109-.969C26.07,8.287,26.38,8.66,26.38,9.346Z" transform="translate(-3.829 -0.236)"/><path class="cls-20" d="M17.5,127.469a.905.905,0,0,1,.925-.936.969.969,0,0,1,1.079,1.033.957.957,0,0,1-.983,1.034C17.969,128.611,17.525,128.278,17.5,127.469Z" transform="translate(-3.829 -0.236)"/><path class="cls-21" d="M175.537,126.506a1.051,1.051,0,0,1,1.038,1.007,1.017,1.017,0,1,1-2.031.116C174.509,126.939,174.952,126.651,175.537,126.506Z" transform="translate(-3.829 -0.236)"/><path class="cls-10" d="M176.251,103.576c.581.08,1.039.354,1.07.959a.981.981,0,0,1-.982,1.112c-.693.045-1.013-.414-1.054-1.024C175.242,103.987,175.7,103.719,176.251,103.576Z" transform="translate(-3.829 -0.236)"/><path class="cls-22" d="M24.143,104.652c-.089.627-.42,1.025-1.088,1a1.023,1.023,0,1,1,.118-2.042A.988.988,0,0,1,24.143,104.652Z" transform="translate(-3.829 -0.236)"/><path class="cls-20" d="M172.311,13.021a1.025,1.025,0,0,1-.987,1.027.935.935,0,0,1-1.074-.923.969.969,0,0,1,1-1.105A1.019,1.019,0,0,1,172.311,13.021Z" transform="translate(-3.829 -0.236)"/><path class="cls-23" d="M30.7,123.86a1.008,1.008,0,0,1-2.011-.128.95.95,0,0,1,1.029-.988A.975.975,0,0,1,30.7,123.86Z" transform="translate(-3.829 -0.236)"/><path class="cls-20" d="M37.625,13.047a1,1,0,0,1-1.052,1.008.941.941,0,0,1-1.006-.98A.966.966,0,0,1,36.6,12.02C37.193,12.01,37.563,12.385,37.625,13.047Z" transform="translate(-3.829 -0.236)"/><path class="cls-10" d="M177.845,31.149c.563.111,1.015.395,1.01,1.019a1.021,1.021,0,1,1-2.042-.014C176.805,31.488,177.291,31.277,177.845,31.149Z" transform="translate(-3.829 -0.236)"/><path class="cls-22" d="M182.117,98.612c-.081.6-.422,1.035-1.014,1.007a1,1,0,0,1-1-1.119.923.923,0,0,1,1.063-.919C181.84,97.611,182.069,98.017,182.117,98.612Z" transform="translate(-3.829 -0.236)"/><path class="cls-1" d="M23.666,32.193a.953.953,0,0,1,.95-1.013.928.928,0,0,1,1.064.926.958.958,0,0,1-1,1.093C24.044,33.222,23.741,32.832,23.666,32.193Z" transform="translate(-3.829 -0.236)"/><path class="cls-10" d="M164.358,124.808a1.013,1.013,0,0,1-1.026-1,1.02,1.02,0,1,1,2.039-.028A1.015,1.015,0,0,1,164.358,124.808Z" transform="translate(-3.829 -0.236)"/><path class="cls-23" d="M181.651,38.245a1.026,1.026,0,0,1,2.051.019.98.98,0,0,1-1,1.013A1,1,0,0,1,181.651,38.245Z" transform="translate(-3.829 -0.236)"/><path class="cls-23" d="M18.821,38.247a.959.959,0,0,1,.973-1.019.939.939,0,0,1,1.06.948.987.987,0,0,1-1.014,1.107A1.009,1.009,0,0,1,18.821,38.247Z" transform="translate(-3.829 -0.236)"/><path class="cls-20" d="M154.3,17a.99.99,0,0,1,.987-1.055A1.014,1.014,0,1,1,154.3,17Z" transform="translate(-3.829 -0.236)"/><path class="cls-23" d="M46.625,119.889a.909.909,0,0,1-.994.961.941.941,0,0,1-1.039-1.033,1.017,1.017,0,1,1,2.033.072Z" transform="translate(-3.829 -0.236)"/><path class="cls-10" d="M52.514,18A1,1,0,0,1,51.5,16.975,1.016,1.016,0,1,1,53.53,17,.991.991,0,0,1,52.514,18Z" transform="translate(-3.829 -0.236)"/><path class="cls-20" d="M148.424,120.864a.984.984,0,0,1-1.021-1.019,1.023,1.023,0,0,1,2.045,0A.973.973,0,0,1,148.424,120.864Z" transform="translate(-3.829 -0.236)"/><path class="cls-10" d="M149.648,38.391c-.086.576-.388,1-1,1.025a.945.945,0,0,1-1.064-1.018.907.907,0,0,1,1-.973A.992.992,0,0,1,149.648,38.391Z" transform="translate(-3.829 -0.236)"/><path class="cls-10" d="M53.367,98.378a1.026,1.026,0,0,1-2.051.056.974.974,0,0,1,1.047-1.047A.953.953,0,0,1,53.367,98.378Z" transform="translate(-3.829 -0.236)"/><path class="cls-20" d="M59.224,37.419c.647.033,1.048.35,1.049.973a1.02,1.02,0,1,1-2.039.008A.939.939,0,0,1,59.224,37.419Z" transform="translate(-3.829 -0.236)"/><path class="cls-24" d="M141.8,99.485c-.661-.133-1.128-.426-1.132-1.08a.944.944,0,0,1,.981-1.013.957.957,0,0,1,1.064,1.018C142.728,99.057,142.26,99.289,141.8,99.485Z" transform="translate(-3.829 -0.236)"/><path class="cls-20" d="M67.263,126.661a.938.938,0,0,1-1,.941c-.69,0-1-.412-.985-1.07a.9.9,0,0,1,1.017-.954A.978.978,0,0,1,67.263,126.661Z" transform="translate(-3.829 -0.236)"/><path class="cls-10" d="M133.65,10.267c.108-.669.467-1.072,1.042-1.073a.964.964,0,0,1,1.044,1.047.973.973,0,0,1-1.1.992C134,11.2,133.794,10.725,133.65,10.267Z" transform="translate(-3.829 -0.236)"/><path class="cls-21" d="M30.031,78.473a1.026,1.026,0,0,1,1.123,1.038,1.05,1.05,0,1,1-1.123-1.038Z" transform="translate(-3.829 -0.236)"/><path class="cls-10" d="M138.64,34.786c-.046.717-.371,1.142-1.034,1.153a.966.966,0,0,1-1-1.021.939.939,0,0,1,.979-1.025A.983.983,0,0,1,138.64,34.786Z" transform="translate(-3.829 -0.236)"/><path class="cls-20" d="M169.854,57.466c-.01-.765.369-1.1.959-1.136a1,1,0,1,1,.057,1.989A.914.914,0,0,1,169.854,57.466Z" transform="translate(-3.829 -0.236)"/><path class="cls-10" d="M63.342,102.93a1.006,1.006,0,0,1-1.018-1.008,1.023,1.023,0,0,1,2.046.012A1.012,1.012,0,0,1,63.342,102.93Z" transform="translate(-3.829 -0.236)"/><path class="cls-10" d="M66.091,34.868a1.076,1.076,0,0,1-1.015,1.059,1.016,1.016,0,1,1-.049-2.031C65.645,33.886,65.962,34.3,66.091,34.868Z" transform="translate(-3.829 -0.236)"/><path class="cls-10" d="M36.68,82.187a1.018,1.018,0,0,1,.985,1.031.96.96,0,0,1-.979,1.037,1,1,0,0,1-1.058-1.07C35.625,82.6,36.063,82.26,36.68,82.187Z" transform="translate(-3.829 -0.236)"/><path class="cls-10" d="M36.867,65.876c-.114.717-.493,1.148-1.1,1.137a.975.975,0,0,1-.986-1.019.916.916,0,0,1,1.045-1.007C36.479,64.989,36.7,65.433,36.867,65.876Z" transform="translate(-3.829 -0.236)"/><path class="cls-20" d="M166.162,70.685c-.012.849-.441,1.2-1,1.2a1,1,0,0,1-1.012-1.112.931.931,0,0,1,1.061-.939A.89.89,0,0,1,166.162,70.685Z" transform="translate(-3.829 -0.236)"/><path class="cls-1" d="M135.911,102.92a.949.949,0,0,1-.974-1,.908.908,0,0,1,.956-1.022.936.936,0,0,1,1.043,1.032C136.915,102.583,136.523,102.851,135.911,102.92Z" transform="translate(-3.829 -0.236)"/><path class="cls-10" d="M35.756,57.663c.647.08,1.051.4,1.063,1a.975.975,0,0,1-1.033,1.062.958.958,0,0,1-1.006-1.082A1,1,0,0,1,35.756,57.663Z" transform="translate(-3.829 -0.236)"/><path class="cls-10" d="M166.156,77.857c-.011.952-.449,1.3-.991,1.3a.977.977,0,0,1-1.009-1.087.961.961,0,0,1,1-1A.93.93,0,0,1,166.156,77.857Z" transform="translate(-3.829 -0.236)"/><path class="cls-20" d="M163.287,53.613a.918.918,0,0,1,.993-1.012.935.935,0,0,1,1.034,1.049,1.014,1.014,0,0,1-2.027-.037Z" transform="translate(-3.829 -0.236)"/><path class="cls-20" d="M127.742,127.616a.985.985,0,0,1-.959-1.017,1.017,1.017,0,1,1,2.033.032A1,1,0,0,1,127.742,127.616Z" transform="translate(-3.829 -0.236)"/><path class="cls-20" d="M74.141,10.438a.914.914,0,0,1-1.076.791.963.963,0,0,1-.947-1.044A.987.987,0,0,1,73.229,9.2C73.785,9.243,74.187,9.6,74.141,10.438Z" transform="translate(-3.829 -0.236)"/><path class="cls-20" d="M76.41,41.38c.842.013,1.173.411,1.178,1a1.016,1.016,0,1,1-2.029-.041A.9.9,0,0,1,76.41,41.38Z" transform="translate(-3.829 -0.236)"/><path class="cls-10" d="M157.369,84.29c-.595-.167-1.027-.49-.985-1.151a.924.924,0,0,1,1.047-.925.968.968,0,0,1,1,1C158.428,83.857,157.98,84.179,157.369,84.29Z" transform="translate(-3.829 -0.236)"/><path class="cls-25" d="M134.109,52.477c-.763,1.239.542,1.47,1.3,1.962.807.52,1.7.915,2.5,1.439a1.127,1.127,0,0,0,1.372.047,1.8,1.8,0,0,1,1.159-.284.762.762,0,0,1,.681.421c.146.327-.088.552-.333.683-.426.228-.453.432-.073.732a.55.55,0,0,1,.222.658c-.12.323-.391.351-.684.367-1.259.071-2.1-.819-3.094-1.35-1.5-.807-2.961-1.7-4.449-2.542a1.787,1.787,0,0,0-1.169-.148,6.163,6.163,0,0,1-4.086-.5,1.947,1.947,0,0,1-1.206-1.647,1.813,1.813,0,0,1,1.166-1.673,5.841,5.841,0,0,1,5.721.085A1.64,1.64,0,0,1,134.109,52.477Z" transform="translate(-3.829 -0.236)"/><path class="cls-25" d="M97.186,9.141a6.807,6.807,0,0,1,2.557.475,1.839,1.839,0,0,1,1.291,2.362.774.774,0,0,0,.462,1.036c1.17.642,2.314,1.334,3.461,2.02a1.117,1.117,0,0,0,1.376-.006,1.365,1.365,0,0,1,1.241-.232c.651.175.785.591.28,1.04-.383.342-.361.546-.031.9.445.477.09.734-.358.847a2.334,2.334,0,0,1-1.783-.364c-1.905-1.108-3.822-2.2-5.709-3.336a2.195,2.195,0,0,0-1.59-.293,6.246,6.246,0,0,1-3.835-.435,1.974,1.974,0,0,1-1.282-1.887c.034-.944.781-1.418,1.543-1.694A5.547,5.547,0,0,1,97.186,9.141Z" transform="translate(-3.829 -0.236)"/><path class="cls-25" d="M64.316,49.985a5.232,5.232,0,0,1,2.665.619A1.741,1.741,0,0,1,68,52.963c-.229.535.081.706.377.88,1.257.737,2.544,1.424,3.8,2.163a.883.883,0,0,0,1.037-.05,1.708,1.708,0,0,1,1.136-.344c.322.031.638.087.774.418.15.364-.081.607-.362.765-.473.264-.305.441-.01.746.427.442.248.858-.381.939a2.142,2.142,0,0,1-1.428-.282c-1.973-1.17-3.975-2.292-5.957-3.447a2.164,2.164,0,0,0-1.486-.267,6.574,6.574,0,0,1-3.926-.463A1.95,1.95,0,0,1,60.3,52.346,1.79,1.79,0,0,1,61.485,50.6,5.79,5.79,0,0,1,64.316,49.985Z" transform="translate(-3.829 -0.236)"/><path class="cls-25" d="M101.13,92.97a4.521,4.521,0,0,1-.129.567c-.136.409.04.629.383.826,1.238.71,2.461,1.446,3.7,2.16a1.025,1.025,0,0,0,1.145-.043,1.847,1.847,0,0,1,1.152-.317.807.807,0,0,1,.77.44c.161.376-.092.561-.39.723-.324.176-.473.383-.092.686.214.17.465.4.263.709a.926.926,0,0,1-.83.342,4.411,4.411,0,0,1-2.2-.91c-1.734-.968-3.447-1.975-5.159-2.983a2.014,2.014,0,0,0-1.181-.149,7.577,7.577,0,0,1-4.107-.528c-1.44-.787-1.607-2.13-.325-3.135a6.01,6.01,0,0,1,6.425.234A1.522,1.522,0,0,1,101.13,92.97Z" transform="translate(-3.829 -0.236)"/><path class="cls-3" d="M130.03,69.533a8.6,8.6,0,0,1,.148,2.224q0,6.636-.028,13.273c0,1.106-.08,1.163-1,.64-1.967-1.114-3.912-2.265-5.887-3.365-.622-.347-.652-.724-.318-1.281q3.4-5.658,6.789-11.324C129.769,69.635,129.88,69.614,130.03,69.533Z" transform="translate(-3.829 -0.236)"/><path class="cls-3" d="M97.168,110.19a.9.9,0,0,1,.181.729q0,7.443,0,14.887c0,1.031-.063,1.1-.956.609-2.069-1.138-4.1-2.349-6.154-3.511-.6-.338-.543-.7-.228-1.216,1.828-2.966,3.631-5.947,5.454-8.916A13.7,13.7,0,0,1,97.168,110.19Z" transform="translate(-3.829 -0.236)"/><path class="cls-3" d="M64.454,69.51v1.009q0,7.254,0,14.507c0,1.081-.156,1.159-1.1.61-2.064-1.2-4.121-2.414-6.2-3.586-.639-.36-.615-.729-.263-1.273q3.368-5.2,6.711-10.414c.2-.307.41-.6.616-.905Z" transform="translate(-3.829 -0.236)"/><path class="cls-3" d="M104.236,118.166c0-2.341.075-4.685-.032-7.021a2.1,2.1,0,0,1,1.318-2.174c2.534-1.381,5.043-2.809,7.547-4.245,1.612-.925,3.2-1.895,4.8-2.849.3-.18.647-.365.955-.211.265.133.145.511.145.782.007,5.087,0,10.175.02,15.262a1.075,1.075,0,0,1-.649,1.078c-4.394,2.521-8.769,5.075-13.15,7.618-.871.5-.946.463-.948-.562C104.231,123.285,104.235,120.725,104.236,118.166Z" transform="translate(-3.829 -0.236)"/><path class="cls-3" d="M104.237,36.712c0-2.527.011-5.054-.008-7.581a1.132,1.132,0,0,1,.655-1.173c4.423-2.514,8.818-5.077,13.217-7.634.6-.35.881-.3.878.491q-.027,7.767,0,15.536a1.114,1.114,0,0,1-.716,1.066q-5.074,2.928-10.147,5.858-1.45.837-2.908,1.661c-.887.5-.97.46-.973-.549C104.232,41.829,104.237,39.27,104.237,36.712Z" transform="translate(-3.829 -0.236)"/><path class="cls-3" d="M142.131,83.354c-1.411.78-2.835,1.534-4.224,2.351-.621.366-.893.341-.892-.448q.011-7.764,0-15.527c0-.661.409-.924.877-1.191q3.518-2.012,7.031-4.028a6.467,6.467,0,0,0,.6-.44c1.557-.836,3.032-1.812,4.587-2.653.245-.132.485-.27.74-.387,1.012-.465,1.109-.42,1.112.738.013,4.984,0,9.969.008,14.954a1.544,1.544,0,0,1-.873,1.487c-2.668,1.589-5.392,3.081-8.049,4.688A4.848,4.848,0,0,1,142.131,83.354Z" transform="translate(-3.829 -0.236)"/><path class="cls-26" d="M142.131,83.354c2.165-1.508,4.538-2.668,6.787-4.036a8.984,8.984,0,0,1,1.6-.936c1.1-.383,1.243-1.146,1.233-2.179-.045-4.7-.02-9.41-.02-14.115v-1.3a60.479,60.479,0,0,0-5.531,3.057,1.215,1.215,0,0,1-.688.227,44.2,44.2,0,0,1,5.615-3.379c.651-.368.926-.013,1.072.541a3.348,3.348,0,0,1,.046.834c0,4.775-.013,9.55.015,14.324a1.961,1.961,0,0,1-1.122,1.941c-2.736,1.547-5.427,3.173-8.135,4.77A1.3,1.3,0,0,1,142.131,83.354Z" transform="translate(-3.829 -0.236)"/><path class="cls-3" d="M77.327,65.582c2.151-.97,4.083-2.326,6.141-3.462.7-.387,1.415-.758,2.123-1.135.373-.2.519-.013.547.337.018.217.017.436.017.655,0,4.71-.03,9.421.013,14.132a2.226,2.226,0,0,1-1.278,2.3c-4.185,2.318-8.3,4.759-12.454,7.137-.943.54-.968.506-.968-.56,0-4.992.014-9.983-.011-14.974a1.414,1.414,0,0,1,.814-1.416c1.386-.766,2.744-1.581,4.111-2.381.212-.123.462-.2.572-.456Z" transform="translate(-3.829 -0.236)"/><path class="cls-14" d="M84.805,79.63c.013.344-.234.469-.486.613-1.554.889-3.1,1.787-4.652,2.68a.8.8,0,0,1-.175.064c-.324.094-.642.288-.992.159-.2-.074-.091-.263-.065-.4.094-.5.434-.544.85-.47.075.014.216-.013.236-.06.472-1.106,1.63-1.067,2.5-1.506a8.1,8.1,0,0,0,1.5-1.215,1.156,1.156,0,0,1,1.049-.217C84.757,79.309,84.8,79.467,84.805,79.63Z" transform="translate(-3.829 -0.236)"/><path class="cls-11" d="M98.5,36.755c0,2.621-.012,5.242.008,7.863.006.742.151,1.483.154,2.226s-.27.845-.91.477c-2.819-1.625-5.69-3.162-8.465-4.857-2.492-1.522-5.073-2.883-7.571-4.392a.861.861,0,0,1-.465-.831c0-4.494-.129-8.993.07-13.477.071-1.625-.227-3.212-.085-4.823.092-1.038.3-1.235,1.237-.719,1.413.779,2.791,1.62,4.185,2.434q4.257,2.484,8.514,4.964c.857.5,1.712,1,2.6,1.45a1.226,1.226,0,0,1,.742,1.26C98.482,31.138,98.5,33.946,98.5,36.755Z" transform="translate(-3.829 -0.236)"/><path class="cls-13" d="M130.235,53.368c-1.072,0-1.908-.492-1.89-1.122.017-.6.906-1.087,1.944-1.064.881.02,1.754.552,1.765,1.076C132.066,52.817,131.169,53.364,130.235,53.368Z" transform="translate(-3.829 -0.236)"/><path class="cls-12" d="M97.369,12.5c-1.169-.025-1.993-.513-2-1.093s1.112-1.2,2.028-1.1c.932.1,1.766.693,1.618,1.222C98.766,12.428,97.947,12.41,97.369,12.5Z" transform="translate(-3.829 -0.236)"/><path class="cls-12" d="M64.276,53.356c-1.078,0-1.926-.509-1.89-1.126.033-.57.894-1.045,1.882-1.039.947.007,1.744.473,1.775,1.039C66.079,52.857,65.289,53.359,64.276,53.356Z" transform="translate(-3.829 -0.236)"/><path class="cls-27" d="M97.324,93.9c-1.132.035-1.993-.462-1.975-1.09.016-.567.842-1.046,1.853-1.052a2.049,2.049,0,0,1,.817.1c.464.206,1.136.372,1.063,1s-.632.946-1.287.991C97.611,93.857,97.427,93.886,97.324,93.9Z" transform="translate(-3.829 -0.236)"/><path class="cls-3" d="M97.184,28.883a1.305,1.305,0,0,1,.155.945q.012,7.248.007,14.5c0,1.086-.08,1.166-1.012.649-1.98-1.1-3.923-2.262-5.889-3.387-.664-.38-.338-.878-.125-1.281.479-.906,1.043-1.765,1.558-2.652q2.336-4.022,4.659-8.05A1.357,1.357,0,0,1,97.184,28.883Z" transform="translate(-3.829 -0.236)"/><path class="cls-28" d="M334.921,42.933a7.372,7.372,0,0,1,3.63,1.435c3.311,2.575,3.411,8.165-1.984,10.4a14.047,14.047,0,0,1-5.305,1.013c-3.107.026-6.215,0-9.323.016-.5,0-.657-.1-.656-.557q.025-11.627,0-23.254c0-.381.063-.565.583-.557,3.38.049,6.762-.066,10.141.069a10.023,10.023,0,0,1,5.459,1.652,5.3,5.3,0,0,1-1.307,9.263C335.81,42.568,335.449,42.712,334.921,42.933Zm-9.786,5.7v3.8c0,.216-.048.447.354.436,2.3-.061,4.619.157,6.913-.133,3.272-.415,4.912-2.45,4.211-5.151-.427-1.642-2.057-2.8-4.34-3.025-2.231-.223-4.474-.044-6.71-.1-.4-.01-.433.172-.432.442C325.14,46.145,325.135,47.391,325.135,48.637Zm0-10.716c0,1.046.016,2.093-.008,3.139-.008.365.136.475.549.471,1.711-.016,3.422,0,5.133-.01a7.241,7.241,0,0,0,2.015-.292,3.341,3.341,0,0,0,2.7-3.613,3.463,3.463,0,0,0-3.369-3.145c-2.222-.238-4.465-.051-6.7-.093-.413-.007-.322.263-.323.463C325.132,35.868,325.135,36.894,325.135,37.921Z" transform="translate(-3.829 -0.236)"/><path class="cls-28" d="M357.542,44.732q3.959,5.508,7.854,10.93c-.15.2-.351.121-.517.122-1.211.007-2.422-.011-3.633.012a.885.885,0,0,1-.868-.426c-2.107-3.188-4.246-6.36-6.334-9.558a1.456,1.456,0,0,0-1.537-.772,20.21,20.21,0,0,1-2.534.006c-.518-.022-.657.122-.654.566.021,3.163,0,6.327.025,9.49,0,.531-.134.741-.788.7a17.225,17.225,0,0,0-2.328,0c-.669.046-.782-.187-.779-.705.023-3.777.012-7.553.012-11.33,0-3.895.013-7.79-.014-11.685,0-.533.172-.66.769-.655,2.947.027,5.895-.006,8.842.019a13.638,13.638,0,0,1,5.4.892,6.032,6.032,0,0,1,3.876,4.973c.55,3.945-2.581,6.785-6.313,7.333C357.887,44.662,357.759,44.691,357.542,44.732Zm-8.212-6.449c0,1.1.019,2.211-.01,3.316-.011.418.088.594.632.583,1.618-.031,3.239.019,4.858-.021a7.93,7.93,0,0,0,3.681-.756,3.427,3.427,0,0,0,1.732-4,3.532,3.532,0,0,0-3.134-2.773c-2.453-.481-4.954-.189-7.432-.254-.4-.011-.324.263-.325.467C349.327,35.993,349.33,37.138,349.33,38.283Z" transform="translate(-3.829 -0.236)"/><path class="cls-28" d="M316.87,55.788c-.6-.051-1.484.248-2.008-.116-.484-.336-.6-1.071-.872-1.635-.6-1.259-1.2-2.516-1.77-3.784a.719.719,0,0,0-.787-.479q-6.1.025-12.2,0a.748.748,0,0,0-.824.52c-.753,1.672-1.54,3.333-2.29,5.007a.746.746,0,0,1-.842.5c-1.094-.037-2.193-.03-3.288,0-.513.012-.568-.09-.363-.488,1.686-3.28,3.349-6.57,5.021-9.856,2.27-4.459,4.553-8.914,6.8-13.382a1.023,1.023,0,0,1,1.168-.643,11.517,11.517,0,0,0,1.848,0,.961.961,0,0,1,1.108.62c1.741,3.582,3.519,7.15,5.286,10.722q3.042,6.15,6.084,12.3c.356.722.358.721-.58.721ZM305.34,35.705c-1.732,3.638-3.383,7.124-5.058,10.6-.222.46-.122.568.442.565,3.038-.017,6.076-.007,9.115-.009.732,0,.741-.013.451-.633q-1.88-4-3.764-8Z" transform="translate(-3.829 -0.236)"/><path class="cls-28" d="M391.421,53.268c3.3.023,5.686-.91,7.492-2.889.277-.3.439-.337.788-.093q1.17.82,2.408,1.567c.377.227.33.378.066.642a13.236,13.236,0,0,1-7.542,3.683c-8.381,1.293-15.82-3.279-17.076-10.6a12.17,12.17,0,0,1,7.963-13.533,16.686,16.686,0,0,1,13.024.155,10.008,10.008,0,0,1,3.091,2.127c.221.217.253.348-.065.545-.854.529-1.68,1.092-2.507,1.652-.226.154-.38.231-.611-.013-3.591-3.772-11.41-3.351-14.976,1.284a9.609,9.609,0,0,0,.962,12.826A10.369,10.369,0,0,0,391.421,53.268Z" transform="translate(-3.829 -0.236)"/><path class="cls-28" d="M274.572,43.575c0-3.836.009-7.671-.011-11.507,0-.475.119-.643.711-.641q8.156.029,16.312,0c.583,0,.75.152.716.637a15.568,15.568,0,0,0,0,1.956c.026.441-.135.57-.654.568-4.135-.019-8.27.005-12.4-.025-.681-.005-.825.167-.815.725.039,2.075.034,4.152,0,6.227-.007.506.12.674.747.669,3.815-.027,7.631,0,11.446-.024.563,0,.761.121.722.621a13.032,13.032,0,0,0,0,1.956c.034.466-.169.549-.662.547-3.838-.017-7.676.005-11.514-.024-.632,0-.742.165-.738.664.025,3.084,0,6.169.026,9.253,0,.5-.174.647-.736.621-.82-.038-1.646-.038-2.466,0-.545.025-.695-.129-.692-.6.022-3.4.012-6.8.012-10.2Z" transform="translate(-3.829 -0.236)"/><path class="cls-28" d="M373.538,43.679c0,3.834-.01,7.668.013,11.5,0,.5-.158.646-.726.618-.842-.042-1.69-.035-2.534,0-.5.019-.608-.138-.6-.541.023-1.719.01-3.439.01-5.158,0-6.008.008-12.015-.015-18.023,0-.533.163-.682.762-.648a24.128,24.128,0,0,0,2.465,0c.531-.025.641.14.639.572C373.53,35.893,373.538,39.786,373.538,43.679Z" transform="translate(-3.829 -0.236)"/><path class="cls-29" d="M354.785,21.022c0-1.6.013-3.2-.009-4.794-.006-.393.07-.563.592-.543a43.823,43.823,0,0,1,5.831.18c3.243.558,4.955,2.285,5.028,5.077.067,2.544-1.8,4.55-4.813,5.194a23.413,23.413,0,0,1-4.348.226c-.574.015-1.15-.016-1.723.009-.359.015-.493-.047-.488-.4.025-1.651.011-3.3.011-4.952Zm2.795,0h.021c0,.923.008,1.846-.006,2.769,0,.257.045.391.395.372.695-.037,1.4,0,2.087-.068,2.015-.189,3.209-1.274,3.3-2.942.085-1.652-.963-2.777-2.937-3.155a11.724,11.724,0,0,0-2.384-.105c-.375.005-.491.08-.48.414C357.6,19.209,357.58,20.115,357.58,21.02Z" transform="translate(-3.829 -0.236)"/><path class="cls-30" d="M379.932,22.816c0,.8,0,1.6,0,2.4,0,.223-.007.4-.3.51a11.342,11.342,0,0,1-7.708.467,5.074,5.074,0,0,1-3.822-4.555,4.955,4.955,0,0,1,3.068-5.44,8.87,8.87,0,0,1,8.022.266c.409.213.428.387.082.675-.457.382-.876.8-1.287,1.218-.2.2-.305.232-.577.045a4.67,4.67,0,0,0-5.222,0,3.374,3.374,0,0,0-.817,4.359,4.113,4.113,0,0,0,4.365,1.621c.081-.014.16-.034.24-.05,1.317-.271,1.675-.821,1.28-1.945-.055-.159-.164-.179-.317-.177-.205,0-.41,0-.616,0-1.269,0-1.269,0-1.284-1.119-.013-1.05-.013-1.046,1.214-1.052,1,0,2.013.009,3.015-.048.575-.033.68.146.655.593-.043.744-.012,1.492-.012,2.239Z" transform="translate(-3.829 -0.236)"/><path class="cls-29" d="M329.581,21.857c.55.781,1.062,1.5,1.572,2.231s1.013,1.446,1.581,2.257c-1.1,0-2.094-.006-3.088,0-.281,0-.318-.177-.41-.327q-1.107-1.806-2.216-3.613a1.636,1.636,0,0,0-1.414-.28c-.128.106-.072.269-.071.407,0,1.118-.016,2.238.032,3.355.018.423-.144.5-.581.481-.676-.032-1.515.2-1.988-.07-.512-.293-.114-1.071-.19-1.635a11.723,11.723,0,0,1-.031-1.489c-.015-2.308-.015-4.616-.051-6.924-.006-.423.089-.59.626-.568,1.862.076,3.733-.133,5.593.092,2.6.315,3.9,2.183,3.027,4.335A2.987,2.987,0,0,1,329.581,21.857Zm-2.544-1.789a5.615,5.615,0,0,0,1.365-.094c.662-.193.964-.529.95-1.09s-.353-.908-.992-1.077a5.975,5.975,0,0,0-1.528-.1c-1.346,0-1.346,0-1.339,1.146C325.5,20.093,325.5,20.093,327.037,20.068Z" transform="translate(-3.829 -0.236)"/><path class="cls-30" d="M402.382,26.114c-1.071,0-2.013-.013-2.953.007a.543.543,0,0,1-.54-.343q-1.1-1.809-2.213-3.614a1.707,1.707,0,0,0-1.406-.274c-.148.106-.07.267-.071.4-.006,1.136-.016,2.273,0,3.409.006.316-.073.441-.47.423a16.315,16.315,0,0,0-1.783.017c-.425.027-.5-.115-.5-.447,0-2.7-.019-5.4-.036-8.1,0-.6-.02-1.206-.041-1.809-.006-.205.025-.332.323-.328a47.886,47.886,0,0,1,6.2.119c2.676.386,3.889,3,2.34,4.943a2.669,2.669,0,0,1-1.567.967c-.453.1-.367.228-.187.48.893,1.252,1.772,2.51,2.655,3.767C402.205,25.825,402.258,25.917,402.382,26.114Zm-7.207-7.457c0,.3,0,.6,0,.9,0,.148-.008.288.242.278a14.593,14.593,0,0,0,2.569-.1c.675-.148,1.01-.495,1.03-1.037.021-.564-.305-.95-.975-1.135a5.446,5.446,0,0,0-1.459-.129C395.175,17.434,395.175,17.436,395.175,18.657Z" transform="translate(-3.829 -0.236)"/><path class="cls-30" d="M274.459,21.053c0-1.652,0-3.3,0-4.956,0-.282.062-.423.438-.408.635.025,1.273.02,1.91,0,.327-.009.421.09.419.367-.01,1.031.04,2.062,0,3.092-.018.467.161.551.652.537,1.374-.039,2.751-.045,4.126-.035.378,0,.493-.085.482-.416-.036-1.029-.016-2.061-.057-3.09-.015-.369.091-.5.535-.475.594.034,1.192.026,1.787,0,.352-.014.489.088.45.387a1.76,1.76,0,0,0,.026.211c.01,3.253.015,6.506.033,9.758,0,.263-.1.331-.385.324-.657-.017-1.315-.023-1.972,0-.357.014-.39-.125-.388-.377.011-1.262-.01-2.524.015-3.786.007-.356-.117-.445-.516-.438q-2.124.039-4.251.017c-.415,0-.515.111-.509.454.021,1.244-.006,2.489.018,3.733.006.321-.074.431-.466.417-.614-.021-1.231,0-1.845.034-.362.019-.442-.1-.439-.394.015-1.653.007-3.306.007-4.959Z" transform="translate(-3.829 -0.236)"/><path class="cls-30" d="M344.166,21.015c0-1.67,0-3.34,0-5.01,0-.221.061-.314.34-.313q3.851,0,7.7-.019c.308,0,.383.089.372.336a12.073,12.073,0,0,0,0,1.385c.027.364-.09.487-.535.483-1.518-.014-3.037.026-4.555.016-.413,0-.594.067-.554.459.048.475-.176,1.105.1,1.391s1.042.086,1.592.091c1.067.009,2.135,0,3.2-.021.385-.009.5.1.481.427a8.449,8.449,0,0,0,0,1.331c.039.4-.162.467-.566.463-1.416-.017-2.834,0-4.25-.014-.385,0-.554.064-.523.432a10.863,10.863,0,0,1,0,1.386c-.012.273.079.366.413.36,1.682-.026,3.365-.019,5.048-.049.408-.007.537.1.511.448a11.851,11.851,0,0,0,0,1.385c.012.262-.052.371-.4.37q-3.942-.009-7.884.02c-.437,0-.444-.18-.442-.456.007-1.634,0-3.267,0-4.9Z" transform="translate(-3.829 -0.236)"/><path class="cls-30" d="M312.117,20.957c0-1.6.013-3.2-.01-4.8-.006-.366.1-.477.536-.474,2.443.013,4.886.011,7.328-.02.483-.006.594.121.558.5a6.773,6.773,0,0,0,0,1.225c.031.365-.094.485-.536.481-1.518-.014-3.037.026-4.555.016-.414,0-.592.069-.553.46.048.475-.176,1.1.1,1.39.29.3,1.042.084,1.591.091,1.047.014,2.094.017,3.141,0,.381-.007.555.056.525.429a9.406,9.406,0,0,0,.017,1.384c.022.3-.1.391-.445.39-1.477,0-2.954.029-4.431.018-.419,0-.526.107-.486.455a7.552,7.552,0,0,1,.027,1.276c-.02.327.1.425.481.418,1.641-.03,3.283-.021,4.923-.052.42-.009.581.076.551.462a11.7,11.7,0,0,0,.015,1.438c.011.233-.081.3-.348.3q-4,0-8,.02c-.453,0-.363-.242-.363-.459q0-2.478,0-4.954Z" transform="translate(-3.829 -0.236)"/><path class="cls-30" d="M381.78,20.8c0-1.634.005-3.268-.006-4.9,0-.287.018-.445.445-.444q3.819.014,7.636-.03c.276,0,.317.082.307.269,0,.035,0,.071,0,.106-.011.584.231,1.347-.1,1.7-.351.371-1.268.093-1.937.11-1.045.027-2.092.029-3.139.028-.335,0-.476.1-.453.4.038.494-.175,1.131.107,1.448.3.341,1.073.1,1.637.108,1.046.012,2.093-.007,3.139-.036.36-.01.52.055.492.4a9.266,9.266,0,0,0,0,1.384c.024.325-.08.42-.469.416-1.436-.017-2.874.016-4.31,0-.413,0-.6.066-.559.46a8.839,8.839,0,0,1,0,1.332c-.018.286.1.358.417.355,1.642-.017,3.285.006,4.926-.033.52-.012.678.1.632.547a10.322,10.322,0,0,0-.007,1.385c.007.231-.093.3-.358.3-2.648,0-5.3,0-7.944.023-.382,0-.376-.154-.375-.387,0-1.651,0-3.3,0-4.954Z" transform="translate(-3.829 -0.236)"/><path class="cls-30" d="M303.886,15.7a17.567,17.567,0,0,1,3.674.168,2.98,2.98,0,0,1,2.708,3.356c-.058,1.548-1.13,2.575-2.958,2.864a17.663,17.663,0,0,1-3.006.111c-.418-.006-.569.079-.558.465.03,1.1-.006,2.2.02,3.3.008.338-.111.426-.484.408a13.724,13.724,0,0,0-1.721,0c-.508.041-.548-.152-.546-.513.008-2.716,0-5.433-.014-8.149,0-.514-.007-1.029-.049-1.542-.029-.362.085-.5.535-.483C302.285,15.719,303.086,15.7,303.886,15.7Zm-.151,3.252c0,.318,0,.637,0,.955,0,.134-.043.328.209.3a11.288,11.288,0,0,0,2.669-.189,1.086,1.086,0,0,0,.812-1.083,1.1,1.1,0,0,0-.854-1.058,4.005,4.005,0,0,0-1.385-.172C303.735,17.707,303.735,17.7,303.735,18.948Z" transform="translate(-3.829 -0.236)"/><path class="cls-30" d="M299.121,15.678,296.336,19.4a7.932,7.932,0,0,1-.671.889,3.852,3.852,0,0,0-1.167,3.388c.092.72.023,1.454.065,2.18.022.376-.065.552-.56.514a12.786,12.786,0,0,0-1.661,0c-.421.022-.561-.081-.554-.464.023-1.207-.012-2.415,0-3.622a1.2,1.2,0,0,0-.271-.789c-1.458-1.885-2.9-3.778-4.426-5.766a19.607,19.607,0,0,0,2.388-.02,1.392,1.392,0,0,1,1.584.8c.617,1.038,1.329,2.034,2.007,3.057.277-.055.317-.276.423-.427.731-1.046,1.455-2.1,2.16-3.156a.634.634,0,0,1,.627-.31C297.179,15.69,298.082,15.678,299.121,15.678Z" transform="translate(-3.829 -0.236)"/><path class="cls-30" d="M334.486,21.068c0-1.634.015-3.269-.01-4.9-.006-.374.128-.5.546-.49.574.017,1.152.027,1.724-.005.417-.023.5.108.5.448,0,2.487.035,4.975.018,7.463,0,.472.131.607.678.587,1.271-.047,2.546-.013,3.817-.056.485-.017.6.122.561.508a6.906,6.906,0,0,0,0,1.278c.033.362-.134.454-.516.451-1.54-.01-3.081,0-4.621,0-.678,0-1.357-.009-2.033.024-.451.023-.63-.058-.62-.5.036-1.6.014-3.2.014-4.8Z" transform="translate(-3.829 -0.236)"/><path class="cls-28" d="M242.082,28.281c.134.051.313.106.48.186q4.11,1.956,8.216,3.918a.808.808,0,0,1,.456,1.217c-.268.578-.542,1.155-.827,1.725a.789.789,0,0,1-1.163.407q-4.2-1.992-8.383-4a.778.778,0,0,1-.43-1.152c.274-.61.573-1.209.859-1.814A.864.864,0,0,1,242.082,28.281Z" transform="translate(-3.829 -0.236)"/><path class="cls-28" d="M238.84,37.585a.9.9,0,0,1-.125.445c-.265.563-.528,1.127-.8,1.685a.808.808,0,0,1-1.227.431q-4.131-1.963-8.258-3.939a.823.823,0,0,1-.451-1.29c.258-.549.516-1.1.786-1.641a.8.8,0,0,1,1.2-.42q4.152,1.976,8.3,3.958A.871.871,0,0,1,238.84,37.585Z" transform="translate(-3.829 -0.236)"/><path class="cls-28" d="M233.993,45.236a4.052,4.052,0,0,1,.463.164q4.086,1.944,8.169,3.9c.658.314.786.691.467,1.355-.255.532-.5,1.069-.767,1.6a.8.8,0,0,1-1.195.415q-4.172-1.985-8.337-3.982a.793.793,0,0,1-.42-1.222c.26-.565.529-1.126.8-1.685A.839.839,0,0,1,233.993,45.236Z" transform="translate(-3.829 -0.236)"/><path class="cls-31" d="M223.643,37.984c-.37-.166-.809-.361-1.245-.561-.226-.1-.447-.22-.671-.33-.695-.344-.816-.674-.48-1.386.465-.985.944-1.964,1.413-2.947q1.215-2.55,2.422-5.1c.336-.71.667-.855,1.367-.546.54.239,1.072.5,1.6.761a.808.808,0,0,1,.434,1.255c-.328.7-.669,1.405-1,2.107q-1.426,2.991-2.851,5.984A1.06,1.06,0,0,1,223.643,37.984Z" transform="translate(-3.829 -0.236)"/><path class="cls-31" d="M258.118,32.33c-.057.151-.11.331-.19.5q-1.935,4.068-3.879,8.133c-.338.7-.665.815-1.383.481-.536-.25-1.074-.5-1.6-.762a.761.761,0,0,1-.409-1.151c.95-2.013,1.914-4.019,2.872-6.027q.563-1.181,1.121-2.362A.788.788,0,0,1,255.8,30.7c.608.278,1.208.577,1.815.858A.935.935,0,0,1,258.118,32.33Z" transform="translate(-3.829 -0.236)"/><path class="cls-31" d="M236.264,33.558a4.372,4.372,0,0,1-.527-.175c-.535-.251-1.064-.515-1.592-.78a.794.794,0,0,1-.419-1.22q.826-1.749,1.662-3.495,1.125-2.357,2.255-4.711c.341-.708.673-.82,1.378-.484.491.233.985.463,1.474.7.689.335.81.661.486,1.341-.775,1.628-1.558,3.252-2.336,4.88q-.8,1.682-1.6,3.369A.9.9,0,0,1,236.264,33.558Z" transform="translate(-3.829 -0.236)"/><path class="cls-31" d="M240.7,46.032a.863.863,0,0,1-.5-.124c-.477-.229-.953-.459-1.435-.677-.785-.357-.923-.7-.555-1.471.826-1.727,1.659-3.449,2.484-5.176.457-.954.9-1.915,1.356-2.868.346-.719.71-.842,1.421-.506.52.246,1.042.49,1.559.743a.811.811,0,0,1,.432,1.157c-.839,1.789-1.693,3.57-2.54,5.355-.474,1-.943,2-1.419,2.993C241.341,45.8,241.126,46.076,240.7,46.032Z" transform="translate(-3.829 -0.236)"/><path class="cls-28" d="M246.9,20.662a.921.921,0,0,1-.14.512c-.227.477-.463.951-.689,1.428-.367.773-.691.892-1.475.519q-2.863-1.363-5.725-2.732-1.178-.561-2.357-1.123a.817.817,0,0,1-.457-1.217c.27-.578.541-1.155.829-1.723a.774.774,0,0,1,1.159-.407q4.194,1.988,8.379,3.99A.745.745,0,0,1,246.9,20.662Z" transform="translate(-3.829 -0.236)"/><path class="cls-28" d="M246.363,40.81a1.088,1.088,0,0,1,.558.139q2.481,1.182,4.962,2.364a.822.822,0,0,1,.444,1.287c-.259.548-.512,1.1-.782,1.64a.8.8,0,0,1-1.191.424q-2.526-1.2-5.043-2.409a.777.777,0,0,1-.438-1.178c.269-.593.555-1.179.834-1.769A.8.8,0,0,1,246.363,40.81Z" transform="translate(-3.829 -0.236)"/><path class="cls-28" d="M252.864,26.541a.865.865,0,0,1,.123-.481c.267-.562.531-1.124.808-1.68a.765.765,0,0,1,1.118-.415q2.6,1.217,5.178,2.464a.748.748,0,0,1,.382,1.059c-.28.64-.58,1.272-.9,1.9a.757.757,0,0,1-1.067.366q-2.616-1.23-5.219-2.486A.7.7,0,0,1,252.864,26.541Z" transform="translate(-3.829 -0.236)"/><path class="cls-28" d="M232.625,27.76a3.307,3.307,0,0,1-.373-.134q-2.483-1.177-4.962-2.364a.812.812,0,0,1-.455-1.249c.263-.563.529-1.124.806-1.68a.783.783,0,0,1,1.15-.43q2.571,1.209,5.129,2.446a.756.756,0,0,1,.4,1.088c-.284.638-.591,1.266-.9,1.893A.8.8,0,0,1,232.625,27.76Z" transform="translate(-3.829 -0.236)"/><path class="cls-28" d="M226.315,42.069a.846.846,0,0,1-.124.406c-.266.561-.529,1.123-.8,1.681a.8.8,0,0,1-1.186.433q-2.528-1.193-5.047-2.4a.8.8,0,0,1-.423-1.194q.4-.867.825-1.721a.786.786,0,0,1,1.192-.405c1.67.791,3.336,1.59,5.006,2.381A.848.848,0,0,1,226.315,42.069Z" transform="translate(-3.829 -0.236)"/><path class="cls-31" d="M232.492,13.384a1.05,1.05,0,0,1,.444.147c.532.257,1.067.508,1.6.762a.818.818,0,0,1,.437,1.225q-1.153,2.422-2.318,4.839c-.358.744-.649.832-1.409.467-.5-.242-1.016-.471-1.517-.719a.8.8,0,0,1-.45-1.214c.791-1.673,1.6-3.339,2.394-5.01A.83.83,0,0,1,232.492,13.384Z" transform="translate(-3.829 -0.236)"/><path class="cls-31" d="M227.143,45.354a.929.929,0,0,1,.124-.471q1.154-2.4,2.3-4.8a.849.849,0,0,1,1.326-.458c.534.254,1.074.5,1.6.764a.811.811,0,0,1,.416,1.233q-1.155,2.448-2.318,4.9a.823.823,0,0,1-1.252.459c-.58-.264-1.154-.545-1.731-.817A.767.767,0,0,1,227.143,45.354Z" transform="translate(-3.829 -0.236)"/><path class="cls-31" d="M246.135,27.41a.937.937,0,0,1,.129-.512c.762-1.585,1.518-3.173,2.283-4.757.36-.745.663-.84,1.413-.481.519.25,1.045.486,1.56.742a.8.8,0,0,1,.424,1.159q-1.189,2.511-2.4,5.012a.79.79,0,0,1-1.195.417c-.564-.263-1.129-.527-1.686-.8A.759.759,0,0,1,246.135,27.41Z" transform="translate(-3.829 -0.236)"/><path class="cls-31" d="M246.682,55.2c-.165-.063-.373-.127-.568-.218-.508-.237-1.01-.487-1.516-.728a.809.809,0,0,1-.45-1.12q1.211-2.578,2.463-5.136a.747.747,0,0,1,1.1-.351c.592.276,1.185.552,1.77.843a.8.8,0,0,1,.406,1.166c-.8,1.687-1.616,3.367-2.419,5.053A.87.87,0,0,1,246.682,55.2Z" transform="translate(-3.829 -0.236)"/><path class="cls-32" d="M314.022,82.434V94.505a6.24,6.24,0,0,0,.276,2.2,2.117,2.117,0,0,0,.9,1.029,2.8,2.8,0,0,0,1.516.389,2.957,2.957,0,0,0,1.614-.429,2.285,2.285,0,0,0,.941-1.1,8.153,8.153,0,0,0,.26-2.545V82.434h3.564V93.559a16.077,16.077,0,0,1-.315,3.909,5.527,5.527,0,0,1-1.211,2.107,5.624,5.624,0,0,1-2.062,1.477,6.924,6.924,0,0,1-2.717.492,6.588,6.588,0,0,1-3.535-.935,5.45,5.45,0,0,1-2.151-2.334,9.286,9.286,0,0,1-.6-3.192l-.02-.418c0-.071,0-.143-.008-.216L310.462,94c0-.153,0-.308,0-.467l0-11.1Zm-34.482,0v3.5h-3.4V101.1h-3.6V85.934h-3.313v-3.5Zm8.929,0h4.765a12.462,12.462,0,0,1,4.406.552,4.52,4.52,0,0,1,2.107,1.836,5.559,5.559,0,0,1,.8,3.027,5.134,5.134,0,0,1-.886,3.077A5.332,5.332,0,0,1,297.01,92.8l4.43,8.3h-3.894l-4.2-7.9h-1.324v7.9h-3.554Zm54.645,0V85.9H337.38v3.392h5.734V92.7H337.38v8.4h-3.53V82.434Zm19.1,0V85.9h-5.735v3.392h5.735V92.7h-5.735v8.4h-3.529V82.434Zm13.355,0V97.709h5.174V101.1H372.01V82.434Zm24.3,0V85.91h-6.661v3.377h6.661V92.7h-6.661v4.913h6.661V101.1H389.682V82.434ZM293.978,85.875h-1.97l.015,3.855h2.112a4.356,4.356,0,0,0,2.333-.443,1.679,1.679,0,0,0,.64-1.477,1.824,1.824,0,0,0-.315-1.083,1.757,1.757,0,0,0-.846-.655A6.567,6.567,0,0,0,293.978,85.875Z" transform="translate(-3.829 -0.236)"/><ellipse class="cls-32" cx="232.933" cy="89.494" rx="18.409" ry="18.624"/><path class="cls-1" d="M230.972,106.244c.753.257,3.282,1.08,3.39.276.058-.442-1.276-.894-3.083-1.851a28.95,28.95,0,0,1-6.975-5.153,16.011,16.011,0,0,1-4.8-11.134,15.847,15.847,0,0,1,5.672-13.128,18.575,18.575,0,0,0-7.22,14.25,17.373,17.373,0,0,0,3.172,10.634,12.116,12.116,0,0,0,2.311,2.275,28.9,28.9,0,0,0,7.532,3.829" transform="translate(-3.829 -0.236)"/><path class="cls-1" d="M255.424,85.461c-1.141-5.368-4.69-9.126-9.436-11.781,3.638,2.584,8.743,8.078,5.725,12.924-2.552,3.882-8.752,3.122-12.153,1.277-4.033-2.188-9.08-7.112-4.1-11.923,3.227-3.115,13.493.377,11.686,5.032-1.054,2.708-5.157,2.106-7,.782-1.36-.977-2.5-2.656-1.9-4.39.193-.557.166-1.419-.62-.784a3.117,3.117,0,0,0-.983,1.983c-.859,6.071,9.956,10.777,13.165,4.9,1.665-3.049-1.034-7.476-4.431-9.289a15.035,15.035,0,0,0-8.466-2.095c-5.207.365-9.576,3.629-10.125,8.949-.547,5.288,2.988,10.047,7.151,12.894,4.376,2.99,10.259,4.961,15.641,3.178,4.825-1.6,6.818-7.137,5.848-11.657" transform="translate(-3.829 -0.236)"/><path class="cls-33" d="M248.634,81.349c.518-3.479-2.628-5.867-5.533-6.952-3.424-1.277-7.948-.719-10.442,2.117-1.824,2.082-1.7,5.105-.764,7.552a12.922,12.922,0,0,0,8.371,7.522,14.818,14.818,0,0,0,8.559.312c3.926-1.264,5.2-5.358,4.393-9.108a10.822,10.822,0,0,0-.795-2.349c-.5-1.041-2.015-3.149.078-.582a9.141,9.141,0,0,1,.606.9,10.078,10.078,0,0,1,1.019,2.263c1.141,3.5.246,7.585-2.918,9.7-2.427,1.618-5.512,1.811-8.327,1.406a15.745,15.745,0,0,1-9.805-5.3c-2.257-2.675-3.8-6.517-2.87-10.029a7.793,7.793,0,0,1,5.265-5.288,11.746,11.746,0,0,1,9.481,1.114,8.48,8.48,0,0,1,3.465,3.485,5.159,5.159,0,0,1,.519,2.175,4.425,4.425,0,0,1-.071.912c-.02.109-.251.417-.219.164" transform="translate(-3.829 -0.236)"/><g class="cls-34"><polygon class="cls-35" points="239.659 120.746 233.429 131.826 220.959 131.826 227.188 120.746 239.659 120.746"/></g><g class="cls-36"><polygon class="cls-35" points="233.429 131.826 245.888 131.826 239.659 120.746 227.188 120.746 233.429 131.826"/></g><g class="cls-37"><polygon class="cls-35" points="227.188 142.906 233.429 131.826 227.188 120.746 220.959 131.826 227.188 142.906"/></g><g class="cls-34"><polygon class="cls-35" points="227.254 159.525 233.484 148.446 245.954 148.446 239.713 159.525 227.254 159.525"/></g><g class="cls-36"><polygon class="cls-35" points="233.484 148.446 221.024 148.446 227.254 159.525 239.713 159.525 233.484 148.446"/></g><g class="cls-37"><polygon class="cls-35" points="239.713 137.366 233.484 148.446 239.713 159.525 245.954 148.446 239.713 137.366"/></g><path class="cls-38" d="M272.4,139.936a2.055,2.055,0,0,0,1.03,1.854,8.84,8.84,0,0,0,2.524,1.03c.978.258,2.06.515,3.244.721a18.536,18.536,0,0,1,3.245.876,7.671,7.671,0,0,1,2.524,1.648A3.9,3.9,0,0,1,286,148.9a4.768,4.768,0,0,1-.721,2.626,6.031,6.031,0,0,1-1.8,1.8,9.372,9.372,0,0,1-2.421,1.082,9.5,9.5,0,0,1-2.626.36,12.785,12.785,0,0,1-2.781-.309,7.514,7.514,0,0,1-2.473-.979,5.837,5.837,0,0,1-1.8-1.751,5,5,0,0,1-.721-2.729,2.492,2.492,0,0,1,.154-.927c.1-.258.361-.361.824-.361a.5.5,0,0,1,.464.309,1.341,1.341,0,0,1,.154.567,4.544,4.544,0,0,0,.515,2.317,3.3,3.3,0,0,0,1.391,1.391,5.815,5.815,0,0,0,2.009.721,11.443,11.443,0,0,0,2.317.206,9.732,9.732,0,0,0,2.009-.258,6.473,6.473,0,0,0,1.957-.772,4.51,4.51,0,0,0,1.442-1.339,3.138,3.138,0,0,0,.567-1.957,2.592,2.592,0,0,0-1.031-2.163,6.758,6.758,0,0,0-2.523-1.185,18.9,18.9,0,0,0-3.245-.721,18.721,18.721,0,0,1-3.245-.824,8.089,8.089,0,0,1-2.523-1.442,3.256,3.256,0,0,1-1.03-2.524,3.762,3.762,0,0,1,.721-2.317,5.248,5.248,0,0,1,1.751-1.442,7.137,7.137,0,0,1,2.318-.721,12.97,12.97,0,0,1,2.369-.207,15.778,15.778,0,0,1,2.678.258,8.085,8.085,0,0,1,2.369.876,5.018,5.018,0,0,1,1.751,1.7,4.745,4.745,0,0,1,.67,2.627.633.633,0,0,1-.258.515.859.859,0,0,1-.566.206.664.664,0,0,1-.567-.258,1.173,1.173,0,0,1-.155-.566,4.464,4.464,0,0,0-.824-2.009,4.1,4.1,0,0,0-1.39-1.133,5.3,5.3,0,0,0-1.751-.515,11.891,11.891,0,0,0-1.906-.154c-.515,0-1.081.051-1.751.1a5.483,5.483,0,0,0-1.8.463,3.5,3.5,0,0,0-1.442.927,1.826,1.826,0,0,0-.669,1.545" transform="translate(-3.829 -0.236)"/><path class="cls-38" d="M302.019,135.043a8.088,8.088,0,0,1,3.657.825,9.419,9.419,0,0,1,2.884,2.163,9.679,9.679,0,0,1,1.9,3.141,9.983,9.983,0,0,1,.67,3.657,9.6,9.6,0,0,1-.67,3.657,10.261,10.261,0,0,1-1.9,3.141,10.075,10.075,0,0,1-2.884,2.163,7.938,7.938,0,0,1-3.657.824,7.722,7.722,0,0,1-3.605-.824,10.83,10.83,0,0,1-2.884-2.163,9.7,9.7,0,0,1-1.906-3.141,9.983,9.983,0,0,1-.67-3.657,9.6,9.6,0,0,1,.67-3.657,10.283,10.283,0,0,1,1.906-3.141,10.075,10.075,0,0,1,2.884-2.163,8.4,8.4,0,0,1,3.605-.825m0,18.026a6.455,6.455,0,0,0,3.039-.721,8.248,8.248,0,0,0,2.369-1.8,7,7,0,0,0,1.493-2.627,9.221,9.221,0,0,0,0-6.077,8.437,8.437,0,0,0-1.493-2.575,7.433,7.433,0,0,0-2.369-1.8,6.778,6.778,0,0,0-3.039-.721,6.4,6.4,0,0,0-2.987.721,8.256,8.256,0,0,0-2.369,1.8,8.143,8.143,0,0,0-1.545,2.575,8.425,8.425,0,0,0,0,6.077,8.4,8.4,0,0,0,1.545,2.627,7.419,7.419,0,0,0,2.369,1.8,6.548,6.548,0,0,0,2.987.721" transform="translate(-3.829 -0.236)"/><path class="cls-38" d="M319.375,119.85a.828.828,0,0,1,.567.258.738.738,0,0,1,.206.515v32.91a.664.664,0,0,1-.206.515.751.751,0,0,1-1.133,0,.737.737,0,0,1-.206-.515v-32.91a.659.659,0,0,1,.206-.515.6.6,0,0,1,.566-.258" transform="translate(-3.829 -0.236)"/><path class="cls-38" d="M329.418,130.1a1.178,1.178,0,0,1-.412.876,1.206,1.206,0,0,1-.875.36,1.241,1.241,0,0,1-.927-.36,1.129,1.129,0,0,1-.361-.876,1.235,1.235,0,0,1,1.288-1.287,1.13,1.13,0,0,1,.875.36,1.289,1.289,0,0,1,.412.927m-1.339,5.511a.713.713,0,0,1,.515.258.816.816,0,0,1,.258.515v17.1a.713.713,0,0,1-.258.515.694.694,0,0,1-1.081,0,.734.734,0,0,1-.206-.515v-17.1a.659.659,0,0,1,.206-.515.823.823,0,0,1,.566-.258" transform="translate(-3.829 -0.236)"/><path class="cls-38" d="M353.728,119.8a.826.826,0,0,1,.566.257.737.737,0,0,1,.206.515V153.43a.773.773,0,0,1-1.545,0v-3.605a9.752,9.752,0,0,1-3.244,3.553,8.5,8.5,0,0,1-4.584,1.34,7.723,7.723,0,0,1-3.605-.825,10.835,10.835,0,0,1-2.885-2.163,9.679,9.679,0,0,1-1.9-3.141,9.983,9.983,0,0,1-.67-3.657,9.6,9.6,0,0,1,.67-3.657,10.261,10.261,0,0,1,1.9-3.141,10.08,10.08,0,0,1,2.885-2.163,7.722,7.722,0,0,1,3.605-.824,7.9,7.9,0,0,1,4.584,1.39,9.754,9.754,0,0,1,3.244,3.554V120.52a.662.662,0,0,1,.206-.515.774.774,0,0,1,.567-.206m-8.653,33.373a6.455,6.455,0,0,0,3.039-.721,8.235,8.235,0,0,0,2.369-1.8,6.988,6.988,0,0,0,1.494-2.627,9.221,9.221,0,0,0,0-6.077,9.42,9.42,0,0,0-1.494-2.627,7.419,7.419,0,0,0-2.369-1.8,6.764,6.764,0,0,0-3.039-.721,6.4,6.4,0,0,0-2.987.721,8.248,8.248,0,0,0-2.369,1.8,7.861,7.861,0,0,0-1.545,2.627,8.425,8.425,0,0,0,0,6.077,8.4,8.4,0,0,0,1.545,2.627,7.43,7.43,0,0,0,2.369,1.8,6.4,6.4,0,0,0,2.987.721" transform="translate(-3.829 -0.236)"/><path class="cls-38" d="M364.028,130.1a1.178,1.178,0,0,1-.412.876,1.206,1.206,0,0,1-.875.36,1.241,1.241,0,0,1-.927-.36,1.129,1.129,0,0,1-.361-.876,1.235,1.235,0,0,1,1.288-1.287,1.318,1.318,0,0,1,1.287,1.287m-1.287,5.511a.715.715,0,0,1,.515.258.819.819,0,0,1,.257.515v17.1a.715.715,0,0,1-.257.515.7.7,0,0,1-1.082,0,.738.738,0,0,1-.206-.515v-17.1a.662.662,0,0,1,.206-.515.828.828,0,0,1,.567-.258" transform="translate(-3.829 -0.236)"/><path class="cls-38" d="M380.509,135.507a.828.828,0,0,1,.567.258.738.738,0,0,1,.206.515.683.683,0,0,1-.773.772h-4.223v16.532a.662.662,0,0,1-.206.515.751.751,0,0,1-1.133,0,.734.734,0,0,1-.206-.515V137.052h-4.069a.682.682,0,0,1-.772-.772.659.659,0,0,1,.206-.515.823.823,0,0,1,.566-.258h4.069V129.43a.773.773,0,1,1,1.545,0v6.077Z" transform="translate(-3.829 -0.236)"/><path class="cls-38" d="M402.3,135.456a.682.682,0,0,1,.772.772,12.671,12.671,0,0,1-.463,1.236c-.309.773-.67,1.8-1.133,3.039s-1.03,2.678-1.648,4.275-1.288,3.244-1.957,5c-.67,1.7-1.339,3.4-1.957,5.048s-1.237,3.141-1.752,4.532c-.566,1.39-.978,2.523-1.39,3.5-.361.979-.618,1.545-.721,1.8-.206.36-.412.515-.721.515a.713.713,0,0,1-.515-.258.816.816,0,0,1-.258-.515c0-.051.1-.36.258-.875.206-.516.412-1.134.669-1.8.258-.721.567-1.494.876-2.318.36-.824.669-1.648.978-2.42s.567-1.442.773-2.009a11.6,11.6,0,0,1,.463-1.133,9.174,9.174,0,0,1-.618-1.339q-.54-1.314-1.39-3.245t-1.7-4.171q-.927-2.241-1.7-4.172c-.515-1.288-.979-2.369-1.339-3.245a11.142,11.142,0,0,1-.515-1.39.78.78,0,0,1,1.493-.309l6.541,15.914,6.18-15.863a.757.757,0,0,1,.773-.566" transform="translate(-3.829 -0.236)"/></svg>