<?xml version="1.0" standalone="no"?>
<!DOCTYPE svg PUBLIC "-//W3C//DTD SVG 1.1//EN" "http://www.w3.org/Graphics/SVG/1.1/DTD/svg11.dtd" >
<svg xmlns="http://www.w3.org/2000/svg">
<metadata>
This is a custom SVG webfont generated by Font Squirrel.
Copyright   :  1987 1991 1993 2002 Adobe Systems Incorporated All rights reserved
Designer    : Paul Renner
Foundry URL : httpwwwadobecomtype
</metadata>
<defs>
<font id="webfontxdxHqBmo" horiz-adv-x="1261" >
<font-face units-per-em="2048" ascent="1690" descent="-358" />
<missing-glyph horiz-adv-x="630" />
<glyph unicode=" "  horiz-adv-x="630" />
<glyph unicode="&#x09;" horiz-adv-x="630" />
<glyph unicode="&#xa0;" horiz-adv-x="630" />
<glyph unicode="!" horiz-adv-x="692" d="M379 203q47 0 75.5 -33t20.5 -80t-47 -82t-86 -35t-75.5 35t-20.5 82t47 80t86 33zM311 313l195 1231h168l-195 -1231h-168z" />
<glyph unicode="&#x22;" horiz-adv-x="935" d="M453 1544h192l-143 -672h-119zM778 1544h193l-144 -672h-118z" />
<glyph unicode="#" d="M727 1544h158l-140 -418h254l138 418h161l-137 -418h189l-25 -159h-215l-115 -351h207l-26 -159h-236l-154 -457h-155l151 457h-252l-157 -457h-154l152 457h-209l26 159h236l115 351h-220l25 159h244zM698 967l-114 -351h252l114 351h-252z" />
<glyph unicode="$" d="M840 705l-86 -549q100 33 169.5 111.5t86.5 181.5q25 158 -170 256zM743 948l72 449q-84 -14 -148.5 -81t-78.5 -151q-21 -129 155 -217zM616 141l99 625q-160 72 -241 162t-56 243q25 156 143.5 260.5t280.5 127.5l32 210h136l-33 -210q100 -14 177 -78t108 -156 l-148 -88q-59 137 -164 158l-80 -506q170 -78 254 -173t58 -263q-27 -170 -155 -299t-300 -164l-35 -226h-135l33 213q-164 8 -269.5 121t-109.5 277l174 47q-4 -109 61.5 -191t169.5 -90z" />
<glyph unicode="%" horiz-adv-x="1632" d="M637 1440q-86 0 -158.5 -60.5t-87.5 -146.5q-12 -84 42 -144.5t140 -60.5t159 60.5t85 144.5q14 86 -40 146.5t-140 60.5zM1470 1571l76 -49l-1138 -1549l-80 54zM1307 516q-86 0 -159 -60.5t-87 -146.5q-14 -84 40 -144.5t140 -60.5t159 60.5t87 144.5q14 86 -40 146.5 t-140 60.5zM657 1571q143 0 228.5 -98.5t62.5 -239.5q-20 -139 -138 -237.5t-259 -98.5t-226 97.5t-65 238.5q23 141 139.5 239.5t257.5 98.5zM1327 647q143 0 228 -98t62.5 -239.5t-139 -239t-258 -97.5t-227.5 97.5t-63.5 239t139.5 239.5t258 98z" />
<glyph unicode="&#x26;" horiz-adv-x="1423" d="M778 1008l17 10q10 6 49 31.5t52 36l43 36t42 43t26.5 46t18.5 57.5q10 70 -32 113.5t-111 43.5q-72 0 -128.5 -49t-68.5 -121q2 -35 -1 -45t9.5 -39.5t15.5 -38t19 -37t21 -36.5zM1190 0l-131 217q-313 -244 -533 -244q-182 0 -296.5 121t-86.5 301q10 63 32 117.5 t59.5 102t71.5 83t93 76.5l97 65q37 24 106 64l21 12q-2 2 -16.5 29t-17.5 31t-16.5 28.5t-16.5 32.5t-13.5 31t-12.5 34t-7 32.5t-6 37t0 35t3 37.5q23 145 133.5 236.5t255.5 91.5q135 0 218 -86t63 -217q-8 -53 -34 -102.5t-51.5 -82t-77.5 -75.5t-78.5 -62.5 t-92.5 -62.5l260 -416l207 203l109 -103l-234 -229l209 -338h-217zM702 788l-81 -49q-68 -41 -103 -65.5t-87 -68.5t-80.5 -93t-37.5 -104q-18 -109 50.5 -194t177.5 -85q72 0 159.5 40t135 72.5t141.5 104.5z" />
<glyph unicode="'" horiz-adv-x="591" d="M444 1544h193l-143 -672h-119z" />
<glyph unicode="(" horiz-adv-x="587" d="M633 1614l133 -70q-233 -440 -320 -983q-86 -549 9 -983l-156 -70q-123 395 -20 1053q106 660 354 1053z" />
<glyph unicode=")" horiz-adv-x="587" d="M309 1544l158 70q123 -399 18 -1053q-100 -655 -352 -1053l-135 70q231 432 319 983q88 555 -8 983z" />
<glyph unicode="*" horiz-adv-x="1212" d="M741 1257l33 287h154l-58 -287l287 101l27 -148l-291 -77l141 -226l-139 -92l-121 242l-199 -242l-110 92l217 226l-266 77l71 148z" />
<glyph unicode="+" d="M713 1020h159l-65 -416h416l-27 -160h-416l-65 -415h-160l66 415h-416l26 160h416z" />
<glyph unicode="," horiz-adv-x="630" d="M344 225l143 -53l-313 -524l-104 45z" />
<glyph unicode="-" horiz-adv-x="425" d="M94 569h420l-25 -151h-419z" />
<glyph unicode="." horiz-adv-x="630" d="M348 203q47 0 76 -33t20.5 -80t-47.5 -82t-86 -35t-75.5 35t-20.5 82t47 80t86 33z" />
<glyph unicode="/" horiz-adv-x="1167" d="M1264 1690l125 -62l-1270 -1950l-123 62z" />
<glyph unicode="0" d="M878.5 1571q112.5 0 199.5 -53.5t134.5 -137.5t78 -190.5t28.5 -214t-12 -205.5q-31 -197 -123 -376t-240.5 -300t-316.5 -121t-278.5 121t-144.5 300t-3 376q16 98 52 204.5t96.5 214t135 191.5t178 137.5t216 53.5zM854 1411q-102 0 -192.5 -69.5t-147.5 -175t-94 -210 t-49 -194.5q-6 -68 -10.5 -149t13 -166t47.5 -154.5t89 -114.5t141 -45q100 0 188.5 66.5t145.5 169t94 202t54 191.5q20 82 13 193.5t-28.5 213t-91.5 172t-172 70.5z" />
<glyph unicode="1" d="M799 1384h-256l114 160h338l-243 -1544h-172z" />
<glyph unicode="2" d="M457 160h651l-25 -160h-999l858 854q123 123 145 258q20 127 -56.5 213t-203.5 86q-137 0 -236 -90t-124 -227h-172q35 205 191.5 341t359.5 136q199 0 321.5 -130t92.5 -327q-29 -188 -168 -326z" />
<glyph unicode="3" d="M672 731l24 160q307 12 344 250q20 123 -43 196.5t-184 73.5q-113 0 -188.5 -67.5t-104.5 -180.5h-170q49 188 177 298t315 110q188 0 294.5 -117t77.5 -305q-16 -104 -84.5 -197.5t-166.5 -140.5q100 -49 140 -152.5t19 -226.5q-31 -199 -190.5 -329t-360.5 -130 q-190 0 -303.5 119t-87.5 309h168q-12 -117 61.5 -192.5t192.5 -75.5q127 0 228.5 90t121.5 219q23 143 -56 218t-224 71z" />
<glyph unicode="4" d="M1040 410h191l-27 -160h-190l-39 -250h-172l39 250h-791l1178 1380h4zM868 410l111 698h-4l-596 -698h489z" />
<glyph unicode="5" d="M1290 1384h-493l-152 -329l92 8q225 0 346 -155.5t84 -383.5q-39 -238 -227 -394.5t-428 -156.5q-152 0 -262.5 73t-167.5 204l154 98q39 -96 119.5 -155.5t187.5 -59.5q170 0 297 112.5t155 282.5q27 162 -67 268.5t-258 106.5q-141 0 -310 -98l340 739h615z" />
<glyph unicode="6" d="M991 1571l115 -96l-432 -480l4 -4q18 8 67 17q33 6 70 6q209 0 332 -149.5t88 -360.5q-35 -221 -216 -376t-400.5 -155t-351.5 156t-97 373q29 174 199 370zM643.5 133q149.5 0 272 106.5t145.5 258.5q25 150 -64.5 253t-238.5 103q-152 0 -272.5 -103.5t-145.5 -252.5 q-23 -152 65.5 -258.5t238 -106.5z" />
<glyph unicode="7" d="M1167 1384h-843l24 160h1139l-1284 -1571l-123 80z" />
<glyph unicode="8" d="M745.5 727q-124.5 0 -225 -87t-121.5 -210q-18 -123 54.5 -210t197.5 -87t226.5 87t119.5 210q20 123 -53.5 210t-198 87zM878.5 1571q182.5 0 288 -123t76.5 -307q-16 -102 -80.5 -195.5t-161.5 -142.5q100 -49 144.5 -149.5t23.5 -221.5q-31 -199 -186.5 -329 t-356 -130t-315 130t-84.5 329q20 121 96 222.5t191 148.5q-80 49 -116 141t-19 197q29 184 173 307t326.5 123zM854 1411q-111 0 -202 -78t-107 -188q-18 -113 48 -192t177 -79t202 79t109 192q16 111 -50 188.5t-177 77.5z" />
<glyph unicode="9" d="M498 -27l-115 88l434 490l-4 4q-72 -20 -137 -20q-211 0 -332 149.5t-86 359.5q33 219 214 373t400.5 154t351.5 -153.5t99 -373.5q-29 -174 -203 -370zM847.5 1411q-149.5 0 -271 -105.5t-146.5 -254.5q-23 -150 65.5 -253.5t239.5 -103.5q150 0 271.5 103.5 t144.5 253.5q25 150 -64.5 255t-239 105z" />
<glyph unicode=":" horiz-adv-x="630" d="M348 203q47 0 76 -33t20.5 -80t-47.5 -82t-86 -35t-75.5 35t-20.5 82t47 80t86 33zM473 989q47 0 76 -32.5t20.5 -80t-47.5 -82t-86 -34.5t-75.5 34.5t-20.5 82t47 80t86 32.5z" />
<glyph unicode=";" horiz-adv-x="630" d="M348 225l144 -53l-314 -524l-104 45zM524 989q47 0 76 -32.5t20.5 -80t-47 -82t-86 -34.5t-76 34.5t-20.5 82t47 80t86 32.5z" />
<glyph unicode="&#x3c;" d="M1288 1020l-28 -174l-803 -322l702 -321l-29 -174l-923 424l22 143z" />
<glyph unicode="=" d="M256 764h991l-24 -160h-992zM205 444h991l-25 -159h-991z" />
<glyph unicode="&#x3e;" d="M268 846l29 174l924 -424l-23 -143l-1059 -424l29 174l805 321z" />
<glyph unicode="?" horiz-adv-x="999" d="M772 672h166q-18 -150 -130 -252.5t-259 -102.5q-143 0 -224 96.5t-59 237.5q20 127 105.5 199t226.5 115q4 2 40 12t42 12l37 12q31 10 38 15.5t31.5 18t32.5 22.5t24.5 26.5t23.5 33l15.5 38t12.5 45.5q14 94 -36 153.5t-142 59.5q-86 0 -152.5 -58.5t-79.5 -144.5 q-8 -41 -4 -98h-170l8 109q25 156 151 253t282 97q158 0 246.5 -106.5t64.5 -262.5q-29 -174 -154 -274q-74 -57 -291 -119q-166 -45 -186 -170q-10 -70 32 -117t111 -47q82 0 132.5 56.5t64.5 140.5zM528 203q47 0 76 -33t20.5 -80t-47 -82t-86 -35t-76 35t-20.5 82t47 80 t86 33z" />
<glyph unicode="@" horiz-adv-x="1638" d="M647 709q-18 -109 30 -177.5t152 -68.5q125 0 206 86t116 213q35 123 -12 199.5t-154 76.5q-119 0 -219.5 -102t-118.5 -227zM1245 1034l49 125h146l-187 -522q-47 -131 -28 -160q8 -14 30 -14q74 0 171.5 125t127.5 266q57 262 -82 415.5t-397 153.5q-272 0 -479 -185 t-252 -466q-47 -289 115 -470t444 -181q260 0 408 94l127 -104q-289 -137 -574 -138q-334 0 -528.5 228.5t-138.5 570.5q53 340 316 569.5t591 229.5q285 0 455 -176q197 -197 155 -469q-43 -266 -196 -430q-84 -92 -174.5 -136.5t-167.5 -40.5q-92 4 -93 125 q-143 -125 -297 -125q-137 0 -223 111t-61 264q31 193 170 338.5t323 145.5q162 -1 250 -144z" />
<glyph unicode="A" horiz-adv-x="1431" d="M1116 438h-659l-256 -438h-189l969 1618l438 -1618h-190zM1073 598l-160 619l-362 -619h522z" />
<glyph unicode="B" horiz-adv-x="1163" d="M440 717l-88 -557h172q395 0 441 282q4 26 3 49q0 40 -11 72q-17 51 -52 80t-91 46.5t-108.5 22.5t-115.5 5h-150zM156 0l243 1544h254q111 0 197 -21.5t152.5 -68.5t93.5 -130q16 -49 15 -109q0 -42 -7 -89q-33 -201 -199 -301q129 -33 191 -143q45 -81 45 -178 q0 -36 -6 -74q-23 -147 -115 -246.5t-219 -141.5t-287 -42h-358zM547 1384l-82 -520h65q68 0 114 4t99.5 19.5t88 43t62.5 77t38 118.5q6 38 6 70q0 102 -60 139q-79 49 -264 49h-67z" />
<glyph unicode="C" horiz-adv-x="1468" d="M1559 1419l-35 -213q-166 205 -439 205q-256 0 -469 -190.5t-254 -448.5q-9 -54 -8 -106q0 -192 121 -342q154 -190 412 -191q264 0 499 205l-32 -213q-236 -152 -486 -152q-330 0 -530 233q-160 185 -160 431q0 63 10 129q35 217 172.5 402.5t340 294t419.5 108.5 q261 0 439 -152z" />
<glyph unicode="D" horiz-adv-x="1388" d="M156 0l243 1544h291q193 0 328 -39t246 -147q175 -175 175 -445q0 -68 -12 -143q-57 -352 -344 -575q-147 -115 -293.5 -155t-347.5 -40h-286zM352 160h125q158 0 279 33.5t235 125.5q219 178 264 453q9 58 9 111q0 211 -136 352q-86 88 -194.5 118.5t-261.5 30.5h-125z " />
<glyph unicode="E" horiz-adv-x="1093" d="M156 0l243 1544h801l-24 -160h-629l-72 -458h610l-26 -160h-610l-97 -606h629l-25 -160h-800z" />
<glyph unicode="F" horiz-adv-x="978" d="M1077 1384h-530l-72 -458h514l-26 -160h-514l-121 -766h-172l243 1544h703z" />
<glyph unicode="G" horiz-adv-x="1679" d="M1071 776h643q-25 -176 -77 -303t-169 -242q-125 -123 -287.5 -190.5t-324.5 -67.5q-326 0 -523 235q-157 186 -157 430q0 63 10 130q53 332 325.5 567.5t606.5 235.5q397 0 602 -334l-143 -117q-160 291 -485 291q-262 0 -477.5 -190.5t-256.5 -454.5q-8 -52 -8 -101 q0 -190 121 -335q74 -88 181.5 -142.5t224.5 -54.5q211 0 403.5 138.5t224.5 344.5h-458z" />
<glyph unicode="H" horiz-adv-x="1462" d="M481 918h791l98 626h172l-244 -1544h-172l121 758h-790l-121 -758h-172l244 1544h172z" />
<glyph unicode="I" horiz-adv-x="489" d="M575 1544l-243 -1544h-172l243 1544h172z" />
<glyph unicode="J" horiz-adv-x="643" d="M727 1544l-192 -1222q-14 -84 -23.5 -128t-39.5 -112t-73 -115q-115 -127 -284 -127q-141 0 -256 115l116 133q41 -45 77 -66.5t91 -21.5q47 0 85 23.5t59.5 53t38 81t22.5 83t14 81.5l193 1222h172z" />
<glyph unicode="K" horiz-adv-x="1251" d="M467 883l762 661h231l-837 -719l618 -825h-237l-521 709l-51 -43l-104 -666h-172l243 1544h172z" />
<glyph unicode="L" horiz-adv-x="768" d="M571 1544l-219 -1384h426l-24 -160h-598l243 1544h172z" />
<glyph unicode="M" horiz-adv-x="1835" d="M43 0l571 1632l357 -1296l768 1296l55 -1632h-176l-33 1044h-4l-674 -1107l-319 1107h-4l-365 -1044h-176z" />
<glyph unicode="N" horiz-adv-x="1708" d="M166 0l254 1610l1005 -1262l189 1196h172l-254 -1614l-1006 1260l-188 -1190h-172z" />
<glyph unicode="O" horiz-adv-x="1765" d="M1130 1571q332 0 532 -235q159 -187 159 -435q0 -64 -11 -131q-53 -332 -326.5 -564.5t-605 -232.5t-531.5 233q-158 184 -158 429q0 65 12 135q35 217 172 401.5t338.5 292t418.5 107.5zM1106 1411q-264 0 -478 -187.5t-255 -451.5q-9 -55 -9 -106q0 -195 122 -344 q155 -188 417 -188.5t478 188t257 450.5q9 55 9 107q0 196 -122 345q-155 187 -419 187z" />
<glyph unicode="P" horiz-adv-x="1030" d="M434 676l-106 -676h-172l243 1544h254q84 0 136.5 -4t120 -22.5t114.5 -55.5q74 -57 104 -151q20 -61 20 -128q0 -36 -5 -73q-35 -209 -201 -332q-139 -102 -383 -102h-125zM547 1384l-86 -548h114q352 0 396 278q5 32 5 59q0 37 -9 66q-16 51 -46 79t-86.5 43t-104.5 19 t-120 4h-63z" />
<glyph unicode="Q" horiz-adv-x="1765" d="M1178 623l223 -279q199 180 237 428q9 55 9 107q0 196 -122 345q-155 187 -419 187t-478 -187.5t-255 -451.5q-9 -55 -9 -106q0 -195 122 -344q155 -188 417 -189q195 0 363 115l-314 375h226zM1475 -14l-107 139q-106 -72 -238.5 -112t-250.5 -40q-332 0 -532 233 q-158 184 -158 429q0 65 12 135q35 217 172 401.5t338.5 292t418.5 107.5q334 0 533 -237q157 -187 157 -432q0 -66 -12 -136q-47 -303 -309 -545l195 -235h-219z" />
<glyph unicode="R" horiz-adv-x="1110" d="M547 1384l-88 -555h53q82 0 146.5 10.5t129 38t105.5 85t55 143.5q6 37 6 68q0 47 -13 82q-22 58 -78 85t-115.5 35t-149.5 8h-51zM434 678l-106 -678h-172l243 1544h224q119 0 210 -18.5t167.5 -63.5t108.5 -132q19 -53 19 -120q0 -43 -8 -92q-29 -178 -150.5 -294.5 t-301.5 -131.5l381 -692h-211l-361 678h-43z" />
<glyph unicode="S" horiz-adv-x="1144" d="M1204 1331l-151 -88q-37 84 -91.5 126t-148.5 42q-104 0 -190 -67.5t-103 -172.5q-3 -17 -3 -33q0 -28 9 -53q14 -39 53 -69.5t66 -46t78 -39.5l94 -45q82 -39 134.5 -73t100.5 -84t65 -120q10 -38 10 -82q0 -36 -7 -75q-33 -201 -195.5 -339.5t-365.5 -138.5 q-184 0 -296.5 110t-121.5 290l174 47q-2 -123 71 -205t194 -82q127 0 236.5 87t129.5 214q3 22 4 42q0 28 -7 53q-11 44 -27.5 71t-59.5 57.5t-66 42.5l-81 41l-86 41q-74 35 -121 67t-91 78t-60 108q-9 35 -8 75q0 32 5 68q29 174 172.5 283.5t321.5 109.5 q129 0 224 -62.5t138 -177.5z" />
<glyph unicode="T" horiz-adv-x="962" d="M784 1384l-219 -1384h-172l219 1384h-372l24 160h922l-25 -160h-377z" />
<glyph unicode="U" horiz-adv-x="1402" d="M567 1544l-145 -919q-14 -86 -19 -125q-2 -17 -1 -41q0 -29 2 -66q5 -68 32 -112q37 -68 118 -108t169 -40q84 0 173 37t153 100q43 43 70.5 106.5t35.5 102.5t21 121q2 16 4 25l145 919h172l-151 -966q-23 -145 -64 -242.5t-139 -185.5q-193 -176 -445 -177 q-240 0 -374 158q-80 88 -95 205q-5 39 -4 79q0 80 19 163l151 966h172z" />
<glyph unicode="V" horiz-adv-x="1277" d="M442 1544l254 -1177l627 1177h186l-884 -1636l-369 1636h186z" />
<glyph unicode="W" horiz-adv-x="2234" d="M457 1544l223 -1157l696 1237l303 -1237l588 1157h187l-848 -1624l-303 1243l-697 -1243l-336 1624h187z" />
<glyph unicode="X" horiz-adv-x="1155" d="M610 799l-301 745h197l223 -581l408 581h196l-534 -745l329 -799h-196l-254 635l-455 -635h-196z" />
<glyph unicode="Y" horiz-adv-x="1214" d="M627 664l-367 880h199l284 -688l502 688h199l-645 -880l-105 -664h-172z" />
<glyph unicode="Z" horiz-adv-x="1200" d="M338 160h821l-24 -160h-1106l1061 1384h-736l25 160h1022z" />
<glyph unicode="[" horiz-adv-x="645" d="M612 1462l-284 -1802h221l-25 -152h-389l334 2106h389l-24 -152h-222z" />
<glyph unicode="\" horiz-adv-x="1167" d="M295 1628l145 62l690 -1690l-143 -61z" />
<glyph unicode="]" horiz-adv-x="645" d="M211 -340l285 1802h-222l25 152h389l-334 -2106h-389l25 152h221z" />
<glyph unicode="^" d="M240 659l561 885h147l283 -885h-182l-207 672l-424 -672h-178z" />
<glyph unicode="_" horiz-adv-x="1024" d="M999 -154l-16 -102h-1024l16 102h1024z" />
<glyph unicode="`" horiz-adv-x="733" d="M389 1446l184 78l191 -336l-113 -58z" />
<glyph unicode="a" horiz-adv-x="1181" d="M688 838q-139 0 -242.5 -102.5t-126.5 -243.5q-7 -40 -6 -77q0 -102 49 -182q68 -109 216 -108q152 0 253 105.5t125 258.5q6 38 7 73q0 102 -55 176q-73 100 -220 100zM1186 963l-152 -963h-164l21 133h-4q-150 -160 -357 -160q-205 0 -309 150q-80 114 -79 261 q0 46 8 95q33 213 183 361.5t361 148.5q201 0 303 -164h4l21 138h164z" />
<glyph unicode="b" horiz-adv-x="1181" d="M750 838q-139 0 -243 -102.5t-126 -243.5q-7 -40 -7 -77q0 -102 50 -182q68 -109 215 -108q152 0 253 105.5t126 258.5q6 38 6 73q0 102 -54 176q-73 100 -220 100zM147 0l269 1690h164l-138 -865h4q152 164 357 164q209 0 311 -147q78 -112 78 -261q0 -48 -8 -100 q-33 -209 -184.5 -358.5t-356.5 -149.5q-213 0 -307 160h-4l-21 -133h-164z" />
<glyph unicode="c" horiz-adv-x="974" d="M1012 893l-35 -217h-4q-100 162 -273 162q-147 0 -260.5 -104.5t-136.5 -252.5q-6 -36 -6 -69q0 -104 58 -183q77 -104 225 -104q184 0 338 166h4l-33 -219q-162 -98 -322 -99q-219 0 -342 146q-97 115 -97 274q0 43 7 88q33 213 208 360.5t388 147.5q162 0 281 -96z" />
<glyph unicode="d" horiz-adv-x="1181" d="M688 838q-139 0 -242.5 -102.5t-126.5 -243.5q-7 -40 -6 -77q0 -102 49 -182q68 -109 216 -108q152 0 253 105.5t125 258.5q6 38 7 73q0 102 -55 176q-73 100 -220 100zM870 0l21 133h-4q-147 -160 -357 -160q-205 0 -309 150q-80 114 -79 261q0 46 8 95 q33 213 183 361.5t361 148.5q96 0 176 -43t127 -121h4l138 865h164l-269 -1690h-164z" />
<glyph unicode="e" horiz-adv-x="1062" d="M1065 446h-756q-4 -29 -4 -56q0 -99 57 -172q74 -93 211 -93q182 0 324 199l127 -80q-186 -270 -487 -271q-211 0 -319 142q-82 108 -82 258q0 46 7 96q35 223 183.5 371.5t367.5 148.5q223 0 322 -159q66 -106 65 -241q0 -68 -16 -143zM338 586h575q0 106 -67.5 179 t-174 73t-203.5 -74t-130 -178z" />
<glyph unicode="f" horiz-adv-x="561" d="M463 811l-129 -811h-164l129 811h-90l22 152h91l61 383q27 178 82 249q94 121 268 121q51 0 113 -20l-27 -166q-63 23 -106 22q-39 0 -67 -13t-44 -29.5t-29.5 -57.5t-18.5 -69.5t-15 -94.5l-54 -325h244l-22 -152h-244z" />
<glyph unicode="g" horiz-adv-x="1187" d="M678 838q-139 0 -242.5 -102.5t-126.5 -243.5q-7 -40 -6 -77q0 -102 49 -182q68 -109 215 -108q152 0 253.5 105.5t125.5 258.5q6 38 6 73q0 102 -54 176q-73 100 -220 100zM1176 963l-144 -916q-16 -98 -28.5 -151.5t-46 -128t-89.5 -134.5q-162 -170 -399 -170 q-205 0 -317 121q-91 98 -92 248q0 35 6 74h163q-4 -28 -4 -55q0 -94 58 -156q74 -80 206 -80q176 0 260.5 108.5t112.5 294.5l19 115h-4q-70 -74 -165.5 -117t-193.5 -43q-205 0 -308 148q-79 112 -79 259q0 47 8 97q33 211 186.5 361.5t360.5 150.5q205 0 301 -164h4 l21 138h164z" />
<glyph unicode="h" horiz-adv-x="1081" d="M424 1690h164l-133 -840l2 -4q131 143 299 143q184 0 237 -112q34 -71 34 -175q0 -60 -11 -131l-90 -571h-164l86 543q14 106 13 154q0 59 -38 99q-41 42 -131 42q-66 0 -116 -25t-79.5 -58.5t-52 -90t-33 -100.5t-20.5 -107l-72 -457h-163z" />
<glyph unicode="i" horiz-adv-x="536" d="M502 963l-152 -963h-164l152 963h164zM498 1442q47 0 75 -35q22 -27 23 -62q0 -10 -2 -20q-8 -49 -48 -83t-87 -34t-77 34q-23 26 -23 63q0 10 1 20q8 47 49.5 82t88.5 35z" />
<glyph unicode="j" horiz-adv-x="536" d="M502 963l-238 -1504h-164l238 1504h164zM498 1442q47 0 75 -35q22 -27 23 -62q0 -10 -2 -20q-8 -49 -48 -83t-87 -34t-77 34q-23 26 -23 63q0 10 1 20q8 47 49.5 82t88.5 35z" />
<glyph unicode="k" horiz-adv-x="962" d="M580 1690l-172 -1084l405 357h219l-475 -410l401 -553h-217l-317 438l-49 -43l-64 -395h-164l269 1690h164z" />
<glyph unicode="l" horiz-adv-x="464" d="M584 1690l-269 -1690h-163l268 1690h164z" />
<glyph unicode="m" horiz-adv-x="1572" d="M471 963l-16 -105h4q109 131 254 131q86 0 149.5 -42t89.5 -118q53 78 138.5 119t177.5 41q253 0 253 -274q0 -58 -12 -129l-92 -586h-164l88 559q8 66 13 128v13q0 54 -31 94q-35 44 -113 44q-53 0 -96 -20.5t-69.5 -51.5t-47 -78t-31 -87t-18.5 -91l-80 -510h-163 l86 547q6 63 10 128v14q0 56 -29 99q-33 49 -106 50q-68 0 -119 -31t-80 -87t-44 -106.5t-26 -115.5l-78 -498h-163l151 963h164z" />
<glyph unicode="n" horiz-adv-x="1081" d="M471 963l-18 -117h4q131 143 299 143q184 0 237 -112q34 -71 34 -175q0 -60 -11 -131l-90 -571h-164l86 543q14 106 13 154q0 59 -38 99q-41 42 -131 42q-66 0 -116 -25t-79.5 -58.5t-52 -90t-33 -100.5t-20.5 -107l-72 -457h-163l151 963h164z" />
<glyph unicode="o" horiz-adv-x="1150" d="M571 -27q-211 0 -334 148q-98 117 -98 273q0 41 6 85q35 213 206 361.5t382 148.5t335 -148q97 -116 97 -271q0 -44 -8 -91q-33 -211 -204 -358.5t-382 -147.5zM708.5 838q-149.5 0 -263 -103.5t-136.5 -253.5q-5 -33 -5 -63q0 -109 63 -190q80 -103 229 -103t262 103.5 t135 252.5q5 33 5 64q0 108 -61 189q-79 104 -228.5 104z" />
<glyph unicode="p" horiz-adv-x="1181" d="M750 838q-139 0 -243 -102.5t-126 -243.5q-7 -40 -7 -77q0 -102 50 -182q68 -109 215 -108q152 0 253 105.5t126 258.5q6 38 6 73q0 102 -54 176q-73 100 -220 100zM463 963l-21 -138h4q147 164 359 164q205 0 308 -150q79 -114 79 -263q0 -47 -8 -97 q-33 -213 -182.5 -359.5t-360.5 -146.5t-305 162h-4l-107 -676h-164l238 1504h164z" />
<glyph unicode="q" horiz-adv-x="1181" d="M688 838q-139 0 -242.5 -102.5t-126.5 -243.5q-7 -40 -6 -77q0 -102 49 -182q68 -109 216 -108q152 0 253 105.5t125 258.5q6 38 7 73q0 102 -55 176q-73 100 -220 100zM1186 963l-238 -1504h-164l107 676h-4q-145 -162 -355 -162q-211 0 -313 147q-78 111 -77 259 q0 47 8 98q33 211 184 361.5t358 150.5t305 -164h4l21 138h164z" />
<glyph unicode="r" horiz-adv-x="686" d="M463 963l-17 -105h5q61 68 111 99.5t124 31.5q66 0 139 -45l-102 -149q-4 2 -11 9t-11.5 9t-11.5 7t-12 7l-12 6q-7 3 -15.5 4t-16.5 1q-51 0 -93 -27t-65.5 -61.5t-43 -90t-28 -92.5t-16.5 -86l-76 -481h-164l152 963h164z" />
<glyph unicode="s" horiz-adv-x="817" d="M811 811l-149 -72q-12 41 -42 70t-73 29q-45 0 -87 -31t-48 -76q-6 -12 -1 -25.5t5 -21.5t11 -19.5l16.5 -17.5t20.5 -15l24 -15q9 -5 28 -13l30 -13l31 -13q19 -8 31 -15q96 -43 147 -104q37 -45 36 -116q0 -26 -5 -56q-20 -135 -129.5 -224.5t-244.5 -89.5 q-121 0 -201 64.5t-100 179.5l155 62q23 -76 59.5 -115t112.5 -39q68 0 118 41t60 106q2 12 3 24q0 44 -31 75q-39 39 -98.5 64.5t-119 55t-95.5 86.5q-27 42 -26 99q0 20 3 41q20 119 116.5 195.5t215.5 76.5q82 0 143 -50t84 -128z" />
<glyph unicode="t" horiz-adv-x="491" d="M457 811l-129 -811h-164l129 811h-100l22 152h100l56 346h164l-56 -346h172l-22 -152h-172z" />
<glyph unicode="u" horiz-adv-x="1048" d="M459 963l-84 -537q-11 -93 -12 -154q0 -65 44 -105q44 -42 138 -42q72 0 121 22.5t76.5 69.5t41 92t25.5 117l84 537h164l-86 -555q-70 -434 -451 -435q-322 0 -322 311q0 57 11 124l86 555h164z" />
<glyph unicode="v" horiz-adv-x="948" d="M340 963l184 -648l389 648h185l-633 -1026l-311 1026h186z" />
<glyph unicode="w" horiz-adv-x="1556" d="M344 963l182 -652l414 725l186 -725l390 652h186l-639 -1031l-184 717l-410 -717l-311 1031h186z" />
<glyph unicode="x" horiz-adv-x="1019" d="M494 512l-281 451h201l200 -328l304 328h204l-422 -451l318 -512h-199l-244 391l-368 -391h-205z" />
<glyph unicode="y" horiz-adv-x="1019" d="M453 90l-306 873h191l231 -691l420 691h187l-949 -1504h-186z" />
<glyph unicode="z" horiz-adv-x="1062" d="M377 152h663l-24 -152h-996l824 811h-565l22 152h895z" />
<glyph unicode="{" horiz-adv-x="684" d="M182 496l21 131q102 31 142 103.5t65 223.5l59 383q18 115 92 196t127 81h150l-25 -152h-82q-51 0 -68.5 -34.5t-29.5 -120.5l-62 -387q-16 -109 -65 -195t-85 -118t-63 -46q23 -14 47.5 -46t47 -119t6.5 -195l-62 -385q-16 -70 -9 -113t58 -43h82l-24 -152h-150 q-53 0 -100 81t-31 196l62 381q29 133 9 216t-112 114z" />
<glyph unicode="|" horiz-adv-x="841" d="M477 1819h137v-2425h-137v2425z" />
<glyph unicode="}" horiz-adv-x="684" d="M678 627l-21 -131q-100 -31 -140 -104t-64 -226l-62 -381q-16 -115 -90 -196t-127 -81h-149l24 152h82q35 0 55.5 22.5t26.5 47t16 86.5l62 385q12 84 43 154.5t66.5 112.5t59 62.5t42.5 30.5q-14 10 -29.5 29.5t-41 67t-31 107.5t2.5 155l62 387q16 70 8 112.5t-57 42.5 h-82l24 152h150q53 0 100 -81t29 -196l-59 -383q-29 -131 -10.5 -213.5t110.5 -113.5z" />
<glyph unicode="~" d="M332 352l-131 58q154 301 331 301q80 0 209 -93q14 -10 45 -34.5l49.5 -38t43 -25.5t43.5 -12q41 0 89 56.5t89 142.5l129 -58q-147 -301 -332 -301q-74 0 -195 90q-12 8 -38.5 27.5t-37 28t-31 21.5t-32.5 18.5t-27.5 10.5t-29.5 5q-80 0 -174 -197z" />
<glyph unicode="&#xa1;" horiz-adv-x="692" d="M504 989q47 0 75.5 -32.5t20.5 -80t-47 -82t-86 -34.5t-76 34.5t-20.5 82t47.5 80t86 32.5zM532 649l-194 -1231h-168l195 1231h167z" />
<glyph unicode="&#xa2;" d="M1196 1202l-35 -217h-4q-84 135 -217 156l-111 -705q145 20 271 164h4l-35 -219q-143 -88 -264 -96l-37 -230h-135l37 232q-176 20 -278.5 164.5t-74.5 326.5q31 193 175.5 340.5t336.5 169.5l33 217h135l-32 -213q133 -12 231 -90zM694 438l111 699 q-119 -23 -209 -124.5t-109 -221.5q-18 -127 36 -227.5t171 -125.5z" />
<glyph unicode="&#xa3;" d="M512 549h-260l22 131h205l-28 76l-22 59l-21.5 62.5t-16.5 57.5t-13 64.5t-3 62.5t6 71q29 186 182.5 312t341.5 126q199 0 302.5 -132t74.5 -331l-176 -45q23 147 -28.5 245.5t-192.5 98.5q-119 0 -214.5 -80t-115.5 -199q-10 -72 7.5 -147.5t55 -165.5t50.5 -135h290 l-22 -131h-246q8 -55 0 -92q-14 -102 -102 -221l10 -5q4 -2 80 -30.5t124 -43t79 -14.5q61 0 109 41t102 113l125 -84q-61 -102 -154.5 -170t-198.5 -68q-86 0 -239 60q-162 59 -217 59q-111 0 -203 -125l-119 90q152 197 330 199q80 92 96 191q8 59 0 100z" />
<glyph unicode="&#xa4;" d="M297 1020l86 74l72 -86q182 119 354 118.5t317 -118.5l101 86l61 -74l-94 -82q82 -168 57 -324q-29 -162 -161 -323l69 -82l-86 -74l-72 86q-182 -119 -354 -119t-317 119l-101 -86l-61 74l94 82q-82 172 -55 323q25 156 160 324zM788 995q-168 -4 -299 -111.5 t-151 -269.5q-23 -156 73.5 -268.5t256 -112.5t292 113t160.5 268q27 162 -68.5 269.5t-263.5 111.5z" />
<glyph unicode="&#xa5;" d="M545 0l84 524h-486l21 131h485l-80 205h-372l20 131h297l-231 553h198l287 -684l500 684h198l-403 -553h297l-21 -131h-372l-146 -205h486l-21 -131h-485l-84 -524h-172z" />
<glyph unicode="&#xa6;" horiz-adv-x="839" d="M477 1636h135v-848h-135v848zM477 424h135v-846h-135v846z" />
<glyph unicode="&#xa7;" horiz-adv-x="1212" d="M737 823q-94 0 -169.5 -65.5t-92.5 -159.5q-14 -94 41 -160.5t149.5 -66.5t171 66.5t91 160.5t-41 159.5t-149.5 65.5zM217 8h166q-18 -109 22.5 -173t147.5 -64q100 0 164.5 53t79.5 151q8 53 -3.5 93.5t-48 68t-63.5 40.5t-86 36q-12 6 -52 22.5t-60.5 26.5t-50.5 27.5 t-48 36.5q-109 96 -82 270q18 115 88 203t180 131q-166 90 -135 289q25 156 154 254t289 98q84 0 160.5 -37t111.5 -100q53 -98 31 -265h-164q27 244 -166 244q-94 0 -165 -56.5t-85 -150.5q-8 -51 4 -89t52 -65.5t71 -42t92 -36.5q27 -10 39 -15q61 -25 102.5 -48t81 -64 t53 -104.5t1.5 -149.5q-35 -217 -269 -328q166 -92 134 -299q-25 -162 -148 -257t-289 -95q-356 0 -309 395z" />
<glyph unicode="&#xa8;" horiz-adv-x="956" d="M506 1444q47 0 73.5 -32t18.5 -79t-45 -78.5t-82 -31.5q-47 0 -74.5 32.5t-19.5 77.5q8 47 45 79t84 32zM909 1444q45 0 73 -32t19.5 -79t-45 -78.5t-82.5 -31.5q-47 0 -74.5 32.5t-19.5 77.5q8 47 46 79t83 32z" />
<glyph unicode="&#xa9;" horiz-adv-x="1638" d="M815 -27q-336 0 -532.5 232.5t-143 566.5t322.5 566.5t605 232.5t533.5 -232.5t144.5 -566.5t-323.5 -566.5t-606.5 -232.5zM833.5 96q276.5 0 510 198t278.5 478.5t-126 478t-447.5 197.5t-509 -197.5t-277.5 -478t125 -478.5t446.5 -198zM1374 936h-125 q-4 84 -64.5 132t-160.5 48q-156 0 -253 -100.5t-118 -233.5q-25 -145 47 -242.5t222 -97.5q205 0 280 187h125q-41 -141 -160.5 -225.5t-263.5 -84.5q-199 0 -302 132.5t-73 326.5q33 203 174.5 332t344.5 129q143 0 233 -81t94 -222z" />
<glyph unicode="&#xaa;" horiz-adv-x="708" d="M592 1481q-90 0 -158.5 -62.5t-83.5 -146.5q-12 -90 33 -155.5t139 -65.5q98 0 164 63.5t80 155.5q14 90 -32 150.5t-142 60.5zM913 1554l-90 -577h-106l12 80h-4q-96 -96 -231 -96q-133 0 -202 89t-48 214q20 129 115.5 218t232.5 89q133 0 199 -98h4l12 81h106z" />
<glyph unicode="&#xab;" horiz-adv-x="1024" d="M686 492l223 -340l-123 -84l-276 424l414 436l94 -86zM338 492l223 -340l-123 -84l-276 424l413 436l95 -86z" />
<glyph unicode="&#xac;" d="M999 211l64 393h-832l25 160h991l-88 -553h-160z" />
<glyph unicode="&#xad;" horiz-adv-x="425" d="M94 569h420l-25 -151h-419z" />
<glyph unicode="&#xae;" horiz-adv-x="1638" d="M815 -27q-336 0 -532.5 232.5t-143 566.5t322.5 566.5t605 232.5t533.5 -232.5t144.5 -566.5t-323.5 -566.5t-606.5 -232.5zM833.5 96q276.5 0 510 198t278.5 478.5t-126 478t-447.5 197.5t-509 -197.5t-277.5 -478t125 -478.5t446.5 -198zM1053 743l200 -403h-147 l-199 403h-147l-64 -403h-123l140 874h381q139 0 217 -51t57 -180q-36 -232 -315 -240zM780 866h148q8 0 49 -1t58.5 0t54 4t56 11.5t44 20.5t38 33.5t17.5 50.5q6 43 -25.5 67.5t-73.5 32t-97 7.5h-234z" />
<glyph unicode="&#xaf;" horiz-adv-x="1021" d="M383 1397h700l-22 -140h-701z" />
<glyph unicode="&#xb0;" horiz-adv-x="819" d="M918 1264q-20 -127 -125 -217.5t-232 -90.5t-202.5 90.5t-55.5 217.5q18 127 122.5 217t231.5 90t204 -91t57 -216zM819 1264q14 86 -38 147.5t-140 61.5q-86 0 -156.5 -61.5t-83.5 -147.5q-14 -88 37 -148.5t140 -60.5q86 0 156.5 60.5t84.5 148.5z" />
<glyph unicode="&#xb1;" d="M713 1020h159l-49 -313h416l-27 -160h-415l-49 -314h-160l49 314h-416l27 160h416zM135 0l25 160h991l-25 -160h-991z" />
<glyph unicode="&#xb2;" horiz-adv-x="755" d="M416 735h403l-16 -106h-649l548 512q70 63 82 155q12 76 -33.5 122t-127.5 46q-90 0 -147.5 -49t-72.5 -131h-122q23 123 123 205t231 82q135 0 214 -77t58 -198q-18 -123 -96 -194z" />
<glyph unicode="&#xb3;" horiz-adv-x="755" d="M526 1063l17 106q82 0 140 38t71 106q10 70 -34 110.5t-108 40.5q-137 0 -174 -137h-123q31 113 112 178.5t204 65.5t193.5 -70.5t52.5 -183.5q-10 -63 -53.5 -118.5t-108.5 -84.5q133 -57 108 -227q-20 -129 -118.5 -202t-237.5 -73q-123 0 -197.5 72t-58.5 184h123 q-10 -70 34 -109.5t121 -39.5q80 0 139.5 49t71.5 125q12 80 -35 126t-139 44z" />
<glyph unicode="&#xb4;" horiz-adv-x="733" d="M645 1524l160 -78l-365 -316l-92 58z" />
<glyph unicode="&#xb5;" horiz-adv-x="1048" d="M459 963l-84 -537q-10 -84 -11.5 -150.5t43 -108.5t138.5 -42q72 0 121 22.5t76.5 69.5t41 92t25.5 117l84 537h164l-86 -555q-70 -434 -451 -435q-117 0 -203 97l-96 -611h-164l238 1504h164z" />
<glyph unicode="&#xb6;" horiz-adv-x="1212" d="M1337 1544l-20 -133h-119l-272 -1724h-133l272 1724h-166l-272 -1724h-133l141 893q-176 0 -273.5 116.5t-78.5 321.5q16 195 171.5 360.5t350.5 165.5h532z" />
<glyph unicode="&#xb7;" horiz-adv-x="630" d="M416 637q47 0 75.5 -33t22.5 -80q-8 -47 -47 -81.5t-86 -34.5t-76 34.5t-20 81.5q6 47 45 80t86 33z" />
<glyph unicode="&#xb8;" horiz-adv-x="665" d="M492 -109l-283 -299l-105 58l244 303z" />
<glyph unicode="&#xb9;" horiz-adv-x="755" d="M629 1448h-166l76 106h229l-145 -925h-123z" />
<glyph unicode="&#xba;" horiz-adv-x="690" d="M497.5 961q-137.5 0 -219 88t-61 215t130 217t246.5 90t220 -90t62.5 -217t-131 -215t-248 -88zM581.5 1481q-96.5 0 -170 -62.5t-88 -152.5t39 -152.5t149.5 -62.5t170 62.5t88 152.5t-39 152.5t-149.5 62.5z" />
<glyph unicode="&#xbb;" horiz-adv-x="1024" d="M164 152l330 340l-222 350l123 86l275 -436l-412 -424zM512 152l330 340l-221 350l122 86l275 -436l-412 -424z" />
<glyph unicode="&#xbc;" horiz-adv-x="1892" d="M1606 256h123l-17 -106h-123l-24 -150h-123l24 150h-501l753 829h2zM1483 256l61 389h-4l-352 -389h295zM600 1448h-166l76 106h229l-145 -925h-123zM1575 1571l84 -49l-1145 -1549l-82 50z" />
<glyph unicode="&#xbd;" horiz-adv-x="1892" d="M600 1448h-166l76 106h229l-145 -925h-123zM1300 106h404l-16 -106h-650l551 512q68 63 82 156q12 76 -34 122t-128 46q-90 0 -148 -49.5t-71 -131.5h-123q23 123 123.5 205t231.5 82q135 0 212.5 -77t59.5 -197q-18 -123 -96 -195zM1483 1571l84 -49l-1145 -1549l-82 50 z" />
<glyph unicode="&#xbe;" horiz-adv-x="1892" d="M1647 256h122l-16 -106h-123l-24 -150h-123l24 150h-501l753 829h2zM1524 256l61 389h-4l-352 -389h295zM1694 1571l84 -49l-1145 -1549l-82 50zM616 1063l17 106q82 0 140 38t71 106q10 70 -34 110.5t-108 40.5q-137 0 -174 -137h-122q31 113 111.5 178.5t203.5 65.5 t193.5 -70.5t52.5 -183.5q-10 -63 -53.5 -118.5t-108.5 -84.5q133 -57 108 -227q-20 -129 -118.5 -202t-237.5 -73q-123 0 -197.5 72t-58.5 184h123q-10 -70 34 -109.5t122 -39.5q80 0 139 49t72 125q12 80 -35.5 126t-139.5 44z" />
<glyph unicode="&#xbf;" horiz-adv-x="999" d="M381 299h-166q18 150 131 252t260 102q141 0 222 -96t59 -238q-20 -127 -105.5 -198.5t-226.5 -114.5q-4 -2 -40 -12t-42 -12l-37 -13q-31 -10 -38 -15t-31.5 -17.5t-32.5 -22.5t-24.5 -26.5t-23.5 -33l-15.5 -38t-12.5 -45.5q-14 -94 36 -153.5t142 -59.5q86 0 152.5 58 t79.5 144q10 53 4 99h170l-8 -109q-25 -156 -151 -253t-282 -97q-158 0 -246.5 106.5t-64.5 262.5q29 174 154 274q76 59 293 119q164 45 184 170q10 70 -32 117t-111 47q-82 0 -132.5 -56.5t-64.5 -140.5zM661.5 989q47.5 0 76 -33.5t20.5 -81t-47 -81t-86 -33.5t-76 33.5 t-20.5 81t47 81t86 33.5z" />
<glyph unicode="&#xc0;" horiz-adv-x="1431" d="M1116 438h-659l-256 -438h-189l969 1618l438 -1618h-190zM1073 598l-160 619l-362 -619h522zM741 1976l185 78l190 -336l-112 -57z" />
<glyph unicode="&#xc1;" horiz-adv-x="1431" d="M1116 438h-659l-256 -438h-189l969 1618l438 -1618h-190zM1073 598l-160 619l-362 -619h522zM1161 2054l160 -78l-365 -315l-92 57z" />
<glyph unicode="&#xc2;" horiz-adv-x="1431" d="M1116 438h-659l-256 -438h-189l969 1618l438 -1618h-190zM1073 598l-160 619l-362 -619h522zM676 1767l362 273l281 -273l-133 -92l-178 174l-230 -174z" />
<glyph unicode="&#xc3;" horiz-adv-x="1431" d="M1116 438h-659l-256 -438h-189l969 1618l438 -1618h-190zM1073 598l-160 619l-362 -619h522zM733 1735l-88 80q121 162 236 161q72 0 157 -47q98 -47 125 -47q61 0 129 98l84 -77q-41 -72 -106.5 -119t-136.5 -47q-55 0 -146 47q-94 45 -137 45q-39 0 -63.5 -23.5 t-53.5 -70.5z" />
<glyph unicode="&#xc4;" horiz-adv-x="1431" d="M1116 438h-659l-256 -438h-189l969 1618l438 -1618h-190zM1073 598l-160 619l-362 -619h522zM827 1974q45 0 73 -32.5t20 -77.5q-8 -47 -45 -79t-82 -32q-47 0 -75 33t-19.5 78t46 77.5t82.5 32.5zM1231 1974q47 0 73.5 -32.5t18.5 -77.5q-8 -47 -45 -79t-82 -32 q-47 0 -74.5 33t-19.5 78t45 77.5t84 32.5z" />
<glyph unicode="&#xc5;" horiz-adv-x="1431" d="M1116 438h-659l-256 -438h-189l969 1618l438 -1618h-190zM1073 598l-160 619l-362 -619h522zM1044.5 2060q81.5 0 131 -58t36.5 -140q-14 -84 -81.5 -142.5t-149.5 -58.5q-84 0 -133 59.5t-35 141.5q12 82 81 140t150.5 58zM1028 1958q-41 0 -73.5 -28.5t-39.5 -67.5 q-6 -41 18.5 -70t63.5 -29t73 29t40 70q6 39 -17.5 67.5t-64.5 28.5z" />
<glyph unicode="&#xc6;" horiz-adv-x="2048" d="M1114 434h-659l-252 -434h-191l932 1544h678l45 -160h-625l119 -460h608l48 -160h-611l156 -604h627l43 -160h-805zM1069 594l-158 608l-358 -608h516z" />
<glyph unicode="&#xc7;" horiz-adv-x="1468" d="M1559 1419l-35 -213q-166 205 -439 205q-256 0 -469 -190.5t-253.5 -448.5t113 -448.5t411.5 -190.5q264 0 499 205l-32 -213q-236 -152 -486 -152q-330 0 -530.5 232.5t-149.5 560.5q35 217 172.5 402.5t340 294t419.5 108.5q261 0 439 -152zM893 -109l-283 -299 l-104 58l244 303z" />
<glyph unicode="&#xc8;" horiz-adv-x="1093" d="M156 0l243 1544h801l-24 -160h-629l-72 -458h610l-26 -160h-610l-97 -606h629l-25 -160h-800zM602 1976l184 78l191 -336l-113 -57z" />
<glyph unicode="&#xc9;" horiz-adv-x="1093" d="M156 0l243 1544h801l-24 -160h-629l-72 -458h610l-26 -160h-610l-97 -606h629l-25 -160h-800zM991 2054l160 -78l-365 -315l-92 57z" />
<glyph unicode="&#xca;" horiz-adv-x="1093" d="M156 0l243 1544h801l-24 -160h-629l-72 -458h610l-26 -160h-610l-97 -606h629l-25 -160h-800zM506 1767l362 273l281 -273l-133 -92l-178 174l-230 -174z" />
<glyph unicode="&#xcb;" horiz-adv-x="1093" d="M156 0l243 1544h801l-24 -160h-629l-72 -458h610l-26 -160h-610l-97 -606h629l-25 -160h-800zM659.5 1974q45.5 0 73 -32.5t19.5 -77.5q-8 -47 -45 -79t-82 -32q-47 0 -75 33t-19.5 78t46 77.5t83 32.5zM1063 1974q47 0 73.5 -32.5t18.5 -77.5q-8 -47 -45 -79t-82 -32 q-47 0 -74.5 33t-19.5 78t45 77.5t84 32.5z" />
<glyph unicode="&#xcc;" horiz-adv-x="489" d="M575 1544l-243 -1544h-172l243 1544h172zM299 1976l184 78l191 -336l-113 -57z" />
<glyph unicode="&#xcd;" horiz-adv-x="489" d="M575 1544l-243 -1544h-172l243 1544h172zM657 2054l160 -78l-364 -315l-93 57z" />
<glyph unicode="&#xce;" horiz-adv-x="489" d="M575 1544l-243 -1544h-172l243 1544h172zM205 1767l362 273l281 -273l-133 -92l-178 174l-230 -174z" />
<glyph unicode="&#xcf;" horiz-adv-x="489" d="M575 1544l-243 -1544h-172l243 1544h172zM356 1974q45 0 73 -32.5t20 -77.5q-8 -47 -45 -79t-82 -32q-47 0 -75 33t-19.5 78t46 77.5t82.5 32.5zM760 1974q47 0 73.5 -32.5t18.5 -77.5q-8 -47 -45 -79t-82 -32q-47 0 -74.5 33t-19.5 78t45 77.5t84 32.5z" />
<glyph unicode="&#xd0;" horiz-adv-x="1388" d="M156 0l120 758h-155l22 147h156l100 639h291q193 0 328 -39t246 -147q219 -219 163 -588q-57 -352 -344 -575q-147 -115 -293.5 -155t-347.5 -40h-286zM352 160h125q158 0 279 33.5t235 125.5q219 178 264 453q43 287 -127 463q-86 88 -194.5 118.5t-261.5 30.5h-125 l-76 -479h274l-22 -147h-274z" />
<glyph unicode="&#xd1;" horiz-adv-x="1708" d="M166 0l254 1610l1005 -1262l189 1196h172l-254 -1614l-1006 1260l-188 -1190h-172zM870 1735l-88 80q121 162 236 161q72 0 158 -47q98 -47 124 -47q61 0 130 98l83 -77q-41 -72 -106.5 -119t-136.5 -47q-55 0 -146 47q-94 45 -137 45q-39 0 -63.5 -23.5t-53.5 -70.5z " />
<glyph unicode="&#xd2;" horiz-adv-x="1765" d="M1130 1571q332 0 532 -234.5t148 -566.5q-53 -332 -326.5 -564.5t-605 -232.5t-531.5 232.5t-146 564.5q35 217 172 401.5t338.5 292t418.5 107.5zM1106 1411q-264 0 -478 -187.5t-255 -451.5q-41 -262 113.5 -450.5t416.5 -188.5t478 188.5t257 450.5 q41 264 -113.5 451.5t-418.5 187.5zM907 1976l185 78l190 -336l-113 -57z" />
<glyph unicode="&#xd3;" horiz-adv-x="1765" d="M1130 1571q332 0 532 -234.5t148 -566.5q-53 -332 -326.5 -564.5t-605 -232.5t-531.5 232.5t-146 564.5q35 217 172 401.5t338.5 292t418.5 107.5zM1106 1411q-264 0 -478 -187.5t-255 -451.5q-41 -262 113.5 -450.5t416.5 -188.5t478 188.5t257 450.5 q41 264 -113.5 451.5t-418.5 187.5zM1327 2054l160 -78l-365 -315l-92 57z" />
<glyph unicode="&#xd4;" horiz-adv-x="1765" d="M1130 1571q332 0 532 -234.5t148 -566.5q-53 -332 -326.5 -564.5t-605 -232.5t-531.5 232.5t-146 564.5q35 217 172 401.5t338.5 292t418.5 107.5zM1106 1411q-264 0 -478 -187.5t-255 -451.5q-41 -262 113.5 -450.5t416.5 -188.5t478 188.5t257 450.5 q41 264 -113.5 451.5t-418.5 187.5zM842 1767l362 273l281 -273l-133 -92l-178 174l-230 -174z" />
<glyph unicode="&#xd5;" horiz-adv-x="1765" d="M1130 1571q332 0 532 -234.5t148 -566.5q-53 -332 -326.5 -564.5t-605 -232.5t-531.5 232.5t-146 564.5q35 217 172 401.5t338.5 292t418.5 107.5zM1106 1411q-264 0 -478 -187.5t-255 -451.5q-41 -262 113.5 -450.5t416.5 -188.5t478 188.5t257 450.5 q41 264 -113.5 451.5t-418.5 187.5zM899 1735l-88 80q121 162 236 161q72 0 157 -47q98 -47 125 -47q61 0 129 98l84 -77q-41 -72 -106.5 -119t-137.5 -47q-55 0 -145 47q-94 45 -137 45q-39 0 -63.5 -23.5t-53.5 -70.5z" />
<glyph unicode="&#xd6;" horiz-adv-x="1765" d="M1130 1571q332 0 532 -234.5t148 -566.5q-53 -332 -326.5 -564.5t-605 -232.5t-531.5 232.5t-146 564.5q35 217 172 401.5t338.5 292t418.5 107.5zM1106 1411q-264 0 -478 -187.5t-255 -451.5q-41 -262 113.5 -450.5t416.5 -188.5t478 188.5t257 450.5 q41 264 -113.5 451.5t-418.5 187.5zM995 1974q45 0 73 -32.5t19 -77.5q-8 -47 -44.5 -79t-81.5 -32q-47 0 -75 33t-20 78t46 77.5t83 32.5zM1399 1974q47 0 73.5 -32.5t18.5 -77.5q-8 -47 -45 -79t-82 -32q-47 0 -74.5 33t-19.5 78t45 77.5t84 32.5z" />
<glyph unicode="&#xd7;" d="M279 907l131 113l321 -383l443 383l96 -113l-443 -383l322 -383l-133 -112l-320 383l-444 -383l-94 112l444 383z" />
<glyph unicode="&#xd8;" horiz-adv-x="1765" d="M446 377l1037 893q-147 141 -377 141q-264 0 -478 -187.5t-255 -451.5q-38 -219 73 -395zM1561 1176l-1037 -893q154 -150 379 -150q262 0 478 188.5t257 450.5q36 228 -77 404zM98 76l211 182q-156 223 -108 512q35 217 172 401.5t338.5 292t418.5 107.5q293 0 486 -187 l217 187l80 -92l-217 -187q160 -223 114 -522q-53 -332 -326.5 -564.5t-604.5 -232.5q-297 0 -492 191l-215 -184z" />
<glyph unicode="&#xd9;" horiz-adv-x="1402" d="M567 1544l-145 -919q-14 -86 -18.5 -125t1 -106.5t31.5 -112.5q37 -68 118 -108t169 -40q84 0 173 37t153 100q43 43 70.5 106.5t35.5 102.5t21 121q2 16 4 25l145 919h172l-151 -966q-23 -145 -64 -242.5t-139 -185.5q-193 -176 -445 -177q-240 0 -374 158 q-80 88 -94.5 205t14.5 242l151 966h172zM727 1976l184 78l191 -336l-113 -57z" />
<glyph unicode="&#xda;" horiz-adv-x="1402" d="M567 1544l-145 -919q-14 -86 -18.5 -125t1 -106.5t31.5 -112.5q37 -68 118 -108t169 -40q84 0 173 37t153 100q43 43 70.5 106.5t35.5 102.5t21 121q2 16 4 25l145 919h172l-151 -966q-23 -145 -64 -242.5t-139 -185.5q-193 -176 -445 -177q-240 0 -374 158 q-80 88 -94.5 205t14.5 242l151 966h172zM1147 2054l160 -78l-365 -315l-92 57z" />
<glyph unicode="&#xdb;" horiz-adv-x="1402" d="M567 1544l-145 -919q-14 -86 -18.5 -125t1 -106.5t31.5 -112.5q37 -68 118 -108t169 -40q84 0 173 37t153 100q43 43 70.5 106.5t35.5 102.5t21 121q2 16 4 25l145 919h172l-151 -966q-23 -145 -64 -242.5t-139 -185.5q-193 -176 -445 -177q-240 0 -374 158 q-80 88 -94.5 205t14.5 242l151 966h172zM662 1767l362 273l281 -273l-134 -92l-178 174l-229 -174z" />
<glyph unicode="&#xdc;" horiz-adv-x="1402" d="M567 1544l-145 -919q-14 -86 -18.5 -125t1 -106.5t31.5 -112.5q37 -68 118 -108t169 -40q84 0 173 37t153 100q43 43 70.5 106.5t35.5 102.5t21 121q2 16 4 25l145 919h172l-151 -966q-23 -145 -64 -242.5t-139 -185.5q-193 -176 -445 -177q-240 0 -374 158 q-80 88 -94.5 205t14.5 242l151 966h172zM813 1974q47 0 73.5 -32.5t18.5 -77.5q-8 -47 -45 -79t-82 -32q-47 0 -74.5 33t-19.5 78t45 77.5t84 32.5zM1216.5 1974q45.5 0 73 -32.5t19.5 -77.5q-8 -47 -45 -79t-82 -32q-47 0 -75 33t-19.5 78t46 77.5t83 32.5z" />
<glyph unicode="&#xdd;" horiz-adv-x="1214" d="M627 664l-367 880h199l284 -688l502 688h199l-645 -880l-105 -664h-172zM1094 2054l159 -78l-364 -315l-92 57z" />
<glyph unicode="&#xde;" horiz-adv-x="1030" d="M389 389l-61 -389h-172l243 1544h172l-45 -287h82q84 0 136.5 -4t120 -22.5t114.5 -54.5q74 -57 104.5 -151.5t14.5 -201.5q-35 -209 -201 -331q-141 -102 -383 -103h-125zM502 1098l-88 -549h114q354 0 398 278q14 90 -9.5 147.5t-84 83t-119 33t-148.5 7.5h-63z" />
<glyph unicode="&#xdf;" horiz-adv-x="1181" d="M147 0l129 811h-90l23 152h90l47 294q37 217 131 316q63 70 158.5 106.5t189.5 36.5q168 0 265.5 -108.5t70.5 -276.5q-16 -94 -74.5 -176t-144.5 -123q139 -51 208 -191.5t44 -301.5q-37 -236 -238.5 -399t-439.5 -167l25 152q178 10 318 128t167 292q14 86 -11.5 168 t-84.5 135q-88 76 -260 90l22 152q117 -2 203 66.5t104 182.5q14 100 -43 163t-157 63q-72 0 -135.5 -31t-96.5 -92q-39 -63 -69 -260l-187 -1182h-164z" />
<glyph unicode="&#xe0;" horiz-adv-x="1181" d="M688 838q-139 0 -242.5 -102.5t-126.5 -243.5q-25 -150 43 -258.5t216 -108.5q152 0 253 105.5t125 258.5q25 150 -48 249.5t-220 99.5zM1186 963l-152 -963h-164l21 133h-4q-150 -160 -357 -160q-205 0 -309 149.5t-71 356.5q33 213 183 361.5t361 148.5q201 0 303 -164 h4l21 138h164zM532 1446l185 78l190 -336l-112 -58z" />
<glyph unicode="&#xe1;" horiz-adv-x="1181" d="M688 838q-139 0 -242.5 -102.5t-126.5 -243.5q-25 -150 43 -258.5t216 -108.5q152 0 253 105.5t125 258.5q25 150 -48 249.5t-220 99.5zM1186 963l-152 -963h-164l21 133h-4q-150 -160 -357 -160q-205 0 -309 149.5t-71 356.5q33 213 183 361.5t361 148.5q201 0 303 -164 h4l21 138h164zM952 1524l160 -78l-364 -316l-93 58z" />
<glyph unicode="&#xe2;" horiz-adv-x="1181" d="M688 838q-139 0 -242.5 -102.5t-126.5 -243.5q-25 -150 43 -258.5t216 -108.5q152 0 253 105.5t125 258.5q25 150 -48 249.5t-220 99.5zM1186 963l-152 -963h-164l21 133h-4q-150 -160 -357 -160q-205 0 -309 149.5t-71 356.5q33 213 183 361.5t361 148.5q201 0 303 -164 h4l21 138h164zM467 1237l362 272l281 -272l-133 -92l-178 174l-230 -174z" />
<glyph unicode="&#xe3;" horiz-adv-x="1181" d="M688 838q-139 0 -242.5 -102.5t-126.5 -243.5q-25 -150 43 -258.5t216 -108.5q152 0 253 105.5t125 258.5q25 150 -48 249.5t-220 99.5zM1186 963l-152 -963h-164l21 133h-4q-150 -160 -357 -160q-205 0 -309 149.5t-71 356.5q33 213 183 361.5t361 148.5q201 0 303 -164 h4l21 138h164zM524 1204l-88 80q121 162 236 162q72 0 157 -47q98 -47 125 -47q61 0 129 98l84 -78q-41 -72 -106.5 -119t-136.5 -47q-55 0 -146 47q-94 45 -137 45q-39 0 -63.5 -23.5t-53.5 -70.5z" />
<glyph unicode="&#xe4;" horiz-adv-x="1181" d="M688 838q-139 0 -242.5 -102.5t-126.5 -243.5q-25 -150 43 -258.5t216 -108.5q152 0 253 105.5t125 258.5q25 150 -48 249.5t-220 99.5zM1186 963l-152 -963h-164l21 133h-4q-150 -160 -357 -160q-205 0 -309 149.5t-71 356.5q33 213 183 361.5t361 148.5q201 0 303 -164 h4l21 138h164zM618.5 1444q45.5 0 73 -32t19 -79t-45 -78.5t-81.5 -31.5q-47 0 -75 32.5t-20 77.5q8 47 46 79t83.5 32zM1022 1444q47 0 73.5 -32t18.5 -79t-45 -78.5t-82 -31.5q-47 0 -74.5 32.5t-19.5 77.5q8 47 45 79t84 32z" />
<glyph unicode="&#xe5;" horiz-adv-x="1181" d="M688 838q-139 0 -242.5 -102.5t-126.5 -243.5q-25 -150 43 -258.5t216 -108.5q152 0 253 105.5t125 258.5q25 150 -48 249.5t-220 99.5zM1186 963l-152 -963h-164l21 133h-4q-150 -160 -357 -160q-205 0 -309 149.5t-71 356.5q33 213 183 361.5t361 148.5q201 0 303 -164 h4l21 138h164zM836 1530q82 0 131 -58.5t37 -140.5q-14 -84 -82 -142.5t-150 -58.5q-84 0 -133 59.5t-35 141.5q12 82 81 140.5t151 58.5zM819 1427q-41 0 -73.5 -28.5t-38.5 -67.5q-6 -41 18.5 -69.5t63 -28.5t72.5 28.5t40 69.5q6 39 -17.5 67.5t-64.5 28.5z" />
<glyph unicode="&#xe6;" horiz-adv-x="1726" d="M1008 586h575q0 106 -67.5 179t-174 73t-203.5 -74t-130 -178zM539 457q-90 0 -173 -43t-98 -127q-12 -84 55.5 -123t161.5 -39q100 0 186.5 40t100.5 130q12 84 -64.5 123t-168.5 39zM1729 446h-758q-20 -135 53.5 -228t210.5 -93q182 0 324 199l127 -80 q-186 -270 -488 -271q-111 0 -201 49.5t-137 141.5q-139 -190 -391 -191q-166 0 -277.5 78t-87.5 232q25 156 158 237.5t295 81.5q154 0 260 -82q23 154 -26.5 236t-198.5 82q-113 0 -305 -62l24 156q199 57 316 57q115 0 205 -50t118 -148q70 92 182.5 145t223.5 53 q223 0 320.5 -158t52.5 -385z" />
<glyph unicode="&#xe7;" horiz-adv-x="974" d="M1012 893l-35 -217h-4q-100 162 -273 162q-147 0 -260.5 -104.5t-136.5 -252.5q-25 -147 52 -251.5t225 -104.5q184 0 338 166h4l-33 -219q-162 -98 -322 -99q-219 0 -342 145.5t-90 362.5q33 213 208 360.5t388 147.5q162 0 281 -96zM647 -109l-282 -299l-105 58 l244 303z" />
<glyph unicode="&#xe8;" horiz-adv-x="1062" d="M1065 446h-756q-20 -135 53.5 -228t210.5 -93q182 0 324 199l127 -80q-186 -270 -487 -271q-211 0 -318.5 141.5t-75.5 354.5q35 223 183.5 371.5t367.5 148.5q223 0 321.5 -159t49.5 -384zM338 586h575q0 106 -67.5 179t-174 73t-203.5 -74t-130 -178zM473 1446l184 78 l191 -336l-113 -58z" />
<glyph unicode="&#xe9;" horiz-adv-x="1062" d="M1065 446h-756q-20 -135 53.5 -228t210.5 -93q182 0 324 199l127 -80q-186 -270 -487 -271q-211 0 -318.5 141.5t-75.5 354.5q35 223 183.5 371.5t367.5 148.5q223 0 321.5 -159t49.5 -384zM338 586h575q0 106 -67.5 179t-174 73t-203.5 -74t-130 -178zM893 1524l160 -78 l-365 -316l-92 58z" />
<glyph unicode="&#xea;" horiz-adv-x="1062" d="M1065 446h-756q-20 -135 53.5 -228t210.5 -93q182 0 324 199l127 -80q-186 -270 -487 -271q-211 0 -318.5 141.5t-75.5 354.5q35 223 183.5 371.5t367.5 148.5q223 0 321.5 -159t49.5 -384zM338 586h575q0 106 -67.5 179t-174 73t-203.5 -74t-130 -178zM408 1237l362 272 l281 -272l-133 -92l-179 174l-229 -174z" />
<glyph unicode="&#xeb;" horiz-adv-x="1062" d="M1065 446h-756q-20 -135 53.5 -228t210.5 -93q182 0 324 199l127 -80q-186 -270 -487 -271q-211 0 -318.5 141.5t-75.5 354.5q35 223 183.5 371.5t367.5 148.5q223 0 321.5 -159t49.5 -384zM338 586h575q0 106 -67.5 179t-174 73t-203.5 -74t-130 -178zM559 1444 q47 0 73.5 -32t18.5 -79t-45 -78.5t-82 -31.5q-47 0 -74.5 32.5t-19.5 77.5q8 47 45 79t84 32zM963 1444q45 0 72.5 -32t19.5 -79t-45 -78.5t-82 -31.5q-47 0 -75 32.5t-19 77.5q8 47 46 79t83 32z" />
<glyph unicode="&#xec;" horiz-adv-x="536" d="M502 963l-152 -963h-164l152 963h164zM240 1446l184 78l190 -336l-112 -58z" />
<glyph unicode="&#xed;" horiz-adv-x="536" d="M502 963l-152 -963h-164l152 963h164zM598 1524l160 -78l-365 -316l-92 58z" />
<glyph unicode="&#xee;" horiz-adv-x="536" d="M502 963l-152 -963h-164l152 963h164zM143 1237l363 272l280 -272l-133 -92l-178 174l-229 -174z" />
<glyph unicode="&#xef;" horiz-adv-x="536" d="M502 963l-152 -963h-164l152 963h164zM297 1444q47 0 73.5 -32t18.5 -79t-45 -78.5t-82 -31.5q-47 0 -74.5 32.5t-19.5 77.5q8 47 45 79t84 32zM700 1444q45 0 73 -32t19.5 -79t-45 -78.5t-81.5 -31.5q-47 0 -75 32.5t-20 77.5q8 47 46 79t83 32z" />
<glyph unicode="&#xf0;" horiz-adv-x="1148" d="M444 1608l107 94q158 -113 248 -201l313 189l68 -84l-303 -185l34 -41q10 -12 43 -55t51.5 -72.5t49 -85t48 -102.5t38 -113.5t28 -130t7.5 -141.5t-13 -156q-29 -182 -131 -311t-221 -183.5t-240 -54.5q-211 0 -334.5 148.5t-91.5 357.5q33 201 195 352.5t375 151.5 q182 0 299 -131q-47 248 -269 489l-301 -182l-67 84l295 178q-93 93 -228 185zM311 483q-25 -156 59.5 -256t227.5 -100q150 0 260.5 104.5t134.5 251.5q25 145 -54 251t-226 106q-150 0 -263.5 -102.5t-138.5 -254.5z" />
<glyph unicode="&#xf1;" horiz-adv-x="1081" d="M471 963l-18 -117h4q131 143 299 143q184 0 237.5 -112.5t22.5 -305.5l-90 -571h-164l86 543q10 80 13 145.5t-38 107.5t-131 42q-66 0 -116 -25t-79.5 -58.5t-52 -90t-33 -100.5t-20.5 -107l-72 -457h-163l151 963h164zM473 1204l-88 80q121 162 236 162q72 0 157 -47 q98 -47 125 -47q61 0 129 98l84 -78q-41 -72 -106.5 -119t-137.5 -47q-55 0 -145 47q-94 45 -137 45q-39 0 -63.5 -23.5t-53.5 -70.5z" />
<glyph unicode="&#xf2;" horiz-adv-x="1150" d="M571 -27q-211 0 -334.5 147.5t-91.5 358.5q35 213 206 361.5t382 148.5t335 -148.5t89 -361.5q-33 -211 -204 -358.5t-382 -147.5zM708.5 838q-149.5 0 -263 -103.5t-136 -253t57 -253t229 -103.5t262.5 103.5t135.5 253t-56.5 253t-228.5 103.5zM516 1446l184 78 l191 -336l-113 -58z" />
<glyph unicode="&#xf3;" horiz-adv-x="1150" d="M571 -27q-211 0 -334.5 147.5t-91.5 358.5q35 213 206 361.5t382 148.5t335 -148.5t89 -361.5q-33 -211 -204 -358.5t-382 -147.5zM708.5 838q-149.5 0 -263 -103.5t-136 -253t57 -253t229 -103.5t262.5 103.5t135.5 253t-56.5 253t-228.5 103.5zM936 1524l160 -78 l-365 -316l-92 58z" />
<glyph unicode="&#xf4;" horiz-adv-x="1150" d="M571 -27q-211 0 -334.5 147.5t-91.5 358.5q35 213 206 361.5t382 148.5t335 -148.5t89 -361.5q-33 -211 -204 -358.5t-382 -147.5zM708.5 838q-149.5 0 -263 -103.5t-136 -253t57 -253t229 -103.5t262.5 103.5t135.5 253t-56.5 253t-228.5 103.5zM451 1237l362 272 l281 -272l-133 -92l-179 174l-229 -174z" />
<glyph unicode="&#xf5;" horiz-adv-x="1150" d="M571 -27q-211 0 -334.5 147.5t-91.5 358.5q35 213 206 361.5t382 148.5t335 -148.5t89 -361.5q-33 -211 -204 -358.5t-382 -147.5zM708.5 838q-149.5 0 -263 -103.5t-136 -253t57 -253t229 -103.5t262.5 103.5t135.5 253t-56.5 253t-228.5 103.5zM508 1204l-88 80 q121 162 235 162q72 0 158 -47q98 -47 125 -47q61 0 129 98l84 -78q-41 -72 -106.5 -119t-137.5 -47q-55 0 -145 47q-94 45 -137 45q-39 0 -63.5 -23.5t-53.5 -70.5z" />
<glyph unicode="&#xf6;" horiz-adv-x="1150" d="M571 -27q-211 0 -334.5 147.5t-91.5 358.5q35 213 206 361.5t382 148.5t335 -148.5t89 -361.5q-33 -211 -204 -358.5t-382 -147.5zM708.5 838q-149.5 0 -263 -103.5t-136 -253t57 -253t229 -103.5t262.5 103.5t135.5 253t-56.5 253t-228.5 103.5zM604 1444q47 0 74 -32 t18.5 -79t-45.5 -78.5t-82 -31.5q-47 0 -74.5 32.5t-19.5 77.5q8 47 45 79t84 32zM1008 1444q45 0 72.5 -32t19.5 -79t-45 -78.5t-82 -31.5q-47 0 -75 32.5t-19 77.5q8 47 46 79t83 32z" />
<glyph unicode="&#xf7;" d="M205 444l26 160h992l-27 -160h-991zM672 254q47 0 76.5 -35t21.5 -82q-8 -49 -48 -83t-87 -34t-77 34t-21 83q8 47 48 82t87 35zM795 1028q47 0 75.5 -35t20.5 -82q-8 -49 -48 -82.5t-87 -33.5t-77 33.5t-22 82.5q8 47 49.5 82t88.5 35z" />
<glyph unicode="&#xf8;" horiz-adv-x="1150" d="M336 274l569 492q-76 72 -196 72q-150 0 -263.5 -103.5t-136.5 -253.5q-18 -111 27 -207zM967 682l-566 -489q74 -68 195 -68q150 0 262.5 103.5t134.5 252.5q19 115 -26 201zM45 23l162 139q-90 133 -62 317q35 213 206 361.5t382 148.5q182 0 301 -112l156 135l67 -78 l-157 -137q86 -135 57 -318q-33 -211 -204 -358.5t-382 -147.5q-178 0 -299 109l-159 -139z" />
<glyph unicode="&#xf9;" horiz-adv-x="1048" d="M459 963l-84 -537q-10 -84 -11.5 -150.5t43 -108.5t138.5 -42q72 0 121 22.5t76.5 69.5t41 92t25.5 117l84 537h164l-86 -555q-70 -434 -451 -434.5t-311 434.5l86 555h164zM465 1446l184 78l191 -336l-113 -58z" />
<glyph unicode="&#xfa;" horiz-adv-x="1048" d="M459 963l-84 -537q-10 -84 -11.5 -150.5t43 -108.5t138.5 -42q72 0 121 22.5t76.5 69.5t41 92t25.5 117l84 537h164l-86 -555q-70 -434 -451 -434.5t-311 434.5l86 555h164zM885 1524l159 -78l-364 -316l-92 58z" />
<glyph unicode="&#xfb;" horiz-adv-x="1048" d="M459 963l-84 -537q-10 -84 -11.5 -150.5t43 -108.5t138.5 -42q72 0 121 22.5t76.5 69.5t41 92t25.5 117l84 537h164l-86 -555q-70 -434 -451 -434.5t-311 434.5l86 555h164zM399 1237l363 272l280 -272l-133 -92l-178 174l-229 -174z" />
<glyph unicode="&#xfc;" horiz-adv-x="1048" d="M459 963l-84 -537q-10 -84 -11.5 -150.5t43 -108.5t138.5 -42q72 0 121 22.5t76.5 69.5t41 92t25.5 117l84 537h164l-86 -555q-70 -434 -451 -434.5t-311 434.5l86 555h164zM553 1444q45 0 72.5 -32t19.5 -79t-45 -78.5t-82 -31.5q-47 0 -74.5 32.5t-19.5 77.5 q8 47 46 79t83 32zM956.5 1444q47.5 0 74 -32t18 -79t-45 -78.5t-81.5 -31.5q-47 0 -75 32.5t-20 77.5q8 47 45 79t84.5 32z" />
<glyph unicode="&#xfd;" horiz-adv-x="1019" d="M453 90l-306 873h191l231 -691l420 691h187l-949 -1504h-186zM911 1524l160 -78l-364 -316l-93 58z" />
<glyph unicode="&#xfe;" horiz-adv-x="1181" d="M580 1690l-138 -865h4q147 164 359 164q205 0 308.5 -150.5t70.5 -359.5q-33 -213 -182.5 -359.5t-360.5 -146.5t-305 162h-4l-107 -676h-164l355 2231h164zM750 838q-139 0 -243 -102.5t-126 -243.5q-25 -150 43 -258.5t215 -108.5q152 0 253 105.5t126 258.5 q25 150 -48 249.5t-220 99.5z" />
<glyph unicode="&#xff;" horiz-adv-x="1019" d="M453 90l-306 873h191l231 -691l420 691h187l-949 -1504h-186zM549 1444q45 0 72.5 -32t19.5 -79t-45 -78.5t-82 -31.5q-47 0 -74.5 32.5t-19.5 77.5q8 47 46 79t83 32zM952 1444q47 0 74 -32t18.5 -79t-45 -78.5t-81.5 -31.5q-47 0 -75 32.5t-20 77.5q8 47 45 79t84 32z " />
<glyph unicode="&#x152;" horiz-adv-x="2437" d="M1493 0l47 297h-4q-125 -154 -300 -240t-357 -84q-332 0 -532 232.5t-146 564.5q35 217 172 401.5t338.5 292t418.5 107.5q182 0 330 -87t226 -243h4l47 303h807l-25 -160h-635l-72 -458h617l-27 -160h-616l-96 -606h634l-24 -160h-807zM1106 1411q-264 0 -478 -187.5 t-255 -451.5q-41 -262 113.5 -450.5t416.5 -188.5t478 188.5t257 450.5q41 264 -113.5 451.5t-418.5 187.5z" />
<glyph unicode="&#x153;" horiz-adv-x="1925" d="M1927 446h-760q-20 -135 53.5 -228t211.5 -93q182 0 323 199l127 -80q-186 -270 -487 -271q-121 0 -222.5 62.5t-138.5 167.5q-80 -109 -207 -169.5t-256 -60.5q-211 0 -334.5 147.5t-91.5 358.5q35 213 206 361.5t382 148.5q135 -4 241.5 -65.5t145.5 -167.5 q74 111 188.5 170t243.5 63q223 0 323.5 -159t51.5 -384zM1202 586h576q0 106 -68 179t-174 73t-203.5 -74t-130.5 -178zM712.5 838q-149.5 0 -263 -103.5t-136 -253t57.5 -253t229.5 -103.5t262 103.5t135 253t-56.5 253t-228.5 103.5z" />
<glyph unicode="&#x178;" horiz-adv-x="1214" d="M627 664l-367 880h199l284 -688l502 688h199l-645 -880l-105 -664h-172zM743.5 1974q47.5 0 74 -32.5t18.5 -77.5q-8 -47 -45 -79t-82 -32q-47 0 -75 33t-19.5 78t45 77.5t84 32.5zM1147 1974q45 0 72.5 -32.5t19.5 -77.5q-8 -47 -45 -79t-82 -32q-47 0 -74.5 33 t-19.5 78t46 77.5t83 32.5z" />
<glyph unicode="&#x2c6;" horiz-adv-x="962" d="M356 1237l363 272l280 -272l-133 -92l-178 174l-229 -174z" />
<glyph unicode="&#x2dc;" horiz-adv-x="1036" d="M451 1204l-89 80q121 162 236 162q72 0 158 -47q98 -47 125 -47q61 0 129 98l84 -78q-41 -72 -106.5 -119t-137.5 -47q-55 0 -145 47q-94 45 -138 45q-39 0 -63 -23.5t-53 -70.5z" />
<glyph unicode="&#x2000;" horiz-adv-x="1030" />
<glyph unicode="&#x2001;" horiz-adv-x="2060" />
<glyph unicode="&#x2002;" horiz-adv-x="1030" />
<glyph unicode="&#x2003;" horiz-adv-x="2060" />
<glyph unicode="&#x2004;" horiz-adv-x="686" />
<glyph unicode="&#x2005;" horiz-adv-x="514" />
<glyph unicode="&#x2006;" horiz-adv-x="342" />
<glyph unicode="&#x2007;" horiz-adv-x="342" />
<glyph unicode="&#x2008;" horiz-adv-x="256" />
<glyph unicode="&#x2009;" horiz-adv-x="411" />
<glyph unicode="&#x200a;" horiz-adv-x="112" />
<glyph unicode="&#x2010;" horiz-adv-x="425" d="M94 569h420l-25 -151h-419z" />
<glyph unicode="&#x2011;" horiz-adv-x="425" d="M94 569h420l-25 -151h-419z" />
<glyph unicode="&#x2012;" horiz-adv-x="425" d="M94 569h420l-25 -151h-419z" />
<glyph unicode="&#x2013;" horiz-adv-x="1024" d="M90 569h1024l-24 -151h-1024z" />
<glyph unicode="&#x2014;" horiz-adv-x="2048" d="M356 569h1516l-25 -151h-1515z" />
<glyph unicode="&#x2018;" horiz-adv-x="591" d="M434 993l-143 56l315 522l105 -43z" />
<glyph unicode="&#x2019;" horiz-adv-x="591" d="M563 1571l144 -55l-316 -523l-104 43z" />
<glyph unicode="&#x201a;" horiz-adv-x="591" d="M352 225l144 -53l-316 -524l-104 45z" />
<glyph unicode="&#x201c;" horiz-adv-x="935" d="M778 993l-143 56l315 522l105 -43zM434 993l-143 56l315 522l105 -43z" />
<glyph unicode="&#x201d;" horiz-adv-x="935" d="M565 1571l144 -55l-316 -523l-104 43zM909 1571l144 -55l-316 -523l-104 43z" />
<glyph unicode="&#x201e;" horiz-adv-x="950" d="M352 225l144 -53l-316 -524l-104 45zM711 225l143 -53l-315 -524l-105 45z" />
<glyph unicode="&#x2022;" horiz-adv-x="1212" d="M667.5 387q-159.5 0 -255 112.5t-68.5 272.5q23 162 154 274.5t292.5 112.5t256 -112.5t69.5 -274.5q-27 -160 -158 -272.5t-290.5 -112.5z" />
<glyph unicode="&#x2026;" horiz-adv-x="2048" d="M377 203q47 0 75.5 -33t20.5 -80t-47 -82t-86 -35t-75.5 35t-20.5 82t47 80t86 33zM1057 203q47 0 75.5 -33t20.5 -80t-47 -82t-86 -35t-76 35t-20.5 82t47.5 80t86 33zM1737 203q47 0 75.5 -33t20.5 -80t-47 -82t-86 -35t-76 35t-20.5 82t47.5 80t86 33z" />
<glyph unicode="&#x202f;" horiz-adv-x="411" />
<glyph unicode="&#x2039;" horiz-adv-x="675" d="M338 492l223 -340l-123 -84l-276 424l413 436l95 -86z" />
<glyph unicode="&#x203a;" horiz-adv-x="675" d="M164 152l330 340l-222 350l123 86l275 -436l-412 -424z" />
<glyph unicode="&#x205f;" horiz-adv-x="514" />
<glyph unicode="&#x20ac;" d="M1393 1464l-27 -170q-106 121 -328 121q-186 0 -310 -116.5t-177 -309.5h670l-70 -131h-641l-7 -42q-5 -30 -7 -40q-4 -18 -7.5 -47t-5.5 -39h580l-68 -131h-514q-4 -209 86 -321.5t271 -112.5q207 0 362 123l-26 -172q-129 -100 -383 -101q-494 0 -480 584h-164l68 131 h104q4 47 11 86l7 41l7 41h-149l69 131h115q80 266 244.5 423t420.5 157q119 0 211.5 -31t137.5 -74z" />
<glyph unicode="&#x2122;" horiz-adv-x="1925" d="M2097 1544l-135 -862h-123l117 739h-4l-412 -739h-80l-170 739h-4l-117 -739h-122l135 862h207l149 -620l354 620h205zM1016 1544l-19 -123h-286l-117 -739h-123l117 739h-289l18 123h699z" />
<glyph unicode="&#xe000;" horiz-adv-x="965" d="M0 965h965v-965h-965v965z" />
<glyph unicode="&#xfb01;" horiz-adv-x="1062" d="M438 811l-129 -811h-164l129 811h-90l23 152h90l61 383q27 178 82 249q94 121 269 121q51 0 112 -20l-26 -166q-63 23 -107 22q-39 0 -66.5 -13t-44 -29.5t-29.5 -57.5t-18.5 -69.5t-15.5 -94.5l-53 -325h244l-23 -152h-244zM1028 963l-151 -963h-164l151 963h164z M1024 1442q47 0 75.5 -35t20.5 -82q-8 -49 -48 -83t-87 -34t-76.5 34t-21.5 83q8 47 49 82t88 35z" />
<glyph unicode="&#xfb02;" horiz-adv-x="1026" d="M1145 1690l-268 -1690h-164l268 1690h164zM438 811l-129 -811h-164l129 811h-90l23 152h90l61 383q27 178 82 249q94 121 269 121q51 0 112 -20l-26 -166q-63 23 -107 22q-39 0 -66.5 -13t-44 -29.5t-29.5 -57.5t-18.5 -69.5t-15.5 -94.5l-53 -325h244l-23 -152h-244z " />
<glyph unicode="&#xfb03;" horiz-adv-x="1658" d="M1624 963l-152 -963h-164l152 963h164zM1620 1442q47 0 75 -35q22 -27 23 -62q0 -10 -2 -20q-8 -49 -48 -83t-87 -34t-77 34q-23 26 -23 63q0 10 1 20q8 47 49.5 82t88.5 35zM1024 811l-129 -811h-164l129 811h-90l22 152h91l61 383q27 178 82 249q94 121 268 121 q51 0 113 -20l-27 -166q-63 23 -106 22q-39 0 -67 -13t-44 -29.5t-29.5 -57.5t-18.5 -69.5t-15 -94.5l-54 -325h244l-22 -152h-244zM463 811l-129 -811h-164l129 811h-90l22 152h91l61 383q27 178 82 249q94 121 268 121q51 0 113 -20l-27 -166q-63 23 -106 22 q-39 0 -67 -13t-44 -29.5t-29.5 -57.5t-18.5 -69.5t-15 -94.5l-54 -325h244l-22 -152h-244z" />
<glyph unicode="&#xfb04;" horiz-adv-x="1587" d="M1706 1690l-269 -1690h-163l268 1690h164zM1024 811l-129 -811h-164l129 811h-90l22 152h91l61 383q27 178 82 249q94 121 268 121q51 0 113 -20l-27 -166q-63 23 -106 22q-39 0 -67 -13t-44 -29.5t-29.5 -57.5t-18.5 -69.5t-15 -94.5l-54 -325h244l-22 -152h-244z M463 811l-129 -811h-164l129 811h-90l22 152h91l61 383q27 178 82 249q94 121 268 121q51 0 113 -20l-27 -166q-63 23 -106 22q-39 0 -67 -13t-44 -29.5t-29.5 -57.5t-18.5 -69.5t-15 -94.5l-54 -325h244l-22 -152h-244z" />
</font>
</defs>
</svg>
