<svg xmlns="http://www.w3.org/2000/svg" viewBox="0 0 650 400"><defs><style>.cls-1{fill:#d1de40;}.cls-2{font-size:15.93px;letter-spacing:0.07em;}.cls-12,.cls-17,.cls-2,.cls-27,.cls-29{fill:#181e51;}.cls-17,.cls-2,.cls-27,.cls-29{font-family:Corbel;}.cls-3{letter-spacing:0.58em;}.cls-4{letter-spacing:0.08em;}.cls-5{letter-spacing:0.5em;}.cls-6{letter-spacing:0.08em;}.cls-7{letter-spacing:0.58em;}.cls-8{letter-spacing:0.17em;}.cls-9{letter-spacing:0.17em;}.cls-10{letter-spacing:0.06em;}.cls-11{letter-spacing:0.06em;}.cls-12{font-size:17.92px;letter-spacing:0.08em;}.cls-12,.cls-28,.cls-30{font-family:Corbel-Bold, Corbel;font-weight:700;}.cls-13{letter-spacing:0.03em;}.cls-14{letter-spacing:0.07em;}.cls-15,.cls-16,.cls-26,.cls-33{fill:none;}.cls-15{stroke:#2b358f;}.cls-15,.cls-16,.cls-26{stroke-width:1.5px;}.cls-16{stroke:#262469;}.cls-17{font-size:14.94px;letter-spacing:0.04em;}.cls-18{letter-spacing:0.08em;}.cls-19{letter-spacing:0.04em;}.cls-20{letter-spacing:0.07em;}.cls-21{letter-spacing:0.03em;}.cls-22{letter-spacing:0.08em;}.cls-23{letter-spacing:0.04em;}.cls-24{letter-spacing:0.04em;}.cls-25{letter-spacing:0.06em;}.cls-26{stroke:#25286a;}.cls-27,.cls-29{font-size:18px;}.cls-27,.cls-30{letter-spacing:0.07em;}.cls-29,.cls-32{letter-spacing:0.08em;}.cls-31{letter-spacing:0.07em;}.cls-34{fill:#233776;}</style></defs><title>15</title><g id="logo_center" data-name="logo center"><g id="bg"><rect class="cls-1" width="650" height="400"/></g></g><g id="KEY_ACHIVE" data-name="KEY ACHIVE"><text class="cls-2" transform="translate(74 297.26) scale(0.9 1)">Intergration<tspan class="cls-3" x="93.17" y="0"> </tspan><tspan class="cls-4" x="105.59" y="0">and</tspan><tspan class="cls-5" x="133.91" y="0"> </tspan><tspan x="145.01" y="0">Upgrade:</tspan><tspan class="cls-3" x="215.98" y="0"> </tspan><tspan x="228.4" y="0">we</tspan><tspan class="cls-3" x="250.06" y="0"> </tspan><tspan class="cls-4" x="262.48" y="0">had</tspan><tspan class="cls-3" x="290.88" y="0"> </tspan><tspan x="303.3" y="0">multiple</tspan><tspan class="cls-3" x="367.3" y="0"> </tspan><tspan class="cls-6" x="379.72" y="0">rating</tspan><tspan class="cls-7" x="426.12" y="0"> </tspan><tspan class="cls-6" x="438.54" y="0">issues</tspan><tspan class="cls-7" x="484.9" y="0"> </tspan><tspan class="cls-6" x="497.32" y="0">and </tspan><tspan x="0" y="19.92">document</tspan><tspan class="cls-8" x="76.88" y="19.92"> </tspan><tspan class="cls-4" x="82.78" y="19.92">mgt</tspan><tspan class="cls-8" x="113.56" y="19.92"> </tspan><tspan class="cls-4" x="119.46" y="19.92">upgrade</tspan><tspan class="cls-8" x="182.58" y="19.92"> </tspan><tspan class="cls-4" x="188.48" y="19.92">going</tspan><tspan class="cls-8" x="231.96" y="19.92"> </tspan><tspan class="cls-4" x="237.87" y="19.92">on</tspan><tspan class="cls-9" x="257.15" y="19.92"> </tspan><tspan x="263.05" y="19.92">same</tspan><tspan class="cls-8" x="303.21" y="19.92"> </tspan><tspan class="cls-4" x="309.11" y="19.92">time,</tspan><tspan class="cls-9" x="349.64" y="19.92"> </tspan><tspan x="355.54" y="19.92">we</tspan><tspan class="cls-9" x="377.2" y="19.92"> </tspan><tspan x="383.1" y="19.92">deferred</tspan><tspan class="cls-9" x="449.25" y="19.92"> </tspan><tspan x="455.15" y="19.92">and</tspan><tspan class="cls-9" x="483.47" y="19.92"> </tspan><tspan x="489.38" y="19.92">later </tspan><tspan x="0" y="39.83">upgrade the DMS </tspan><tspan class="cls-10" x="137.96" y="39.83">k</tspan><tspan class="cls-4" x="146.6" y="39.83">ofax system and launched and boo</tspan><tspan class="cls-10" x="411.66" y="39.83">k</tspan><tspan class="cls-6" x="420.3" y="39.83">ed </tspan><tspan class="cls-11" x="443.53" y="39.83">$</tspan><tspan class="cls-6" x="452.58" y="39.83">34m </tspan></text><g id="KEY_ACHIVEMENTS:" data-name="KEY ACHIVEMENTS:"><text class="cls-12" transform="translate(75 271.94) scale(0.9 1)">KEY<tspan class="cls-13" x="36.9" y="0"> </tspan><tspan class="cls-14" x="41.16" y="0">A</tspan><tspan x="54.1" y="0">CHIVEMENTS:</tspan></text></g><rect id="_3_rect" data-name="3 rect" class="cls-15" x="65" y="245" width="516.75" height="108"/></g><g id="_2nd_row" data-name="2nd row"><rect id="_2_rect" data-name="2 rect" class="cls-16" x="65" y="107" width="516.75" height="66.5"/><text id="Life_Policy_Quote_Underwriting_for_Agency_Bancassurance_Bro" data-name="Life Policy Quote, Underwriting for Agency, Bancassurance &amp; Bro" class="cls-17" transform="translate(79.08 130.29) scale(0.9 1)">W<tspan class="cls-18" x="13.75" y="0">e launched</tspan><tspan class="cls-19" x="91.69" y="0"> </tspan><tspan x="95.21" y="0">C</tspan><tspan class="cls-20" x="104.59" y="0">yberEdge Part of </tspan><tspan class="cls-21" x="230.53" y="0">P</tspan><tspan class="cls-22" x="239.51" y="0">ersonal Insurance division for PCG</tspan><tspan class="cls-23" x="486.34" y="0"> </tspan><tspan class="cls-24" x="489.86" y="0">C</tspan><tspan class="cls-20" x="499.24" y="0">yber </tspan><tspan class="cls-18"><tspan x="0" y="18.37">protection and risk mitigation product, we initially target mar</tspan><tspan class="cls-25" x="446.22" y="18.37">k</tspan><tspan class="cls-20" x="454.32" y="18.37">et strategy </tspan><tspan x="0" y="36.74">was high network individuals, then launched for commercial division too</tspan></tspan></text></g><g id="_1st_row" data-name="1st row"><rect id="_1_rect" data-name="1 rect" class="cls-26" x="65" y="56.78" width="516.75" height="50"/><g id="PROGRAM_NAME_AZ_JOURNEY" data-name="PROGRAM NAMEAZ JOURNEY"><text class="cls-27" transform="translate(426.07 80.78) scale(0.9 1)">PROGRAM NAME<tspan class="cls-28"><tspan x="19.84" y="18">CYBEREDGE</tspan></tspan></text></g><g id="ROLE_HEAD_OF_DIGITAL_copy" data-name="ROLEHEAD OF DIGITAL copy"><text class="cls-29" transform="translate(135.79 78.94) scale(0.9 1)">ROLE<tspan class="cls-30"><tspan x="-72.99" y="18">PROGRAM MAN</tspan><tspan class="cls-31" x="70.8" y="18">A</tspan><tspan class="cls-32" x="83.81" y="18">GER</tspan></tspan></text></g><rect class="cls-33" x="240" y="31" width="174" height="50.78"/><rect class="cls-1" x="240" y="37.16" width="174" height="44.62"/></g><g id="logo_top" data-name="logo top"><path class="cls-34" d="M334.09,37.16q15.77,0,31.51,0c.27,0,.35.05.35.34q0,17,0,34.1c0,.31-.1.35-.36.35h-63c-.37,0-.37,0-.37-.38q0-17,0-34c0-.3.08-.37.37-.37q9.9,0,19.79,0Zm0,32.09h28.89c.23,0,.35,0,.35-.31q0-14.4,0-28.8c0-.24-.06-.31-.3-.31H305.23c-.28,0-.35.07-.35.36q0,14.36,0,28.71c0,.31.09.35.36.35Z"/><path class="cls-34" d="M370.33,70.51A1.36,1.36,0,1,1,369,69.15,1.34,1.34,0,0,1,370.33,70.51ZM369,69.38a1.11,1.11,0,0,0-1.13,1.12,1.11,1.11,0,1,0,2.21,0A1.12,1.12,0,0,0,369,69.38Z"/><path class="cls-34" d="M353.26,54.13H357c.21,0,.27.05.27.27a12.82,12.82,0,0,1-.58,4.4,8.52,8.52,0,0,1-6.77,5.74A9.17,9.17,0,0,1,343,63.19a10.22,10.22,0,0,1,2.83-18.46,9.56,9.56,0,0,1,9.7,2.72c.24.24.47.5.71.74s.14.18,0,.3l-1.83,1.78c-.14.15-.19,0-.27-.06a8.31,8.31,0,0,0-2.16-2,7,7,0,0,0-8.37.86,7.47,7.47,0,0,0,3.61,12.77,6,6,0,0,0,6.68-4.12c.21-.76.21-.77-.57-.77H349.5c-.21,0-.27-.05-.27-.27,0-.76,0-1.52,0-2.28,0-.2.06-.25.26-.25Z"/><path class="cls-34" d="M328,64.31c-1.05,0-2.06,0-3.06,0-.17,0-.2-.11-.25-.22-.6-1.42-1.21-2.83-1.81-4.25a.35.35,0,0,0-.39-.26c-2.58,0-5.15,0-7.73,0a.36.36,0,0,0-.38.25c-.63,1.42-1.28,2.84-1.92,4.26-.05.11-.08.22-.25.22-1,0-2,0-3,0a.87.87,0,0,1,.12-.33L318,45.05c.09-.2.19-.3.42-.28s.62-.1.83.06.25.48.36.73L327.86,64Zm-12.26-7.54.15,0h5.41c.21,0,.26,0,.17-.26q-1.33-3-2.65-6.1c0-.06,0-.15-.14-.17Z"/><path class="cls-34" d="M333.94,54.54V64c0,.22,0,.31-.28.3q-1.19,0-2.37,0c-.23,0-.28-.07-.28-.29q0-7.19,0-14.36V45c0-.19,0-.26.24-.26.81,0,1.62,0,2.42,0,.22,0,.26.07.26.27Z"/><path class="cls-34" d="M369.65,71.3c-.2,0-.31,0-.38-.15a.31.31,0,0,0-.07-.09c-.13-.14-.14-.48-.41-.4s-.05.32-.07.49,0,.18-.16.17-.12-.09-.12-.17V69.88c0-.13,0-.16.16-.16h.54c.23,0,.42.08.47.33a.45.45,0,0,1-.26.54l-.1.07Zm-.75-.87c.23,0,.44,0,.45-.24s-.25-.22-.42-.25-.21.11-.22.26S368.79,70.45,368.9,70.43Z"/></g></svg>