<?xml version="1.0" encoding="utf-8"?>
<!-- Generator: Adobe Illustrator 24.0.1, SVG Export Plug-In . SVG Version: 6.00 Build 0)  -->
<svg version="1.1" id="_33_duck_creek" xmlns="http://www.w3.org/2000/svg" xmlns:xlink="http://www.w3.org/1999/xlink" x="0px"
	 y="0px" viewBox="0 0 650 400" style="enable-background:new 0 0 650 400;" xml:space="preserve">
<style type="text/css">
	.st0{fill:#00CCBF;}
	.st1{enable-background:new    ;}
	.st2{fill:#084B1E;}
	.st3{fill:none;stroke:#FFFFFF;stroke-width:2.113;stroke-miterlimit:10;}
	.st4{fill:none;stroke:#FFFFFF;stroke-width:1.882;stroke-miterlimit:10;}
	.st5{fill:#004A19;}
	.st6{fill:none;stroke:#FFFFFF;stroke-width:2.003;stroke-miterlimit:10;}
	.st7{fill:#FFFFFF;}
</style>
<title>20</title>
<g id="bg">
	<g>
		<rect class="st0" width="650" height="400"/>
	</g>
</g>
<g id="KEY_ACHIVE">
	<g id="Rating_Engine:_Pricing_intergration_with_multiple_coverage_and">
		<g class="st1">
			<path class="st2" d="M80.2,301.4l3.8-10.5h1l3.8,10.5h-1.2l-1.1-3.1h-3.9l-1.1,3.1H80.2z M84.5,292.6c-0.4,1.3-0.8,2.5-1.2,3.5
				l-0.4,1H86l-0.4-1C85.3,295,84.9,293.8,84.5,292.6L84.5,292.6z"/>
			<path class="st2" d="M99,296.1c0,0.6-0.1,1.2-0.2,1.7c-0.1,0.5-0.3,1-0.6,1.4s-0.6,0.8-1,1.1c-0.4,0.3-0.9,0.6-1.4,0.7
				c-0.3,0.1-0.7,0.2-1,0.2s-0.8,0.1-1.2,0.1h-2.1v-10.5h2.2c0.4,0,0.8,0,1.2,0.1s0.7,0.1,1,0.2c0.5,0.2,1,0.4,1.4,0.7
				c0.4,0.3,0.8,0.7,1,1.1c0.3,0.4,0.5,0.9,0.6,1.4C98.9,294.9,99,295.5,99,296.1z M97.8,296.1c0-1-0.2-1.8-0.6-2.4s-1-1.1-1.7-1.3
				c-0.3-0.1-0.6-0.2-1-0.2c-0.4,0-0.7-0.1-1.2-0.1h-0.9v8.2h0.9c0.4,0,0.8,0,1.2-0.1c0.4,0,0.7-0.1,1-0.2c0.7-0.3,1.3-0.7,1.7-1.4
				C97.6,298,97.8,297.1,97.8,296.1z"/>
			<path class="st2" d="M109.7,296.1c0,0.6-0.1,1.2-0.2,1.7c-0.1,0.5-0.3,1-0.6,1.4s-0.6,0.8-1,1.1c-0.4,0.3-0.9,0.6-1.4,0.7
				c-0.3,0.1-0.7,0.2-1,0.2s-0.8,0.1-1.2,0.1h-2.1v-10.5h2.2c0.4,0,0.8,0,1.2,0.1s0.7,0.1,1,0.2c0.5,0.2,1,0.4,1.4,0.7
				c0.4,0.3,0.8,0.7,1,1.1c0.3,0.4,0.5,0.9,0.6,1.4C109.6,294.9,109.7,295.5,109.7,296.1z M108.6,296.1c0-1-0.2-1.8-0.6-2.4
				s-1-1.1-1.7-1.3c-0.3-0.1-0.6-0.2-1-0.2c-0.4,0-0.7-0.1-1.2-0.1h-0.9v8.2h0.9c0.4,0,0.8,0,1.2-0.1c0.4,0,0.7-0.1,1-0.2
				c0.7-0.3,1.3-0.7,1.7-1.4C108.4,298,108.6,297.1,108.6,296.1z"/>
			<path class="st2" d="M112.8,301.4v-10.5h1.1v10.5H112.8z"/>
			<path class="st2" d="M120.8,301.4h-1.1v-9.3h-3.1v-1.1h7.4v1.1h-3.1V301.4z"/>
			<path class="st2" d="M126.5,301.4v-10.5h1.1v10.5H126.5z"/>
			<path class="st2" d="M139.5,296.2c0,0.8-0.1,1.5-0.3,2.2c-0.2,0.7-0.5,1.2-0.9,1.7c-0.4,0.5-0.8,0.9-1.4,1.1s-1.1,0.4-1.8,0.4
				c-0.7,0-1.3-0.1-1.8-0.4s-1-0.6-1.4-1.1c-0.4-0.5-0.7-1-0.9-1.7c-0.2-0.7-0.3-1.4-0.3-2.2c0-0.8,0.1-1.5,0.3-2.2s0.5-1.2,0.9-1.7
				c0.4-0.5,0.8-0.9,1.4-1.1c0.5-0.3,1.1-0.4,1.8-0.4c0.7,0,1.3,0.1,1.8,0.4c0.5,0.3,1,0.6,1.4,1.1c0.4,0.5,0.7,1.1,0.9,1.7
				C139.4,294.6,139.5,295.4,139.5,296.2z M138.4,296.2c0-0.7-0.1-1.3-0.2-1.9c-0.2-0.5-0.4-1-0.7-1.3s-0.6-0.6-1-0.8
				c-0.4-0.2-0.8-0.3-1.3-0.3s-0.9,0.1-1.3,0.3c-0.4,0.2-0.7,0.5-1,0.8s-0.5,0.8-0.7,1.3c-0.2,0.5-0.2,1.2-0.2,1.9s0.1,1.3,0.3,1.9
				c0.2,0.5,0.4,1,0.7,1.3c0.3,0.4,0.6,0.6,1,0.8c0.4,0.2,0.8,0.3,1.3,0.3c0.5,0,0.9-0.1,1.3-0.3c0.4-0.2,0.7-0.5,1-0.8
				s0.5-0.8,0.7-1.3C138.3,297.5,138.4,296.9,138.4,296.2z"/>
			<path class="st2" d="M147.6,296.8c0.6,0.9,1.1,1.9,1.7,2.8h0c-0.1-1-0.1-2.1-0.1-3.1v-5.6h1.2v10.5h-1.1l-3.7-5.8
				c-0.6-1-1.2-2-1.7-2.8h0c0.1,1,0.1,2.1,0.1,3.3v5.3h-1.1v-10.5h1.1L147.6,296.8z"/>
			<path class="st2" d="M152.9,301.4l3.8-10.5h1l3.8,10.5h-1.2l-1.1-3.1h-3.9l-1.1,3.1H152.9z M157.2,292.6
				c-0.4,1.3-0.8,2.5-1.2,3.5l-0.4,1h3.1l-0.4-1C158,295,157.6,293.8,157.2,292.6L157.2,292.6z"/>
			<path class="st2" d="M165.2,290.9v9.3h4.6v1.1h-5.7v-10.5H165.2z"/>
		</g>
		<g class="st1">
		</g>
		<g class="st1">
			<path class="st2" d="M180.2,301.4v-10.5h1.1v10.5H180.2z"/>
			<path class="st2" d="M189.8,301.4h-0.5l-2.4-6.2c-0.3-0.9-0.7-1.8-1-2.8h-0.1c0.1,1.5,0.1,2.8,0.1,4v5.1h-1.1v-10.5h1.7l2.2,5.9
				c0.3,0.7,0.5,1.5,0.8,2.4h0c0.3-1.1,0.6-1.9,0.8-2.4l2.2-5.9h1.7v10.5h-1.1v-5.1c0-1.2,0-2.5,0.1-4h-0.1c-0.3,1.1-0.7,2-1,2.8
				L189.8,301.4z"/>
			<path class="st2" d="M198.8,301.4h-1.1v-10.5h2.6c0.4,0,0.7,0,1.1,0.1c0.3,0.1,0.6,0.1,0.9,0.2c0.6,0.2,1,0.6,1.3,1
				c0.3,0.4,0.4,1,0.4,1.6c0,0.5-0.1,1-0.3,1.4c-0.2,0.4-0.5,0.7-0.8,1c-0.4,0.3-0.8,0.5-1.3,0.6c-0.5,0.1-1.1,0.2-1.8,0.2
				c-0.3,0-0.6,0-1,0V301.4z M198.8,295.9c0.2,0,0.3,0,0.5,0c0.2,0,0.3,0,0.5,0c0.5,0,1,0,1.4-0.1c0.4-0.1,0.7-0.2,0.9-0.4
				c0.2-0.2,0.4-0.4,0.5-0.7s0.2-0.6,0.2-0.9c0-0.4-0.1-0.7-0.3-1c-0.2-0.3-0.4-0.5-0.7-0.6c-0.2-0.1-0.4-0.1-0.7-0.2
				c-0.3,0-0.6-0.1-0.9-0.1h-1.3V295.9z"/>
			<path class="st2" d="M208.1,290.9v9.3h4.6v1.1H207v-10.5H208.1z"/>
			<path class="st2" d="M216.7,300.2h4.8v1.1h-6v-10.5h5.7v1.1h-4.6v3.4h4.1v1.1h-4.1V300.2z"/>
			<path class="st2" d="M229.6,301.4H229l-2.4-6.2c-0.3-0.9-0.7-1.8-1-2.8h-0.1c0.1,1.5,0.1,2.8,0.1,4v5.1h-1.1v-10.5h1.7l2.2,5.9
				c0.3,0.7,0.5,1.5,0.8,2.4h0c0.3-1.1,0.6-1.9,0.8-2.4l2.2-5.9h1.7v10.5h-1.1v-5.1c0-1.2,0-2.5,0.1-4h-0.1c-0.3,1.1-0.7,2-1,2.8
				L229.6,301.4z"/>
			<path class="st2" d="M238.6,300.2h4.8v1.1h-6v-10.5h5.7v1.1h-4.6v3.4h4.1v1.1h-4.1V300.2z"/>
			<path class="st2" d="M251.3,296.8c0.6,0.9,1.1,1.9,1.7,2.8h0c-0.1-1-0.1-2.1-0.1-3.1v-5.6h1.2v10.5H253l-3.7-5.8
				c-0.6-1-1.2-2-1.7-2.8h0c0.1,1,0.1,2.1,0.1,3.3v5.3h-1.1v-10.5h1.1L251.3,296.8z"/>
		</g>
		<g class="st1">
			<path class="st2" d="M261,301.4h-1.1v-9.3h-3.1v-1.1h7.4v1.1H261V301.4z"/>
			<path class="st2" d="M264.2,301.4l3.8-10.5h1l3.8,10.5h-1.2l-1.1-3.1h-3.9l-1.1,3.1H264.2z M268.5,292.6
				c-0.4,1.3-0.8,2.5-1.2,3.5l-0.4,1h3.1l-0.4-1C269.3,295,268.9,293.8,268.5,292.6L268.5,292.6z"/>
		</g>
		<g class="st1">
			<path class="st2" d="M278.7,301.4h-1.1v-9.3h-3.1v-1.1h7.4v1.1h-3.1V301.4z"/>
			<path class="st2" d="M284.4,301.4v-10.5h1.1v10.5H284.4z"/>
			<path class="st2" d="M297.5,296.2c0,0.8-0.1,1.5-0.3,2.2c-0.2,0.7-0.5,1.2-0.9,1.7c-0.4,0.5-0.8,0.9-1.4,1.1s-1.1,0.4-1.8,0.4
				c-0.7,0-1.3-0.1-1.8-0.4s-1-0.6-1.4-1.1c-0.4-0.5-0.7-1-0.9-1.7c-0.2-0.7-0.3-1.4-0.3-2.2c0-0.8,0.1-1.5,0.3-2.2s0.5-1.2,0.9-1.7
				c0.4-0.5,0.8-0.9,1.4-1.1c0.5-0.3,1.1-0.4,1.8-0.4c0.7,0,1.3,0.1,1.8,0.4c0.5,0.3,1,0.6,1.4,1.1c0.4,0.5,0.7,1.1,0.9,1.7
				C297.4,294.6,297.5,295.4,297.5,296.2z M296.3,296.2c0-0.7-0.1-1.3-0.2-1.9c-0.2-0.5-0.4-1-0.7-1.3s-0.6-0.6-1-0.8
				c-0.4-0.2-0.8-0.3-1.3-0.3s-0.9,0.1-1.3,0.3c-0.4,0.2-0.7,0.5-1,0.8s-0.5,0.8-0.7,1.3c-0.2,0.5-0.2,1.2-0.2,1.9s0.1,1.3,0.3,1.9
				c0.2,0.5,0.4,1,0.7,1.3c0.3,0.4,0.6,0.6,1,0.8c0.4,0.2,0.8,0.3,1.3,0.3c0.5,0,0.9-0.1,1.3-0.3c0.4-0.2,0.7-0.5,1-0.8
				s0.5-0.8,0.7-1.3C296.2,297.5,296.3,296.9,296.3,296.2z"/>
			<path class="st2" d="M305.5,296.8c0.6,0.9,1.1,1.9,1.7,2.8h0c-0.1-1-0.1-2.1-0.1-3.1v-5.6h1.2v10.5h-1.1l-3.7-5.8
				c-0.6-1-1.2-2-1.7-2.8h0c0.1,1,0.1,2.1,0.1,3.3v5.3h-1.1v-10.5h1.1L305.5,296.8z"/>
			<path class="st2" d="M313.1,295.1v1.5h-1.3v-1.5H313.1z M311.8,301.4v-1.5h1.3v1.5H311.8z"/>
		</g>
		<g class="st1">
		</g>
		<g class="st1">
			<path class="st2" d="M329,296.8c0.6,0.9,1.1,1.9,1.7,2.8h0c-0.1-1-0.1-2.1-0.1-3.1v-5.6h1.2v10.5h-1.1l-3.7-5.8
				c-0.6-1-1.2-2-1.7-2.8h0c0.1,1,0.1,2.1,0.1,3.3v5.3h-1.1v-10.5h1.1L329,296.8z"/>
			<path class="st2" d="M338.3,300.5c0.4,0,0.7,0,1-0.1c0.3-0.1,0.6-0.2,0.9-0.3v1c-0.2,0.1-0.5,0.2-0.9,0.3
				c-0.4,0.1-0.7,0.1-1.1,0.1c-0.5,0-0.9-0.1-1.3-0.2s-0.8-0.4-1.1-0.7c-0.3-0.3-0.5-0.7-0.7-1.2c-0.2-0.5-0.3-1.1-0.3-1.8
				c0-0.7,0.1-1.3,0.3-1.8c0.2-0.5,0.4-0.9,0.7-1.2c0.3-0.3,0.6-0.6,1-0.8c0.4-0.2,0.7-0.3,1.1-0.3c0.4,0,0.7,0.1,1,0.2
				c0.3,0.1,0.6,0.4,0.8,0.7s0.4,0.7,0.6,1.1c0.1,0.5,0.2,1,0.2,1.7c0,0.1,0,0.1,0,0.2c0,0,0,0.1,0,0.3h-4.6c0,0.5,0.1,0.9,0.2,1.2
				c0.1,0.3,0.3,0.6,0.5,0.8c0.2,0.2,0.5,0.4,0.8,0.4S338,300.5,338.3,300.5z M337.7,294.8c-0.3,0-0.5,0.1-0.7,0.2
				c-0.2,0.1-0.4,0.3-0.6,0.4c-0.2,0.2-0.3,0.4-0.4,0.7c-0.1,0.3-0.2,0.5-0.2,0.8h3.4c0-0.3,0-0.6-0.1-0.8c-0.1-0.3-0.2-0.5-0.3-0.7
				s-0.3-0.3-0.5-0.4C338.2,294.9,338,294.8,337.7,294.8z"/>
			<path class="st2" d="M347.3,295.2c-0.1,0.7-0.3,1.3-0.4,1.8l-1.1,4.4h-1.1l-2.2-7.4h1.1l1.2,4.6c0.2,0.6,0.3,1.1,0.4,1.5h0
				c0.1-0.4,0.2-0.9,0.4-1.6l1.1-4.5h1.1l1.2,4.5c0.2,0.6,0.3,1.1,0.4,1.6h0c0.1-0.5,0.2-1,0.4-1.5l1.2-4.6h1.1l-2.2,7.4h-1.1
				l-1.1-4.4C347.7,296.4,347.5,295.8,347.3,295.2L347.3,295.2z"/>
		</g>
		<g class="st1">
		</g>
		<g class="st1">
			<path class="st2" d="M365.1,293.8c0.3,0,0.6,0,0.9,0.1c0.3,0.1,0.5,0.2,0.8,0.3v1c-0.3-0.1-0.6-0.2-0.8-0.3
				c-0.2-0.1-0.5-0.1-0.8-0.1c-0.3,0-0.5,0-0.8,0.1c-0.3,0.1-0.5,0.3-0.7,0.5s-0.4,0.5-0.5,0.9c-0.1,0.4-0.2,0.8-0.2,1.4
				c0,0.4,0,0.8,0.1,1.1c0.1,0.3,0.2,0.6,0.4,0.9c0.2,0.2,0.4,0.4,0.7,0.6c0.3,0.1,0.6,0.2,1,0.2c0.3,0,0.5,0,0.8-0.1
				c0.3-0.1,0.5-0.2,0.8-0.3v1c-0.1,0.1-0.2,0.1-0.3,0.2c-0.1,0.1-0.3,0.1-0.4,0.1c-0.2,0-0.3,0.1-0.5,0.1c-0.2,0-0.3,0-0.5,0
				c-0.5,0-0.9-0.1-1.3-0.2s-0.8-0.4-1.1-0.7c-0.3-0.3-0.5-0.7-0.7-1.2c-0.2-0.5-0.3-1-0.3-1.7c0-0.5,0-0.9,0.1-1.3
				c0.1-0.4,0.2-0.7,0.4-1c0.2-0.3,0.3-0.5,0.6-0.8c0.2-0.2,0.4-0.4,0.7-0.5c0.2-0.1,0.5-0.2,0.7-0.3
				C364.6,293.8,364.8,293.8,365.1,293.8z"/>
			<path class="st2" d="M375.6,297.7c0,0.6-0.1,1.1-0.2,1.6c-0.1,0.5-0.4,0.9-0.6,1.2c-0.3,0.3-0.6,0.6-1,0.8s-0.8,0.3-1.3,0.3
				c-0.5,0-0.9-0.1-1.3-0.3c-0.4-0.2-0.7-0.5-1-0.8c-0.3-0.3-0.5-0.8-0.6-1.2c-0.1-0.5-0.2-1-0.2-1.6c0-0.6,0.1-1.1,0.2-1.6
				c0.1-0.5,0.4-0.9,0.6-1.2c0.3-0.3,0.6-0.6,1-0.8s0.8-0.3,1.3-0.3c0.5,0,0.9,0.1,1.3,0.3c0.4,0.2,0.7,0.5,1,0.8
				c0.3,0.3,0.5,0.8,0.6,1.2C375.5,296.6,375.6,297.1,375.6,297.7z M374.4,297.7c0-0.5,0-0.9-0.2-1.2c-0.1-0.4-0.2-0.7-0.4-0.9
				c-0.2-0.2-0.4-0.4-0.6-0.6c-0.2-0.1-0.5-0.2-0.8-0.2s-0.6,0.1-0.8,0.2c-0.2,0.1-0.5,0.3-0.6,0.6c-0.2,0.2-0.3,0.5-0.4,0.9
				c-0.1,0.4-0.2,0.8-0.2,1.2c0,0.5,0,0.9,0.2,1.2c0.1,0.4,0.2,0.7,0.4,0.9c0.2,0.2,0.4,0.4,0.6,0.6c0.2,0.1,0.5,0.2,0.8,0.2
				s0.6-0.1,0.8-0.2c0.2-0.1,0.5-0.3,0.6-0.6c0.2-0.2,0.3-0.5,0.4-0.9C374.4,298.5,374.4,298.1,374.4,297.7z"/>
			<path class="st2" d="M381,301.6c-0.3,0-0.7,0-0.9-0.1c-0.3-0.1-0.5-0.2-0.7-0.4c-0.2-0.2-0.4-0.3-0.5-0.5s-0.3-0.4-0.3-0.7
				c-0.1-0.2-0.1-0.4-0.1-0.6c0-0.2,0-0.5,0-0.7V294h1.1v4.5c0,0.4,0,0.8,0.1,1c0.1,0.3,0.3,0.6,0.5,0.7c0.3,0.2,0.6,0.3,1,0.3
				c0.4,0,0.7-0.1,1-0.3c0.3-0.2,0.4-0.5,0.5-0.8c0.1-0.3,0.1-0.6,0.1-0.9V294h1.1v4.6c0,0.3,0,0.5,0,0.7c0,0.2-0.1,0.4-0.1,0.6
				c-0.1,0.3-0.2,0.5-0.3,0.7c-0.1,0.2-0.3,0.4-0.5,0.6s-0.5,0.3-0.7,0.4S381.4,301.6,381,301.6z"/>
			<path class="st2" d="M388,295L388,295c0.1-0.2,0.3-0.3,0.4-0.5c0.1-0.1,0.3-0.3,0.5-0.4c0.2-0.1,0.4-0.2,0.6-0.3
				c0.2-0.1,0.5-0.1,0.7-0.1c0.3,0,0.6,0,0.9,0.1c0.3,0.1,0.5,0.2,0.7,0.5c0.2,0.2,0.4,0.5,0.5,0.8s0.2,0.7,0.2,1.2v5h-1.1v-4.8
				c0-0.6-0.1-1.1-0.3-1.4s-0.5-0.4-1-0.4c-0.4,0-0.7,0.1-1.1,0.3c-0.4,0.2-0.7,0.6-0.9,1v5.3h-1.1V294h0.8L388,295z"/>
			<path class="st2" d="M399.1,301.4c-0.1,0-0.2,0.1-0.4,0.1c-0.2,0-0.4,0.1-0.7,0.1c-0.4,0-0.7,0-0.9-0.1s-0.5-0.2-0.6-0.4
				c-0.2-0.2-0.3-0.4-0.4-0.7c-0.1-0.3-0.1-0.5-0.1-0.9V295h-1.3v-1h1.3v-2h1.1v2h2v1h-2v4.3c0,0.2,0,0.3,0.1,0.5
				c0,0.1,0.1,0.3,0.2,0.4c0.1,0.1,0.2,0.2,0.4,0.3c0.2,0.1,0.3,0.1,0.5,0.1c0.1,0,0.3,0,0.5,0c0.2,0,0.3-0.1,0.4-0.1V301.4z"/>
			<path class="st2" d="M405.3,294.9L405.3,294.9c-0.3,0-0.6,0-0.8,0.1c-0.2,0.1-0.5,0.1-0.7,0.2c-0.2,0.1-0.4,0.2-0.6,0.4
				s-0.3,0.3-0.4,0.6v5.2h-1.1V294h0.8l0.2,1.2h0c0.1-0.2,0.2-0.4,0.4-0.5c0.2-0.2,0.3-0.3,0.5-0.4c0.2-0.1,0.4-0.2,0.6-0.3
				s0.5-0.1,0.7-0.1c0,0,0.1,0,0.1,0c0,0,0.1,0,0.1,0V294.9z"/>
			<path class="st2" d="M406.7,294h1.1l2.1,5.8h0l2.1-5.8h1.1L409,305h-1.1l1.4-3.8L406.7,294z"/>
		</g>
		<g class="st1">
		</g>
		<g class="st1">
			<path class="st2" d="M423.1,292.2v-1.4h1.1v1.4H423.1z M423.1,301.4V294h1.1v7.4H423.1z"/>
			<path class="st2" d="M432.9,301.4h-1.1v-4.8c0-0.3,0-0.6-0.1-0.8s-0.2-0.4-0.3-0.6c-0.1-0.1-0.3-0.3-0.4-0.3
				c-0.2-0.1-0.4-0.1-0.6-0.1c-0.4,0-0.7,0.1-1.1,0.3c-0.3,0.2-0.6,0.6-0.9,1v5.3h-1.1V294h0.8l0.2,1h0c0.1-0.2,0.3-0.3,0.4-0.5
				c0.1-0.1,0.3-0.3,0.5-0.4c0.2-0.1,0.4-0.2,0.6-0.3s0.4-0.1,0.7-0.1c0.5,0,0.9,0.1,1.2,0.4c0.3,0.3,0.6,0.6,0.8,1.1h0
				c0.3-0.5,0.6-0.8,1-1.1c0.4-0.3,0.8-0.4,1.3-0.4c0.2,0,0.5,0,0.7,0.1c0.3,0.1,0.5,0.2,0.7,0.4s0.4,0.5,0.5,0.8s0.2,0.8,0.2,1.3v5
				h-1.1v-4.8c0-0.3,0-0.6-0.1-0.8c-0.1-0.2-0.2-0.4-0.3-0.6c-0.1-0.1-0.3-0.3-0.4-0.3c-0.2-0.1-0.4-0.1-0.6-0.1
				c-0.4,0-0.7,0.1-1.1,0.3c-0.3,0.2-0.6,0.6-0.9,1V301.4z"/>
			<path class="st2" d="M446.4,297.6c0,0.5,0,1-0.1,1.4s-0.2,0.7-0.4,1c-0.2,0.3-0.3,0.5-0.5,0.7c-0.2,0.2-0.4,0.4-0.6,0.5
				c-0.2,0.1-0.4,0.2-0.7,0.3c-0.2,0.1-0.4,0.1-0.6,0.1c-0.4,0-0.8-0.1-1.1-0.2c-0.3-0.1-0.6-0.4-0.8-0.7h0v4.3h-1.1V294h0.8
				l0.2,0.8h0c0.1-0.1,0.1-0.2,0.2-0.3c0.1-0.1,0.2-0.2,0.4-0.3c0.2-0.1,0.4-0.2,0.6-0.3c0.2-0.1,0.5-0.1,0.7-0.1
				c0.4,0,0.7,0.1,1.1,0.2c0.3,0.1,0.7,0.4,0.9,0.7c0.3,0.3,0.5,0.7,0.6,1.2C446.3,296.3,446.4,296.9,446.4,297.6z M445.3,297.6
				c0-0.4,0-0.8-0.1-1.2s-0.2-0.6-0.4-0.9s-0.4-0.4-0.6-0.6c-0.2-0.1-0.5-0.2-0.8-0.2c-0.2,0-0.4,0-0.6,0.1
				c-0.2,0.1-0.4,0.2-0.5,0.3c-0.2,0.1-0.3,0.2-0.4,0.3c-0.1,0.1-0.2,0.2-0.3,0.3v3.9c0.2,0.3,0.5,0.5,0.8,0.6
				c0.3,0.2,0.6,0.2,1,0.2c0.2,0,0.4,0,0.7-0.1s0.4-0.2,0.6-0.5c0.2-0.2,0.4-0.5,0.5-0.9C445.2,298.7,445.3,298.2,445.3,297.6z"/>
			<path class="st2" d="M449.3,301.4v-11.3h1.1v11.3H449.3z"/>
			<path class="st2" d="M456.8,300.5c0.4,0,0.7,0,1-0.1c0.3-0.1,0.6-0.2,0.9-0.3v1c-0.2,0.1-0.5,0.2-0.9,0.3
				c-0.4,0.1-0.7,0.1-1.1,0.1c-0.5,0-0.9-0.1-1.3-0.2s-0.8-0.4-1.1-0.7c-0.3-0.3-0.5-0.7-0.7-1.2c-0.2-0.5-0.3-1.1-0.3-1.8
				c0-0.7,0.1-1.3,0.3-1.8c0.2-0.5,0.4-0.9,0.7-1.2c0.3-0.3,0.6-0.6,1-0.8c0.4-0.2,0.7-0.3,1.1-0.3c0.4,0,0.7,0.1,1,0.2
				c0.3,0.1,0.6,0.4,0.8,0.7s0.4,0.7,0.6,1.1c0.1,0.5,0.2,1,0.2,1.7c0,0.1,0,0.1,0,0.2c0,0,0,0.1,0,0.3h-4.6c0,0.5,0.1,0.9,0.2,1.2
				c0.1,0.3,0.3,0.6,0.5,0.8c0.2,0.2,0.5,0.4,0.8,0.4S456.5,300.5,456.8,300.5z M456.2,294.8c-0.3,0-0.5,0.1-0.7,0.2
				s-0.4,0.3-0.6,0.4c-0.2,0.2-0.3,0.4-0.4,0.7c-0.1,0.3-0.2,0.5-0.2,0.8h3.4c0-0.3,0-0.6-0.1-0.8c-0.1-0.3-0.2-0.5-0.3-0.7
				s-0.3-0.3-0.5-0.4C456.7,294.9,456.5,294.8,456.2,294.8z"/>
			<path class="st2" d="M467.3,301.4h-1.1v-4.8c0-0.3,0-0.6-0.1-0.8s-0.2-0.4-0.3-0.6c-0.1-0.1-0.3-0.3-0.4-0.3
				c-0.2-0.1-0.4-0.1-0.6-0.1c-0.4,0-0.7,0.1-1.1,0.3c-0.3,0.2-0.6,0.6-0.9,1v5.3h-1.1V294h0.8l0.2,1h0c0.1-0.2,0.3-0.3,0.4-0.5
				c0.1-0.1,0.3-0.3,0.5-0.4c0.2-0.1,0.4-0.2,0.6-0.3s0.4-0.1,0.7-0.1c0.5,0,0.9,0.1,1.2,0.4s0.6,0.6,0.8,1.1h0
				c0.3-0.5,0.6-0.8,1-1.1c0.4-0.3,0.8-0.4,1.3-0.4c0.2,0,0.5,0,0.7,0.1c0.3,0.1,0.5,0.2,0.7,0.4s0.4,0.5,0.5,0.8s0.2,0.8,0.2,1.3v5
				h-1.1v-4.8c0-0.3,0-0.6-0.1-0.8c-0.1-0.2-0.2-0.4-0.3-0.6c-0.1-0.1-0.3-0.3-0.4-0.3c-0.2-0.1-0.4-0.1-0.6-0.1
				c-0.4,0-0.7,0.1-1.1,0.3c-0.3,0.2-0.6,0.6-0.9,1V301.4z"/>
			<path class="st2" d="M478.1,300.5c0.4,0,0.7,0,1-0.1c0.3-0.1,0.6-0.2,0.9-0.3v1c-0.2,0.1-0.5,0.2-0.9,0.3
				c-0.4,0.1-0.7,0.1-1.1,0.1c-0.5,0-0.9-0.1-1.3-0.2s-0.8-0.4-1.1-0.7c-0.3-0.3-0.5-0.7-0.7-1.2c-0.2-0.5-0.3-1.1-0.3-1.8
				c0-0.7,0.1-1.3,0.3-1.8c0.2-0.5,0.4-0.9,0.7-1.2c0.3-0.3,0.6-0.6,1-0.8c0.4-0.2,0.7-0.3,1.1-0.3c0.4,0,0.7,0.1,1,0.2
				c0.3,0.1,0.6,0.4,0.8,0.7s0.4,0.7,0.6,1.1c0.1,0.5,0.2,1,0.2,1.7c0,0.1,0,0.1,0,0.2c0,0,0,0.1,0,0.3h-4.6c0,0.5,0.1,0.9,0.2,1.2
				c0.1,0.3,0.3,0.6,0.5,0.8c0.2,0.2,0.5,0.4,0.8,0.4S477.7,300.5,478.1,300.5z M477.5,294.8c-0.3,0-0.5,0.1-0.7,0.2
				c-0.2,0.1-0.4,0.3-0.6,0.4c-0.2,0.2-0.3,0.4-0.4,0.7c-0.1,0.3-0.2,0.5-0.2,0.8h3.4c0-0.3,0-0.6-0.1-0.8c-0.1-0.3-0.2-0.5-0.3-0.7
				s-0.3-0.3-0.5-0.4C478,294.9,477.7,294.8,477.5,294.8z"/>
			<path class="st2" d="M484.2,295L484.2,295c0.1-0.2,0.3-0.3,0.4-0.5c0.1-0.1,0.3-0.3,0.5-0.4c0.2-0.1,0.4-0.2,0.6-0.3
				s0.5-0.1,0.7-0.1c0.3,0,0.6,0,0.9,0.1s0.5,0.2,0.7,0.5c0.2,0.2,0.4,0.5,0.5,0.8c0.1,0.3,0.2,0.7,0.2,1.2v5h-1.1v-4.8
				c0-0.6-0.1-1.1-0.3-1.4s-0.5-0.4-1-0.4c-0.4,0-0.7,0.1-1.1,0.3c-0.4,0.2-0.7,0.6-0.9,1v5.3h-1.1V294h0.8L484.2,295z"/>
			<path class="st2" d="M495.3,301.4c-0.1,0-0.2,0.1-0.4,0.1c-0.2,0-0.4,0.1-0.7,0.1c-0.4,0-0.7,0-0.9-0.1s-0.5-0.2-0.6-0.4
				c-0.2-0.2-0.3-0.4-0.4-0.7c-0.1-0.3-0.1-0.5-0.1-0.9V295h-1.3v-1h1.3v-2h1.1v2h2v1h-2v4.3c0,0.2,0,0.3,0.1,0.5
				c0,0.1,0.1,0.3,0.2,0.4c0.1,0.1,0.2,0.2,0.4,0.3c0.2,0.1,0.3,0.1,0.5,0.1c0.1,0,0.3,0,0.5,0c0.2,0,0.3-0.1,0.4-0.1V301.4z"/>
			<path class="st2" d="M501.8,300.6L501.8,300.6c-0.1,0.1-0.2,0.2-0.4,0.4c-0.1,0.1-0.3,0.2-0.5,0.3c-0.2,0.1-0.4,0.2-0.6,0.2
				c-0.2,0.1-0.4,0.1-0.7,0.1c-0.3,0-0.6-0.1-0.9-0.2s-0.5-0.3-0.7-0.5c-0.2-0.2-0.3-0.5-0.5-0.8c-0.1-0.3-0.2-0.6-0.2-1
				c0-0.4,0.1-0.7,0.2-1c0.1-0.3,0.3-0.5,0.5-0.7c0.2-0.2,0.5-0.4,0.8-0.5s0.6-0.2,1-0.2c0.3,0,0.7,0,1,0.1c0.3,0.1,0.6,0.1,0.8,0.2
				h0v-0.5c0-0.2,0-0.4,0-0.5s-0.1-0.3-0.1-0.4c-0.1-0.3-0.3-0.5-0.6-0.6c-0.3-0.2-0.6-0.2-1.1-0.2c-0.3,0-0.7,0-1,0.1
				c-0.3,0.1-0.6,0.2-0.9,0.3v-1c0.1-0.1,0.2-0.1,0.4-0.2s0.3-0.1,0.5-0.1c0.2,0,0.3-0.1,0.5-0.1c0.2,0,0.4,0,0.6,0
				c0.7,0,1.2,0.1,1.7,0.4c0.4,0.3,0.7,0.6,0.9,1.1c0.1,0.2,0.1,0.4,0.2,0.6c0,0.2,0,0.4,0,0.7v5h-0.9L501.8,300.6z M501.7,298.1
				c-0.2-0.1-0.4-0.1-0.7-0.2c-0.3-0.1-0.6-0.1-0.9-0.1c-0.5,0-0.8,0.1-1.1,0.3c-0.3,0.2-0.4,0.6-0.4,1c0,0.2,0,0.4,0.1,0.6
				c0.1,0.2,0.2,0.3,0.3,0.4c0.1,0.1,0.3,0.2,0.4,0.3s0.3,0.1,0.5,0.1c0.2,0,0.5,0,0.7-0.1c0.2-0.1,0.4-0.2,0.5-0.3
				c0.2-0.1,0.3-0.2,0.4-0.3c0.1-0.1,0.2-0.2,0.2-0.2V298.1z"/>
			<path class="st2" d="M509.5,301.4c-0.1,0-0.2,0.1-0.4,0.1c-0.2,0-0.4,0.1-0.7,0.1c-0.4,0-0.7,0-0.9-0.1s-0.5-0.2-0.6-0.4
				c-0.2-0.2-0.3-0.4-0.4-0.7c-0.1-0.3-0.1-0.5-0.1-0.9V295h-1.3v-1h1.3v-2h1.1v2h2v1h-2v4.3c0,0.2,0,0.3,0.1,0.5
				c0,0.1,0.1,0.3,0.2,0.4c0.1,0.1,0.2,0.2,0.4,0.3c0.2,0.1,0.3,0.1,0.5,0.1c0.1,0,0.3,0,0.5,0c0.2,0,0.3-0.1,0.4-0.1V301.4z"/>
			<path class="st2" d="M512.1,292.2v-1.4h1.1v1.4H512.1z M512.2,301.4V294h1.1v7.4H512.2z"/>
			<path class="st2" d="M522.5,297.7c0,0.6-0.1,1.1-0.2,1.6c-0.2,0.5-0.4,0.9-0.6,1.2c-0.3,0.3-0.6,0.6-1,0.8s-0.8,0.3-1.3,0.3
				c-0.5,0-0.9-0.1-1.3-0.3c-0.4-0.2-0.7-0.5-1-0.8c-0.3-0.3-0.5-0.8-0.6-1.2c-0.1-0.5-0.2-1-0.2-1.6c0-0.6,0.1-1.1,0.2-1.6
				c0.2-0.5,0.4-0.9,0.6-1.2c0.3-0.3,0.6-0.6,1-0.8c0.4-0.2,0.8-0.3,1.3-0.3c0.5,0,0.9,0.1,1.3,0.3c0.4,0.2,0.7,0.5,1,0.8
				s0.5,0.8,0.6,1.2C522.4,296.6,522.5,297.1,522.5,297.7z M521.3,297.7c0-0.5-0.1-0.9-0.2-1.2c-0.1-0.4-0.2-0.7-0.4-0.9
				c-0.2-0.2-0.4-0.4-0.6-0.6c-0.2-0.1-0.5-0.2-0.8-0.2c-0.3,0-0.6,0.1-0.8,0.2c-0.2,0.1-0.5,0.3-0.6,0.6c-0.2,0.2-0.3,0.5-0.4,0.9
				c-0.1,0.4-0.2,0.8-0.2,1.2c0,0.5,0.1,0.9,0.2,1.2c0.1,0.4,0.2,0.7,0.4,0.9c0.2,0.2,0.4,0.4,0.6,0.6c0.2,0.1,0.5,0.2,0.8,0.2
				s0.6-0.1,0.8-0.2c0.2-0.1,0.5-0.3,0.6-0.6c0.2-0.2,0.3-0.5,0.4-0.9C521.3,298.5,521.3,298.1,521.3,297.7z"/>
			<path class="st2" d="M526.3,295L526.3,295c0.1-0.2,0.3-0.3,0.4-0.5c0.1-0.1,0.3-0.3,0.5-0.4c0.2-0.1,0.4-0.2,0.6-0.3
				s0.5-0.1,0.7-0.1c0.3,0,0.6,0,0.9,0.1s0.5,0.2,0.7,0.5c0.2,0.2,0.4,0.5,0.5,0.8c0.1,0.3,0.2,0.7,0.2,1.2v5h-1.1v-4.8
				c0-0.6-0.1-1.1-0.3-1.4s-0.5-0.4-1-0.4c-0.4,0-0.7,0.1-1.1,0.3c-0.4,0.2-0.7,0.6-0.9,1v5.3h-1.1V294h0.8L526.3,295z"/>
		</g>
		<g class="st1">
		</g>
		<g class="st1">
			<path class="st2" d="M545.3,291c-0.1,0-0.3-0.1-0.5-0.1s-0.3,0-0.4,0c-0.2,0-0.5,0-0.7,0.1c-0.2,0.1-0.4,0.2-0.5,0.3
				s-0.2,0.3-0.3,0.6s-0.1,0.5-0.1,0.9v1.1h2v1h-2v6.4h-1.1V295h-1.2v-1h1.2v-1.1c0-0.5,0.1-1,0.2-1.4s0.3-0.7,0.5-0.9
				c0.2-0.2,0.5-0.4,0.8-0.5c0.3-0.1,0.6-0.2,1-0.2c0.2,0,0.4,0,0.6,0c0.2,0,0.3,0.1,0.4,0.1V291z"/>
			<path class="st2" d="M553.1,297.7c0,0.6-0.1,1.1-0.2,1.6c-0.1,0.5-0.4,0.9-0.6,1.2c-0.3,0.3-0.6,0.6-1,0.8
				c-0.4,0.2-0.8,0.3-1.3,0.3c-0.5,0-0.9-0.1-1.3-0.3s-0.7-0.5-1-0.8c-0.3-0.3-0.5-0.8-0.6-1.2c-0.1-0.5-0.2-1-0.2-1.6
				c0-0.6,0.1-1.1,0.2-1.6c0.1-0.5,0.4-0.9,0.6-1.2s0.6-0.6,1-0.8c0.4-0.2,0.8-0.3,1.3-0.3c0.5,0,0.9,0.1,1.3,0.3s0.7,0.5,1,0.8
				c0.3,0.3,0.5,0.8,0.6,1.2C553,296.6,553.1,297.1,553.1,297.7z M551.9,297.7c0-0.5,0-0.9-0.2-1.2c-0.1-0.4-0.2-0.7-0.4-0.9
				c-0.2-0.2-0.4-0.4-0.6-0.6c-0.2-0.1-0.5-0.2-0.8-0.2s-0.6,0.1-0.8,0.2c-0.2,0.1-0.5,0.3-0.6,0.6c-0.2,0.2-0.3,0.5-0.4,0.9
				c-0.1,0.4-0.2,0.8-0.2,1.2c0,0.5,0,0.9,0.2,1.2c0.1,0.4,0.2,0.7,0.4,0.9c0.2,0.2,0.4,0.4,0.6,0.6c0.2,0.1,0.5,0.2,0.8,0.2
				c0.3,0,0.6-0.1,0.8-0.2c0.2-0.1,0.5-0.3,0.6-0.6c0.2-0.2,0.3-0.5,0.4-0.9C551.9,298.5,551.9,298.1,551.9,297.7z"/>
			<path class="st2" d="M559.5,294.9L559.5,294.9c-0.3,0-0.6,0-0.8,0.1c-0.2,0.1-0.5,0.1-0.7,0.2c-0.2,0.1-0.4,0.2-0.6,0.4
				s-0.3,0.3-0.4,0.6v5.2h-1.1V294h0.8l0.2,1.2h0c0.1-0.2,0.2-0.4,0.4-0.5c0.2-0.2,0.3-0.3,0.5-0.4c0.2-0.1,0.4-0.2,0.6-0.3
				s0.5-0.1,0.7-0.1c0,0,0.1,0,0.1,0c0,0,0.1,0,0.1,0V294.9z"/>
		</g>
		<g class="st1">
			<path class="st2" d="M85.7,311.9c-0.5,0-1,0.1-1.5,0.3c-0.5,0.2-0.9,0.5-1.2,0.8c-0.3,0.4-0.6,0.8-0.8,1.4
				c-0.2,0.5-0.3,1.2-0.3,1.9c0,0.7,0.1,1.3,0.3,1.9c0.2,0.5,0.4,1,0.8,1.3c0.3,0.3,0.7,0.6,1.2,0.8c0.5,0.2,1,0.3,1.6,0.3
				c0.2,0,0.3,0,0.5,0c0.2,0,0.4,0,0.5-0.1c0.2,0,0.4-0.1,0.5-0.1c0.2,0,0.3-0.1,0.5-0.1v1.1c-0.3,0.1-0.6,0.2-1,0.3
				c-0.4,0.1-0.7,0.1-1.1,0.1c-0.8,0-1.5-0.1-2.1-0.4c-0.6-0.2-1.1-0.6-1.5-1s-0.7-1-0.9-1.7c-0.2-0.7-0.3-1.4-0.3-2.2
				c0-0.8,0.1-1.6,0.3-2.2c0.2-0.7,0.5-1.3,1-1.8c0.4-0.5,0.9-0.9,1.5-1.1s1.3-0.4,2-0.4c0.2,0,0.4,0,0.6,0c0.2,0,0.4,0,0.6,0.1
				c0.2,0,0.3,0.1,0.5,0.1c0.1,0,0.3,0.1,0.4,0.1v1.1c-0.3-0.1-0.6-0.2-0.9-0.3S86,311.9,85.7,311.9z"/>
			<path class="st2" d="M91.7,315L91.7,315c0.1-0.2,0.3-0.3,0.4-0.5c0.2-0.1,0.3-0.3,0.5-0.4c0.2-0.1,0.4-0.2,0.6-0.3
				s0.4-0.1,0.7-0.1c0.3,0,0.5,0,0.8,0.1c0.3,0.1,0.5,0.2,0.7,0.4c0.2,0.2,0.4,0.5,0.5,0.8c0.1,0.3,0.2,0.8,0.2,1.3v5H95v-4.8
				c0-0.6-0.1-1-0.3-1.4c-0.2-0.3-0.5-0.5-1-0.5c-0.4,0-0.8,0.1-1.1,0.3c-0.3,0.2-0.6,0.6-0.9,1v5.3h-1.1v-11.3h1.1V315z"/>
			<path class="st2" d="M99.3,312.2v-1.4h1.1v1.4H99.3z M99.4,321.4V314h1.1v7.4H99.4z"/>
			<path class="st2" d="M104.8,315L104.8,315c0.1-0.2,0.3-0.3,0.4-0.5c0.1-0.1,0.3-0.3,0.5-0.4c0.2-0.1,0.4-0.2,0.6-0.3
				c0.2-0.1,0.5-0.1,0.7-0.1c0.3,0,0.6,0,0.9,0.1s0.5,0.2,0.7,0.5c0.2,0.2,0.4,0.5,0.5,0.8s0.2,0.7,0.2,1.2v5h-1.1v-4.8
				c0-0.6-0.1-1.1-0.3-1.4s-0.5-0.4-1-0.4c-0.4,0-0.7,0.1-1.1,0.3c-0.4,0.2-0.7,0.6-0.9,1v5.3h-1.1V314h0.8L104.8,315z"/>
			<path class="st2" d="M116.3,320.6L116.3,320.6c-0.1,0.1-0.2,0.2-0.4,0.4c-0.1,0.1-0.3,0.2-0.5,0.3c-0.2,0.1-0.4,0.2-0.6,0.2
				c-0.2,0.1-0.4,0.1-0.7,0.1c-0.3,0-0.6-0.1-0.9-0.2c-0.3-0.1-0.5-0.3-0.7-0.5c-0.2-0.2-0.3-0.5-0.5-0.8s-0.2-0.6-0.2-1
				c0-0.4,0.1-0.7,0.2-1c0.1-0.3,0.3-0.5,0.5-0.7c0.2-0.2,0.5-0.4,0.8-0.5s0.6-0.2,1-0.2c0.3,0,0.7,0,1,0.1s0.6,0.1,0.8,0.2h0v-0.5
				c0-0.2,0-0.4,0-0.5s-0.1-0.3-0.1-0.4c-0.1-0.3-0.3-0.5-0.6-0.6s-0.6-0.2-1.1-0.2c-0.3,0-0.7,0-1,0.1c-0.3,0.1-0.6,0.2-0.9,0.3v-1
				c0.1-0.1,0.2-0.1,0.4-0.2s0.3-0.1,0.5-0.1c0.2,0,0.3-0.1,0.5-0.1c0.2,0,0.4,0,0.6,0c0.7,0,1.2,0.1,1.7,0.4
				c0.4,0.3,0.7,0.6,0.9,1.1c0.1,0.2,0.1,0.4,0.2,0.6c0,0.2,0,0.4,0,0.7v5h-0.9L116.3,320.6z M116.2,318.1c-0.2-0.1-0.4-0.1-0.7-0.2
				c-0.3-0.1-0.6-0.1-0.9-0.1c-0.5,0-0.8,0.1-1.1,0.3c-0.3,0.2-0.4,0.6-0.4,1c0,0.2,0,0.4,0.1,0.6c0.1,0.2,0.2,0.3,0.3,0.4
				c0.1,0.1,0.3,0.2,0.4,0.3s0.3,0.1,0.5,0.1c0.2,0,0.5,0,0.7-0.1c0.2-0.1,0.4-0.2,0.5-0.3c0.2-0.1,0.3-0.2,0.4-0.3
				c0.1-0.1,0.2-0.2,0.2-0.2V318.1z"/>
			<path class="st2" d="M128.4,315.2c-0.1,0.7-0.3,1.3-0.4,1.8l-1.1,4.4h-1.1l-2.2-7.4h1.1l1.2,4.6c0.2,0.6,0.3,1.1,0.4,1.5h0
				c0.1-0.4,0.2-0.9,0.4-1.6l1.1-4.5h1.1l1.2,4.5c0.2,0.6,0.3,1.1,0.4,1.6h0c0.1-0.5,0.2-1,0.4-1.5l1.2-4.6h1.1l-2.2,7.4H130
				l-1.1-4.4C128.8,316.4,128.6,315.8,128.4,315.2L128.4,315.2z"/>
			<path class="st2" d="M135.8,312.2v-1.4h1.1v1.4H135.8z M135.9,321.4V314h1.1v7.4H135.9z"/>
			<path class="st2" d="M143.7,321.4c-0.1,0-0.2,0.1-0.4,0.1c-0.2,0-0.4,0.1-0.7,0.1c-0.4,0-0.7,0-0.9-0.1s-0.5-0.2-0.6-0.4
				c-0.2-0.2-0.3-0.4-0.4-0.7c-0.1-0.3-0.1-0.5-0.1-0.9V315h-1.3v-1h1.3v-2h1.1v2h2v1h-2v4.3c0,0.2,0,0.3,0.1,0.5
				c0,0.1,0.1,0.3,0.2,0.4c0.1,0.1,0.2,0.2,0.4,0.3c0.1,0.1,0.3,0.1,0.5,0.1c0.1,0,0.3,0,0.5,0c0.2,0,0.3-0.1,0.4-0.1V321.4z"/>
			<path class="st2" d="M147.5,315L147.5,315c0.1-0.2,0.3-0.3,0.4-0.5c0.2-0.1,0.3-0.3,0.5-0.4c0.2-0.1,0.4-0.2,0.6-0.3
				s0.4-0.1,0.7-0.1c0.3,0,0.5,0,0.8,0.1c0.3,0.1,0.5,0.2,0.7,0.4c0.2,0.2,0.4,0.5,0.5,0.8c0.1,0.3,0.2,0.8,0.2,1.3v5h-1.1v-4.8
				c0-0.6-0.1-1-0.3-1.4c-0.2-0.3-0.5-0.5-1-0.5c-0.4,0-0.8,0.1-1.1,0.3c-0.3,0.2-0.6,0.6-0.9,1v5.3h-1.1v-11.3h1.1V315z"/>
			<path class="st2" d="M162.9,320.6L162.9,320.6c-0.1,0.1-0.2,0.2-0.4,0.4c-0.1,0.1-0.3,0.2-0.5,0.3c-0.2,0.1-0.4,0.2-0.6,0.2
				c-0.2,0.1-0.4,0.1-0.7,0.1c-0.3,0-0.6-0.1-0.9-0.2c-0.3-0.1-0.5-0.3-0.7-0.5c-0.2-0.2-0.3-0.5-0.5-0.8s-0.2-0.6-0.2-1
				c0-0.4,0.1-0.7,0.2-1c0.1-0.3,0.3-0.5,0.5-0.7c0.2-0.2,0.5-0.4,0.8-0.5s0.6-0.2,1-0.2c0.3,0,0.7,0,1,0.1s0.6,0.1,0.8,0.2h0v-0.5
				c0-0.2,0-0.4,0-0.5s-0.1-0.3-0.1-0.4c-0.1-0.3-0.3-0.5-0.6-0.6s-0.6-0.2-1.1-0.2c-0.3,0-0.7,0-1,0.1c-0.3,0.1-0.6,0.2-0.9,0.3v-1
				c0.1-0.1,0.2-0.1,0.4-0.2s0.3-0.1,0.5-0.1c0.2,0,0.3-0.1,0.5-0.1c0.2,0,0.4,0,0.6,0c0.7,0,1.2,0.1,1.7,0.4
				c0.4,0.3,0.7,0.6,0.9,1.1c0.1,0.2,0.1,0.4,0.2,0.6c0,0.2,0,0.4,0,0.7v5H163L162.9,320.6z M162.9,318.1c-0.2-0.1-0.4-0.1-0.7-0.2
				c-0.3-0.1-0.6-0.1-0.9-0.1c-0.5,0-0.8,0.1-1.1,0.3c-0.3,0.2-0.4,0.6-0.4,1c0,0.2,0,0.4,0.1,0.6c0.1,0.2,0.2,0.3,0.3,0.4
				c0.1,0.1,0.3,0.2,0.4,0.3s0.3,0.1,0.5,0.1c0.2,0,0.5,0,0.7-0.1c0.2-0.1,0.4-0.2,0.5-0.3c0.2-0.1,0.3-0.2,0.4-0.3
				c0.1-0.1,0.2-0.2,0.2-0.2V318.1z"/>
			<path class="st2" d="M166.8,317.8c0-0.5,0-1,0.1-1.4s0.2-0.7,0.4-1c0.2-0.3,0.3-0.5,0.5-0.7c0.2-0.2,0.4-0.4,0.6-0.5
				c0.2-0.1,0.4-0.2,0.7-0.3s0.4-0.1,0.6-0.1c0.4,0,0.8,0.1,1.1,0.2c0.3,0.2,0.6,0.4,0.8,0.7h0v-4.6h1.1v11.3h-0.8l-0.2-0.8h0
				c-0.1,0.1-0.2,0.2-0.3,0.4c-0.1,0.1-0.2,0.2-0.4,0.3c-0.2,0.1-0.3,0.2-0.5,0.2c-0.2,0.1-0.4,0.1-0.7,0.1c-0.4,0-0.7-0.1-1.1-0.2
				s-0.7-0.4-0.9-0.7c-0.3-0.3-0.5-0.7-0.7-1.2C166.8,319,166.8,318.5,166.8,317.8z M167.9,317.8c0,0.4,0,0.8,0.1,1.2
				c0.1,0.3,0.2,0.6,0.4,0.9c0.2,0.2,0.4,0.4,0.6,0.6c0.2,0.1,0.5,0.2,0.8,0.2c0.2,0,0.4,0,0.6-0.1c0.2-0.1,0.4-0.2,0.5-0.3
				c0.1-0.1,0.3-0.2,0.4-0.3s0.2-0.2,0.2-0.3v-3.9c-0.2-0.3-0.5-0.5-0.8-0.6c-0.3-0.2-0.6-0.2-1-0.2c-0.2,0-0.4,0-0.7,0.1
				s-0.4,0.2-0.6,0.5c-0.2,0.2-0.4,0.5-0.5,0.9C168,316.7,167.9,317.2,167.9,317.8z"/>
			<path class="st2" d="M178.2,320.2c0.2-0.5,0.4-1.2,0.7-2.1l1.3-4.1h1.1l-2.5,7.4h-1.1l-2.5-7.4h1.1l1.3,4.1
				C177.8,318.9,178,319.6,178.2,320.2L178.2,320.2z"/>
			<path class="st2" d="M187.6,320.6L187.6,320.6c-0.1,0.1-0.2,0.2-0.4,0.4c-0.1,0.1-0.3,0.2-0.5,0.3c-0.2,0.1-0.4,0.2-0.6,0.2
				c-0.2,0.1-0.4,0.1-0.7,0.1c-0.3,0-0.6-0.1-0.9-0.2c-0.3-0.1-0.5-0.3-0.7-0.5c-0.2-0.2-0.3-0.5-0.5-0.8s-0.2-0.6-0.2-1
				c0-0.4,0.1-0.7,0.2-1c0.1-0.3,0.3-0.5,0.5-0.7c0.2-0.2,0.5-0.4,0.8-0.5s0.6-0.2,1-0.2c0.3,0,0.7,0,1,0.1s0.6,0.1,0.8,0.2h0v-0.5
				c0-0.2,0-0.4,0-0.5s-0.1-0.3-0.1-0.4c-0.1-0.3-0.3-0.5-0.6-0.6s-0.6-0.2-1.1-0.2c-0.3,0-0.7,0-1,0.1c-0.3,0.1-0.6,0.2-0.9,0.3v-1
				c0.1-0.1,0.2-0.1,0.4-0.2s0.3-0.1,0.5-0.1c0.2,0,0.3-0.1,0.5-0.1c0.2,0,0.4,0,0.6,0c0.7,0,1.2,0.1,1.7,0.4
				c0.4,0.3,0.7,0.6,0.9,1.1c0.1,0.2,0.1,0.4,0.2,0.6c0,0.2,0,0.4,0,0.7v5h-0.9L187.6,320.6z M187.5,318.1c-0.2-0.1-0.4-0.1-0.7-0.2
				c-0.3-0.1-0.6-0.1-0.9-0.1c-0.5,0-0.8,0.1-1.1,0.3c-0.3,0.2-0.4,0.6-0.4,1c0,0.2,0,0.4,0.1,0.6c0.1,0.2,0.2,0.3,0.3,0.4
				c0.1,0.1,0.3,0.2,0.4,0.3s0.3,0.1,0.5,0.1c0.2,0,0.5,0,0.7-0.1c0.2-0.1,0.4-0.2,0.5-0.3c0.2-0.1,0.3-0.2,0.4-0.3
				c0.1-0.1,0.2-0.2,0.2-0.2V318.1z"/>
			<path class="st2" d="M192.9,315L192.9,315c0.1-0.2,0.3-0.3,0.4-0.5c0.1-0.1,0.3-0.3,0.5-0.4c0.2-0.1,0.4-0.2,0.6-0.3
				c0.2-0.1,0.5-0.1,0.7-0.1c0.3,0,0.6,0,0.9,0.1s0.5,0.2,0.7,0.5c0.2,0.2,0.4,0.5,0.5,0.8s0.2,0.7,0.2,1.2v5h-1.1v-4.8
				c0-0.6-0.1-1.1-0.3-1.4s-0.5-0.4-1-0.4c-0.4,0-0.7,0.1-1.1,0.3c-0.4,0.2-0.7,0.6-0.9,1v5.3h-1.1V314h0.8L192.9,315z"/>
			<path class="st2" d="M203.3,313.8c0.3,0,0.6,0,0.9,0.1c0.3,0.1,0.5,0.2,0.8,0.3v1c-0.3-0.1-0.6-0.2-0.8-0.3s-0.5-0.1-0.8-0.1
				c-0.3,0-0.5,0-0.8,0.1c-0.3,0.1-0.5,0.3-0.7,0.5s-0.4,0.5-0.5,0.9c-0.1,0.4-0.2,0.8-0.2,1.4c0,0.4,0,0.8,0.1,1.1
				c0.1,0.3,0.2,0.6,0.4,0.9c0.2,0.2,0.4,0.4,0.7,0.6c0.3,0.1,0.6,0.2,1,0.2c0.3,0,0.5,0,0.8-0.1c0.3-0.1,0.5-0.2,0.8-0.3v1
				c-0.1,0.1-0.2,0.1-0.3,0.2c-0.1,0.1-0.3,0.1-0.4,0.1s-0.3,0.1-0.5,0.1s-0.3,0-0.5,0c-0.5,0-0.9-0.1-1.3-0.2s-0.8-0.4-1.1-0.7
				s-0.5-0.7-0.7-1.2c-0.2-0.5-0.3-1-0.3-1.7c0-0.5,0-0.9,0.1-1.3s0.2-0.7,0.4-1s0.3-0.5,0.6-0.8c0.2-0.2,0.4-0.4,0.7-0.5
				c0.2-0.1,0.5-0.2,0.7-0.3C202.8,313.8,203.1,313.8,203.3,313.8z"/>
			<path class="st2" d="M211,320.5c0.4,0,0.7,0,1-0.1c0.3-0.1,0.6-0.2,0.9-0.3v1c-0.2,0.1-0.5,0.2-0.9,0.3c-0.4,0.1-0.7,0.1-1.1,0.1
				c-0.5,0-0.9-0.1-1.3-0.2s-0.8-0.4-1.1-0.7c-0.3-0.3-0.5-0.7-0.7-1.2c-0.2-0.5-0.3-1.1-0.3-1.8c0-0.7,0.1-1.3,0.3-1.8
				c0.2-0.5,0.4-0.9,0.7-1.2c0.3-0.3,0.6-0.6,1-0.8c0.4-0.2,0.7-0.3,1.1-0.3c0.4,0,0.7,0.1,1,0.2c0.3,0.1,0.6,0.4,0.8,0.7
				s0.4,0.7,0.6,1.1c0.1,0.5,0.2,1,0.2,1.7c0,0.1,0,0.1,0,0.2c0,0,0,0.1,0,0.3h-4.6c0,0.5,0.1,0.9,0.2,1.2c0.1,0.3,0.3,0.6,0.5,0.8
				c0.2,0.2,0.5,0.4,0.8,0.4S210.7,320.5,211,320.5z M210.5,314.8c-0.3,0-0.5,0.1-0.7,0.2c-0.2,0.1-0.4,0.3-0.6,0.4
				c-0.2,0.2-0.3,0.4-0.4,0.7c-0.1,0.3-0.2,0.5-0.2,0.8h3.4c0-0.3,0-0.6-0.1-0.8c-0.1-0.3-0.2-0.5-0.3-0.7s-0.3-0.3-0.5-0.4
				C210.9,314.9,210.7,314.8,210.5,314.8z"/>
			<path class="st2" d="M222.3,320.2c0.2-0.5,0.4-1.2,0.7-2.1l1.3-4.1h1.1l-2.5,7.4h-1.1l-2.5-7.4h1.1l1.3,4.1
				C221.9,318.9,222.1,319.6,222.3,320.2L222.3,320.2z"/>
			<path class="st2" d="M231,320.5c0.4,0,0.7,0,1-0.1c0.3-0.1,0.6-0.2,0.9-0.3v1c-0.2,0.1-0.5,0.2-0.9,0.3c-0.4,0.1-0.7,0.1-1.1,0.1
				c-0.5,0-0.9-0.1-1.3-0.2s-0.8-0.4-1.1-0.7c-0.3-0.3-0.5-0.7-0.7-1.2c-0.2-0.5-0.3-1.1-0.3-1.8c0-0.7,0.1-1.3,0.3-1.8
				c0.2-0.5,0.4-0.9,0.7-1.2c0.3-0.3,0.6-0.6,1-0.8c0.4-0.2,0.7-0.3,1.1-0.3c0.4,0,0.7,0.1,1,0.2c0.3,0.1,0.6,0.4,0.8,0.7
				s0.4,0.7,0.6,1.1c0.1,0.5,0.2,1,0.2,1.7c0,0.1,0,0.1,0,0.2c0,0,0,0.1,0,0.3h-4.6c0,0.5,0.1,0.9,0.2,1.2c0.1,0.3,0.3,0.6,0.5,0.8
				c0.2,0.2,0.5,0.4,0.8,0.4S230.6,320.5,231,320.5z M230.4,314.8c-0.3,0-0.5,0.1-0.7,0.2c-0.2,0.1-0.4,0.3-0.6,0.4
				c-0.2,0.2-0.3,0.4-0.4,0.7c-0.1,0.3-0.2,0.5-0.2,0.8h3.4c0-0.3,0-0.6-0.1-0.8c-0.1-0.3-0.2-0.5-0.3-0.7s-0.3-0.3-0.5-0.4
				C230.9,314.9,230.7,314.8,230.4,314.8z"/>
			<path class="st2" d="M239.7,314.9L239.7,314.9c-0.3,0-0.6,0-0.8,0.1c-0.2,0.1-0.5,0.1-0.7,0.2c-0.2,0.1-0.4,0.2-0.6,0.4
				s-0.3,0.3-0.4,0.6v5.2H236V314h0.8l0.2,1.2h0c0.1-0.2,0.2-0.4,0.4-0.5c0.2-0.2,0.3-0.3,0.5-0.4s0.4-0.2,0.6-0.3s0.5-0.1,0.7-0.1
				c0,0,0.1,0,0.1,0c0,0,0.1,0,0.1,0V314.9z"/>
			<path class="st2" d="M242.7,315.9c0,0.2,0,0.4,0.1,0.5c0.1,0.1,0.2,0.2,0.3,0.3c0.1,0.1,0.3,0.1,0.5,0.2c0.2,0.1,0.3,0.1,0.5,0.1
				c0.3,0.1,0.5,0.1,0.7,0.2c0.2,0.1,0.4,0.2,0.6,0.3c0.2,0.2,0.3,0.4,0.5,0.6c0.1,0.3,0.2,0.6,0.2,1c0,0.4-0.1,0.7-0.2,1
				s-0.3,0.5-0.6,0.7c-0.2,0.2-0.5,0.3-0.9,0.4c-0.3,0.1-0.7,0.2-1.1,0.2c-0.2,0-0.5,0-0.7,0c-0.2,0-0.4-0.1-0.5-0.1
				s-0.3-0.1-0.4-0.1s-0.2-0.1-0.3-0.1v-1c0.3,0.1,0.5,0.2,0.8,0.3c0.3,0.1,0.6,0.1,0.9,0.1c0.3,0,0.5,0,0.7-0.1
				c0.2-0.1,0.4-0.1,0.5-0.2s0.3-0.2,0.3-0.4c0.1-0.2,0.1-0.3,0.1-0.5c0-0.2,0-0.4-0.1-0.5c-0.1-0.1-0.2-0.2-0.3-0.3
				c-0.1-0.1-0.3-0.2-0.4-0.2c-0.2-0.1-0.3-0.1-0.5-0.2c-0.2-0.1-0.5-0.1-0.7-0.2c-0.2-0.1-0.5-0.2-0.7-0.3
				c-0.2-0.1-0.4-0.3-0.5-0.6s-0.2-0.6-0.2-0.9c0-0.4,0.1-0.7,0.2-1c0.1-0.3,0.3-0.5,0.5-0.7c0.2-0.2,0.5-0.3,0.8-0.4
				c0.3-0.1,0.6-0.1,0.9-0.1c0.4,0,0.7,0,1,0.1s0.6,0.2,0.9,0.3v1c-0.3-0.1-0.6-0.2-0.8-0.3c-0.3-0.1-0.6-0.1-0.9-0.1
				c-0.3,0-0.5,0-0.6,0.1c-0.2,0.1-0.3,0.1-0.4,0.2c-0.1,0.1-0.2,0.2-0.3,0.4C242.8,315.6,242.7,315.8,242.7,315.9z"/>
			<path class="st2" d="M248.9,312.2v-1.4h1.1v1.4H248.9z M248.9,321.4V314h1.1v7.4H248.9z"/>
			<path class="st2" d="M259.2,317.7c0,0.6-0.1,1.1-0.2,1.6c-0.1,0.5-0.4,0.9-0.6,1.2c-0.3,0.3-0.6,0.6-1,0.8s-0.8,0.3-1.3,0.3
				c-0.5,0-0.9-0.1-1.3-0.3c-0.4-0.2-0.7-0.5-1-0.8c-0.3-0.3-0.5-0.8-0.6-1.2c-0.1-0.5-0.2-1-0.2-1.6c0-0.6,0.1-1.1,0.2-1.6
				c0.1-0.5,0.4-0.9,0.6-1.2s0.6-0.6,1-0.8c0.4-0.2,0.8-0.3,1.3-0.3c0.5,0,0.9,0.1,1.3,0.3s0.7,0.5,1,0.8c0.3,0.3,0.5,0.8,0.6,1.2
				C259.2,316.6,259.2,317.1,259.2,317.7z M258.1,317.7c0-0.5-0.1-0.9-0.2-1.2c-0.1-0.4-0.2-0.7-0.4-0.9c-0.2-0.2-0.4-0.4-0.6-0.6
				c-0.2-0.1-0.5-0.2-0.8-0.2c-0.3,0-0.6,0.1-0.8,0.2c-0.2,0.1-0.5,0.3-0.6,0.6c-0.2,0.2-0.3,0.5-0.4,0.9c-0.1,0.4-0.2,0.8-0.2,1.2
				c0,0.5,0.1,0.9,0.2,1.2c0.1,0.4,0.2,0.7,0.4,0.9c0.2,0.2,0.4,0.4,0.6,0.6c0.2,0.1,0.5,0.2,0.8,0.2s0.6-0.1,0.8-0.2
				c0.2-0.1,0.5-0.3,0.6-0.6c0.2-0.2,0.3-0.5,0.4-0.9C258,318.5,258.1,318.1,258.1,317.7z"/>
			<path class="st2" d="M263.1,315L263.1,315c0.1-0.2,0.3-0.3,0.4-0.5c0.1-0.1,0.3-0.3,0.5-0.4c0.2-0.1,0.4-0.2,0.6-0.3
				c0.2-0.1,0.5-0.1,0.7-0.1c0.3,0,0.6,0,0.9,0.1s0.5,0.2,0.7,0.5c0.2,0.2,0.4,0.5,0.5,0.8s0.2,0.7,0.2,1.2v5h-1.1v-4.8
				c0-0.6-0.1-1.1-0.3-1.4s-0.5-0.4-1-0.4c-0.4,0-0.7,0.1-1.1,0.3c-0.4,0.2-0.7,0.6-0.9,1v5.3H262V314h0.8L263.1,315z"/>
			<path class="st2" d="M276.5,320.3c0.5,0,1,0,1.5,0h2.2v1.1h-5.4v-0.8c0.5-0.4,1-0.9,1.5-1.2s0.8-0.8,1.2-1.1s0.6-0.7,0.8-1
				c0.2-0.3,0.3-0.7,0.3-1c0-0.5-0.1-0.8-0.4-1c-0.3-0.2-0.6-0.4-1.1-0.4c-0.4,0-0.7,0.1-1.1,0.2c-0.3,0.1-0.7,0.3-1.1,0.5v-1
				c0.3-0.2,0.6-0.3,1-0.4c0.4-0.1,0.8-0.2,1.3-0.2c0.4,0,0.7,0.1,1,0.2c0.3,0.1,0.6,0.3,0.8,0.5c0.2,0.2,0.4,0.4,0.5,0.7
				c0.1,0.3,0.2,0.6,0.2,1c0,0.4-0.1,0.8-0.2,1.2c-0.2,0.4-0.4,0.7-0.7,1c-0.3,0.3-0.6,0.7-1,1S276.9,319.9,276.5,320.3L276.5,320.3
				z"/>
			<path class="st2" d="M283.3,321.4v-1.5h1.3v1.5H283.3z"/>
			<path class="st2" d="M293.7,317.7c0,0.6-0.1,1.1-0.2,1.5s-0.3,0.9-0.6,1.2c-0.3,0.3-0.6,0.6-1,0.8s-0.8,0.3-1.3,0.3
				c-0.5,0-0.9-0.1-1.3-0.3c-0.4-0.2-0.7-0.5-1-0.8c-0.3-0.3-0.5-0.8-0.6-1.2c-0.1-0.5-0.2-1-0.2-1.5c0-0.6,0.1-1.1,0.2-1.6
				s0.3-0.9,0.6-1.2s0.6-0.6,1-0.8c0.4-0.2,0.8-0.3,1.3-0.3c0.5,0,0.9,0.1,1.3,0.3c0.4,0.2,0.7,0.5,1,0.8s0.5,0.8,0.6,1.2
				C293.6,316.6,293.7,317.1,293.7,317.7z M292.6,317.7c0-0.4,0-0.8-0.1-1.2c-0.1-0.4-0.2-0.7-0.4-0.9c-0.2-0.2-0.4-0.4-0.6-0.6
				c-0.2-0.1-0.5-0.2-0.8-0.2c-0.3,0-0.6,0.1-0.8,0.2s-0.4,0.3-0.6,0.6c-0.2,0.2-0.3,0.5-0.4,0.9c-0.1,0.4-0.1,0.8-0.1,1.2
				c0,0.4,0,0.8,0.1,1.2c0.1,0.4,0.2,0.7,0.4,0.9c0.2,0.2,0.4,0.4,0.6,0.6c0.2,0.1,0.5,0.2,0.8,0.2s0.6-0.1,0.8-0.2s0.4-0.3,0.6-0.6
				c0.2-0.2,0.3-0.5,0.4-0.9C292.5,318.5,292.6,318.1,292.6,317.7z"/>
		</g>
	</g>
	<g id="KEY_ACHIVEMENTS:">
		<g>
			<path class="st2" d="M82.9,279.7V268h1.9v5.4h0l4-5.4h2.4l-4.4,5.8l4.8,5.9h-2.5l-4.3-5.3h0v5.3H82.9z"/>
			<path class="st2" d="M96.3,277.9h5.2v1.8h-7.1V268h6.9v1.8h-4.9v3h4.2v1.8h-4.2V277.9z"/>
			<path class="st2" d="M108.7,273l2.8-5.1h2.2l-4,7v4.7h-1.9V275l-4-7h2.2L108.7,273L108.7,273z"/>
			<path class="st2" d="M81.7,281.9v-1.1H115v1.1H81.7z"/>
		</g>
		<g>
			<path class="st2" d="M115,281.9v-1.1h3.8v1.1H115z"/>
		</g>
		<g>
			<path class="st2" d="M126.2,276.7h-4l-1,3h-2.1l4.2-11.8h1.8l4.2,11.8h-2L126.2,276.7z M124.2,270.8c-0.4,1.2-0.7,2.3-1,3.1
				l-0.4,1h2.7l-0.4-1C124.9,273.1,124.6,272,124.2,270.8L124.2,270.8z"/>
			<path class="st2" d="M118.8,281.9v-1.1h11.7v1.1H118.8z"/>
		</g>
		<g>
			<path class="st2" d="M137,269.6c-0.5,0-1,0.1-1.5,0.3c-0.4,0.2-0.8,0.5-1.1,0.8c-0.3,0.4-0.6,0.8-0.7,1.4s-0.3,1.2-0.3,1.9
				c0,0.7,0.1,1.3,0.2,1.8c0.2,0.5,0.4,1,0.7,1.3c0.3,0.4,0.7,0.6,1.1,0.8s0.9,0.3,1.5,0.3c0.4,0,0.8,0,1.2-0.1s0.8-0.2,1.2-0.3v1.9
				c-0.4,0.1-0.8,0.2-1.2,0.3s-0.9,0.1-1.3,0.1c-0.9,0-1.7-0.1-2.4-0.4s-1.2-0.7-1.7-1.2c-0.5-0.5-0.8-1.1-1-1.9
				c-0.2-0.7-0.3-1.5-0.3-2.4c0-0.9,0.1-1.7,0.4-2.5s0.6-1.4,1.1-2s1-1,1.7-1.3s1.5-0.5,2.4-0.5c0.4,0,0.9,0,1.3,0.1
				c0.4,0.1,0.8,0.2,1.1,0.3v1.8c-0.4-0.1-0.8-0.3-1.2-0.3S137.3,269.6,137,269.6z"/>
			<path class="st2" d="M144.4,272.8h4.9V268h1.9v11.8h-1.9v-5.1h-4.9v5.1h-1.9V268h1.9V272.8z"/>
			<path class="st2" d="M155,279.7V268h1.9v11.8H155z"/>
			<path class="st2" d="M164.6,276.9c0.2-0.6,0.3-1.1,0.4-1.4s0.3-0.8,0.5-1.7l2-5.8h2l-4.1,11.8h-1.7l-4.1-11.8h2.1l2,5.8
				c0.3,0.8,0.5,1.4,0.5,1.7C164.3,275.8,164.4,276.2,164.6,276.9L164.6,276.9z"/>
			<path class="st2" d="M174.2,277.9h5.2v1.8h-7.1V268h6.9v1.8h-4.9v3h4.2v1.8h-4.2V277.9z"/>
			<path class="st2" d="M188.1,276.6c0.2-0.9,0.5-1.9,0.9-3l1.8-5.6h2.7v11.8h-1.9v-6c0-0.9,0-1.9,0.1-3h-0.1
				c-0.1,0.3-0.2,0.7-0.3,1.1c-0.1,0.4-0.2,0.8-0.4,1.2l-2.2,6.6h-1.3l-2.2-6.6c-0.1-0.4-0.3-0.8-0.4-1.2c-0.1-0.4-0.2-0.8-0.3-1.1
				h-0.1c0.1,1.1,0.1,2.1,0.1,3v6h-1.9V268h2.7l1.8,5.6C187.5,274.5,187.8,275.5,188.1,276.6L188.1,276.6z"/>
			<path class="st2" d="M199.2,277.9h5.2v1.8h-7.1V268h6.9v1.8h-4.9v3h4.2v1.8h-4.2V277.9z"/>
			<path class="st2" d="M213.2,273.4c0.8,1.2,1.4,2.3,1.9,3.2h0c-0.1-1.5-0.1-2.6-0.1-3.3V268h1.9v11.8h-2l-3.4-5.4
				c-0.6-0.9-1.2-2-1.9-3.3h0c0.1,1.4,0.1,2.6,0.1,3.3v5.3h-1.9V268h2L213.2,273.4z"/>
			<path class="st2" d="M225,279.7h-1.9v-10h-3.4V268h8.8v1.8H225V279.7z"/>
			<path class="st2" d="M236.3,276.4c0-0.3-0.1-0.5-0.2-0.7c-0.1-0.2-0.3-0.3-0.5-0.5s-0.5-0.2-0.8-0.3c-0.3-0.1-0.6-0.1-0.9-0.2
				c-0.4-0.1-0.8-0.2-1.2-0.4s-0.7-0.3-1-0.6c-0.3-0.2-0.5-0.6-0.7-0.9s-0.3-0.8-0.3-1.4c0-0.6,0.1-1.2,0.3-1.6
				c0.2-0.5,0.5-0.8,0.8-1.1s0.7-0.5,1.2-0.7s1-0.2,1.5-0.2c0.6,0,1.1,0.1,1.7,0.2c0.6,0.1,1.1,0.3,1.5,0.5v1.8
				c-0.5-0.2-1.1-0.4-1.6-0.5c-0.5-0.1-1-0.2-1.4-0.2c-0.6,0-1.1,0.1-1.5,0.4c-0.3,0.3-0.5,0.6-0.5,1.2c0,0.3,0.1,0.5,0.2,0.7
				s0.3,0.4,0.5,0.5c0.2,0.1,0.4,0.2,0.7,0.3c0.3,0.1,0.5,0.1,0.8,0.2c0.4,0.1,0.9,0.2,1.3,0.4s0.8,0.3,1.1,0.6s0.6,0.6,0.8,1
				s0.3,0.9,0.3,1.5c0,0.6-0.1,1.2-0.3,1.6s-0.5,0.8-0.9,1.1s-0.9,0.5-1.4,0.7s-1.2,0.2-1.8,0.2c-0.6,0-1.1-0.1-1.7-0.2
				c-0.6-0.1-1-0.3-1.4-0.5v-1.8c0.5,0.3,1,0.4,1.5,0.5s1,0.2,1.5,0.2c0.3,0,0.6,0,0.9-0.1s0.6-0.2,0.8-0.3c0.2-0.1,0.4-0.3,0.6-0.5
				C236.3,277,236.3,276.7,236.3,276.4z"/>
			<path class="st2" d="M130.6,281.9v-1.1h109.9v1.1H130.6z"/>
		</g>
		<g class="st1">
			<path class="st2" d="M241.7,271.8h2.1v2.3h-2.1V271.8z M241.7,277.4h2.1v2.3h-2.1V277.4z"/>
		</g>
		<g>
			<rect x="68" y="258.8" class="st3" width="514" height="93.7"/>
		</g>
	</g>
</g>
<g id="_2nd_row">
	<g id="Implemented_the_Pricing_Module_for_the_Bigger_Program_for_UK_En">
		<g class="st1">
			<path class="st2" d="M85,122.1c-0.1,0.4-0.2,1.2-0.5,2.4l-1.4,5.8H82l-2.7-9.8h1.1l1.5,5.7c0.2,0.9,0.4,1.8,0.6,2.5h0
				c0.1-0.5,0.2-0.9,0.3-1.3c0.1-0.4,0.2-0.8,0.3-1.1l1.3-5.8h1.1l1.3,5.8c0.3,1.4,0.5,2.2,0.6,2.5h0c0.2-0.7,0.4-1.5,0.6-2.5
				l1.5-5.7h1.1l-2.7,9.8h-1.1l-1.4-5.8C85.3,123.4,85.1,122.6,85,122.1L85,122.1z"/>
		</g>
		<g class="st1">
			<path class="st2" d="M95.5,129.5c0.3,0,0.6,0,0.9-0.1c0.3-0.1,0.6-0.1,0.8-0.3v0.9c-0.2,0.1-0.5,0.2-0.8,0.3
				c-0.3,0.1-0.7,0.1-1.1,0.1c-0.4,0-0.9-0.1-1.3-0.2c-0.4-0.1-0.7-0.3-1-0.6s-0.5-0.7-0.7-1.1c-0.2-0.5-0.2-1-0.2-1.7
				c0-0.6,0.1-1.2,0.2-1.7s0.4-0.9,0.6-1.2s0.6-0.5,0.9-0.7c0.3-0.2,0.7-0.2,1.1-0.2c0.4,0,0.7,0.1,1,0.2c0.3,0.1,0.6,0.3,0.8,0.6
				c0.2,0.3,0.4,0.6,0.5,1.1s0.2,1,0.2,1.6c0,0.1,0,0.1,0,0.2s0,0.1,0,0.3h-4.3c0,0.4,0.1,0.8,0.2,1.1c0.1,0.3,0.3,0.6,0.5,0.8
				c0.2,0.2,0.5,0.3,0.7,0.4S95.1,129.5,95.5,129.5z M94.9,124.1c-0.2,0-0.5,0.1-0.7,0.2c-0.2,0.1-0.4,0.2-0.5,0.4
				c-0.2,0.2-0.3,0.4-0.4,0.6c-0.1,0.2-0.2,0.5-0.2,0.8h3.2c0-0.3,0-0.5-0.1-0.8c-0.1-0.2-0.2-0.4-0.3-0.6c-0.1-0.2-0.3-0.3-0.5-0.4
				S95.2,124.1,94.9,124.1z"/>
			<path class="st2" d="M105.8,126.7c0,0.6-0.1,1.2-0.2,1.7s-0.4,0.9-0.6,1.2c-0.3,0.3-0.6,0.5-0.9,0.7s-0.7,0.2-1,0.2
				c-0.3,0-0.5,0-0.7-0.1c-0.2-0.1-0.4-0.2-0.5-0.3c-0.1-0.1-0.3-0.2-0.3-0.3c-0.1-0.1-0.1-0.2-0.2-0.3h0l-0.2,0.8h-0.8v-10.6h1v4.3
				h0c0.2-0.3,0.5-0.5,0.8-0.6c0.3-0.1,0.6-0.2,1-0.2c0.2,0,0.4,0,0.6,0.1c0.2,0,0.4,0.1,0.6,0.2c0.2,0.1,0.4,0.2,0.6,0.4
				s0.3,0.4,0.5,0.7s0.3,0.6,0.3,0.9C105.8,125.8,105.8,126.2,105.8,126.7z M104.8,126.8c0-0.6-0.1-1-0.2-1.3
				c-0.1-0.3-0.3-0.6-0.4-0.8c-0.2-0.2-0.4-0.3-0.6-0.4c-0.2-0.1-0.4-0.1-0.6-0.1c-0.3,0-0.6,0.1-0.9,0.2c-0.3,0.1-0.5,0.3-0.7,0.6
				v3.6c0.1,0.1,0.1,0.2,0.2,0.3c0.1,0.1,0.2,0.2,0.4,0.3c0.1,0.1,0.3,0.2,0.5,0.2c0.2,0.1,0.4,0.1,0.6,0.1c0.3,0,0.6-0.1,0.8-0.2
				c0.2-0.1,0.4-0.3,0.6-0.6c0.2-0.2,0.3-0.5,0.4-0.9C104.7,127.6,104.8,127.2,104.8,126.8z"/>
			<path class="st2" d="M117.8,126.7c0,0.6-0.1,1.2-0.2,1.7s-0.4,0.9-0.6,1.2c-0.3,0.3-0.6,0.5-0.9,0.7s-0.7,0.2-1,0.2
				c-0.3,0-0.5,0-0.7-0.1c-0.2-0.1-0.4-0.2-0.5-0.3c-0.1-0.1-0.3-0.2-0.3-0.3c-0.1-0.1-0.1-0.2-0.2-0.3h0l-0.2,0.8h-0.8v-10.6h1v4.3
				h0c0.2-0.3,0.5-0.5,0.8-0.6c0.3-0.1,0.6-0.2,1-0.2c0.2,0,0.4,0,0.6,0.1c0.2,0,0.4,0.1,0.6,0.2c0.2,0.1,0.4,0.2,0.6,0.4
				s0.3,0.4,0.5,0.7s0.3,0.6,0.3,0.9C117.8,125.8,117.8,126.2,117.8,126.7z M116.7,126.8c0-0.6-0.1-1-0.2-1.3
				c-0.1-0.3-0.3-0.6-0.4-0.8c-0.2-0.2-0.4-0.3-0.6-0.4c-0.2-0.1-0.4-0.1-0.6-0.1c-0.3,0-0.6,0.1-0.9,0.2c-0.3,0.1-0.5,0.3-0.7,0.6
				v3.6c0.1,0.1,0.1,0.2,0.2,0.3c0.1,0.1,0.2,0.2,0.4,0.3c0.1,0.1,0.3,0.2,0.5,0.2c0.2,0.1,0.4,0.1,0.6,0.1c0.3,0,0.6-0.1,0.8-0.2
				c0.2-0.1,0.4-0.3,0.6-0.6c0.2-0.2,0.3-0.5,0.4-0.9C116.7,127.6,116.7,127.2,116.7,126.8z"/>
			<path class="st2" d="M124.1,129.5L124.1,129.5c-0.1,0.1-0.2,0.2-0.3,0.3s-0.3,0.2-0.4,0.3s-0.3,0.2-0.5,0.2s-0.4,0.1-0.6,0.1
				c-0.3,0-0.6-0.1-0.8-0.1c-0.3-0.1-0.5-0.2-0.7-0.4c-0.2-0.2-0.3-0.4-0.4-0.7s-0.2-0.6-0.2-0.9c0-0.3,0.1-0.7,0.2-0.9
				c0.1-0.3,0.3-0.5,0.5-0.7s0.4-0.3,0.7-0.4c0.3-0.1,0.6-0.2,0.9-0.2c0.3,0,0.6,0,0.9,0.1s0.5,0.1,0.7,0.2h0v-0.5
				c0-0.2,0-0.4,0-0.5c0-0.1-0.1-0.3-0.1-0.4c-0.1-0.2-0.3-0.4-0.5-0.6c-0.3-0.2-0.6-0.2-1-0.2c-0.3,0-0.6,0-0.9,0.1
				c-0.3,0.1-0.6,0.2-0.8,0.3v-1c0.1-0.1,0.2-0.1,0.4-0.2c0.1-0.1,0.3-0.1,0.5-0.1c0.2,0,0.3-0.1,0.5-0.1s0.4,0,0.5,0
				c0.6,0,1.2,0.1,1.6,0.4c0.4,0.2,0.7,0.6,0.9,1c0.1,0.2,0.1,0.3,0.1,0.5c0,0.2,0,0.4,0,0.6v4.6h-0.9L124.1,129.5z M124,127.2
				c-0.2-0.1-0.4-0.1-0.7-0.2c-0.3-0.1-0.5-0.1-0.9-0.1c-0.4,0-0.8,0.1-1,0.3s-0.4,0.5-0.4,0.9c0,0.2,0,0.4,0.1,0.6
				c0.1,0.2,0.1,0.3,0.3,0.4s0.2,0.2,0.4,0.2c0.1,0.1,0.3,0.1,0.5,0.1c0.2,0,0.4,0,0.6-0.1s0.4-0.2,0.5-0.3s0.3-0.2,0.4-0.3
				c0.1-0.1,0.2-0.2,0.2-0.2V127.2z"/>
			<path class="st2" d="M128.8,125.2c0,0.2,0,0.3,0.1,0.5c0.1,0.1,0.2,0.2,0.3,0.3c0.1,0.1,0.3,0.1,0.4,0.2c0.2,0,0.3,0.1,0.5,0.1
				c0.2,0.1,0.5,0.1,0.7,0.2c0.2,0.1,0.4,0.2,0.6,0.3c0.2,0.1,0.3,0.3,0.4,0.6c0.1,0.2,0.2,0.6,0.2,0.9c0,0.4-0.1,0.7-0.2,0.9
				c-0.1,0.3-0.3,0.5-0.5,0.7c-0.2,0.2-0.5,0.3-0.8,0.4c-0.3,0.1-0.7,0.1-1,0.1c-0.2,0-0.4,0-0.6,0c-0.2,0-0.4-0.1-0.5-0.1
				c-0.1,0-0.3-0.1-0.4-0.1c-0.1,0-0.2-0.1-0.3-0.1v-1c0.3,0.1,0.5,0.2,0.8,0.3c0.3,0.1,0.5,0.1,0.8,0.1c0.2,0,0.5,0,0.7-0.1
				c0.2,0,0.4-0.1,0.5-0.2c0.1-0.1,0.2-0.2,0.3-0.4c0.1-0.1,0.1-0.3,0.1-0.5c0-0.2,0-0.4-0.1-0.5c-0.1-0.1-0.2-0.2-0.3-0.3
				c-0.1-0.1-0.3-0.2-0.4-0.2c-0.2-0.1-0.3-0.1-0.5-0.1c-0.2-0.1-0.4-0.1-0.7-0.2s-0.4-0.2-0.6-0.3s-0.3-0.3-0.4-0.5
				c-0.1-0.2-0.2-0.5-0.2-0.9c0-0.4,0.1-0.7,0.2-1s0.3-0.5,0.5-0.7s0.4-0.3,0.7-0.4s0.6-0.1,0.9-0.1c0.3,0,0.7,0,1,0.1
				c0.3,0.1,0.6,0.2,0.8,0.3v1c-0.3-0.1-0.5-0.2-0.8-0.3s-0.5-0.1-0.8-0.1c-0.2,0-0.4,0-0.6,0.1c-0.2,0.1-0.3,0.1-0.4,0.2
				c-0.1,0.1-0.2,0.2-0.2,0.3S128.8,125,128.8,125.2z"/>
			<path class="st2" d="M137.5,129.5c0.3,0,0.6,0,0.9-0.1c0.3-0.1,0.6-0.1,0.8-0.3v0.9c-0.2,0.1-0.5,0.2-0.8,0.3
				c-0.3,0.1-0.7,0.1-1.1,0.1c-0.4,0-0.9-0.1-1.3-0.2c-0.4-0.1-0.7-0.3-1-0.6s-0.5-0.7-0.7-1.1c-0.2-0.5-0.2-1-0.2-1.7
				c0-0.6,0.1-1.2,0.2-1.7s0.4-0.9,0.6-1.2s0.6-0.5,0.9-0.7c0.3-0.2,0.7-0.2,1.1-0.2c0.4,0,0.7,0.1,1,0.2c0.3,0.1,0.6,0.3,0.8,0.6
				c0.2,0.3,0.4,0.6,0.5,1.1s0.2,1,0.2,1.6c0,0.1,0,0.1,0,0.2s0,0.1,0,0.3h-4.3c0,0.4,0.1,0.8,0.2,1.1c0.1,0.3,0.3,0.6,0.5,0.8
				c0.2,0.2,0.5,0.3,0.7,0.4S137.2,129.5,137.5,129.5z M137,124.1c-0.2,0-0.5,0.1-0.7,0.2c-0.2,0.1-0.4,0.2-0.5,0.4
				c-0.2,0.2-0.3,0.4-0.4,0.6c-0.1,0.2-0.2,0.5-0.2,0.8h3.2c0-0.3,0-0.5-0.1-0.8c-0.1-0.2-0.2-0.4-0.3-0.6c-0.1-0.2-0.3-0.3-0.5-0.4
				S137.2,124.1,137,124.1z"/>
			<path class="st2" d="M141.9,126.9c0-0.5,0-0.9,0.1-1.3c0.1-0.4,0.2-0.7,0.3-1s0.3-0.5,0.5-0.7c0.2-0.2,0.4-0.3,0.6-0.5
				s0.4-0.2,0.6-0.3c0.2-0.1,0.4-0.1,0.6-0.1c0.4,0,0.7,0.1,1,0.2s0.5,0.3,0.8,0.6h0v-4.3h1v10.6h-0.8l-0.2-0.8h0
				c-0.1,0.1-0.2,0.2-0.3,0.3s-0.2,0.2-0.4,0.3c-0.1,0.1-0.3,0.2-0.5,0.2c-0.2,0.1-0.4,0.1-0.6,0.1c-0.3,0-0.7-0.1-1-0.2
				c-0.3-0.1-0.6-0.3-0.9-0.6c-0.3-0.3-0.5-0.7-0.6-1.1S141.9,127.6,141.9,126.9z M143,126.9c0,0.4,0,0.8,0.1,1.1
				c0.1,0.3,0.2,0.6,0.4,0.8c0.2,0.2,0.3,0.4,0.6,0.5c0.2,0.1,0.5,0.2,0.8,0.2c0.2,0,0.4,0,0.6-0.1c0.2-0.1,0.3-0.1,0.5-0.2
				c0.1-0.1,0.3-0.2,0.4-0.3c0.1-0.1,0.2-0.2,0.2-0.3v-3.6c-0.2-0.2-0.5-0.4-0.7-0.6c-0.3-0.1-0.6-0.2-0.9-0.2c-0.2,0-0.4,0-0.6,0.1
				c-0.2,0.1-0.4,0.2-0.6,0.4c-0.2,0.2-0.3,0.5-0.5,0.8C143,125.9,143,126.3,143,126.9z"/>
			<path class="st2" d="M159,130.3h-0.5l-2.2-5.9c-0.3-0.8-0.6-1.7-0.9-2.6h-0.1c0.1,1.4,0.1,2.6,0.1,3.7v4.7h-1.1v-9.8h1.5l2.1,5.5
				c0.2,0.6,0.5,1.4,0.8,2.3h0c0.3-1,0.6-1.8,0.8-2.3l2.1-5.5h1.5v9.8h-1.1v-4.7c0-1.1,0-2.4,0.1-3.7h-0.1c-0.3,1-0.6,1.9-0.9,2.6
				L159,130.3z"/>
			<path class="st2" d="M170,129.5L170,129.5c-0.1,0.1-0.2,0.2-0.3,0.3s-0.3,0.2-0.4,0.3s-0.3,0.2-0.5,0.2s-0.4,0.1-0.6,0.1
				c-0.3,0-0.6-0.1-0.8-0.1c-0.3-0.1-0.5-0.2-0.7-0.4c-0.2-0.2-0.3-0.4-0.4-0.7s-0.2-0.6-0.2-0.9c0-0.3,0.1-0.7,0.2-0.9
				c0.1-0.3,0.3-0.5,0.5-0.7s0.4-0.3,0.7-0.4c0.3-0.1,0.6-0.2,0.9-0.2c0.3,0,0.6,0,0.9,0.1s0.5,0.1,0.7,0.2h0v-0.5
				c0-0.2,0-0.4,0-0.5c0-0.1-0.1-0.3-0.1-0.4c-0.1-0.2-0.3-0.4-0.5-0.6c-0.3-0.2-0.6-0.2-1-0.2c-0.3,0-0.6,0-0.9,0.1
				c-0.3,0.1-0.6,0.2-0.8,0.3v-1c0.1-0.1,0.2-0.1,0.4-0.2c0.1-0.1,0.3-0.1,0.5-0.1c0.2,0,0.3-0.1,0.5-0.1s0.4,0,0.5,0
				c0.6,0,1.2,0.1,1.6,0.4c0.4,0.2,0.7,0.6,0.9,1c0.1,0.2,0.1,0.3,0.1,0.5c0,0.2,0,0.4,0,0.6v4.6h-0.9L170,129.5z M169.9,127.2
				c-0.2-0.1-0.4-0.1-0.7-0.2c-0.3-0.1-0.5-0.1-0.9-0.1c-0.4,0-0.8,0.1-1,0.3s-0.4,0.5-0.4,0.9c0,0.2,0,0.4,0.1,0.6
				c0.1,0.2,0.1,0.3,0.3,0.4s0.2,0.2,0.4,0.2c0.1,0.1,0.3,0.1,0.5,0.1c0.2,0,0.4,0,0.6-0.1s0.4-0.2,0.5-0.3s0.3-0.2,0.4-0.3
				c0.1-0.1,0.2-0.2,0.2-0.2V127.2z"/>
			<path class="st2" d="M177.4,124.3L177.4,124.3c-0.3,0-0.6,0-0.8,0.1s-0.5,0.1-0.7,0.2c-0.2,0.1-0.4,0.2-0.6,0.4
				c-0.2,0.1-0.3,0.3-0.4,0.5v4.8h-1v-7h0.8l0.2,1.1h0c0.1-0.2,0.2-0.3,0.4-0.5c0.1-0.2,0.3-0.3,0.5-0.4s0.4-0.2,0.6-0.3
				c0.2-0.1,0.5-0.1,0.7-0.1c0,0,0.1,0,0.1,0c0,0,0.1,0,0.1,0V124.3z"/>
			<path class="st2" d="M179.5,121.7v-1.3h1v1.3H179.5z M179.5,130.3v-7h1v7H179.5z"/>
			<path class="st2" d="M184.6,124.3L184.6,124.3c0.1-0.2,0.3-0.3,0.4-0.5c0.1-0.1,0.3-0.3,0.5-0.4c0.2-0.1,0.4-0.2,0.6-0.2
				c0.2-0.1,0.4-0.1,0.7-0.1c0.3,0,0.6,0,0.8,0.1s0.5,0.2,0.7,0.4s0.3,0.5,0.4,0.8c0.1,0.3,0.2,0.7,0.2,1.2v4.7h-1v-4.5
				c0-0.6-0.1-1-0.3-1.3c-0.2-0.3-0.5-0.4-0.9-0.4c-0.4,0-0.7,0.1-1,0.3s-0.6,0.5-0.9,0.9v4.9h-1v-7h0.8L184.6,124.3z"/>
			<path class="st2" d="M194.7,129.5c0.3,0,0.6,0,0.9-0.1c0.3-0.1,0.6-0.1,0.8-0.3v0.9c-0.2,0.1-0.5,0.2-0.8,0.3
				c-0.3,0.1-0.7,0.1-1.1,0.1c-0.4,0-0.9-0.1-1.3-0.2c-0.4-0.1-0.7-0.3-1-0.6s-0.5-0.7-0.7-1.1c-0.2-0.5-0.2-1-0.2-1.7
				c0-0.6,0.1-1.2,0.2-1.7s0.4-0.9,0.6-1.2s0.6-0.5,0.9-0.7c0.3-0.2,0.7-0.2,1.1-0.2c0.4,0,0.7,0.1,1,0.2c0.3,0.1,0.6,0.3,0.8,0.6
				c0.2,0.3,0.4,0.6,0.5,1.1s0.2,1,0.2,1.6c0,0.1,0,0.1,0,0.2s0,0.1,0,0.3h-4.3c0,0.4,0.1,0.8,0.2,1.1c0.1,0.3,0.3,0.6,0.5,0.8
				c0.2,0.2,0.5,0.3,0.7,0.4S194.4,129.5,194.7,129.5z M194.2,124.1c-0.2,0-0.5,0.1-0.7,0.2c-0.2,0.1-0.4,0.2-0.5,0.4
				c-0.2,0.2-0.3,0.4-0.4,0.6c-0.1,0.2-0.2,0.5-0.2,0.8h3.2c0-0.3,0-0.5-0.1-0.8c-0.1-0.2-0.2-0.4-0.3-0.6c-0.1-0.2-0.3-0.3-0.5-0.4
				S194.4,124.1,194.2,124.1z"/>
		</g>
		<g class="st1">
			<path class="st2" d="M204.4,130.3h-1.1v-9.8h2.4c0.4,0,0.7,0,1,0.1s0.6,0.1,0.9,0.2c0.5,0.2,0.9,0.5,1.2,0.9
				c0.3,0.4,0.4,0.9,0.4,1.5c0,0.5-0.1,0.9-0.3,1.3c-0.2,0.4-0.4,0.7-0.8,0.9s-0.7,0.4-1.2,0.6c-0.5,0.1-1,0.2-1.6,0.2
				c-0.3,0-0.6,0-0.9,0V130.3z M204.4,125.2c0.1,0,0.3,0,0.5,0s0.3,0,0.4,0c0.5,0,0.9,0,1.3-0.1s0.6-0.2,0.9-0.4
				c0.2-0.2,0.4-0.4,0.5-0.6c0.1-0.2,0.2-0.5,0.2-0.8c0-0.4-0.1-0.7-0.2-0.9c-0.2-0.2-0.4-0.4-0.7-0.6c-0.2-0.1-0.4-0.1-0.7-0.2
				c-0.2,0-0.5,0-0.9,0h-1.2V125.2z"/>
		</g>
		<g class="st1">
			<path class="st2" d="M216.9,126.8c0,0.5-0.1,1-0.2,1.5c-0.1,0.4-0.3,0.8-0.6,1.2c-0.3,0.3-0.6,0.6-0.9,0.7
				c-0.4,0.2-0.8,0.3-1.2,0.3c-0.5,0-0.9-0.1-1.2-0.3c-0.4-0.2-0.7-0.4-0.9-0.7c-0.3-0.3-0.5-0.7-0.6-1.2s-0.2-0.9-0.2-1.5
				c0-0.6,0.1-1.1,0.2-1.5s0.3-0.8,0.6-1.2c0.3-0.3,0.6-0.6,0.9-0.7c0.4-0.2,0.8-0.3,1.2-0.3c0.5,0,0.9,0.1,1.2,0.3s0.7,0.4,0.9,0.7
				c0.3,0.3,0.5,0.7,0.6,1.2S216.9,126.3,216.9,126.8z M215.8,126.8c0-0.4,0-0.8-0.1-1.1c-0.1-0.3-0.2-0.6-0.4-0.8
				c-0.2-0.2-0.4-0.4-0.6-0.5c-0.2-0.1-0.5-0.2-0.8-0.2s-0.5,0.1-0.8,0.2c-0.2,0.1-0.4,0.3-0.6,0.5c-0.2,0.2-0.3,0.5-0.4,0.8
				c-0.1,0.3-0.1,0.7-0.1,1.1c0,0.4,0,0.8,0.1,1.1c0.1,0.3,0.2,0.6,0.4,0.8c0.2,0.2,0.4,0.4,0.6,0.5s0.5,0.2,0.8,0.2
				c0.3,0,0.5-0.1,0.8-0.2c0.2-0.1,0.4-0.3,0.6-0.5c0.2-0.2,0.3-0.5,0.4-0.8C215.8,127.6,215.8,127.2,215.8,126.8z"/>
			<path class="st2" d="M219.6,130.3v-10.6h1v10.6H219.6z"/>
			<path class="st2" d="M223.7,121.7v-1.3h1v1.3H223.7z M223.7,130.3v-7h1v7H223.7z"/>
			<path class="st2" d="M230.5,123.2c0.3,0,0.6,0,0.9,0.1c0.3,0.1,0.5,0.2,0.7,0.3v0.9c-0.3-0.1-0.5-0.2-0.8-0.3s-0.5-0.1-0.7-0.1
				c-0.3,0-0.5,0-0.8,0.1c-0.3,0.1-0.5,0.2-0.7,0.5c-0.2,0.2-0.4,0.5-0.5,0.8c-0.1,0.3-0.2,0.8-0.2,1.3c0,0.4,0,0.7,0.1,1
				c0.1,0.3,0.2,0.6,0.4,0.8c0.2,0.2,0.4,0.4,0.7,0.5c0.3,0.1,0.6,0.2,0.9,0.2c0.3,0,0.5,0,0.8-0.1c0.3-0.1,0.5-0.1,0.8-0.3v0.9
				c-0.1,0-0.2,0.1-0.3,0.1c-0.1,0-0.3,0.1-0.4,0.1c-0.1,0-0.3,0.1-0.5,0.1c-0.2,0-0.3,0-0.5,0c-0.4,0-0.8-0.1-1.2-0.2
				c-0.4-0.1-0.7-0.4-1-0.7c-0.3-0.3-0.5-0.7-0.7-1.1s-0.2-1-0.2-1.6c0-0.5,0-0.9,0.1-1.2c0.1-0.4,0.2-0.7,0.4-1s0.3-0.5,0.5-0.7
				c0.2-0.2,0.4-0.4,0.6-0.5c0.2-0.1,0.5-0.2,0.7-0.3S230.3,123.2,230.5,123.2z"/>
			<path class="st2" d="M233.9,123.3h1l1.9,5.5h0l2-5.5h1l-3.9,10.4h-1l1.3-3.5L233.9,123.3z"/>
		</g>
		<g class="st1">
		</g>
		<g class="st1">
			<path class="st2" d="M244.6,130.3l3.6-9.8h0.9l3.6,9.8h-1.2l-1.1-3h-3.7l-1.1,3H244.6z M248.6,122c-0.4,1.2-0.8,2.3-1.1,3.3
				l-0.3,0.9h2.9l-0.3-0.9C249.4,124.3,249,123.2,248.6,122L248.6,122z"/>
			<path class="st2" d="M254.6,126.9c0-0.5,0-0.9,0.1-1.3c0.1-0.4,0.2-0.7,0.3-1s0.3-0.5,0.5-0.7c0.2-0.2,0.4-0.3,0.6-0.5
				s0.4-0.2,0.6-0.3c0.2-0.1,0.4-0.1,0.6-0.1c0.4,0,0.7,0.1,1,0.2s0.5,0.3,0.8,0.6h0v-4.3h1v10.6h-0.8l-0.2-0.8h0
				c-0.1,0.1-0.2,0.2-0.3,0.3s-0.2,0.2-0.4,0.3c-0.1,0.1-0.3,0.2-0.5,0.2c-0.2,0.1-0.4,0.1-0.6,0.1c-0.3,0-0.7-0.1-1-0.2
				c-0.3-0.1-0.6-0.3-0.9-0.6c-0.3-0.3-0.5-0.7-0.6-1.1S254.6,127.6,254.6,126.9z M255.6,126.9c0,0.4,0,0.8,0.1,1.1
				c0.1,0.3,0.2,0.6,0.4,0.8c0.2,0.2,0.3,0.4,0.6,0.5c0.2,0.1,0.5,0.2,0.8,0.2c0.2,0,0.4,0,0.6-0.1c0.2-0.1,0.3-0.1,0.5-0.2
				c0.1-0.1,0.3-0.2,0.4-0.3c0.1-0.1,0.2-0.2,0.2-0.3v-3.6c-0.2-0.2-0.5-0.4-0.7-0.6c-0.3-0.1-0.6-0.2-0.9-0.2c-0.2,0-0.4,0-0.6,0.1
				c-0.2,0.1-0.4,0.2-0.6,0.4c-0.2,0.2-0.3,0.5-0.5,0.8C255.7,125.9,255.6,126.3,255.6,126.9z"/>
			<path class="st2" d="M268.3,130.3h-1v-4.5c0-0.3,0-0.6-0.1-0.8c-0.1-0.2-0.1-0.4-0.3-0.5c-0.1-0.1-0.2-0.2-0.4-0.3
				c-0.2-0.1-0.3-0.1-0.5-0.1c-0.4,0-0.7,0.1-1,0.3s-0.6,0.5-0.8,0.9v4.9h-1v-7h0.8l0.2,1h0c0.1-0.2,0.2-0.3,0.4-0.5
				c0.1-0.1,0.3-0.3,0.4-0.4c0.2-0.1,0.3-0.2,0.5-0.2s0.4-0.1,0.6-0.1c0.5,0,0.9,0.1,1.2,0.4s0.5,0.6,0.7,1h0c0.3-0.4,0.6-0.8,1-1
				c0.4-0.2,0.8-0.4,1.2-0.4c0.2,0,0.5,0,0.7,0.1c0.2,0.1,0.5,0.2,0.7,0.4c0.2,0.2,0.4,0.4,0.5,0.8c0.1,0.3,0.2,0.7,0.2,1.2v4.7h-1
				v-4.5c0-0.3,0-0.6-0.1-0.8c-0.1-0.2-0.1-0.4-0.3-0.5c-0.1-0.1-0.2-0.2-0.4-0.3c-0.2-0.1-0.3-0.1-0.5-0.1c-0.4,0-0.7,0.1-1,0.3
				c-0.3,0.2-0.6,0.5-0.8,0.9V130.3z"/>
			<path class="st2" d="M275.4,121.7v-1.3h1v1.3H275.4z M275.4,130.3v-7h1v7H275.4z"/>
			<path class="st2" d="M280.5,124.3L280.5,124.3c0.1-0.2,0.3-0.3,0.4-0.5c0.1-0.1,0.3-0.3,0.5-0.4c0.2-0.1,0.4-0.2,0.6-0.2
				c0.2-0.1,0.4-0.1,0.7-0.1c0.3,0,0.6,0,0.8,0.1s0.5,0.2,0.7,0.4s0.3,0.5,0.4,0.8c0.1,0.3,0.2,0.7,0.2,1.2v4.7h-1v-4.5
				c0-0.6-0.1-1-0.3-1.3c-0.2-0.3-0.5-0.4-0.9-0.4c-0.4,0-0.7,0.1-1,0.3s-0.6,0.5-0.9,0.9v4.9h-1v-7h0.8L280.5,124.3z"/>
			<path class="st2" d="M295.1,124.5c-0.1,0.6-0.3,1.2-0.4,1.7l-1,4.2h-1l-2-7h1l1.2,4.3c0.2,0.6,0.3,1,0.4,1.4h0
				c0.1-0.4,0.2-0.9,0.3-1.5l1-4.2h1l1.1,4.2c0.2,0.6,0.3,1.1,0.4,1.5h0c0.1-0.4,0.2-0.9,0.4-1.4l1.2-4.3h1l-2.1,7h-1.1l-1-4.2
				C295.4,125.6,295.3,125.1,295.1,124.5L295.1,124.5z"/>
			<path class="st2" d="M303.1,124.3L303.1,124.3c0.1-0.2,0.3-0.3,0.4-0.5c0.1-0.1,0.3-0.3,0.5-0.4c0.2-0.1,0.4-0.2,0.6-0.2
				c0.2-0.1,0.4-0.1,0.6-0.1c0.2,0,0.5,0,0.7,0.1c0.2,0.1,0.5,0.2,0.7,0.4s0.4,0.4,0.5,0.8s0.2,0.7,0.2,1.2v4.7h-1v-4.5
				c0-0.6-0.1-1-0.3-1.3c-0.2-0.3-0.5-0.4-0.9-0.4c-0.4,0-0.7,0.1-1,0.3s-0.6,0.5-0.8,0.9v4.9h-1v-10.6h1V124.3z"/>
			<path class="st2" d="M310.2,121.7v-1.3h1v1.3H310.2z M310.3,130.3v-7h1v7H310.3z"/>
			<path class="st2" d="M317,123.2c0.3,0,0.6,0,0.9,0.1c0.3,0.1,0.5,0.2,0.7,0.3v0.9c-0.3-0.1-0.5-0.2-0.8-0.3s-0.5-0.1-0.7-0.1
				c-0.3,0-0.5,0-0.8,0.1c-0.3,0.1-0.5,0.2-0.7,0.5c-0.2,0.2-0.4,0.5-0.5,0.8c-0.1,0.3-0.2,0.8-0.2,1.3c0,0.4,0,0.7,0.1,1
				c0.1,0.3,0.2,0.6,0.4,0.8c0.2,0.2,0.4,0.4,0.7,0.5c0.3,0.1,0.6,0.2,0.9,0.2c0.3,0,0.5,0,0.8-0.1c0.3-0.1,0.5-0.1,0.8-0.3v0.9
				c-0.1,0-0.2,0.1-0.3,0.1c-0.1,0-0.3,0.1-0.4,0.1c-0.1,0-0.3,0.1-0.5,0.1c-0.2,0-0.3,0-0.5,0c-0.4,0-0.8-0.1-1.2-0.2
				c-0.4-0.1-0.7-0.4-1-0.7c-0.3-0.3-0.5-0.7-0.7-1.1s-0.2-1-0.2-1.6c0-0.5,0-0.9,0.1-1.2c0.1-0.4,0.2-0.7,0.4-1s0.3-0.5,0.5-0.7
				c0.2-0.2,0.4-0.4,0.6-0.5c0.2-0.1,0.5-0.2,0.7-0.3S316.8,123.2,317,123.2z"/>
			<path class="st2" d="M322.4,124.3L322.4,124.3c0.1-0.2,0.3-0.3,0.4-0.5c0.1-0.1,0.3-0.3,0.5-0.4c0.2-0.1,0.4-0.2,0.6-0.2
				c0.2-0.1,0.4-0.1,0.6-0.1c0.2,0,0.5,0,0.7,0.1c0.2,0.1,0.5,0.2,0.7,0.4s0.4,0.4,0.5,0.8s0.2,0.7,0.2,1.2v4.7h-1v-4.5
				c0-0.6-0.1-1-0.3-1.3c-0.2-0.3-0.5-0.4-0.9-0.4c-0.4,0-0.7,0.1-1,0.3s-0.6,0.5-0.8,0.9v4.9h-1v-10.6h1V124.3z"/>
			<path class="st2" d="M335.9,123.2c0.3,0,0.6,0,0.9,0.1c0.3,0.1,0.5,0.2,0.7,0.3v0.9c-0.3-0.1-0.5-0.2-0.8-0.3
				c-0.2-0.1-0.5-0.1-0.7-0.1c-0.3,0-0.5,0-0.8,0.1c-0.3,0.1-0.5,0.2-0.7,0.5c-0.2,0.2-0.4,0.5-0.5,0.8c-0.1,0.3-0.2,0.8-0.2,1.3
				c0,0.4,0,0.7,0.1,1c0.1,0.3,0.2,0.6,0.4,0.8c0.2,0.2,0.4,0.4,0.7,0.5c0.3,0.1,0.6,0.2,0.9,0.2c0.3,0,0.5,0,0.8-0.1
				c0.3-0.1,0.5-0.1,0.8-0.3v0.9c-0.1,0-0.2,0.1-0.3,0.1c-0.1,0-0.3,0.1-0.4,0.1c-0.1,0-0.3,0.1-0.5,0.1c-0.2,0-0.3,0-0.5,0
				c-0.4,0-0.8-0.1-1.2-0.2c-0.4-0.1-0.7-0.4-1-0.7c-0.3-0.3-0.5-0.7-0.7-1.1s-0.2-1-0.2-1.6c0-0.5,0-0.9,0.1-1.2
				c0.1-0.4,0.2-0.7,0.4-1s0.3-0.5,0.5-0.7c0.2-0.2,0.4-0.4,0.6-0.5c0.2-0.1,0.5-0.2,0.7-0.3S335.6,123.2,335.9,123.2z"/>
			<path class="st2" d="M345.7,126.8c0,0.5-0.1,1-0.2,1.5s-0.3,0.8-0.6,1.2c-0.3,0.3-0.6,0.6-0.9,0.7c-0.4,0.2-0.8,0.3-1.2,0.3
				c-0.5,0-0.9-0.1-1.2-0.3c-0.4-0.2-0.7-0.4-0.9-0.7c-0.3-0.3-0.5-0.7-0.6-1.2c-0.1-0.4-0.2-0.9-0.2-1.5c0-0.6,0.1-1.1,0.2-1.5
				s0.3-0.8,0.6-1.2c0.3-0.3,0.6-0.6,0.9-0.7c0.4-0.2,0.8-0.3,1.2-0.3c0.5,0,0.9,0.1,1.2,0.3s0.7,0.4,0.9,0.7
				c0.3,0.3,0.5,0.7,0.6,1.2C345.6,125.8,345.7,126.3,345.7,126.8z M344.6,126.8c0-0.4,0-0.8-0.1-1.1c-0.1-0.3-0.2-0.6-0.4-0.8
				c-0.2-0.2-0.4-0.4-0.6-0.5c-0.2-0.1-0.5-0.2-0.8-0.2c-0.3,0-0.5,0.1-0.8,0.2c-0.2,0.1-0.4,0.3-0.6,0.5c-0.2,0.2-0.3,0.5-0.4,0.8
				c-0.1,0.3-0.1,0.7-0.1,1.1c0,0.4,0,0.8,0.1,1.1c0.1,0.3,0.2,0.6,0.4,0.8c0.2,0.2,0.4,0.4,0.6,0.5s0.5,0.2,0.8,0.2
				c0.3,0,0.5-0.1,0.8-0.2s0.4-0.3,0.6-0.5c0.2-0.2,0.3-0.5,0.4-0.8C344.6,127.6,344.6,127.2,344.6,126.8z"/>
			<path class="st2" d="M350.4,129.1c0.2-0.5,0.4-1.2,0.6-1.9l1.3-3.9h1l-2.4,7h-1.1l-2.4-7h1l1.2,3.9
				C350,128,350.2,128.6,350.4,129.1L350.4,129.1z"/>
			<path class="st2" d="M358.5,129.5c0.3,0,0.6,0,0.9-0.1c0.3-0.1,0.6-0.1,0.8-0.3v0.9c-0.2,0.1-0.5,0.2-0.8,0.3
				c-0.3,0.1-0.7,0.1-1.1,0.1c-0.4,0-0.9-0.1-1.3-0.2s-0.7-0.3-1-0.6s-0.5-0.7-0.7-1.1c-0.2-0.5-0.2-1-0.2-1.7
				c0-0.6,0.1-1.2,0.2-1.7c0.2-0.5,0.4-0.9,0.6-1.2s0.6-0.5,0.9-0.7c0.3-0.2,0.7-0.2,1.1-0.2c0.4,0,0.7,0.1,1,0.2
				c0.3,0.1,0.6,0.3,0.8,0.6s0.4,0.6,0.5,1.1s0.2,1,0.2,1.6c0,0.1,0,0.1,0,0.2s0,0.1,0,0.3h-4.3c0,0.4,0.1,0.8,0.2,1.1
				c0.1,0.3,0.3,0.6,0.5,0.8c0.2,0.2,0.5,0.3,0.7,0.4S358.2,129.5,358.5,129.5z M358,124.1c-0.2,0-0.5,0.1-0.7,0.2
				c-0.2,0.1-0.4,0.2-0.5,0.4c-0.2,0.2-0.3,0.4-0.4,0.6s-0.2,0.5-0.2,0.8h3.2c0-0.3,0-0.5-0.1-0.8c-0.1-0.2-0.2-0.4-0.3-0.6
				s-0.3-0.3-0.5-0.4S358.2,124.1,358,124.1z"/>
			<path class="st2" d="M366.7,124.3L366.7,124.3c-0.3,0-0.6,0-0.8,0.1c-0.2,0-0.5,0.1-0.7,0.2s-0.4,0.2-0.6,0.4
				c-0.2,0.1-0.3,0.3-0.4,0.5v4.8h-1v-7h0.8l0.2,1.1h0c0.1-0.2,0.2-0.3,0.4-0.5c0.1-0.2,0.3-0.3,0.5-0.4c0.2-0.1,0.4-0.2,0.6-0.3
				c0.2-0.1,0.5-0.1,0.7-0.1c0,0,0.1,0,0.1,0c0,0,0.1,0,0.1,0V124.3z"/>
			<path class="st2" d="M369.6,125.2c0,0.2,0,0.3,0.1,0.5c0.1,0.1,0.2,0.2,0.3,0.3c0.1,0.1,0.3,0.1,0.4,0.2c0.2,0,0.3,0.1,0.5,0.1
				c0.2,0.1,0.5,0.1,0.7,0.2c0.2,0.1,0.4,0.2,0.6,0.3c0.2,0.1,0.3,0.3,0.4,0.6c0.1,0.2,0.2,0.6,0.2,0.9c0,0.4-0.1,0.7-0.2,0.9
				c-0.1,0.3-0.3,0.5-0.5,0.7c-0.2,0.2-0.5,0.3-0.8,0.4c-0.3,0.1-0.7,0.1-1,0.1c-0.2,0-0.4,0-0.6,0s-0.4-0.1-0.5-0.1
				c-0.1,0-0.3-0.1-0.4-0.1s-0.2-0.1-0.3-0.1v-1c0.3,0.1,0.5,0.2,0.8,0.3c0.3,0.1,0.5,0.1,0.8,0.1c0.2,0,0.5,0,0.7-0.1
				s0.4-0.1,0.5-0.2c0.1-0.1,0.2-0.2,0.3-0.4c0.1-0.1,0.1-0.3,0.1-0.5c0-0.2,0-0.4-0.1-0.5c-0.1-0.1-0.2-0.2-0.3-0.3
				c-0.1-0.1-0.3-0.2-0.4-0.2s-0.3-0.1-0.5-0.1c-0.2-0.1-0.4-0.1-0.7-0.2s-0.4-0.2-0.6-0.3s-0.3-0.3-0.5-0.5
				c-0.1-0.2-0.2-0.5-0.2-0.9c0-0.4,0.1-0.7,0.2-1s0.3-0.5,0.5-0.7c0.2-0.2,0.4-0.3,0.7-0.4s0.6-0.1,0.8-0.1c0.3,0,0.7,0,1,0.1
				s0.6,0.2,0.8,0.3v1c-0.3-0.1-0.5-0.2-0.8-0.3s-0.5-0.1-0.8-0.1c-0.2,0-0.4,0-0.6,0.1c-0.2,0.1-0.3,0.1-0.4,0.2
				c-0.1,0.1-0.2,0.2-0.2,0.3S369.6,125,369.6,125.2z"/>
			<path class="st2" d="M379.8,125.2c0,0.2,0,0.3,0.1,0.5c0.1,0.1,0.2,0.2,0.3,0.3c0.1,0.1,0.3,0.1,0.4,0.2c0.2,0,0.3,0.1,0.5,0.1
				c0.2,0.1,0.5,0.1,0.7,0.2c0.2,0.1,0.4,0.2,0.6,0.3c0.2,0.1,0.3,0.3,0.4,0.6c0.1,0.2,0.2,0.6,0.2,0.9c0,0.4-0.1,0.7-0.2,0.9
				c-0.1,0.3-0.3,0.5-0.5,0.7c-0.2,0.2-0.5,0.3-0.8,0.4c-0.3,0.1-0.7,0.1-1,0.1c-0.2,0-0.4,0-0.6,0s-0.4-0.1-0.5-0.1
				c-0.1,0-0.3-0.1-0.4-0.1s-0.2-0.1-0.3-0.1v-1c0.3,0.1,0.5,0.2,0.8,0.3c0.3,0.1,0.5,0.1,0.8,0.1c0.2,0,0.5,0,0.7-0.1
				s0.4-0.1,0.5-0.2c0.1-0.1,0.2-0.2,0.3-0.4c0.1-0.1,0.1-0.3,0.1-0.5c0-0.2,0-0.4-0.1-0.5c-0.1-0.1-0.2-0.2-0.3-0.3
				c-0.1-0.1-0.3-0.2-0.4-0.2s-0.3-0.1-0.5-0.1c-0.2-0.1-0.4-0.1-0.7-0.2s-0.4-0.2-0.6-0.3s-0.3-0.3-0.5-0.5
				c-0.1-0.2-0.2-0.5-0.2-0.9c0-0.4,0.1-0.7,0.2-1s0.3-0.5,0.5-0.7c0.2-0.2,0.4-0.3,0.7-0.4s0.6-0.1,0.8-0.1c0.3,0,0.7,0,1,0.1
				s0.6,0.2,0.8,0.3v1c-0.3-0.1-0.5-0.2-0.8-0.3s-0.5-0.1-0.8-0.1c-0.2,0-0.4,0-0.6,0.1c-0.2,0.1-0.3,0.1-0.4,0.2
				c-0.1,0.1-0.2,0.2-0.2,0.3S379.8,125,379.8,125.2z"/>
			<path class="st2" d="M385.5,121.7v-1.3h1v1.3H385.5z M385.6,130.3v-7h1v7H385.6z"/>
			<path class="st2" d="M390.6,124.3L390.6,124.3c0.1-0.2,0.3-0.3,0.4-0.5c0.1-0.1,0.3-0.3,0.5-0.4c0.2-0.1,0.4-0.2,0.6-0.2
				c0.2-0.1,0.4-0.1,0.7-0.1c0.3,0,0.6,0,0.8,0.1c0.3,0.1,0.5,0.2,0.7,0.4c0.2,0.2,0.3,0.5,0.4,0.8c0.1,0.3,0.2,0.7,0.2,1.2v4.7h-1
				v-4.5c0-0.6-0.1-1-0.3-1.3s-0.5-0.4-0.9-0.4c-0.4,0-0.7,0.1-1,0.3s-0.6,0.5-0.9,0.9v4.9h-1v-7h0.8L390.6,124.3z"/>
			<path class="st2" d="M400.2,123.2c0.3,0,0.5,0,0.7,0.1s0.4,0.2,0.5,0.3c0.1,0.1,0.3,0.2,0.3,0.3s0.1,0.2,0.2,0.3h0l0.2-0.8h0.8
				v7.4c0,0.5-0.1,1-0.2,1.4s-0.4,0.7-0.7,1c-0.3,0.3-0.6,0.5-1,0.6s-0.8,0.2-1.3,0.2c-0.4,0-0.8,0-1.1-0.1
				c-0.3-0.1-0.6-0.2-0.8-0.3v-1c0.1,0.1,0.3,0.1,0.4,0.2c0.1,0,0.3,0.1,0.4,0.1c0.1,0,0.3,0.1,0.5,0.1s0.3,0,0.5,0
				c0.7,0,1.3-0.2,1.7-0.6s0.6-1,0.6-1.7v-0.9h0c-0.2,0.3-0.5,0.5-0.8,0.6c-0.3,0.1-0.6,0.2-1,0.2c-0.2,0-0.4,0-0.6-0.1
				c-0.2,0-0.4-0.1-0.6-0.2c-0.2-0.1-0.4-0.2-0.6-0.4c-0.2-0.2-0.3-0.4-0.5-0.7c-0.1-0.3-0.3-0.6-0.3-0.9c-0.1-0.4-0.1-0.8-0.1-1.2
				c0-0.6,0.1-1.2,0.2-1.7c0.2-0.5,0.4-0.9,0.6-1.2s0.6-0.5,0.9-0.7C399.5,123.2,399.8,123.2,400.2,123.2z M398.5,126.9
				c0,0.5,0.1,1,0.2,1.3c0.1,0.3,0.3,0.6,0.5,0.8c0.2,0.2,0.4,0.3,0.6,0.4c0.2,0.1,0.4,0.1,0.6,0.1c0.3,0,0.6-0.1,0.9-0.2
				s0.5-0.3,0.7-0.6v-3.6c-0.1-0.1-0.1-0.2-0.2-0.3s-0.2-0.2-0.4-0.3c-0.1-0.1-0.3-0.2-0.5-0.2c-0.2-0.1-0.4-0.1-0.6-0.1
				c-0.3,0-0.6,0.1-0.8,0.2c-0.2,0.1-0.4,0.3-0.6,0.6s-0.3,0.5-0.4,0.9C398.5,126.1,398.5,126.5,398.5,126.9z"/>
			<path class="st2" d="M406,130.3v-10.6h1v10.6H406z"/>
			<path class="st2" d="M413.1,129.5c0.3,0,0.6,0,0.9-0.1c0.3-0.1,0.6-0.1,0.8-0.3v0.9c-0.2,0.1-0.5,0.2-0.8,0.3
				c-0.3,0.1-0.7,0.1-1.1,0.1c-0.4,0-0.9-0.1-1.3-0.2c-0.4-0.1-0.7-0.3-1-0.6c-0.3-0.3-0.5-0.7-0.7-1.1c-0.2-0.5-0.2-1-0.2-1.7
				c0-0.6,0.1-1.2,0.2-1.7s0.4-0.9,0.6-1.2c0.3-0.3,0.6-0.5,0.9-0.7c0.3-0.2,0.7-0.2,1.1-0.2c0.4,0,0.7,0.1,1,0.2
				c0.3,0.1,0.6,0.3,0.8,0.6c0.2,0.3,0.4,0.6,0.5,1.1c0.1,0.4,0.2,1,0.2,1.6c0,0.1,0,0.1,0,0.2s0,0.1,0,0.3h-4.3
				c0,0.4,0.1,0.8,0.2,1.1c0.1,0.3,0.3,0.6,0.5,0.8s0.5,0.3,0.7,0.4S412.7,129.5,413.1,129.5z M412.5,124.1c-0.2,0-0.5,0.1-0.7,0.2
				s-0.4,0.2-0.5,0.4c-0.2,0.2-0.3,0.4-0.4,0.6s-0.2,0.5-0.2,0.8h3.2c0-0.3,0-0.5-0.1-0.8c-0.1-0.2-0.2-0.4-0.3-0.6
				c-0.1-0.2-0.3-0.3-0.5-0.4C413,124.2,412.8,124.1,412.5,124.1z"/>
			<path class="st2" d="M424.8,130.3c-0.1,0-0.2,0.1-0.4,0.1c-0.2,0-0.4,0.1-0.6,0.1c-0.3,0-0.6,0-0.9-0.1c-0.2-0.1-0.4-0.2-0.6-0.4
				c-0.2-0.2-0.3-0.4-0.4-0.6s-0.1-0.5-0.1-0.8v-4.2h-1.2v-1h1.2v-1.9h1v1.9h1.9v1h-1.9v4.1c0,0.2,0,0.3,0.1,0.4
				c0,0.1,0.1,0.3,0.2,0.4s0.2,0.2,0.3,0.2c0.1,0.1,0.3,0.1,0.5,0.1c0.1,0,0.3,0,0.4,0c0.2,0,0.3-0.1,0.4-0.1V130.3z"/>
			<path class="st2" d="M430.7,124.3L430.7,124.3c-0.3,0-0.6,0-0.8,0.1s-0.5,0.1-0.7,0.2c-0.2,0.1-0.4,0.2-0.6,0.4
				c-0.2,0.1-0.3,0.3-0.4,0.5v4.8h-1v-7h0.8l0.2,1.1h0c0.1-0.2,0.2-0.3,0.4-0.5c0.1-0.2,0.3-0.3,0.5-0.4s0.4-0.2,0.6-0.3
				c0.2-0.1,0.5-0.1,0.7-0.1c0,0,0.1,0,0.1,0c0,0,0.1,0,0.1,0V124.3z"/>
			<path class="st2" d="M436.4,129.5L436.4,129.5c-0.1,0.1-0.2,0.2-0.3,0.3c-0.1,0.1-0.3,0.2-0.4,0.3s-0.3,0.2-0.5,0.2
				s-0.4,0.1-0.6,0.1c-0.3,0-0.6-0.1-0.8-0.1c-0.3-0.1-0.5-0.2-0.7-0.4c-0.2-0.2-0.3-0.4-0.4-0.7c-0.1-0.3-0.2-0.6-0.2-0.9
				c0-0.3,0.1-0.7,0.2-0.9c0.1-0.3,0.3-0.5,0.5-0.7s0.4-0.3,0.7-0.4s0.6-0.2,0.9-0.2c0.3,0,0.6,0,0.9,0.1c0.3,0.1,0.5,0.1,0.7,0.2h0
				v-0.5c0-0.2,0-0.4,0-0.5c0-0.1-0.1-0.3-0.1-0.4c-0.1-0.2-0.3-0.4-0.5-0.6c-0.3-0.2-0.6-0.2-1-0.2c-0.3,0-0.6,0-0.9,0.1
				c-0.3,0.1-0.6,0.2-0.8,0.3v-1c0.1-0.1,0.2-0.1,0.4-0.2c0.1-0.1,0.3-0.1,0.5-0.1c0.2,0,0.3-0.1,0.5-0.1s0.4,0,0.5,0
				c0.6,0,1.2,0.1,1.6,0.4c0.4,0.2,0.7,0.6,0.9,1c0.1,0.2,0.1,0.3,0.1,0.5c0,0.2,0,0.4,0,0.6v4.6h-0.9L436.4,129.5z M436.4,127.2
				c-0.2-0.1-0.4-0.1-0.7-0.2s-0.5-0.1-0.9-0.1c-0.4,0-0.8,0.1-1,0.3s-0.4,0.5-0.4,0.9c0,0.2,0,0.4,0.1,0.6s0.1,0.3,0.3,0.4
				c0.1,0.1,0.2,0.2,0.4,0.2c0.1,0.1,0.3,0.1,0.5,0.1c0.2,0,0.4,0,0.6-0.1c0.2-0.1,0.4-0.2,0.5-0.3s0.3-0.2,0.4-0.3
				c0.1-0.1,0.2-0.2,0.2-0.2V127.2z"/>
			<path class="st2" d="M441.4,124.3L441.4,124.3c0.1-0.2,0.3-0.3,0.4-0.5c0.1-0.1,0.3-0.3,0.5-0.4c0.2-0.1,0.4-0.2,0.6-0.2
				c0.2-0.1,0.4-0.1,0.7-0.1c0.3,0,0.6,0,0.8,0.1s0.5,0.2,0.7,0.4s0.3,0.5,0.4,0.8c0.1,0.3,0.2,0.7,0.2,1.2v4.7h-1v-4.5
				c0-0.6-0.1-1-0.3-1.3s-0.5-0.4-0.9-0.4c-0.4,0-0.7,0.1-1,0.3c-0.3,0.2-0.6,0.5-0.8,0.9v4.9h-1v-7h0.8L441.4,124.3z"/>
			<path class="st2" d="M449.3,125.2c0,0.2,0,0.3,0.1,0.5c0.1,0.1,0.2,0.2,0.3,0.3c0.1,0.1,0.3,0.1,0.4,0.2c0.2,0,0.3,0.1,0.5,0.1
				c0.2,0.1,0.5,0.1,0.7,0.2c0.2,0.1,0.4,0.2,0.6,0.3s0.3,0.3,0.4,0.6c0.1,0.2,0.2,0.6,0.2,0.9c0,0.4-0.1,0.7-0.2,0.9
				c-0.1,0.3-0.3,0.5-0.5,0.7c-0.2,0.2-0.5,0.3-0.8,0.4c-0.3,0.1-0.7,0.1-1,0.1c-0.2,0-0.4,0-0.6,0c-0.2,0-0.4-0.1-0.5-0.1
				c-0.1,0-0.3-0.1-0.4-0.1c-0.1,0-0.2-0.1-0.3-0.1v-1c0.3,0.1,0.5,0.2,0.8,0.3c0.3,0.1,0.5,0.1,0.8,0.1c0.2,0,0.5,0,0.7-0.1
				c0.2,0,0.4-0.1,0.5-0.2c0.1-0.1,0.2-0.2,0.3-0.4c0.1-0.1,0.1-0.3,0.1-0.5c0-0.2,0-0.4-0.1-0.5c-0.1-0.1-0.2-0.2-0.3-0.3
				s-0.3-0.2-0.4-0.2c-0.2-0.1-0.3-0.1-0.5-0.1c-0.2-0.1-0.4-0.1-0.7-0.2s-0.4-0.2-0.6-0.3s-0.3-0.3-0.4-0.5
				c-0.1-0.2-0.2-0.5-0.2-0.9c0-0.4,0.1-0.7,0.2-1c0.1-0.3,0.3-0.5,0.5-0.7s0.4-0.3,0.7-0.4c0.3-0.1,0.6-0.1,0.8-0.1
				c0.3,0,0.7,0,1,0.1c0.3,0.1,0.6,0.2,0.8,0.3v1c-0.3-0.1-0.5-0.2-0.8-0.3s-0.5-0.1-0.8-0.1c-0.2,0-0.4,0-0.6,0.1
				c-0.2,0.1-0.3,0.1-0.4,0.2c-0.1,0.1-0.2,0.2-0.2,0.3C449.3,124.9,449.3,125,449.3,125.2z"/>
			<path class="st2" d="M455,121.7v-1.3h1v1.3H455z M455.1,130.3v-7h1v7H455.1z"/>
			<path class="st2" d="M462.4,130.3c-0.1,0-0.2,0.1-0.4,0.1c-0.2,0-0.4,0.1-0.6,0.1c-0.3,0-0.6,0-0.9-0.1c-0.2-0.1-0.4-0.2-0.6-0.4
				c-0.2-0.2-0.3-0.4-0.4-0.6s-0.1-0.5-0.1-0.8v-4.2h-1.2v-1h1.2v-1.9h1v1.9h1.9v1h-1.9v4.1c0,0.2,0,0.3,0.1,0.4
				c0,0.1,0.1,0.3,0.2,0.4s0.2,0.2,0.3,0.2c0.1,0.1,0.3,0.1,0.5,0.1c0.1,0,0.3,0,0.4,0c0.2,0,0.3-0.1,0.4-0.1V130.3z"/>
			<path class="st2" d="M465.1,128.7h1.3l-1.1,4.5H464L465.1,128.7z"/>
			<path class="st2" d="M476.1,129.5c0.3,0,0.6,0,0.9-0.1c0.3-0.1,0.6-0.1,0.8-0.3v0.9c-0.2,0.1-0.5,0.2-0.8,0.3
				c-0.3,0.1-0.7,0.1-1.1,0.1c-0.4,0-0.9-0.1-1.3-0.2c-0.4-0.1-0.7-0.3-1-0.6s-0.5-0.7-0.7-1.1c-0.2-0.5-0.2-1-0.2-1.7
				c0-0.6,0.1-1.2,0.2-1.7c0.2-0.5,0.4-0.9,0.6-1.2s0.6-0.5,0.9-0.7s0.7-0.2,1.1-0.2c0.4,0,0.7,0.1,1,0.2c0.3,0.1,0.6,0.3,0.8,0.6
				c0.2,0.3,0.4,0.6,0.5,1.1s0.2,1,0.2,1.6c0,0.1,0,0.1,0,0.2s0,0.1,0,0.3h-4.3c0,0.4,0.1,0.8,0.2,1.1c0.1,0.3,0.3,0.6,0.5,0.8
				s0.5,0.3,0.7,0.4S475.8,129.5,476.1,129.5z M475.6,124.1c-0.2,0-0.5,0.1-0.7,0.2c-0.2,0.1-0.4,0.2-0.5,0.4
				c-0.2,0.2-0.3,0.4-0.4,0.6c-0.1,0.2-0.2,0.5-0.2,0.8h3.2c0-0.3,0-0.5-0.1-0.8c-0.1-0.2-0.2-0.4-0.3-0.6c-0.1-0.2-0.3-0.3-0.5-0.4
				S475.8,124.1,475.6,124.1z"/>
			<path class="st2" d="M481.8,123.1c0,0.3,0.1,0.5,0.2,0.7c0.1,0.2,0.2,0.3,0.4,0.5c0.2,0.1,0.4,0.2,0.6,0.3s0.5,0.2,0.7,0.2
				c0.3,0.1,0.7,0.2,1,0.3s0.6,0.3,0.9,0.5c0.3,0.2,0.5,0.5,0.6,0.8c0.2,0.3,0.2,0.7,0.2,1.2c0,0.5-0.1,0.9-0.3,1.3
				c-0.2,0.4-0.4,0.7-0.7,0.9c-0.3,0.2-0.7,0.4-1.1,0.5c-0.4,0.1-0.9,0.2-1.4,0.2c-0.2,0-0.5,0-0.7,0c-0.2,0-0.5-0.1-0.7-0.1
				c-0.2-0.1-0.4-0.1-0.6-0.2s-0.3-0.1-0.4-0.2v-1.1c0.2,0.1,0.3,0.2,0.5,0.2c0.2,0.1,0.4,0.1,0.6,0.2c0.2,0.1,0.4,0.1,0.6,0.1
				s0.4,0,0.6,0c0.3,0,0.6,0,0.9-0.1c0.3-0.1,0.5-0.2,0.7-0.3s0.4-0.3,0.5-0.6c0.1-0.2,0.2-0.5,0.2-0.9c0-0.3-0.1-0.5-0.2-0.7
				c-0.1-0.2-0.3-0.3-0.4-0.5c-0.2-0.1-0.4-0.2-0.6-0.3c-0.2-0.1-0.5-0.2-0.7-0.2c-0.3-0.1-0.7-0.2-1-0.3c-0.3-0.1-0.6-0.3-0.9-0.5
				c-0.3-0.2-0.5-0.4-0.6-0.8s-0.2-0.7-0.2-1.2c0-0.5,0.1-0.9,0.2-1.3c0.2-0.4,0.4-0.7,0.7-0.9c0.3-0.2,0.6-0.4,1-0.5
				c0.4-0.1,0.8-0.2,1.2-0.2c0.5,0,0.9,0.1,1.3,0.1c0.4,0.1,0.8,0.2,1.1,0.4v1.1c-0.4-0.2-0.7-0.3-1.1-0.4s-0.8-0.2-1.3-0.2
				c-0.3,0-0.6,0-0.9,0.1c-0.2,0.1-0.5,0.2-0.6,0.3c-0.2,0.1-0.3,0.3-0.4,0.5C481.9,122.6,481.8,122.8,481.8,123.1z"/>
			<path class="st2" d="M492.6,130.3c-0.1,0-0.2,0.1-0.4,0.1s-0.4,0.1-0.6,0.1c-0.3,0-0.6,0-0.9-0.1c-0.2-0.1-0.4-0.2-0.6-0.4
				c-0.2-0.2-0.3-0.4-0.4-0.6c-0.1-0.2-0.1-0.5-0.1-0.8v-4.2h-1.2v-1h1.2v-1.9h1v1.9h1.9v1h-1.9v4.1c0,0.2,0,0.3,0.1,0.4
				c0,0.1,0.1,0.3,0.2,0.4s0.2,0.2,0.3,0.2s0.3,0.1,0.5,0.1c0.1,0,0.3,0,0.4,0c0.2,0,0.3-0.1,0.4-0.1V130.3z"/>
			<path class="st2" d="M498.7,129.5L498.7,129.5c-0.1,0.1-0.2,0.2-0.3,0.3s-0.3,0.2-0.4,0.3c-0.2,0.1-0.3,0.2-0.5,0.2
				c-0.2,0.1-0.4,0.1-0.6,0.1c-0.3,0-0.6-0.1-0.8-0.1c-0.3-0.1-0.5-0.2-0.7-0.4c-0.2-0.2-0.3-0.4-0.4-0.7s-0.2-0.6-0.2-0.9
				c0-0.3,0.1-0.7,0.2-0.9c0.1-0.3,0.3-0.5,0.5-0.7c0.2-0.2,0.4-0.3,0.7-0.4s0.6-0.2,0.9-0.2c0.3,0,0.6,0,0.9,0.1s0.5,0.1,0.7,0.2h0
				v-0.5c0-0.2,0-0.4,0-0.5s-0.1-0.3-0.1-0.4c-0.1-0.2-0.3-0.4-0.5-0.6c-0.3-0.2-0.6-0.2-1-0.2c-0.3,0-0.6,0-0.9,0.1
				c-0.3,0.1-0.6,0.2-0.8,0.3v-1c0.1-0.1,0.2-0.1,0.4-0.2c0.1-0.1,0.3-0.1,0.5-0.1c0.2,0,0.3-0.1,0.5-0.1s0.4,0,0.5,0
				c0.6,0,1.2,0.1,1.6,0.4s0.7,0.6,0.9,1c0.1,0.2,0.1,0.3,0.1,0.5c0,0.2,0,0.4,0,0.6v4.6h-0.9L498.7,129.5z M498.6,127.2
				c-0.2-0.1-0.4-0.1-0.7-0.2c-0.3-0.1-0.5-0.1-0.9-0.1c-0.4,0-0.8,0.1-1,0.3c-0.2,0.2-0.4,0.5-0.4,0.9c0,0.2,0,0.4,0.1,0.6
				c0.1,0.2,0.1,0.3,0.3,0.4s0.2,0.2,0.4,0.2c0.1,0.1,0.3,0.1,0.5,0.1c0.2,0,0.4,0,0.6-0.1s0.4-0.2,0.5-0.3s0.3-0.2,0.4-0.3
				c0.1-0.1,0.2-0.2,0.2-0.2V127.2z"/>
			<path class="st2" d="M506.1,124.3L506.1,124.3c-0.3,0-0.6,0-0.8,0.1c-0.2,0-0.5,0.1-0.7,0.2s-0.4,0.2-0.6,0.4
				c-0.2,0.1-0.3,0.3-0.4,0.5v4.8h-1v-7h0.8l0.2,1.1h0c0.1-0.2,0.2-0.3,0.4-0.5c0.1-0.2,0.3-0.3,0.5-0.4c0.2-0.1,0.4-0.2,0.6-0.3
				c0.2-0.1,0.5-0.1,0.7-0.1c0,0,0.1,0,0.1,0c0,0,0.1,0,0.1,0V124.3z"/>
			<path class="st2" d="M511.5,130.3c-0.1,0-0.2,0.1-0.4,0.1c-0.2,0-0.4,0.1-0.6,0.1c-0.3,0-0.6,0-0.9-0.1c-0.2-0.1-0.4-0.2-0.6-0.4
				c-0.2-0.2-0.3-0.4-0.4-0.6s-0.1-0.5-0.1-0.8v-4.2h-1.2v-1h1.2v-1.9h1v1.9h1.9v1h-1.9v4.1c0,0.2,0,0.3,0.1,0.4
				c0,0.1,0.1,0.3,0.2,0.4s0.2,0.2,0.3,0.2c0.1,0.1,0.3,0.1,0.5,0.1c0.1,0,0.3,0,0.4,0c0.2,0,0.3-0.1,0.4-0.1V130.3z"/>
		</g>
		<g class="st1">
			<path class="st2" d="M80.2,148.7v-9.8h1.1v9.8H80.2z"/>
			<path class="st2" d="M85.4,142.7L85.4,142.7c0.1-0.2,0.3-0.3,0.4-0.5c0.1-0.1,0.3-0.3,0.5-0.4c0.2-0.1,0.4-0.2,0.6-0.2
				c0.2-0.1,0.4-0.1,0.7-0.1c0.3,0,0.6,0,0.8,0.1s0.5,0.2,0.7,0.4s0.3,0.5,0.4,0.8c0.1,0.3,0.2,0.7,0.2,1.2v4.7h-1v-4.5
				c0-0.6-0.1-1-0.3-1.3c-0.2-0.3-0.5-0.4-0.9-0.4c-0.4,0-0.7,0.1-1,0.3s-0.6,0.5-0.9,0.9v4.9h-1v-7h0.8L85.4,142.7z"/>
			<path class="st2" d="M95.8,148.8c-0.1,0-0.2,0.1-0.4,0.1s-0.4,0.1-0.6,0.1c-0.3,0-0.6,0-0.9-0.1c-0.2-0.1-0.4-0.2-0.6-0.4
				c-0.2-0.2-0.3-0.4-0.4-0.6s-0.1-0.5-0.1-0.8v-4.2h-1.2v-1h1.2v-1.9h1v1.9h1.9v1h-1.9v4.1c0,0.2,0,0.3,0.1,0.4
				c0,0.1,0.1,0.3,0.2,0.4c0.1,0.1,0.2,0.2,0.3,0.2c0.1,0.1,0.3,0.1,0.5,0.1c0.1,0,0.3,0,0.4,0c0.2,0,0.3-0.1,0.4-0.1V148.8z"/>
			<path class="st2" d="M101.2,147.9c0.3,0,0.6,0,0.9-0.1c0.3-0.1,0.6-0.1,0.8-0.3v0.9c-0.2,0.1-0.5,0.2-0.8,0.3
				c-0.3,0.1-0.7,0.1-1.1,0.1c-0.4,0-0.9-0.1-1.3-0.2c-0.4-0.1-0.7-0.3-1-0.6s-0.5-0.7-0.7-1.1c-0.2-0.5-0.2-1-0.2-1.7
				c0-0.6,0.1-1.2,0.2-1.7s0.4-0.9,0.6-1.2s0.6-0.5,0.9-0.7c0.3-0.2,0.7-0.2,1.1-0.2c0.4,0,0.7,0.1,1,0.2c0.3,0.1,0.6,0.3,0.8,0.6
				c0.2,0.3,0.4,0.6,0.5,1.1s0.2,1,0.2,1.6c0,0.1,0,0.1,0,0.2s0,0.1,0,0.3h-4.3c0,0.4,0.1,0.8,0.2,1.1c0.1,0.3,0.3,0.6,0.5,0.8
				c0.2,0.2,0.5,0.3,0.7,0.4S100.9,147.9,101.2,147.9z M100.7,142.6c-0.2,0-0.5,0.1-0.7,0.2c-0.2,0.1-0.4,0.2-0.5,0.4
				c-0.2,0.2-0.3,0.4-0.4,0.6c-0.1,0.2-0.2,0.5-0.2,0.8h3.2c0-0.3,0-0.5-0.1-0.8c-0.1-0.2-0.2-0.4-0.3-0.6c-0.1-0.2-0.3-0.3-0.5-0.4
				S100.9,142.6,100.7,142.6z"/>
			<path class="st2" d="M109.4,142.7L109.4,142.7c-0.3,0-0.6,0-0.8,0.1s-0.5,0.1-0.7,0.2c-0.2,0.1-0.4,0.2-0.6,0.4
				c-0.2,0.1-0.3,0.3-0.4,0.5v4.8h-1v-7h0.8l0.2,1.1h0c0.1-0.2,0.2-0.3,0.4-0.5c0.1-0.2,0.3-0.3,0.5-0.4s0.4-0.2,0.6-0.3
				c0.2-0.1,0.5-0.1,0.7-0.1c0,0,0.1,0,0.1,0c0,0,0.1,0,0.1,0V142.7z"/>
			<path class="st2" d="M113.9,141.6c0.3,0,0.5,0,0.7,0.1s0.4,0.2,0.5,0.3c0.1,0.1,0.3,0.2,0.3,0.3c0.1,0.1,0.1,0.2,0.2,0.3h0
				l0.2-0.8h0.8v7.4c0,0.5-0.1,1-0.2,1.4s-0.4,0.7-0.7,1s-0.6,0.5-1,0.6c-0.4,0.1-0.8,0.2-1.3,0.2c-0.4,0-0.8,0-1.1-0.1
				c-0.3-0.1-0.6-0.2-0.8-0.3v-1c0.1,0.1,0.3,0.1,0.4,0.2c0.1,0,0.3,0.1,0.4,0.1c0.1,0,0.3,0.1,0.5,0.1c0.2,0,0.3,0,0.5,0
				c0.7,0,1.3-0.2,1.7-0.6c0.4-0.4,0.6-1,0.6-1.7v-0.9h0c-0.2,0.3-0.5,0.5-0.8,0.6c-0.3,0.1-0.6,0.2-1,0.2c-0.2,0-0.4,0-0.6-0.1
				s-0.4-0.1-0.6-0.2c-0.2-0.1-0.4-0.2-0.6-0.4s-0.3-0.4-0.5-0.7c-0.1-0.3-0.3-0.6-0.3-0.9c-0.1-0.4-0.1-0.8-0.1-1.2
				c0-0.6,0.1-1.2,0.2-1.7c0.2-0.5,0.4-0.9,0.6-1.2s0.6-0.5,0.9-0.7C113.2,141.7,113.6,141.6,113.9,141.6z M112.2,145.3
				c0,0.5,0.1,1,0.2,1.3s0.3,0.6,0.5,0.8c0.2,0.2,0.4,0.3,0.6,0.4s0.4,0.1,0.6,0.1c0.3,0,0.6-0.1,0.9-0.2c0.3-0.1,0.5-0.3,0.7-0.6
				v-3.6c-0.1-0.1-0.1-0.2-0.2-0.3s-0.2-0.2-0.4-0.3c-0.1-0.1-0.3-0.2-0.5-0.2c-0.2-0.1-0.4-0.1-0.6-0.1c-0.3,0-0.6,0.1-0.8,0.2
				c-0.2,0.1-0.4,0.3-0.6,0.6c-0.2,0.2-0.3,0.5-0.4,0.9C112.2,144.5,112.2,144.9,112.2,145.3z"/>
			<path class="st2" d="M123.1,142.7L123.1,142.7c-0.3,0-0.6,0-0.8,0.1s-0.5,0.1-0.7,0.2c-0.2,0.1-0.4,0.2-0.6,0.4
				c-0.2,0.1-0.3,0.3-0.4,0.5v4.8h-1v-7h0.8l0.2,1.1h0c0.1-0.2,0.2-0.3,0.4-0.5c0.1-0.2,0.3-0.3,0.5-0.4s0.4-0.2,0.6-0.3
				c0.2-0.1,0.5-0.1,0.7-0.1c0,0,0.1,0,0.1,0c0,0,0.1,0,0.1,0V142.7z"/>
			<path class="st2" d="M128.9,148L128.9,148c-0.1,0.1-0.2,0.2-0.3,0.3s-0.3,0.2-0.4,0.3s-0.3,0.2-0.5,0.2s-0.4,0.1-0.6,0.1
				c-0.3,0-0.6-0.1-0.8-0.1c-0.3-0.1-0.5-0.2-0.7-0.4c-0.2-0.2-0.3-0.4-0.4-0.7s-0.2-0.6-0.2-0.9c0-0.3,0.1-0.7,0.2-0.9
				c0.1-0.3,0.3-0.5,0.5-0.7s0.4-0.3,0.7-0.4c0.3-0.1,0.6-0.2,0.9-0.2c0.3,0,0.6,0,0.9,0.1s0.5,0.1,0.7,0.2h0v-0.5
				c0-0.2,0-0.4,0-0.5c0-0.1-0.1-0.3-0.1-0.4c-0.1-0.2-0.3-0.4-0.5-0.6c-0.3-0.2-0.6-0.2-1-0.2c-0.3,0-0.6,0-0.9,0.1
				c-0.3,0.1-0.6,0.2-0.8,0.3v-1c0.1-0.1,0.2-0.1,0.4-0.2c0.1-0.1,0.3-0.1,0.5-0.1c0.2,0,0.3-0.1,0.5-0.1s0.4,0,0.5,0
				c0.6,0,1.2,0.1,1.6,0.4c0.4,0.2,0.7,0.6,0.9,1c0.1,0.2,0.1,0.3,0.1,0.5c0,0.2,0,0.4,0,0.6v4.6H129L128.9,148z M128.8,145.7
				c-0.2-0.1-0.4-0.1-0.7-0.2c-0.3-0.1-0.5-0.1-0.9-0.1c-0.4,0-0.8,0.1-1,0.3s-0.4,0.5-0.4,0.9c0,0.2,0,0.4,0.1,0.6
				c0.1,0.2,0.1,0.3,0.3,0.4s0.2,0.2,0.4,0.2c0.1,0.1,0.3,0.1,0.5,0.1c0.2,0,0.4,0,0.6-0.1s0.4-0.2,0.5-0.3s0.3-0.2,0.4-0.3
				c0.1-0.1,0.2-0.2,0.2-0.2V145.7z"/>
			<path class="st2" d="M136.1,148.8c-0.1,0-0.2,0.1-0.4,0.1s-0.4,0.1-0.6,0.1c-0.3,0-0.6,0-0.9-0.1c-0.2-0.1-0.4-0.2-0.6-0.4
				c-0.2-0.2-0.3-0.4-0.4-0.6s-0.1-0.5-0.1-0.8v-4.2h-1.2v-1h1.2v-1.9h1v1.9h1.9v1h-1.9v4.1c0,0.2,0,0.3,0.1,0.4
				c0,0.1,0.1,0.3,0.2,0.4c0.1,0.1,0.2,0.2,0.3,0.2c0.1,0.1,0.3,0.1,0.5,0.1c0.1,0,0.3,0,0.4,0c0.2,0,0.3-0.1,0.4-0.1V148.8z"/>
			<path class="st2" d="M138.6,140.2v-1.3h1v1.3H138.6z M138.6,148.7v-7h1v7H138.6z"/>
			<path class="st2" d="M148.3,145.3c0,0.5-0.1,1-0.2,1.5c-0.1,0.4-0.3,0.8-0.6,1.2c-0.3,0.3-0.6,0.6-0.9,0.7
				c-0.4,0.2-0.8,0.3-1.2,0.3c-0.5,0-0.9-0.1-1.2-0.3c-0.4-0.2-0.7-0.4-0.9-0.7c-0.3-0.3-0.5-0.7-0.6-1.2s-0.2-0.9-0.2-1.5
				c0-0.6,0.1-1.1,0.2-1.5s0.3-0.8,0.6-1.2c0.3-0.3,0.6-0.6,0.9-0.7c0.4-0.2,0.8-0.3,1.2-0.3c0.5,0,0.9,0.1,1.2,0.3s0.7,0.4,0.9,0.7
				c0.3,0.3,0.5,0.7,0.6,1.2S148.3,144.7,148.3,145.3z M147.2,145.3c0-0.4,0-0.8-0.1-1.1c-0.1-0.3-0.2-0.6-0.4-0.8
				c-0.2-0.2-0.4-0.4-0.6-0.5c-0.2-0.1-0.5-0.2-0.8-0.2s-0.5,0.1-0.8,0.2c-0.2,0.1-0.4,0.3-0.6,0.5c-0.2,0.2-0.3,0.5-0.4,0.8
				c-0.1,0.3-0.1,0.7-0.1,1.1c0,0.4,0,0.8,0.1,1.1c0.1,0.3,0.2,0.6,0.4,0.8c0.2,0.2,0.4,0.4,0.6,0.5s0.5,0.2,0.8,0.2
				c0.3,0,0.5-0.1,0.8-0.2c0.2-0.1,0.4-0.3,0.6-0.5c0.2-0.2,0.3-0.5,0.4-0.8C147.1,146.1,147.2,145.7,147.2,145.3z"/>
			<path class="st2" d="M151.9,142.7L151.9,142.7c0.1-0.2,0.3-0.3,0.4-0.5c0.1-0.1,0.3-0.3,0.5-0.4c0.2-0.1,0.4-0.2,0.6-0.2
				c0.2-0.1,0.4-0.1,0.7-0.1c0.3,0,0.6,0,0.8,0.1s0.5,0.2,0.7,0.4s0.3,0.5,0.4,0.8c0.1,0.3,0.2,0.7,0.2,1.2v4.7h-1v-4.5
				c0-0.6-0.1-1-0.3-1.3c-0.2-0.3-0.5-0.4-0.9-0.4c-0.4,0-0.7,0.1-1,0.3s-0.6,0.5-0.9,0.9v4.9h-1v-7h0.8L151.9,142.7z"/>
			<path class="st2" d="M166.4,148L166.4,148c-0.1,0.1-0.2,0.2-0.3,0.3s-0.3,0.2-0.4,0.3s-0.3,0.2-0.5,0.2s-0.4,0.1-0.6,0.1
				c-0.3,0-0.6-0.1-0.8-0.1c-0.3-0.1-0.5-0.2-0.7-0.4c-0.2-0.2-0.3-0.4-0.4-0.7s-0.2-0.6-0.2-0.9c0-0.3,0.1-0.7,0.2-0.9
				c0.1-0.3,0.3-0.5,0.5-0.7s0.4-0.3,0.7-0.4c0.3-0.1,0.6-0.2,0.9-0.2c0.3,0,0.6,0,0.9,0.1s0.5,0.1,0.7,0.2h0v-0.5
				c0-0.2,0-0.4,0-0.5c0-0.1-0.1-0.3-0.1-0.4c-0.1-0.2-0.3-0.4-0.5-0.6c-0.3-0.2-0.6-0.2-1-0.2c-0.3,0-0.6,0-0.9,0.1
				c-0.3,0.1-0.6,0.2-0.8,0.3v-1c0.1-0.1,0.2-0.1,0.4-0.2c0.1-0.1,0.3-0.1,0.5-0.1c0.2,0,0.3-0.1,0.5-0.1s0.4,0,0.5,0
				c0.6,0,1.2,0.1,1.6,0.4c0.4,0.2,0.7,0.6,0.9,1c0.1,0.2,0.1,0.3,0.1,0.5c0,0.2,0,0.4,0,0.6v4.6h-0.9L166.4,148z M166.3,145.7
				c-0.2-0.1-0.4-0.1-0.7-0.2c-0.3-0.1-0.5-0.1-0.9-0.1c-0.4,0-0.8,0.1-1,0.3s-0.4,0.5-0.4,0.9c0,0.2,0,0.4,0.1,0.6
				c0.1,0.2,0.1,0.3,0.3,0.4s0.2,0.2,0.4,0.2c0.1,0.1,0.3,0.1,0.5,0.1c0.2,0,0.4,0,0.6-0.1s0.4-0.2,0.5-0.3s0.3-0.2,0.4-0.3
				c0.1-0.1,0.2-0.2,0.2-0.2V145.7z"/>
			<path class="st2" d="M171.3,142.7L171.3,142.7c0.1-0.2,0.3-0.3,0.4-0.5c0.1-0.1,0.3-0.3,0.5-0.4c0.2-0.1,0.4-0.2,0.6-0.2
				c0.2-0.1,0.4-0.1,0.7-0.1c0.3,0,0.6,0,0.8,0.1s0.5,0.2,0.7,0.4s0.3,0.5,0.4,0.8c0.1,0.3,0.2,0.7,0.2,1.2v4.7h-1v-4.5
				c0-0.6-0.1-1-0.3-1.3c-0.2-0.3-0.5-0.4-0.9-0.4c-0.4,0-0.7,0.1-1,0.3s-0.6,0.5-0.9,0.9v4.9h-1v-7h0.8L171.3,142.7z"/>
			<path class="st2" d="M178.1,145.3c0-0.5,0-0.9,0.1-1.3c0.1-0.4,0.2-0.7,0.3-1s0.3-0.5,0.5-0.7c0.2-0.2,0.4-0.3,0.6-0.5
				s0.4-0.2,0.6-0.3c0.2-0.1,0.4-0.1,0.6-0.1c0.4,0,0.7,0.1,1,0.2s0.5,0.3,0.8,0.6h0v-4.3h1v10.6h-0.8l-0.2-0.8h0
				c-0.1,0.1-0.2,0.2-0.3,0.3s-0.2,0.2-0.4,0.3c-0.1,0.1-0.3,0.2-0.5,0.2c-0.2,0.1-0.4,0.1-0.6,0.1c-0.3,0-0.7-0.1-1-0.2
				c-0.3-0.1-0.6-0.3-0.9-0.6c-0.3-0.3-0.5-0.7-0.6-1.1S178.1,146,178.1,145.3z M179.2,145.3c0,0.4,0,0.8,0.1,1.1
				c0.1,0.3,0.2,0.6,0.4,0.8c0.2,0.2,0.3,0.4,0.6,0.5c0.2,0.1,0.5,0.2,0.8,0.2c0.2,0,0.4,0,0.6-0.1c0.2-0.1,0.3-0.1,0.5-0.2
				c0.1-0.1,0.3-0.2,0.4-0.3c0.1-0.1,0.2-0.2,0.2-0.3v-3.6c-0.2-0.2-0.5-0.4-0.7-0.6c-0.3-0.1-0.6-0.2-0.9-0.2c-0.2,0-0.4,0-0.6,0.1
				c-0.2,0.1-0.4,0.2-0.6,0.4c-0.2,0.2-0.3,0.5-0.5,0.8C179.2,144.3,179.2,144.8,179.2,145.3z"/>
			<path class="st2" d="M195.6,148.7h-1v-4.5c0-0.3,0-0.6-0.1-0.8c-0.1-0.2-0.1-0.4-0.3-0.5c-0.1-0.1-0.2-0.2-0.4-0.3
				c-0.2-0.1-0.3-0.1-0.5-0.1c-0.4,0-0.7,0.1-1,0.3s-0.6,0.5-0.8,0.9v4.9h-1v-7h0.8l0.2,1h0c0.1-0.2,0.2-0.3,0.4-0.5
				c0.1-0.1,0.3-0.3,0.4-0.4c0.2-0.1,0.3-0.2,0.5-0.2s0.4-0.1,0.6-0.1c0.5,0,0.9,0.1,1.2,0.4s0.5,0.6,0.7,1h0c0.3-0.4,0.6-0.8,1-1
				c0.4-0.2,0.8-0.4,1.2-0.4c0.2,0,0.5,0,0.7,0.1c0.2,0.1,0.5,0.2,0.7,0.4c0.2,0.2,0.4,0.4,0.5,0.8c0.1,0.3,0.2,0.7,0.2,1.2v4.7h-1
				v-4.5c0-0.3,0-0.6-0.1-0.8c-0.1-0.2-0.1-0.4-0.3-0.5c-0.1-0.1-0.2-0.2-0.4-0.3c-0.2-0.1-0.3-0.1-0.5-0.1c-0.4,0-0.7,0.1-1,0.3
				c-0.3,0.2-0.6,0.5-0.8,0.9V148.7z"/>
			<path class="st2" d="M206.3,148L206.3,148c-0.1,0.1-0.2,0.2-0.3,0.3s-0.3,0.2-0.4,0.3s-0.3,0.2-0.5,0.2s-0.4,0.1-0.6,0.1
				c-0.3,0-0.6-0.1-0.8-0.1c-0.3-0.1-0.5-0.2-0.7-0.4c-0.2-0.2-0.3-0.4-0.4-0.7s-0.2-0.6-0.2-0.9c0-0.3,0.1-0.7,0.2-0.9
				c0.1-0.3,0.3-0.5,0.5-0.7s0.4-0.3,0.7-0.4c0.3-0.1,0.6-0.2,0.9-0.2c0.3,0,0.6,0,0.9,0.1s0.5,0.1,0.7,0.2h0v-0.5
				c0-0.2,0-0.4,0-0.5c0-0.1-0.1-0.3-0.1-0.4c-0.1-0.2-0.3-0.4-0.5-0.6c-0.3-0.2-0.6-0.2-1-0.2c-0.3,0-0.6,0-0.9,0.1
				c-0.3,0.1-0.6,0.2-0.8,0.3v-1c0.1-0.1,0.2-0.1,0.4-0.2c0.1-0.1,0.3-0.1,0.5-0.1c0.2,0,0.3-0.1,0.5-0.1s0.4,0,0.5,0
				c0.6,0,1.2,0.1,1.6,0.4c0.4,0.2,0.7,0.6,0.9,1c0.1,0.2,0.1,0.3,0.1,0.5c0,0.2,0,0.4,0,0.6v4.6h-0.9L206.3,148z M206.3,145.7
				c-0.2-0.1-0.4-0.1-0.7-0.2c-0.3-0.1-0.5-0.1-0.9-0.1c-0.4,0-0.8,0.1-1,0.3s-0.4,0.5-0.4,0.9c0,0.2,0,0.4,0.1,0.6
				c0.1,0.2,0.1,0.3,0.3,0.4s0.2,0.2,0.4,0.2c0.1,0.1,0.3,0.1,0.5,0.1c0.2,0,0.4,0,0.6-0.1s0.4-0.2,0.5-0.3s0.3-0.2,0.4-0.3
				c0.1-0.1,0.2-0.2,0.2-0.2V145.7z"/>
			<path class="st2" d="M213.7,142.7L213.7,142.7c-0.3,0-0.6,0-0.8,0.1s-0.5,0.1-0.7,0.2c-0.2,0.1-0.4,0.2-0.6,0.4
				c-0.2,0.1-0.3,0.3-0.4,0.5v4.8h-1v-7h0.8l0.2,1.1h0c0.1-0.2,0.2-0.3,0.4-0.5c0.1-0.2,0.3-0.3,0.5-0.4s0.4-0.2,0.6-0.3
				c0.2-0.1,0.5-0.1,0.7-0.1c0,0,0.1,0,0.1,0c0,0,0.1,0,0.1,0V142.7z"/>
			<path class="st2" d="M215.8,140.2v-1.3h1v1.3H215.8z M215.9,148.7v-7h1v7H215.9z"/>
			<path class="st2" d="M220.9,142.7L220.9,142.7c0.1-0.2,0.3-0.3,0.4-0.5c0.1-0.1,0.3-0.3,0.5-0.4c0.2-0.1,0.4-0.2,0.6-0.2
				c0.2-0.1,0.4-0.1,0.7-0.1c0.3,0,0.6,0,0.8,0.1s0.5,0.2,0.7,0.4s0.3,0.5,0.4,0.8c0.1,0.3,0.2,0.7,0.2,1.2v4.7h-1v-4.5
				c0-0.6-0.1-1-0.3-1.3c-0.2-0.3-0.5-0.4-0.9-0.4c-0.4,0-0.7,0.1-1,0.3s-0.6,0.5-0.9,0.9v4.9h-1v-7h0.8L220.9,142.7z"/>
			<path class="st2" d="M231,147.9c0.3,0,0.6,0,0.9-0.1c0.3-0.1,0.6-0.1,0.8-0.3v0.9c-0.2,0.1-0.5,0.2-0.8,0.3
				c-0.3,0.1-0.7,0.1-1.1,0.1c-0.4,0-0.9-0.1-1.3-0.2c-0.4-0.1-0.7-0.3-1-0.6s-0.5-0.7-0.7-1.1c-0.2-0.5-0.2-1-0.2-1.7
				c0-0.6,0.1-1.2,0.2-1.7s0.4-0.9,0.6-1.2s0.6-0.5,0.9-0.7c0.3-0.2,0.7-0.2,1.1-0.2c0.4,0,0.7,0.1,1,0.2c0.3,0.1,0.6,0.3,0.8,0.6
				c0.2,0.3,0.4,0.6,0.5,1.1s0.2,1,0.2,1.6c0,0.1,0,0.1,0,0.2s0,0.1,0,0.3h-4.3c0,0.4,0.1,0.8,0.2,1.1c0.1,0.3,0.3,0.6,0.5,0.8
				c0.2,0.2,0.5,0.3,0.7,0.4S230.7,147.9,231,147.9z M230.5,142.6c-0.2,0-0.5,0.1-0.7,0.2c-0.2,0.1-0.4,0.2-0.5,0.4
				c-0.2,0.2-0.3,0.4-0.4,0.6c-0.1,0.2-0.2,0.5-0.2,0.8h3.2c0-0.3,0-0.5-0.1-0.8c-0.1-0.2-0.2-0.4-0.3-0.6c-0.1-0.2-0.3-0.3-0.5-0.4
				S230.8,142.6,230.5,142.6z"/>
			<path class="st2" d="M245.1,145.3c0,0.5-0.1,1-0.2,1.5c-0.1,0.4-0.3,0.8-0.6,1.2c-0.3,0.3-0.6,0.6-0.9,0.7
				c-0.4,0.2-0.8,0.3-1.2,0.3c-0.5,0-0.9-0.1-1.2-0.3c-0.4-0.2-0.7-0.4-0.9-0.7c-0.3-0.3-0.5-0.7-0.6-1.2s-0.2-0.9-0.2-1.5
				c0-0.6,0.1-1.1,0.2-1.5s0.3-0.8,0.6-1.2c0.3-0.3,0.6-0.6,0.9-0.7c0.4-0.2,0.8-0.3,1.2-0.3c0.5,0,0.9,0.1,1.2,0.3s0.7,0.4,0.9,0.7
				c0.3,0.3,0.5,0.7,0.6,1.2S245.1,144.7,245.1,145.3z M244,145.3c0-0.4,0-0.8-0.1-1.1c-0.1-0.3-0.2-0.6-0.4-0.8
				c-0.2-0.2-0.4-0.4-0.6-0.5c-0.2-0.1-0.5-0.2-0.8-0.2s-0.5,0.1-0.8,0.2c-0.2,0.1-0.4,0.3-0.6,0.5c-0.2,0.2-0.3,0.5-0.4,0.8
				c-0.1,0.3-0.1,0.7-0.1,1.1c0,0.4,0,0.8,0.1,1.1c0.1,0.3,0.2,0.6,0.4,0.8c0.2,0.2,0.4,0.4,0.6,0.5s0.5,0.2,0.8,0.2
				c0.3,0,0.5-0.1,0.8-0.2c0.2-0.1,0.4-0.3,0.6-0.5c0.2-0.2,0.3-0.5,0.4-0.8C244,146.1,244,145.7,244,145.3z"/>
			<path class="st2" d="M253.3,145.2c0,0.5,0,0.9-0.1,1.3c-0.1,0.4-0.2,0.7-0.3,1s-0.3,0.5-0.5,0.7c-0.2,0.2-0.4,0.3-0.6,0.5
				c-0.2,0.1-0.4,0.2-0.6,0.2c-0.2,0.1-0.4,0.1-0.6,0.1c-0.4,0-0.7-0.1-1-0.2c-0.3-0.1-0.5-0.3-0.8-0.6h0v4.1h-1v-10.4h0.8l0.2,0.8
				h0c0.1-0.1,0.1-0.2,0.2-0.3c0.1-0.1,0.2-0.2,0.4-0.3c0.2-0.1,0.3-0.2,0.5-0.3c0.2-0.1,0.4-0.1,0.7-0.1c0.4,0,0.7,0.1,1,0.2
				c0.3,0.1,0.6,0.3,0.9,0.6s0.5,0.7,0.6,1.1C253.2,144,253.3,144.5,253.3,145.2z M252.2,145.2c0-0.4,0-0.8-0.1-1.1
				c-0.1-0.3-0.2-0.6-0.3-0.8c-0.2-0.2-0.3-0.4-0.6-0.5s-0.5-0.2-0.8-0.2c-0.2,0-0.4,0-0.6,0.1c-0.2,0.1-0.3,0.1-0.5,0.2
				s-0.3,0.2-0.4,0.3s-0.2,0.2-0.2,0.3v3.6c0.2,0.2,0.5,0.4,0.7,0.6s0.6,0.2,0.9,0.2c0.2,0,0.4,0,0.6-0.1c0.2-0.1,0.4-0.2,0.6-0.4
				c0.2-0.2,0.3-0.5,0.5-0.8C252.2,146.2,252.2,145.7,252.2,145.2z"/>
			<path class="st2" d="M258.9,147.9c0.3,0,0.6,0,0.9-0.1c0.3-0.1,0.6-0.1,0.8-0.3v0.9c-0.2,0.1-0.5,0.2-0.8,0.3
				c-0.3,0.1-0.7,0.1-1.1,0.1c-0.4,0-0.9-0.1-1.3-0.2c-0.4-0.1-0.7-0.3-1-0.6s-0.5-0.7-0.7-1.1c-0.2-0.5-0.2-1-0.2-1.7
				c0-0.6,0.1-1.2,0.2-1.7s0.4-0.9,0.6-1.2s0.6-0.5,0.9-0.7c0.3-0.2,0.7-0.2,1.1-0.2c0.4,0,0.7,0.1,1,0.2c0.3,0.1,0.6,0.3,0.8,0.6
				c0.2,0.3,0.4,0.6,0.5,1.1s0.2,1,0.2,1.6c0,0.1,0,0.1,0,0.2s0,0.1,0,0.3h-4.3c0,0.4,0.1,0.8,0.2,1.1c0.1,0.3,0.3,0.6,0.5,0.8
				c0.2,0.2,0.5,0.3,0.7,0.4S258.6,147.9,258.9,147.9z M258.3,142.6c-0.2,0-0.5,0.1-0.7,0.2c-0.2,0.1-0.4,0.2-0.5,0.4
				c-0.2,0.2-0.3,0.4-0.4,0.6c-0.1,0.2-0.2,0.5-0.2,0.8h3.2c0-0.3,0-0.5-0.1-0.8c-0.1-0.2-0.2-0.4-0.3-0.6c-0.1-0.2-0.3-0.3-0.5-0.4
				S258.6,142.6,258.3,142.6z"/>
			<path class="st2" d="M264.6,142.7L264.6,142.7c0.1-0.2,0.3-0.3,0.4-0.5c0.1-0.1,0.3-0.3,0.5-0.4c0.2-0.1,0.4-0.2,0.6-0.2
				c0.2-0.1,0.4-0.1,0.7-0.1c0.3,0,0.6,0,0.8,0.1s0.5,0.2,0.7,0.4s0.3,0.5,0.4,0.8c0.1,0.3,0.2,0.7,0.2,1.2v4.7h-1v-4.5
				c0-0.6-0.1-1-0.3-1.3c-0.2-0.3-0.5-0.4-0.9-0.4c-0.4,0-0.7,0.1-1,0.3s-0.6,0.5-0.9,0.9v4.9h-1v-7h0.8L264.6,142.7z"/>
			<path class="st2" d="M278.2,141.6c0.3,0,0.6,0,0.9,0.1c0.3,0.1,0.5,0.2,0.7,0.3v0.9c-0.3-0.1-0.5-0.2-0.8-0.3s-0.5-0.1-0.7-0.1
				c-0.3,0-0.5,0-0.8,0.1c-0.3,0.1-0.5,0.2-0.7,0.5c-0.2,0.2-0.4,0.5-0.5,0.8c-0.1,0.3-0.2,0.8-0.2,1.3c0,0.4,0,0.7,0.1,1
				c0.1,0.3,0.2,0.6,0.4,0.8c0.2,0.2,0.4,0.4,0.7,0.5c0.3,0.1,0.6,0.2,0.9,0.2c0.3,0,0.5,0,0.8-0.1c0.3-0.1,0.5-0.1,0.8-0.3v0.9
				c-0.1,0-0.2,0.1-0.3,0.1c-0.1,0-0.3,0.1-0.4,0.1c-0.1,0-0.3,0.1-0.5,0.1c-0.2,0-0.3,0-0.5,0c-0.4,0-0.8-0.1-1.2-0.2
				c-0.4-0.1-0.7-0.4-1-0.7c-0.3-0.3-0.5-0.7-0.7-1.1s-0.2-1-0.2-1.6c0-0.5,0-0.9,0.1-1.2c0.1-0.4,0.2-0.7,0.4-1s0.3-0.5,0.5-0.7
				c0.2-0.2,0.4-0.4,0.6-0.5c0.2-0.1,0.5-0.2,0.7-0.3S277.9,141.6,278.2,141.6z"/>
			<path class="st2" d="M288,145.3c0,0.5-0.1,1-0.2,1.5c-0.1,0.4-0.3,0.8-0.6,1.2c-0.3,0.3-0.6,0.6-0.9,0.7
				c-0.4,0.2-0.8,0.3-1.2,0.3c-0.5,0-0.9-0.1-1.2-0.3c-0.4-0.2-0.7-0.4-0.9-0.7c-0.3-0.3-0.5-0.7-0.6-1.2s-0.2-0.9-0.2-1.5
				c0-0.6,0.1-1.1,0.2-1.5s0.3-0.8,0.6-1.2c0.3-0.3,0.6-0.6,0.9-0.7c0.4-0.2,0.8-0.3,1.2-0.3c0.5,0,0.9,0.1,1.2,0.3s0.7,0.4,0.9,0.7
				c0.3,0.3,0.5,0.7,0.6,1.2S288,144.7,288,145.3z M286.9,145.3c0-0.4,0-0.8-0.1-1.1c-0.1-0.3-0.2-0.6-0.4-0.8
				c-0.2-0.2-0.4-0.4-0.6-0.5c-0.2-0.1-0.5-0.2-0.8-0.2s-0.5,0.1-0.8,0.2c-0.2,0.1-0.4,0.3-0.6,0.5c-0.2,0.2-0.3,0.5-0.4,0.8
				c-0.1,0.3-0.1,0.7-0.1,1.1c0,0.4,0,0.8,0.1,1.1c0.1,0.3,0.2,0.6,0.4,0.8c0.2,0.2,0.4,0.4,0.6,0.5s0.5,0.2,0.8,0.2
				c0.3,0,0.5-0.1,0.8-0.2c0.2-0.1,0.4-0.3,0.6-0.5c0.2-0.2,0.3-0.5,0.4-0.8C286.9,146.1,286.9,145.7,286.9,145.3z"/>
			<path class="st2" d="M292.7,147.6c0.2-0.5,0.4-1.2,0.6-1.9l1.3-3.9h1l-2.4,7h-1.1l-2.4-7h1l1.2,3.9
				C292.4,146.4,292.6,147.1,292.7,147.6L292.7,147.6z"/>
			<path class="st2" d="M300.8,147.9c0.3,0,0.6,0,0.9-0.1c0.3-0.1,0.6-0.1,0.8-0.3v0.9c-0.2,0.1-0.5,0.2-0.8,0.3
				c-0.3,0.1-0.7,0.1-1.1,0.1c-0.4,0-0.9-0.1-1.3-0.2c-0.4-0.1-0.7-0.3-1-0.6s-0.5-0.7-0.7-1.1c-0.2-0.5-0.2-1-0.2-1.7
				c0-0.6,0.1-1.2,0.2-1.7s0.4-0.9,0.6-1.2s0.6-0.5,0.9-0.7c0.3-0.2,0.7-0.2,1.1-0.2c0.4,0,0.7,0.1,1,0.2c0.3,0.1,0.6,0.3,0.8,0.6
				c0.2,0.3,0.4,0.6,0.5,1.1s0.2,1,0.2,1.6c0,0.1,0,0.1,0,0.2s0,0.1,0,0.3h-4.3c0,0.4,0.1,0.8,0.2,1.1c0.1,0.3,0.3,0.6,0.5,0.8
				c0.2,0.2,0.5,0.3,0.7,0.4S300.5,147.9,300.8,147.9z M300.3,142.6c-0.2,0-0.5,0.1-0.7,0.2c-0.2,0.1-0.4,0.2-0.5,0.4
				c-0.2,0.2-0.3,0.4-0.4,0.6c-0.1,0.2-0.2,0.5-0.2,0.8h3.2c0-0.3,0-0.5-0.1-0.8c-0.1-0.2-0.2-0.4-0.3-0.6c-0.1-0.2-0.3-0.3-0.5-0.4
				S300.6,142.6,300.3,142.6z"/>
			<path class="st2" d="M309,142.7L309,142.7c-0.3,0-0.6,0-0.8,0.1s-0.5,0.1-0.7,0.2c-0.2,0.1-0.4,0.2-0.6,0.4
				c-0.2,0.1-0.3,0.3-0.4,0.5v4.8h-1v-7h0.8l0.2,1.1h0c0.1-0.2,0.2-0.3,0.4-0.5c0.1-0.2,0.3-0.3,0.5-0.4s0.4-0.2,0.6-0.3
				c0.2-0.1,0.5-0.1,0.7-0.1c0,0,0.1,0,0.1,0c0,0,0.1,0,0.1,0V142.7z"/>
		</g>
		<g>
			<rect x="68" y="109" class="st4" width="514" height="53.4"/>
		</g>
	</g>
</g>
<g id="_1st_row">
	<g id="PROJECT_NAME_DUCKCREEK">
		<g class="st1">
			<path class="st2" d="M434.2,80.8h-1.3V69h2.9c0.4,0,0.8,0,1.2,0.1s0.7,0.1,1,0.3c0.6,0.3,1.1,0.6,1.4,1.1
				c0.3,0.5,0.5,1.1,0.5,1.9c0,0.6-0.1,1.1-0.3,1.6c-0.2,0.5-0.5,0.8-0.9,1.1c-0.4,0.3-0.9,0.5-1.5,0.7s-1.2,0.2-2,0.2
				c-0.4,0-0.7,0-1.1-0.1V80.8z M434.2,74.6c0.2,0,0.4,0,0.5,0.1s0.4,0,0.5,0c0.6,0,1.1-0.1,1.6-0.2s0.8-0.3,1-0.5
				c0.3-0.2,0.5-0.4,0.6-0.7c0.1-0.3,0.2-0.6,0.2-1c0-0.5-0.1-0.8-0.3-1.1s-0.5-0.5-0.8-0.7c-0.2-0.1-0.5-0.2-0.8-0.2
				c-0.3,0-0.6-0.1-1-0.1h-1.5V74.6z"/>
			<path class="st2" d="M444.6,75.9v4.9h-1.3V69h2.7c0.5,0,0.9,0,1.2,0.1c0.3,0,0.6,0.1,0.9,0.2c0.7,0.2,1.3,0.6,1.7,1.1
				c0.4,0.5,0.6,1.2,0.6,2c0,0.5-0.1,0.9-0.2,1.3c-0.1,0.4-0.3,0.7-0.6,1c-0.2,0.3-0.5,0.5-0.9,0.7s-0.7,0.3-1.2,0.4v0l3.1,5h-1.3
				l-3.3-4.9H444.6z M444.6,70.3v4.3h1.3c0.4,0,0.7,0,1,0c0.3,0,0.5-0.1,0.8-0.2c0.4-0.2,0.8-0.4,1-0.7c0.2-0.3,0.4-0.8,0.4-1.3
				c0-0.5-0.1-0.9-0.3-1.2s-0.5-0.5-0.9-0.7c-0.2-0.1-0.4-0.1-0.7-0.1s-0.6,0-1,0H444.6z"/>
		</g>
		<g class="st1">
			<path class="st2" d="M463.6,74.9c0,0.9-0.1,1.7-0.3,2.5s-0.6,1.4-1,1.9c-0.4,0.5-0.9,1-1.5,1.3c-0.6,0.3-1.3,0.5-2,0.5
				c-0.8,0-1.5-0.2-2.1-0.5s-1.1-0.7-1.6-1.3s-0.7-1.2-1-1.9c-0.2-0.7-0.3-1.6-0.3-2.5c0-0.9,0.1-1.7,0.3-2.5c0.2-0.7,0.6-1.4,1-1.9
				s0.9-1,1.5-1.3s1.3-0.5,2-0.5c0.8,0,1.5,0.2,2.1,0.5s1.1,0.7,1.5,1.3s0.7,1.2,1,1.9S463.6,74,463.6,74.9z M462.3,74.9
				c0-0.8-0.1-1.5-0.3-2.1c-0.2-0.6-0.4-1.1-0.8-1.5c-0.3-0.4-0.7-0.7-1.2-0.9s-0.9-0.3-1.4-0.3s-1,0.1-1.4,0.3s-0.8,0.5-1.2,0.9
				c-0.3,0.4-0.6,0.9-0.8,1.5c-0.2,0.6-0.3,1.3-0.3,2.1s0.1,1.5,0.3,2.1c0.2,0.6,0.4,1.1,0.8,1.5c0.3,0.4,0.7,0.7,1.2,0.9
				s0.9,0.3,1.4,0.3c0.5,0,1-0.1,1.4-0.3s0.8-0.5,1.2-0.9c0.3-0.4,0.6-0.9,0.8-1.5C462.2,76.4,462.3,75.7,462.3,74.9z"/>
		</g>
		<g class="st1">
			<path class="st2" d="M468.9,69h1.3v9.1c0,0.5-0.1,0.9-0.2,1.3c-0.1,0.4-0.3,0.7-0.6,0.9c-0.2,0.2-0.5,0.4-0.9,0.5
				c-0.3,0.1-0.7,0.2-1.2,0.2c-0.4,0-0.7,0-0.9-0.1s-0.4-0.1-0.6-0.2v-1.3c0.2,0.1,0.4,0.2,0.6,0.2s0.5,0.1,0.7,0.1
				c0.2,0,0.5,0,0.7-0.1c0.2-0.1,0.4-0.2,0.5-0.3s0.3-0.3,0.3-0.6c0.1-0.2,0.1-0.5,0.1-0.9V69z"/>
			<path class="st2" d="M475.3,79.5h5.4v1.3H474V69h6.4v1.3h-5.1v3.8h4.6v1.3h-4.6V79.5z"/>
			<path class="st2" d="M489.3,70.1c-0.6,0-1.1,0.1-1.7,0.3c-0.5,0.2-1,0.5-1.3,0.9c-0.4,0.4-0.7,0.9-0.9,1.5S485,74.2,485,75
				c0,0.8,0.1,1.5,0.3,2.1s0.5,1.1,0.9,1.5c0.4,0.4,0.8,0.7,1.3,0.9s1.1,0.3,1.8,0.3c0.2,0,0.4,0,0.6,0c0.2,0,0.4,0,0.6-0.1
				c0.2,0,0.4-0.1,0.6-0.1s0.4-0.1,0.5-0.2v1.3c-0.3,0.1-0.7,0.2-1.1,0.3s-0.8,0.1-1.3,0.1c-0.9,0-1.7-0.1-2.3-0.4
				c-0.7-0.3-1.3-0.7-1.7-1.2c-0.5-0.5-0.8-1.1-1-1.9c-0.2-0.7-0.4-1.6-0.4-2.5c0-0.9,0.1-1.8,0.4-2.5c0.3-0.8,0.6-1.4,1.1-2
				c0.5-0.6,1-1,1.7-1.3s1.4-0.5,2.3-0.5c0.2,0,0.4,0,0.7,0s0.4,0,0.6,0.1s0.4,0.1,0.5,0.1c0.2,0.1,0.3,0.1,0.4,0.2v1.3
				c-0.3-0.1-0.7-0.2-1-0.3S489.7,70.1,489.3,70.1z"/>
			<path class="st2" d="M498.7,80.8h-1.3V70.3h-3.5V69h8.4v1.3h-3.5V80.8z"/>
			<path class="st2" d="M515,75.6c0.6,1,1.3,2.1,1.9,3.2h0c-0.1-1.1-0.1-2.3-0.1-3.5V69h1.3v11.8h-1.3l-4.2-6.6
				c-0.7-1.1-1.4-2.2-1.9-3.2h0c0.1,1.1,0.1,2.3,0.1,3.8v6h-1.3V69h1.3L515,75.6z"/>
			<path class="st2" d="M521,80.8l4.3-11.8h1.1l4.3,11.8h-1.4l-1.3-3.5h-4.4l-1.3,3.5H521z M525.9,70.8c-0.5,1.5-0.9,2.8-1.4,4
				l-0.4,1.1h3.5l-0.4-1.1C526.8,73.6,526.4,72.3,525.9,70.8L525.9,70.8z"/>
			<path class="st2" d="M539.2,80.8h-0.6l-2.7-7c-0.4-1-0.7-2-1.1-3.2h-0.1c0.1,1.6,0.1,3.1,0.1,4.5v5.7h-1.3V69h1.9l2.5,6.7
				c0.3,0.8,0.6,1.7,0.9,2.8h0c0.4-1.2,0.7-2.1,0.9-2.8l2.5-6.7h1.9v11.8h-1.3v-5.7c0-1.3,0-2.8,0.1-4.5H543
				c-0.4,1.2-0.8,2.3-1.1,3.2L539.2,80.8z"/>
			<path class="st2" d="M549.4,79.5h5.4v1.3h-6.7V69h6.4v1.3h-5.1v3.8h4.6v1.3h-4.6V79.5z"/>
		</g>
		<g class="st1">
			<path class="st2" d="M466.4,97.3c0.4,0,0.7,0,1.1-0.1c0.4-0.1,0.8-0.2,1.2-0.4v1.7c-0.2,0.1-0.6,0.2-1.1,0.3
				c-0.5,0.1-1,0.2-1.6,0.2c-0.5,0-1.1-0.1-1.5-0.2s-0.9-0.4-1.3-0.8s-0.7-0.8-0.9-1.3s-0.3-1.2-0.3-2c0-0.8,0.1-1.5,0.3-2
				s0.5-1.1,0.8-1.4s0.7-0.7,1.2-0.9c0.4-0.2,0.9-0.3,1.3-0.3c0.5,0,0.9,0.1,1.3,0.2c0.4,0.2,0.8,0.4,1.1,0.8s0.5,0.8,0.7,1.4
				s0.2,1.2,0.2,2c0,0.3,0,0.5,0,0.7h-5c0,0.4,0.1,0.7,0.2,1s0.3,0.5,0.5,0.7c0.2,0.2,0.5,0.3,0.7,0.4S466.1,97.3,466.4,97.3z
				 M465.7,91.7c-0.2,0-0.4,0-0.6,0.1c-0.2,0.1-0.3,0.2-0.5,0.4s-0.2,0.4-0.3,0.6c-0.1,0.2-0.1,0.5-0.2,0.7h3c0-0.3,0-0.5-0.1-0.7
				c-0.1-0.2-0.1-0.4-0.3-0.6s-0.3-0.3-0.4-0.4C466.1,91.7,465.9,91.7,465.7,91.7z"/>
			<path class="st2" d="M477.7,95.6c0.2-0.9,0.5-1.9,0.9-3l1.8-5.6h2.7v11.8h-1.9v-6c0-0.9,0-1.9,0.1-3h-0.1
				c-0.1,0.3-0.2,0.7-0.3,1.1c-0.1,0.4-0.2,0.8-0.4,1.2l-2.2,6.6h-1.3l-2.2-6.6c-0.1-0.4-0.3-0.8-0.4-1.2s-0.2-0.8-0.3-1.1h-0.1
				c0.1,1.1,0.1,2.1,0.1,3v6h-1.9V87h2.7l1.8,5.6C477.1,93.5,477.4,94.6,477.7,95.6L477.7,95.6z"/>
			<path class="st2" d="M491.1,97.9L491.1,97.9c-0.1,0.1-0.3,0.2-0.4,0.4c-0.1,0.1-0.3,0.3-0.5,0.4s-0.4,0.2-0.6,0.3
				s-0.5,0.1-0.8,0.1c-0.4,0-0.7-0.1-1-0.2s-0.6-0.3-0.8-0.5c-0.2-0.2-0.4-0.5-0.5-0.9s-0.2-0.7-0.2-1.1c0-0.5,0.1-0.9,0.2-1.2
				c0.1-0.4,0.4-0.7,0.6-0.9s0.6-0.4,1-0.6s0.8-0.2,1.2-0.2c0.3,0,0.6,0,0.9,0.1s0.5,0.1,0.7,0.2v-0.3c0-0.2,0-0.4-0.1-0.6
				s-0.2-0.3-0.3-0.5c-0.1-0.1-0.3-0.3-0.5-0.3s-0.5-0.1-0.8-0.1c-0.4,0-0.8,0-1.1,0.1c-0.4,0.1-0.8,0.2-1.2,0.4v-1.6
				c0.4-0.2,0.8-0.3,1.2-0.4c0.4-0.1,0.9-0.2,1.4-0.2c0.6,0,1,0.1,1.5,0.2c0.4,0.2,0.8,0.4,1.1,0.6c0.3,0.3,0.5,0.6,0.6,0.9
				c0.1,0.4,0.2,0.8,0.2,1.2v3.2c0,0.6,0,1,0,1.5c0,0.4,0,0.8,0,1.1h-1.7L491.1,97.9z M491,95.1c-0.2,0-0.4-0.1-0.6-0.1
				s-0.5-0.1-0.7-0.1c-0.5,0-0.8,0.1-1.1,0.3s-0.4,0.5-0.4,0.9c0,0.2,0,0.4,0.1,0.5c0.1,0.1,0.1,0.3,0.2,0.4
				c0.1,0.1,0.2,0.2,0.4,0.2s0.3,0.1,0.4,0.1c0.2,0,0.4,0,0.5-0.1s0.3-0.1,0.5-0.2c0.1-0.1,0.3-0.2,0.4-0.3s0.2-0.2,0.3-0.3V95.1z"
				/>
			<path class="st2" d="M500.7,91.9h-0.2c-0.6,0-1.1,0.1-1.5,0.3c-0.4,0.2-0.8,0.5-1,0.9v5.7h-1.9v-8.5h1.6l0.2,1.2h0
				c0.2-0.4,0.5-0.8,0.9-1c0.4-0.2,0.9-0.4,1.4-0.4c0.2,0,0.4,0,0.5,0V91.9z"/>
			<path class="st2" d="M503,86.1h2v2.3h-2V86.1z M503.1,90.3h1.9v8.5h-1.9V90.3z"/>
			<path class="st2" d="M510,91.4L510,91.4c0.1-0.2,0.3-0.3,0.5-0.5c0.2-0.2,0.4-0.3,0.6-0.4c0.2-0.1,0.5-0.2,0.7-0.3
				s0.5-0.1,0.8-0.1c0.3,0,0.5,0,0.8,0.1c0.3,0.1,0.5,0.2,0.7,0.3c0.2,0.1,0.4,0.3,0.6,0.6s0.3,0.5,0.4,0.8c0.1,0.2,0.1,0.4,0.1,0.6
				c0,0.2,0,0.5,0,0.7v5.5h-1.9v-5.2c0-0.2,0-0.4,0-0.6c0-0.2,0-0.3-0.1-0.4c-0.1-0.3-0.2-0.5-0.4-0.6s-0.4-0.2-0.7-0.2
				c-0.4,0-0.7,0.1-1,0.3s-0.6,0.5-0.9,0.8v5.9h-1.9v-8.5h1.5L510,91.4z"/>
			<path class="st2" d="M522.4,97.3c0.4,0,0.7,0,1.1-0.1s0.8-0.2,1.2-0.4v1.7c-0.2,0.1-0.6,0.2-1.1,0.3s-1,0.2-1.6,0.2
				c-0.5,0-1.1-0.1-1.5-0.2c-0.5-0.2-0.9-0.4-1.3-0.8c-0.4-0.3-0.7-0.8-0.9-1.3c-0.2-0.6-0.3-1.2-0.3-2c0-0.8,0.1-1.5,0.3-2
				c0.2-0.6,0.5-1.1,0.8-1.4c0.3-0.4,0.7-0.7,1.2-0.9s0.9-0.3,1.3-0.3c0.5,0,0.9,0.1,1.3,0.2s0.8,0.4,1.1,0.8
				c0.3,0.4,0.5,0.8,0.7,1.4s0.3,1.2,0.3,2c0,0.3,0,0.5,0,0.7h-5c0,0.4,0.1,0.7,0.2,1c0.1,0.3,0.3,0.5,0.5,0.7s0.5,0.3,0.7,0.4
				C521.8,97.3,522.1,97.3,522.4,97.3z M521.7,91.7c-0.2,0-0.4,0-0.6,0.1s-0.3,0.2-0.5,0.4c-0.1,0.2-0.2,0.4-0.3,0.6
				s-0.1,0.5-0.2,0.7h3c0-0.3,0-0.5-0.1-0.7s-0.2-0.4-0.3-0.6c-0.1-0.2-0.3-0.3-0.4-0.4C522.1,91.7,521.9,91.7,521.7,91.7z"/>
		</g>
	</g>
	<g id="ROLE_PROJECT_MANAGER">
		<g class="st1">
			<path class="st5" d="M139.9,74.1v4.9h-1.3V67.2h2.7c0.5,0,0.9,0,1.2,0.1c0.3,0,0.6,0.1,0.9,0.2c0.7,0.2,1.3,0.6,1.7,1.1
				c0.4,0.5,0.6,1.2,0.6,2c0,0.5-0.1,0.9-0.2,1.3s-0.3,0.7-0.6,1c-0.2,0.3-0.5,0.5-0.9,0.7c-0.3,0.2-0.7,0.3-1.2,0.4v0l3.1,5h-1.3
				l-3.3-4.9H139.9z M139.9,68.5v4.3h1.3c0.4,0,0.7,0,1,0c0.3,0,0.5-0.1,0.8-0.2c0.4-0.2,0.8-0.4,1-0.7c0.2-0.3,0.4-0.8,0.4-1.3
				c0-0.5-0.1-0.9-0.3-1.2s-0.5-0.5-0.9-0.7c-0.2-0.1-0.4-0.1-0.7-0.1s-0.6,0-1,0H139.9z"/>
			<path class="st5" d="M158.9,73.1c0,0.9-0.1,1.7-0.3,2.5s-0.6,1.4-1,1.9s-0.9,1-1.5,1.3s-1.3,0.5-2,0.5c-0.8,0-1.5-0.2-2.1-0.5
				c-0.6-0.3-1.1-0.7-1.6-1.3s-0.7-1.2-1-1.9S149,74,149,73.1c0-0.9,0.1-1.7,0.3-2.5s0.6-1.4,1-1.9s0.9-1,1.5-1.3s1.3-0.5,2-0.5
				c0.8,0,1.5,0.2,2.1,0.5s1.1,0.7,1.5,1.3s0.7,1.2,1,1.9S158.9,72.2,158.9,73.1z M157.6,73.1c0-0.8-0.1-1.5-0.3-2.1
				c-0.2-0.6-0.4-1.1-0.8-1.5s-0.7-0.7-1.2-0.9c-0.4-0.2-0.9-0.3-1.4-0.3c-0.5,0-1,0.1-1.4,0.3s-0.8,0.5-1.2,0.9
				c-0.3,0.4-0.6,0.9-0.8,1.5c-0.2,0.6-0.3,1.3-0.3,2.1s0.1,1.5,0.3,2.1c0.2,0.6,0.4,1.1,0.8,1.5c0.3,0.4,0.7,0.7,1.2,0.9
				s0.9,0.3,1.4,0.3c0.5,0,1-0.1,1.4-0.3c0.4-0.2,0.8-0.5,1.2-0.9s0.6-0.9,0.8-1.5C157.5,74.6,157.6,73.9,157.6,73.1z"/>
			<path class="st5" d="M163.8,67.2v10.5h5.2v1.3h-6.5V67.2H163.8z"/>
			<path class="st5" d="M173.4,77.6h5.4v1.3h-6.7V67.2h6.4v1.3h-5.1v3.8h4.6v1.3h-4.6V77.6z"/>
		</g>
		<g class="st1">
			<path class="st5" d="M81.3,92.4c-0.2,0-0.3,0-0.5,0s-0.3,0-0.5,0v4.6h-1.9V85.2h3.1c0.5,0,1,0,1.3,0.1s0.7,0.1,1,0.2
				c0.7,0.2,1.3,0.6,1.7,1.2s0.6,1.2,0.6,2.1c0,0.6-0.1,1.1-0.3,1.5s-0.5,0.8-0.9,1.2c-0.4,0.3-0.9,0.6-1.5,0.7S82.1,92.4,81.3,92.4
				z M80.4,90.5c0.1,0,0.3,0,0.4,0s0.3,0,0.5,0c0.5,0,1,0,1.3-0.1c0.4-0.1,0.6-0.2,0.9-0.4s0.4-0.4,0.5-0.6c0.1-0.2,0.1-0.5,0.1-0.8
				c0-0.3-0.1-0.6-0.2-0.9s-0.4-0.4-0.7-0.6c-0.2-0.1-0.4-0.1-0.7-0.2s-0.6,0-1,0h-1.1V90.5z"/>
			<path class="st5" d="M97.2,88.7c0,0.8-0.2,1.5-0.6,2.1s-1,1-1.9,1.3v0l3.1,4.8h-2.3l-2.9-4.6h-1.3v4.6h-1.9V85.2h3.2
				c0.5,0,1,0,1.5,0.1s0.9,0.2,1.2,0.3c0.6,0.3,1.1,0.7,1.4,1.2S97.2,87.9,97.2,88.7z M92.3,90.6c0.4,0,0.8,0,1.1-0.1
				c0.3,0,0.6-0.1,0.8-0.2c0.4-0.2,0.7-0.4,0.8-0.7s0.2-0.6,0.2-1c0-0.3-0.1-0.6-0.2-0.8s-0.3-0.4-0.6-0.6c-0.2-0.1-0.4-0.2-0.7-0.2
				c-0.3,0-0.6-0.1-1-0.1h-1.4v3.6H92.3z"/>
		</g>
		<g class="st1">
			<path class="st5" d="M110.6,91.1c0,0.9-0.1,1.7-0.3,2.5s-0.6,1.4-1,1.9c-0.4,0.5-1,1-1.6,1.3c-0.6,0.3-1.4,0.4-2.2,0.4
				s-1.5-0.1-2.2-0.4s-1.2-0.7-1.6-1.3s-0.8-1.2-1-1.9c-0.2-0.7-0.3-1.6-0.3-2.5s0.1-1.7,0.3-2.5c0.2-0.7,0.6-1.4,1-1.9s1-1,1.6-1.3
				s1.4-0.4,2.2-0.4s1.5,0.1,2.2,0.4c0.6,0.3,1.2,0.7,1.6,1.3c0.4,0.5,0.8,1.2,1,1.9S110.6,90.2,110.6,91.1z M108.6,91.1
				c0-0.7-0.1-1.3-0.2-1.9s-0.4-1-0.7-1.3c-0.3-0.4-0.6-0.6-1-0.8c-0.4-0.2-0.8-0.3-1.3-0.3c-0.5,0-0.9,0.1-1.3,0.3
				c-0.4,0.2-0.7,0.4-1,0.8c-0.3,0.4-0.5,0.8-0.7,1.3s-0.2,1.2-0.2,1.9s0.1,1.3,0.2,1.9s0.4,1,0.7,1.3c0.3,0.4,0.6,0.6,1,0.8
				c0.4,0.2,0.8,0.3,1.3,0.3c0.5,0,0.9-0.1,1.3-0.3c0.4-0.2,0.7-0.4,1-0.8c0.3-0.4,0.5-0.8,0.7-1.3S108.6,91.8,108.6,91.1z"/>
		</g>
		<g class="st1">
			<path class="st5" d="M115.5,85.2h1.9v8.7c0,0.4,0,0.7-0.1,1c-0.1,0.3-0.1,0.5-0.2,0.7c-0.1,0.3-0.3,0.5-0.5,0.7
				c-0.2,0.2-0.4,0.4-0.7,0.5c-0.3,0.1-0.5,0.2-0.8,0.3s-0.6,0.1-0.9,0.1c-0.3,0-0.6,0-0.9-0.1s-0.6-0.1-0.8-0.2V95
				c0.2,0.1,0.5,0.2,0.7,0.2s0.5,0.1,0.8,0.1c0.5,0,0.9-0.1,1.1-0.4s0.3-0.6,0.3-1.1V85.2z"/>
			<path class="st5" d="M123.1,95.1h5.2v1.8h-7.1V85.2h6.9V87h-4.9v3h4.2v1.8h-4.2V95.1z"/>
			<path class="st5" d="M136.7,86.8c-0.5,0-1,0.1-1.5,0.3c-0.4,0.2-0.8,0.5-1.1,0.8c-0.3,0.4-0.6,0.8-0.7,1.4s-0.3,1.2-0.3,1.9
				c0,0.7,0.1,1.3,0.2,1.8c0.2,0.5,0.4,1,0.7,1.3c0.3,0.4,0.7,0.6,1.1,0.8s0.9,0.3,1.5,0.3c0.4,0,0.8,0,1.2-0.1s0.8-0.2,1.2-0.3v1.9
				c-0.4,0.1-0.8,0.2-1.2,0.3s-0.9,0.1-1.3,0.1c-0.9,0-1.7-0.1-2.4-0.4s-1.2-0.7-1.7-1.2c-0.5-0.5-0.8-1.1-1-1.9
				c-0.2-0.7-0.3-1.5-0.3-2.4c0-0.9,0.1-1.7,0.4-2.5s0.6-1.4,1.1-2s1-1,1.7-1.3s1.5-0.5,2.4-0.5c0.4,0,0.9,0,1.3,0.1
				c0.4,0.1,0.8,0.2,1.1,0.3v1.8c-0.4-0.1-0.8-0.2-1.2-0.3S137.1,86.8,136.7,86.8z"/>
			<path class="st5" d="M146.6,96.9h-1.9V87h-3.4v-1.8h8.8V87h-3.4V96.9z"/>
			<path class="st5" d="M162.7,93.8c0.2-0.9,0.5-1.9,0.9-3l1.8-5.6h2.7v11.8h-1.9v-6c0-0.9,0-1.9,0.1-3h-0.1
				c-0.1,0.3-0.2,0.7-0.3,1.1c-0.1,0.4-0.2,0.8-0.4,1.2l-2.2,6.6h-1.3l-2.2-6.6c-0.1-0.4-0.3-0.8-0.4-1.2c-0.1-0.4-0.2-0.8-0.3-1.1
				h-0.1c0.1,1.1,0.1,2.1,0.1,3v6h-1.9V85.2h2.7l1.8,5.6C162.1,91.7,162.4,92.7,162.7,93.8L162.7,93.8z"/>
			<path class="st5" d="M177.9,93.9h-4l-1,3h-2.1l4.2-11.8h1.8l4.2,11.8h-2L177.9,93.9z M175.9,88c-0.4,1.2-0.7,2.3-1,3.1l-0.4,1
				h2.7l-0.4-1C176.6,90.3,176.3,89.2,175.9,88L175.9,88z"/>
			<path class="st5" d="M189.2,90.6c0.8,1.2,1.4,2.3,1.9,3.2h0c-0.1-1.5-0.1-2.6-0.1-3.3v-5.3h1.9v11.8h-2l-3.4-5.4
				c-0.6-0.9-1.2-2-1.9-3.3h0c0.1,1.4,0.1,2.6,0.1,3.3v5.3h-1.9V85.2h2L189.2,90.6z"/>
		</g>
		<g class="st1">
			<path class="st5" d="M202.8,93.9h-4l-1,3h-2.1l4.2-11.8h1.8l4.2,11.8h-2L202.8,93.9z M200.8,88c-0.4,1.2-0.7,2.3-1,3.1l-0.4,1
				h2.7l-0.4-1C201.5,90.3,201.2,89.2,200.8,88L200.8,88z"/>
		</g>
		<g class="st1">
			<path class="st5" d="M215,92.4h-2.4v-1.8h4.3v5.9c-0.2,0.1-0.4,0.1-0.6,0.2s-0.5,0.1-0.8,0.2s-0.6,0.1-0.9,0.1
				c-0.3,0-0.6,0.1-1,0.1c-0.9,0-1.8-0.1-2.5-0.4c-0.7-0.3-1.3-0.7-1.8-1.2c-0.5-0.5-0.8-1.1-1.1-1.8c-0.2-0.7-0.4-1.5-0.4-2.4
				c0-0.6,0.1-1.2,0.2-1.7c0.1-0.6,0.3-1.1,0.5-1.5c0.2-0.5,0.5-0.9,0.9-1.3c0.3-0.4,0.7-0.7,1.2-1s0.9-0.5,1.4-0.6
				c0.5-0.1,1.1-0.2,1.7-0.2c0.5,0,1,0,1.5,0.1s0.9,0.2,1.2,0.3v1.8c-0.4-0.1-0.8-0.3-1.2-0.3c-0.4-0.1-0.8-0.1-1.3-0.1
				c-0.6,0-1.1,0.1-1.6,0.3s-0.9,0.5-1.3,0.8c-0.4,0.4-0.7,0.8-0.9,1.4c-0.2,0.5-0.3,1.2-0.3,1.9c0,1.4,0.3,2.4,1,3.1
				c0.6,0.7,1.6,1,2.8,1c0.2,0,0.5,0,0.7,0s0.4-0.1,0.6-0.1V92.4z"/>
			<path class="st5" d="M222.5,95.1h5.2v1.8h-7.1V85.2h6.9V87h-4.9v3h4.2v1.8h-4.2V95.1z"/>
			<path class="st5" d="M238.8,88.7c0,0.8-0.2,1.5-0.6,2.1s-1,1-1.9,1.3v0l3.1,4.8h-2.3l-2.9-4.6h-1.3v4.6H231V85.2h3.2
				c0.5,0,1,0,1.5,0.1s0.9,0.2,1.2,0.3c0.6,0.3,1.1,0.7,1.4,1.2S238.8,87.9,238.8,88.7z M233.8,90.6c0.4,0,0.8,0,1.1-0.1
				c0.3,0,0.6-0.1,0.8-0.2c0.4-0.2,0.7-0.4,0.8-0.7s0.2-0.6,0.2-1c0-0.3-0.1-0.6-0.2-0.8s-0.3-0.4-0.6-0.6c-0.2-0.1-0.4-0.2-0.7-0.2
				c-0.3,0-0.6-0.1-1-0.1h-1.4v3.6H233.8z"/>
		</g>
		<g>
			<rect x="68" y="58.5" class="st6" width="514" height="50.5"/>
		</g>
	</g>
</g>
<g>
	<rect x="261.4" y="29.8" class="st0" width="119.6" height="54"/>
</g>
<g>
	<path class="st7" d="M300.6,71.1l9.6-23.5h2.5l9.6,23.5h-3.1l-2.8-7.1h-9.8l-2.8,7.1H300.6z M311.4,51.2c-1,2.9-2.1,5.6-3,8
		l-0.9,2.2h7.8l-0.9-2.2C313.4,56.8,312.4,54.1,311.4,51.2L311.4,51.2z"/>
	<path class="st7" d="M325.8,71.1V47.6h2.9v23.5H325.8z"/>
	<path class="st7" d="M350,61.6h-5.4V59h8.2v11.4c-0.2,0.1-0.6,0.3-1.1,0.4s-1,0.3-1.6,0.4s-1.3,0.2-2,0.3s-1.4,0.1-2.1,0.1
		c-2,0-3.8-0.3-5.3-0.8s-2.8-1.3-3.9-2.3s-1.8-2.2-2.4-3.7s-0.8-3-0.8-4.8c0-1.9,0.3-3.7,0.9-5.2c0.6-1.6,1.4-2.9,2.6-4
		s2.5-2,4.1-2.6s3.3-0.9,5.2-0.9c0.5,0,1,0,1.5,0.1s1,0.1,1.5,0.2s0.9,0.2,1.3,0.3s0.7,0.2,1,0.3v2.5c-0.7-0.2-1.5-0.4-2.4-0.6
		s-1.8-0.2-2.7-0.2c-1.3,0-2.6,0.2-3.8,0.6s-2.3,1-3.2,1.8s-1.7,1.8-2.2,3.1s-0.8,2.7-0.8,4.4c0,1.6,0.2,3,0.7,4.2s1.1,2.2,1.9,2.9
		c0.8,0.8,1.9,1.3,3,1.7s2.5,0.6,4,0.6c0.7,0,1.3,0,2-0.1c0.7-0.1,1.2-0.2,1.8-0.3V61.6z"/>
</g>
</svg>
