<svg id="oneclaim" xmlns="http://www.w3.org/2000/svg" viewBox="0 0 650 400"><defs><style>.cls-1{fill:#7f7d00;}.cls-2{isolation:isolate;}.cls-3{fill:#fff;}.cls-4,.cls-5{fill:none;}.cls-5{stroke:#03315e;stroke-width:3px;}</style></defs><title>39</title><rect class="cls-1" width="650" height="400"/><g id="KEY_ACHIVEMENTS:" data-name="KEY ACHIVEMENTS:" class="cls-2"><path class="cls-3" d="M82.06,277.73V266h2.15v5.35h0L88.68,266h2.67l-4.9,5.82,5.3,5.93H89l-4.75-5.31h0v5.31Z" transform="translate(-0.58)"/><path class="cls-3" d="M95.57,275.93h5.78v1.8H93.42V266H101v1.8H95.57v3h4.69v1.8H95.57Z" transform="translate(-0.58)"/><path class="cls-3" d="M107.94,271l3.12-5.06h2.39L109,273v4.73h-2.15V273l-4.45-7h2.39l3.12,5.06Z" transform="translate(-0.58)"/><path class="cls-3" d="M124.67,274.73h-4.42l-1.15,3h-2.29L121.47,266h2l4.66,11.75h-2.28Zm-2.23-5.92c-.41,1.23-.77,2.25-1.1,3.08l-.4,1h3l-.4-1c-.32-.83-.69-1.86-1.1-3.08Z" transform="translate(-0.58)"/><path class="cls-3" d="M135.31,267.58a4.25,4.25,0,0,0-1.62.29,3.48,3.48,0,0,0-1.28.84,4,4,0,0,0-.83,1.37,5.32,5.32,0,0,0-.29,1.85,5.58,5.58,0,0,0,.27,1.82,3.46,3.46,0,0,0,.78,1.32,3.26,3.26,0,0,0,1.24.79,4.8,4.8,0,0,0,1.67.27,9.22,9.22,0,0,0,1.36-.11,8.52,8.52,0,0,0,1.3-.3v1.85a10.05,10.05,0,0,1-1.33.28,11.73,11.73,0,0,1-1.48.1,7.49,7.49,0,0,1-2.62-.43,4.9,4.9,0,0,1-3-3.06,7.07,7.07,0,0,1-.39-2.4,7.47,7.47,0,0,1,.41-2.49,5.75,5.75,0,0,1,1.18-2,5.33,5.33,0,0,1,1.92-1.33,6.94,6.94,0,0,1,2.61-.49,9.22,9.22,0,0,1,1.42.1,6.59,6.59,0,0,1,1.2.29V268a8.1,8.1,0,0,0-1.31-.3A8,8,0,0,0,135.31,267.58Z" transform="translate(-0.58)"/><path class="cls-3" d="M142.25,270.82h5.45V266h2.15v11.75H147.7v-5.11h-5.45v5.11H140.1V266h2.15Z" transform="translate(-0.58)"/><path class="cls-3" d="M152.66,277.73V266h2.15v11.75Z" transform="translate(-0.58)"/><path class="cls-3" d="M162,274.86c.22-.64.37-1.1.47-1.37l.61-1.67,2.18-5.84h2.27l-4.59,11.75H161L156.39,266h2.29l2.18,5.84.61,1.67.47,1.37Z" transform="translate(-0.58)"/><path class="cls-3" d="M171.23,275.93H177v1.8h-7.93V266h7.61v1.8h-5.46v3h4.69v1.8h-4.69Z" transform="translate(-0.58)"/><path class="cls-3" d="M185.33,274.58c.26-.93.58-1.92,1-3l2-5.62h3v11.75h-2.15v-6c0-.88,0-1.89.1-3h-.08c-.09.33-.21.71-.35,1.12s-.27.83-.42,1.23L186,277.73h-1.39l-2.43-6.64q-.23-.6-.42-1.23c-.14-.41-.25-.79-.35-1.12h-.08c.07,1.08.1,2.09.1,3v6h-2.15V266h3l2,5.59c.34.93.66,1.93,1,3Z" transform="translate(-0.58)"/><path class="cls-3" d="M196.3,275.93h5.78v1.8h-7.93V266h7.61v1.8H196.3v3H201v1.8H196.3Z" transform="translate(-0.58)"/><path class="cls-3" d="M210.48,271.44c.84,1.2,1.53,2.27,2.05,3.2h.06c-.07-1.53-.11-2.64-.11-3.34V266h2.15v11.75h-2.25l-3.83-5.41c-.68-.94-1.37-2-2.09-3.26h-.05c.07,1.44.1,2.56.1,3.35v5.32h-2.15V266h2.26Z" transform="translate(-0.58)"/><path class="cls-3" d="M222.24,277.73h-2.15v-10H216.3V266H226v1.8h-3.79Z" transform="translate(-0.58)"/><path class="cls-3" d="M233.47,274.36a1.13,1.13,0,0,0-.22-.73,1.62,1.62,0,0,0-.59-.45,4.7,4.7,0,0,0-.85-.29l-1-.21a13.23,13.23,0,0,1-1.31-.36,3.33,3.33,0,0,1-1.09-.57,2.63,2.63,0,0,1-.76-.92,3.14,3.14,0,0,1-.28-1.41,3.72,3.72,0,0,1,.33-1.62,3.12,3.12,0,0,1,.88-1.14,3.8,3.8,0,0,1,1.31-.68,5.87,5.87,0,0,1,1.69-.22,9.3,9.3,0,0,1,1.88.19,8.28,8.28,0,0,1,1.64.47v1.84a10.34,10.34,0,0,0-1.75-.52,8.22,8.22,0,0,0-1.58-.16,3,3,0,0,0-1.64.38,1.32,1.32,0,0,0-.57,1.16,1.29,1.29,0,0,0,.19.74,1.48,1.48,0,0,0,.51.48,3,3,0,0,0,.75.3c.28.08.58.15.89.21.5.11,1,.23,1.43.37a4.44,4.44,0,0,1,1.2.57,2.68,2.68,0,0,1,.84,1,3.36,3.36,0,0,1,.31,1.52,3.64,3.64,0,0,1-.35,1.64,3.25,3.25,0,0,1-1,1.15,4.6,4.6,0,0,1-1.57.67,9.06,9.06,0,0,1-2,.22,9.83,9.83,0,0,1-1.88-.19,5.43,5.43,0,0,1-1.54-.53v-1.82A9.22,9.22,0,0,0,229,276a8.7,8.7,0,0,0,1.71.17,6.63,6.63,0,0,0,1-.08,3,3,0,0,0,.88-.29,1.68,1.68,0,0,0,.63-.55A1.44,1.44,0,0,0,233.47,274.36Z" transform="translate(-0.58)"/><path class="cls-3" d="M238.12,269.83h2.36v2.34h-2.36Zm0,5.55h2.36v2.35h-2.36Z" transform="translate(-0.58)"/></g><g id="_3-achieve" data-name=" 3-achieve"><rect class="cls-4" x="67.01" y="253.63" width="514.19" height="99.88"/></g><g id="_3-achieve-2" data-name=" 3-achieve"><rect class="cls-5" x="67.01" y="253.63" width="514.19" height="99.88"/></g><g id="_2" data-name=" 2"><rect class="cls-4" x="66.42" y="106.03" width="514.75" height="51.88"/></g><g id="_2-2" data-name=" 2"><rect class="cls-5" x="66.42" y="106.03" width="514.75" height="51.88"/></g><g id="End_to_end_Claims_Module_for_AIG_and_includes_FNOL_intergratio" data-name="End to end Claims Module for AIG and includes FNOL intergratio" class="cls-2"><g class="cls-2"><path class="cls-3" d="M81.28,123.09a1.41,1.41,0,0,0,.17.71,1.47,1.47,0,0,0,.47.46,2.73,2.73,0,0,0,.69.31l.82.22c.38.09.75.19,1.12.3a3.86,3.86,0,0,1,1,.47,2.26,2.26,0,0,1,.7.77,2.59,2.59,0,0,1,.26,1.22,2.86,2.86,0,0,1-.28,1.32,2.6,2.6,0,0,1-.8.91,3.93,3.93,0,0,1-1.21.53,6.55,6.55,0,0,1-1.52.17,6.81,6.81,0,0,1-.78,0c-.27,0-.52-.08-.77-.13a4.64,4.64,0,0,1-.65-.18,2.25,2.25,0,0,1-.46-.21v-1.09a3.62,3.62,0,0,0,.59.24,5.27,5.27,0,0,0,.68.19c.24.05.47.09.71.12a5.59,5.59,0,0,0,.68,0,5.07,5.07,0,0,0,1-.09,2.41,2.41,0,0,0,.82-.3,1.44,1.44,0,0,0,.56-.56,1.7,1.7,0,0,0,.2-.89,1.33,1.33,0,0,0-.18-.72,1.44,1.44,0,0,0-.48-.47,2.73,2.73,0,0,0-.69-.31c-.26-.08-.53-.15-.82-.22s-.76-.18-1.12-.3a3.33,3.33,0,0,1-1-.45,2.19,2.19,0,0,1-.69-.76,2.32,2.32,0,0,1-.26-1.18,2.84,2.84,0,0,1,.27-1.28A2.47,2.47,0,0,1,81,121a3,3,0,0,1,1.08-.52,4.85,4.85,0,0,1,1.29-.17,6.75,6.75,0,0,1,1.46.15,7.05,7.05,0,0,1,1.25.39V122a9.31,9.31,0,0,0-1.26-.42,6.15,6.15,0,0,0-1.39-.17,3.52,3.52,0,0,0-1,.12,1.9,1.9,0,0,0-.68.35,1.41,1.41,0,0,0-.4.54A1.8,1.8,0,0,0,81.28,123.09Z" transform="translate(-0.58)"/><path class="cls-3" d="M94.66,126.82a4.72,4.72,0,0,1-.23,1.5,3.35,3.35,0,0,1-.67,1.15,2.83,2.83,0,0,1-1,.74,3.34,3.34,0,0,1-1.36.27,3.41,3.41,0,0,1-1.39-.27,2.79,2.79,0,0,1-1-.74,3.18,3.18,0,0,1-.66-1.15,4.72,4.72,0,0,1-.23-1.5,4.45,4.45,0,0,1,.24-1.5,3.38,3.38,0,0,1,.66-1.16,2.87,2.87,0,0,1,1-.74,3.35,3.35,0,0,1,1.37-.27,3.4,3.4,0,0,1,1.38.27,2.79,2.79,0,0,1,1,.74,3.38,3.38,0,0,1,.66,1.16A4.73,4.73,0,0,1,94.66,126.82Zm-1.18,0a3.92,3.92,0,0,0-.16-1.14,2.53,2.53,0,0,0-.44-.85,1.79,1.79,0,0,0-.67-.53,2.1,2.1,0,0,0-1.7,0,1.79,1.79,0,0,0-.67.53,2.36,2.36,0,0,0-.44.85,4.14,4.14,0,0,0,0,2.28,2.36,2.36,0,0,0,.44.85,1.9,1.9,0,0,0,.68.52,2.07,2.07,0,0,0,1.69,0,1.87,1.87,0,0,0,.67-.52,2.53,2.53,0,0,0,.44-.85A3.92,3.92,0,0,0,93.48,126.82Z" transform="translate(-0.58)"/><path class="cls-3" d="M96.53,130.29v-10.6h1.14v10.6Z" transform="translate(-0.58)"/><path class="cls-3" d="M102.28,129.14c.17-.5.4-1.15.69-1.94l1.39-3.87h1.14l-2.63,7h-1.18l-2.63-7h1.13l1.39,3.87c.27.76.5,1.41.67,1.94Z" transform="translate(-0.58)"/><path class="cls-3" d="M110.17,129.49a5.41,5.41,0,0,0,1-.09,6.46,6.46,0,0,0,.93-.26v.94a3.78,3.78,0,0,1-.93.29,6.23,6.23,0,0,1-1.18.11,5.32,5.32,0,0,1-1.4-.19,3,3,0,0,1-1.13-.62,2.92,2.92,0,0,1-.76-1.11,5.18,5.18,0,0,1,0-3.3,3.38,3.38,0,0,1,.7-1.17,2.79,2.79,0,0,1,1-.7,3.07,3.07,0,0,1,2.28,0,2.22,2.22,0,0,1,.88.61,2.89,2.89,0,0,1,.59,1.07,5.28,5.28,0,0,1,.21,1.59v.43h-4.81a2.93,2.93,0,0,0,.2,1.13,2.16,2.16,0,0,0,.55.76,2.28,2.28,0,0,0,.82.42A4,4,0,0,0,110.17,129.49Zm-.6-5.36a1.8,1.8,0,0,0-.73.15,1.87,1.87,0,0,0-.59.42,2.09,2.09,0,0,0-.41.62,2.37,2.37,0,0,0-.19.75h3.56a2.68,2.68,0,0,0-.11-.76,1.81,1.81,0,0,0-.31-.62,1.45,1.45,0,0,0-.51-.41A1.61,1.61,0,0,0,109.57,124.13Z" transform="translate(-0.58)"/><path class="cls-3" d="M115.43,124.3h0a4.47,4.47,0,0,1,.42-.45,3.25,3.25,0,0,1,.52-.37,2.94,2.94,0,0,1,.63-.24,2.83,2.83,0,0,1,.74-.09,3.13,3.13,0,0,1,.89.13,1.86,1.86,0,0,1,.73.43,2.08,2.08,0,0,1,.49.76,3.33,3.33,0,0,1,.18,1.16v4.66h-1.14v-4.47a2,2,0,0,0-.35-1.3,1.28,1.28,0,0,0-1-.39,2.19,2.19,0,0,0-1.14.32,3.09,3.09,0,0,0-.94.9v4.94h-1.14v-7h.88Z" transform="translate(-0.58)"/><path class="cls-3" d="M125.23,123.15a4.37,4.37,0,0,1,1,.11,3,3,0,0,1,.79.29v1a5,5,0,0,0-.85-.26,3.48,3.48,0,0,0-.79-.09,2.47,2.47,0,0,0-.84.14,1.93,1.93,0,0,0-.75.45,2.33,2.33,0,0,0-.53.85,4,4,0,0,0,0,2.34,2.39,2.39,0,0,0,.44.82,2.07,2.07,0,0,0,.75.54,2.56,2.56,0,0,0,1,.2,4.26,4.26,0,0,0,.86-.09,4.81,4.81,0,0,0,.84-.26v.94a1.75,1.75,0,0,1-.33.15,3.88,3.88,0,0,1-.44.13l-.51.08a3.27,3.27,0,0,1-.54,0,3.87,3.87,0,0,1-1.33-.22,2.85,2.85,0,0,1-1.1-.65,3,3,0,0,1-.74-1.11,4.29,4.29,0,0,1-.27-1.6,5.22,5.22,0,0,1,.14-1.24,3.79,3.79,0,0,1,.4-1A2.73,2.73,0,0,1,123,124a3,3,0,0,1,.71-.48,2.78,2.78,0,0,1,.78-.27A3.59,3.59,0,0,1,125.23,123.15Z" transform="translate(-0.58)"/><path class="cls-3" d="M127.94,123.33h1.14l2.16,5.46h0l2.22-5.46h1.14l-4.31,10.37H129.2l1.49-3.55Z" transform="translate(-0.58)"/><path class="cls-3" d="M139.17,130.29v-9.8h1.19v9.8Z" transform="translate(-0.58)"/><path class="cls-3" d="M142.85,130.29v-9.8H144v9.8Z" transform="translate(-0.58)"/><path class="cls-3" d="M153.69,121.37a4.57,4.57,0,0,0-1.54.26,3.27,3.27,0,0,0-1.24.78,3.59,3.59,0,0,0-.83,1.28,4.64,4.64,0,0,0-.31,1.78,4.92,4.92,0,0,0,.29,1.76,3.17,3.17,0,0,0,.8,1.23,3.29,3.29,0,0,0,1.25.72,5.15,5.15,0,0,0,1.62.24l.52,0,.55-.07.55-.11.47-.14v1.06a5.92,5.92,0,0,1-1,.26,7.49,7.49,0,0,1-1.17.09,6.59,6.59,0,0,1-2.17-.34,4.28,4.28,0,0,1-1.58-1,4.16,4.16,0,0,1-1-1.56,6.69,6.69,0,0,1,0-4.18,4.76,4.76,0,0,1,1-1.65,4.67,4.67,0,0,1,1.59-1.08,5.57,5.57,0,0,1,2.1-.38l.6,0,.58.08.51.11a3.6,3.6,0,0,1,.4.14v1.06a7.59,7.59,0,0,0-1-.25A5.36,5.36,0,0,0,153.69,121.37Z" transform="translate(-0.58)"/><path class="cls-3" d="M163.85,126.82a4.46,4.46,0,0,1-.23,1.5,3.5,3.5,0,0,1-.66,1.15,3,3,0,0,1-1,.74,3.34,3.34,0,0,1-1.36.27,3.41,3.41,0,0,1-1.39-.27,2.79,2.79,0,0,1-1-.74,3.18,3.18,0,0,1-.66-1.15,4.73,4.73,0,0,1-.22-1.5,4.46,4.46,0,0,1,.23-1.5,3.55,3.55,0,0,1,.66-1.16,3,3,0,0,1,1-.74,3.64,3.64,0,0,1,2.75,0,2.79,2.79,0,0,1,1,.74,3.23,3.23,0,0,1,.66,1.16A4.73,4.73,0,0,1,163.85,126.82Zm-1.18,0a3.92,3.92,0,0,0-.16-1.14,2.53,2.53,0,0,0-.44-.85,1.79,1.79,0,0,0-.67-.53,2.1,2.1,0,0,0-1.7,0,1.79,1.79,0,0,0-.67.53,2.36,2.36,0,0,0-.44.85,4.14,4.14,0,0,0,0,2.28,2.36,2.36,0,0,0,.44.85,1.9,1.9,0,0,0,.68.52,2,2,0,0,0,.85.18,2,2,0,0,0,.84-.18,1.87,1.87,0,0,0,.67-.52,2.53,2.53,0,0,0,.44-.85A3.92,3.92,0,0,0,162.67,126.82Z" transform="translate(-0.58)"/><path class="cls-3" d="M171.33,130.29H170.2v-4.47a3,3,0,0,0-.1-.78,1.38,1.38,0,0,0-.29-.52,1,1,0,0,0-.44-.3,1.83,1.83,0,0,0-.59-.09,1.94,1.94,0,0,0-1.1.32,3.49,3.49,0,0,0-.9.9v4.94h-1.13v-7h.88l.22,1h0a4.38,4.38,0,0,1,.41-.45,3.08,3.08,0,0,1,.5-.37,2.77,2.77,0,0,1,.61-.24,2.65,2.65,0,0,1,.71-.09,2.19,2.19,0,0,1,1.29.37,2.39,2.39,0,0,1,.79,1h0a3.79,3.79,0,0,1,1.06-1,2.56,2.56,0,0,1,1.39-.37,3.62,3.62,0,0,1,.77.1,2,2,0,0,1,.76.38,2.06,2.06,0,0,1,.57.76,3,3,0,0,1,.23,1.24v4.66h-1.14v-4.47a3,3,0,0,0-.09-.78,1.53,1.53,0,0,0-.29-.52,1,1,0,0,0-.45-.3,1.72,1.72,0,0,0-.58-.09,2,2,0,0,0-1.11.32,3.49,3.49,0,0,0-.9.9Z" transform="translate(-0.58)"/><path class="cls-3" d="M184.25,126.73a5,5,0,0,1-.15,1.29,4.17,4.17,0,0,1-.37,1,2.62,2.62,0,0,1-.56.7,3,3,0,0,1-.65.45,2.74,2.74,0,0,1-.69.25,3.13,3.13,0,0,1-.66.08,2.75,2.75,0,0,1-1.11-.21,2.62,2.62,0,0,1-.84-.62h0v4h-1.11V123.33h.86l.24.8h0a1.33,1.33,0,0,1,.25-.29,2.58,2.58,0,0,1,1-.57,2.35,2.35,0,0,1,.77-.12,3.32,3.32,0,0,1,1.13.2,2.47,2.47,0,0,1,1,.63,3.35,3.35,0,0,1,.67,1.11A4.92,4.92,0,0,1,184.25,126.73Zm-1.19,0a4,4,0,0,0-.13-1.09,2.27,2.27,0,0,0-.38-.83,1.88,1.88,0,0,0-.64-.52,2,2,0,0,0-.87-.18,2.15,2.15,0,0,0-.64.09,2.58,2.58,0,0,0-.53.24,2.24,2.24,0,0,0-.4.32,2.44,2.44,0,0,0-.28.3v3.64a2.82,2.82,0,0,0,.83.58,2.31,2.31,0,0,0,1,.21,2.17,2.17,0,0,0,.68-.12,1.82,1.82,0,0,0,.67-.43,2.39,2.39,0,0,0,.5-.85A3.79,3.79,0,0,0,183.06,126.75Z" transform="translate(-0.58)"/><path class="cls-3" d="M186.12,130.29v-10.6h1.13v10.6Z" transform="translate(-0.58)"/><path class="cls-3" d="M189.57,121.72v-1.27h1.13v1.27Zm0,8.57v-7h1.13v7Z" transform="translate(-0.58)"/><path class="cls-3" d="M197.08,129.52h0a2,2,0,0,1-.36.35,2.16,2.16,0,0,1-.49.31,3.25,3.25,0,0,1-.6.22,3.22,3.22,0,0,1-.71.08,2.73,2.73,0,0,1-.92-.15,1.94,1.94,0,0,1-1.2-1.15,2.54,2.54,0,0,1-.17-.94,2.12,2.12,0,0,1,.19-.93,1.92,1.92,0,0,1,.52-.7,2.34,2.34,0,0,1,.81-.44,3.44,3.44,0,0,1,1-.15,5.34,5.34,0,0,1,1,.09,5.09,5.09,0,0,1,.82.22h0v-.48a3.77,3.77,0,0,0,0-.51,1.61,1.61,0,0,0-.12-.39,1.49,1.49,0,0,0-.61-.58,2.41,2.41,0,0,0-1.13-.23,4.49,4.49,0,0,0-1,.1,8.14,8.14,0,0,0-.93.27v-1a3.19,3.19,0,0,1,.41-.16l.51-.14.55-.08a5.83,5.83,0,0,1,.59,0,3.59,3.59,0,0,1,1.72.37,2.26,2.26,0,0,1,1,1,2.1,2.1,0,0,1,.15.52,3,3,0,0,1,.05.62v4.64h-1Zm-.06-2.28a7.15,7.15,0,0,0-.75-.17,6.52,6.52,0,0,0-.94-.09,1.91,1.91,0,0,0-1.14.31,1.12,1.12,0,0,0-.4,1,1.4,1.4,0,0,0,.1.56,1.15,1.15,0,0,0,.28.4,1.22,1.22,0,0,0,.42.23,1.77,1.77,0,0,0,.52.08,2.11,2.11,0,0,0,.68-.11,2.63,2.63,0,0,0,.56-.25,3.82,3.82,0,0,0,.42-.29l.25-.23Z" transform="translate(-0.58)"/><path class="cls-3" d="M201.45,124.3h0a4.47,4.47,0,0,1,.42-.45,3.25,3.25,0,0,1,.52-.37,2.94,2.94,0,0,1,.63-.24,2.83,2.83,0,0,1,.74-.09,3.19,3.19,0,0,1,.89.13,1.86,1.86,0,0,1,.73.43,1.94,1.94,0,0,1,.48.76,3.33,3.33,0,0,1,.18,1.16v4.66h-1.13v-4.47a2,2,0,0,0-.35-1.3,1.28,1.28,0,0,0-1-.39,2.19,2.19,0,0,0-1.14.32,3,3,0,0,0-.94.9v4.94h-1.14v-7h.88Z" transform="translate(-0.58)"/><path class="cls-3" d="M211.25,123.15a4.37,4.37,0,0,1,1,.11,3,3,0,0,1,.79.29v1a5,5,0,0,0-.85-.26,3.48,3.48,0,0,0-.79-.09,2.39,2.39,0,0,0-.84.14,1.93,1.93,0,0,0-.75.45,2.33,2.33,0,0,0-.53.85,4,4,0,0,0-.05,2.34,2.23,2.23,0,0,0,.44.82,2.07,2.07,0,0,0,.75.54,2.52,2.52,0,0,0,1,.2,4.26,4.26,0,0,0,.86-.09,5.09,5.09,0,0,0,.84-.26v.94a1.75,1.75,0,0,1-.33.15,3.88,3.88,0,0,1-.44.13l-.51.08a3.31,3.31,0,0,1-.55,0,3.85,3.85,0,0,1-1.32-.22,2.85,2.85,0,0,1-1.1-.65,3,3,0,0,1-.74-1.11,4.29,4.29,0,0,1-.27-1.6,5.22,5.22,0,0,1,.14-1.24,4.19,4.19,0,0,1,.39-1A2.76,2.76,0,0,1,209,124a3,3,0,0,1,.71-.48,2.78,2.78,0,0,1,.78-.27A3.59,3.59,0,0,1,211.25,123.15Z" transform="translate(-0.58)"/><path class="cls-3" d="M218.14,129.49a5.41,5.41,0,0,0,1-.09,6.46,6.46,0,0,0,.93-.26v.94a3.84,3.84,0,0,1-.92.29,6.31,6.31,0,0,1-1.18.11,5.21,5.21,0,0,1-1.4-.19,3,3,0,0,1-1.14-.62,2.8,2.8,0,0,1-.75-1.11,4.53,4.53,0,0,1-.27-1.65,4.76,4.76,0,0,1,.26-1.65,3.54,3.54,0,0,1,.7-1.17,2.79,2.79,0,0,1,1-.7,3,3,0,0,1,1.19-.24,3,3,0,0,1,1.09.2,2.15,2.15,0,0,1,.88.61,2.89,2.89,0,0,1,.59,1.07,5,5,0,0,1,.22,1.59v.15s0,.13,0,.28h-4.8a2.75,2.75,0,0,0,.2,1.13,1.94,1.94,0,0,0,.55.76,2.23,2.23,0,0,0,.81.42A4.11,4.11,0,0,0,218.14,129.49Zm-.59-5.36a1.81,1.81,0,0,0-.74.15,1.73,1.73,0,0,0-.58.42,1.92,1.92,0,0,0-.41.62,2.38,2.38,0,0,0-.2.75h3.56a2.68,2.68,0,0,0-.1-.76,1.82,1.82,0,0,0-.32-.62,1.45,1.45,0,0,0-.51-.41A1.57,1.57,0,0,0,217.55,124.13Z" transform="translate(-0.58)"/><path class="cls-3" d="M226.65,130.29h-1.19v-9.8h2.71a7.66,7.66,0,0,1,1.12.08,4.41,4.41,0,0,1,1,.22,2.73,2.73,0,0,1,1.33.94,2.54,2.54,0,0,1,.46,1.55,2.78,2.78,0,0,1-.3,1.31,2.52,2.52,0,0,1-.86,1,4,4,0,0,1-1.37.57,7.83,7.83,0,0,1-1.83.2c-.33,0-.67,0-1,0Zm0-5.12.51,0h.49a6.62,6.62,0,0,0,1.44-.13,3.12,3.12,0,0,0,1-.38,1.51,1.51,0,0,0,.54-.62,2,2,0,0,0,.17-.82,1.48,1.48,0,0,0-.28-.94,1.64,1.64,0,0,0-.78-.56,2.94,2.94,0,0,0-.72-.16,6.88,6.88,0,0,0-1-.05h-1.38Z" transform="translate(-0.58)"/><path class="cls-3" d="M237.68,124.26h-.09a4.22,4.22,0,0,0-.79.07,3.44,3.44,0,0,0-.73.22,3.1,3.1,0,0,0-.61.37,2.07,2.07,0,0,0-.46.52v4.85h-1.13v-7h.87l.22,1.11h0a2.43,2.43,0,0,1,.41-.5,2.86,2.86,0,0,1,.55-.42,3.44,3.44,0,0,1,.68-.27,2.76,2.76,0,0,1,.77-.1h.15l.13,0Z" transform="translate(-0.58)"/><path class="cls-3" d="M245.1,126.82a4.45,4.45,0,0,1-.24,1.5,3.33,3.33,0,0,1-.66,1.15,2.87,2.87,0,0,1-1,.74,3.3,3.3,0,0,1-1.36.27,3.41,3.41,0,0,1-1.39-.27,2.87,2.87,0,0,1-1-.74,3.33,3.33,0,0,1-.66-1.15,5.11,5.11,0,0,1,0-3,3.4,3.4,0,0,1,.67-1.16,2.79,2.79,0,0,1,1-.74,3.3,3.3,0,0,1,1.36-.27,3.45,3.45,0,0,1,1.39.27,2.87,2.87,0,0,1,1,.74,3.36,3.36,0,0,1,.65,1.16A4.72,4.72,0,0,1,245.1,126.82Zm-1.19,0a3.61,3.61,0,0,0-.16-1.14,2.36,2.36,0,0,0-.44-.85,1.79,1.79,0,0,0-.67-.53,2.1,2.1,0,0,0-1.7,0,1.79,1.79,0,0,0-.67.53,2.53,2.53,0,0,0-.44.85,4.14,4.14,0,0,0,0,2.28,2.37,2.37,0,0,0,.45.85,1.87,1.87,0,0,0,.67.52,2.1,2.1,0,0,0,1.7,0,1.93,1.93,0,0,0,.66-.52,2.36,2.36,0,0,0,.44-.85A3.61,3.61,0,0,0,243.91,126.82Z" transform="translate(-0.58)"/><path class="cls-3" d="M248.24,131.85a2,2,0,0,1-.55,1.5,2.46,2.46,0,0,1-1.74.53,4,4,0,0,1-.61,0l-.43-.1v-1l.44.09a3.44,3.44,0,0,0,.46,0,1.41,1.41,0,0,0,1-.28,1.18,1.18,0,0,0,.3-.89v-8.39h1.14Zm-1.17-10.13v-1.27h1.14v1.27Z" transform="translate(-0.58)"/><path class="cls-3" d="M253.81,129.49a5.41,5.41,0,0,0,1-.09,6.46,6.46,0,0,0,.93-.26v.94a3.84,3.84,0,0,1-.92.29,6.31,6.31,0,0,1-1.18.11,5.34,5.34,0,0,1-1.41-.19,3,3,0,0,1-1.13-.62,2.8,2.8,0,0,1-.75-1.11,5.27,5.27,0,0,1,0-3.3,3.38,3.38,0,0,1,.7-1.17,2.79,2.79,0,0,1,1-.7,3,3,0,0,1,1.19-.24,3,3,0,0,1,1.09.2,2.15,2.15,0,0,1,.88.61,2.89,2.89,0,0,1,.59,1.07,5,5,0,0,1,.22,1.59v.15s0,.13,0,.28h-4.81a2.75,2.75,0,0,0,.21,1.13,1.94,1.94,0,0,0,.55.76,2.23,2.23,0,0,0,.81.42A4,4,0,0,0,253.81,129.49Zm-.6-5.36a1.8,1.8,0,0,0-.73.15,1.87,1.87,0,0,0-.59.42,2.07,2.07,0,0,0-.4.62,2.38,2.38,0,0,0-.2.75h3.56a2.68,2.68,0,0,0-.1-.76,2,2,0,0,0-.32-.62,1.45,1.45,0,0,0-.51-.41A1.58,1.58,0,0,0,253.21,124.13Z" transform="translate(-0.58)"/><path class="cls-3" d="M261,123.15a4.37,4.37,0,0,1,1,.11,3,3,0,0,1,.79.29v1a5,5,0,0,0-.85-.26,3.48,3.48,0,0,0-.79-.09,2.47,2.47,0,0,0-.84.14,1.93,1.93,0,0,0-.75.45,2.33,2.33,0,0,0-.53.85,3.74,3.74,0,0,0-.2,1.3,3.49,3.49,0,0,0,.15,1,2.25,2.25,0,0,0,.45.82,2,2,0,0,0,.74.54,2.56,2.56,0,0,0,1,.2,4.19,4.19,0,0,0,.86-.09,4.81,4.81,0,0,0,.84-.26v.94a2,2,0,0,1-.32.15l-.45.13-.51.08a3.27,3.27,0,0,1-.54,0,3.91,3.91,0,0,1-1.33-.22,2.92,2.92,0,0,1-1.1-.65,3,3,0,0,1-.74-1.11,4.29,4.29,0,0,1-.27-1.6,5.22,5.22,0,0,1,.14-1.24,3.79,3.79,0,0,1,.4-1,2.73,2.73,0,0,1,.58-.71,3,3,0,0,1,.71-.48,2.78,2.78,0,0,1,.78-.27A3.59,3.59,0,0,1,261,123.15Z" transform="translate(-0.58)"/><path class="cls-3" d="M268.22,130.31a2.5,2.5,0,0,1-.44.11,6.51,6.51,0,0,1-.72.06,2.93,2.93,0,0,1-.95-.14,1.7,1.7,0,0,1-.67-.39,1.48,1.48,0,0,1-.4-.61,2.24,2.24,0,0,1-.14-.8v-4.23h-1.34v-1h1.34v-1.9H266v1.9h2.08v1H266v4.06a1.23,1.23,0,0,0,.07.44,1,1,0,0,0,.22.36,1,1,0,0,0,.38.23,1.62,1.62,0,0,0,.57.09,2.74,2.74,0,0,0,.48,0,2.88,2.88,0,0,0,.46-.09Z" transform="translate(-0.58)"/></g></g><g class="cls-2"><path class="cls-3" d="M429,77.78h-1.43V66h3.25a9.36,9.36,0,0,1,1.35.09,6,6,0,0,1,1.13.27,3.22,3.22,0,0,1,1.6,1.13,3.09,3.09,0,0,1,.54,1.85,3.3,3.3,0,0,1-.35,1.57,3,3,0,0,1-1,1.14,5.19,5.19,0,0,1-1.65.69,9.62,9.62,0,0,1-2.19.23c-.39,0-.8,0-1.22,0Zm0-6.14.6,0c.22,0,.41,0,.6,0a7.68,7.68,0,0,0,1.72-.16,3.27,3.27,0,0,0,1.16-.46,1.76,1.76,0,0,0,.65-.74,2.2,2.2,0,0,0,.2-1,1.85,1.85,0,0,0-.33-1.13,2,2,0,0,0-.93-.66,3.48,3.48,0,0,0-.87-.2,9.58,9.58,0,0,0-1.14-.06H429Z" transform="translate(-0.58)"/><path class="cls-3" d="M439.23,72.91v4.87H437.8V66h3.05a12.16,12.16,0,0,1,1.31.06,6.36,6.36,0,0,1,1,.18A3.51,3.51,0,0,1,445,67.4a3.13,3.13,0,0,1,.65,2,3.34,3.34,0,0,1-.23,1.27,2.82,2.82,0,0,1-.64,1,3.2,3.2,0,0,1-1,.67,5,5,0,0,1-1.27.39v0l3.47,5h-1.43L441,72.91Zm0-5.59v4.3h1.42c.44,0,.81,0,1.12,0a4,4,0,0,0,.84-.16,2.27,2.27,0,0,0,1.15-.73,2,2,0,0,0,.4-1.31,1.87,1.87,0,0,0-.39-1.21,2,2,0,0,0-1-.66,3,3,0,0,0-.76-.14,11,11,0,0,0-1.11-.05Z" transform="translate(-0.58)"/><path class="cls-3" d="M459,71.91a7.36,7.36,0,0,1-.39,2.45,5.47,5.47,0,0,1-1.1,1.93,5.18,5.18,0,0,1-1.72,1.26,5.45,5.45,0,0,1-2.25.45,5.67,5.67,0,0,1-2.31-.45,5.08,5.08,0,0,1-1.72-1.26,5.59,5.59,0,0,1-1.08-1.93,7.63,7.63,0,0,1-.37-2.45,7.47,7.47,0,0,1,.38-2.46,5.79,5.79,0,0,1,1.1-1.93,4.92,4.92,0,0,1,1.72-1.26,5.49,5.49,0,0,1,2.26-.45,5.62,5.62,0,0,1,2.3.45,4.83,4.83,0,0,1,1.72,1.26,5.59,5.59,0,0,1,1.08,1.93A7.74,7.74,0,0,1,459,71.91Zm-1.43,0a6.38,6.38,0,0,0-.31-2.09,4.5,4.5,0,0,0-.85-1.51,3.61,3.61,0,0,0-1.29-.91,4.14,4.14,0,0,0-3.19,0,3.61,3.61,0,0,0-1.29.91,4.5,4.5,0,0,0-.85,1.51,7.2,7.2,0,0,0,0,4.18,4.38,4.38,0,0,0,.86,1.5,3.64,3.64,0,0,0,1.29.92,4.22,4.22,0,0,0,1.6.3,4.17,4.17,0,0,0,1.59-.3,3.61,3.61,0,0,0,1.28-.92,4.36,4.36,0,0,0,.85-1.5A6.34,6.34,0,0,0,457.52,71.91Z" transform="translate(-0.58)"/><path class="cls-3" d="M469.26,73h-2.68V71.74h4.11v5.68a3.35,3.35,0,0,1-.54.2c-.23.06-.51.13-.81.18s-.63.11-1,.15-.69,0-1,0a7.7,7.7,0,0,1-2.66-.42,5.28,5.28,0,0,1-1.94-1.16,5,5,0,0,1-1.19-1.84,6.79,6.79,0,0,1-.4-2.4,7.5,7.5,0,0,1,.44-2.62,5.51,5.51,0,0,1,3.31-3.3,7.39,7.39,0,0,1,2.62-.45q.39,0,.78,0c.25,0,.5,0,.73.09a5.27,5.27,0,0,1,.65.14,3,3,0,0,1,.5.16V67.5a7.92,7.92,0,0,0-1.21-.3,7.84,7.84,0,0,0-1.37-.12,6.11,6.11,0,0,0-1.91.31,4.69,4.69,0,0,0-1.6.91A4.56,4.56,0,0,0,463,69.85a5.35,5.35,0,0,0-.41,2.17,6.1,6.1,0,0,0,.34,2.11,3.8,3.8,0,0,0,1,1.46,3.85,3.85,0,0,0,1.52.86,6.77,6.77,0,0,0,2,.27,8.17,8.17,0,0,0,1,0,5,5,0,0,0,.88-.15Z" transform="translate(-0.58)"/><path class="cls-3" d="M475,72.91v4.87h-1.43V66h3a12,12,0,0,1,1.31.06,6.74,6.74,0,0,1,1,.18,3.51,3.51,0,0,1,1.88,1.13,3.13,3.13,0,0,1,.65,2,3.34,3.34,0,0,1-.23,1.27,3,3,0,0,1-.64,1,3.46,3.46,0,0,1-1,.67,4.91,4.91,0,0,1-1.28.39v0l3.48,5h-1.43l-3.62-4.87Zm0-5.59v4.3h1.41c.44,0,.82,0,1.13,0a3.82,3.82,0,0,0,.83-.16,2.23,2.23,0,0,0,1.15-.73,2,2,0,0,0,.41-1.31,1.93,1.93,0,0,0-.39-1.21,2,2,0,0,0-1-.66,3.22,3.22,0,0,0-.76-.14,11,11,0,0,0-1.12-.05Z" transform="translate(-0.58)"/><path class="cls-3" d="M483,77.78,487.83,66h1.24l4.78,11.75H492.3l-1.4-3.54H486l-1.4,3.54Zm5.4-9.92c-.53,1.46-1,2.79-1.5,4L486.5,73h3.89l-.45-1.11c-.48-1.21-1-2.54-1.47-4Z" transform="translate(-0.58)"/><path class="cls-3" d="M501.88,77.78h-.66l-3-7q-.61-1.44-1.23-3.15H497c.08,1.63.12,3.13.12,4.49v5.68h-1.43V66h2.07l2.76,6.65c.32.76.67,1.67,1,2.75h0c.42-1.19.77-2.11,1.05-2.75L505.38,66h2.07V77.78H506V72.1c0-1.33,0-2.83.13-4.49h-.07q-.66,1.8-1.23,3.15Z" transform="translate(-0.58)"/><path class="cls-3" d="M520.06,72.58c.72,1,1.43,2.1,2.14,3.2h0c-.08-1.14-.12-2.31-.12-3.5V66h1.44V77.78h-1.43l-4.61-6.55c-.79-1.14-1.5-2.21-2.13-3.2h0c.07,1.07.11,2.32.11,3.75v6H514V66h1.42Z" transform="translate(-0.58)"/><path class="cls-3" d="M525.36,77.78,530.15,66h1.24l4.78,11.75h-1.55l-1.4-3.54H528.3l-1.4,3.54Zm5.4-9.92c-.53,1.46-1,2.79-1.51,4L528.81,73h3.9l-.45-1.11c-.48-1.21-1-2.54-1.47-4Z" transform="translate(-0.58)"/><path class="cls-3" d="M544.2,77.78h-.66l-3-7q-.62-1.44-1.23-3.15h-.07c.08,1.63.12,3.13.12,4.49v5.68H538V66H540l2.76,6.65c.32.76.67,1.67,1.05,2.75h0c.42-1.19.77-2.11,1.05-2.75L547.7,66h2.06V77.78h-1.43V72.1c0-1.33,0-2.83.13-4.49h-.07q-.66,1.8-1.23,3.15Z" transform="translate(-0.58)"/><path class="cls-3" d="M554.18,76.49h6v1.29h-7.45V66h7.13v1.29h-5.7v3.79h5.07V72.4h-5.07Z" transform="translate(-0.58)"/></g><g class="cls-2"><path class="cls-3" d="M139.9,71.07v4.87h-1.43V64.19h3.05c.51,0,.95,0,1.31,0a6.36,6.36,0,0,1,1,.18,3.59,3.59,0,0,1,1.88,1.14,3.13,3.13,0,0,1,.65,2,3.38,3.38,0,0,1-.23,1.27,2.82,2.82,0,0,1-.64,1,3.2,3.2,0,0,1-1,.67,5,5,0,0,1-1.27.39v0l3.47,5h-1.43l-3.62-4.87Zm0-5.59v4.3h1.42c.44,0,.81,0,1.12,0a4.82,4.82,0,0,0,.84-.16,2.34,2.34,0,0,0,1.15-.73,2.07,2.07,0,0,0,.4-1.31,1.91,1.91,0,0,0-.39-1.21,2.12,2.12,0,0,0-1-.67,4.33,4.33,0,0,0-.76-.14c-.29,0-.66,0-1.11,0Z" transform="translate(-0.58)"/><path class="cls-3" d="M159.61,70.07a7.36,7.36,0,0,1-.38,2.45,5.51,5.51,0,0,1-1.1,1.92,4.92,4.92,0,0,1-1.72,1.26,5.45,5.45,0,0,1-2.25.45,5.67,5.67,0,0,1-2.31-.45,4.83,4.83,0,0,1-1.72-1.26,5.63,5.63,0,0,1-1.08-1.92,7.63,7.63,0,0,1-.37-2.45,7.38,7.38,0,0,1,.38-2.46,5.79,5.79,0,0,1,1.1-1.93,4.92,4.92,0,0,1,1.72-1.26,5.51,5.51,0,0,1,2.27-.45,5.6,5.6,0,0,1,2.29.45,4.83,4.83,0,0,1,1.72,1.26,5.59,5.59,0,0,1,1.08,1.93A7.65,7.65,0,0,1,159.61,70.07Zm-1.42,0a6.34,6.34,0,0,0-.31-2.09,4.41,4.41,0,0,0-.85-1.51,3.77,3.77,0,0,0-1.29-.92,4.26,4.26,0,0,0-3.19,0,3.77,3.77,0,0,0-1.29.92,4.41,4.41,0,0,0-.85,1.51,7.2,7.2,0,0,0,0,4.18,4.38,4.38,0,0,0,.86,1.5,3.61,3.61,0,0,0,1.29.91,4,4,0,0,0,1.6.31,4,4,0,0,0,1.59-.31,3.58,3.58,0,0,0,1.28-.91,4.36,4.36,0,0,0,.85-1.5A6.34,6.34,0,0,0,158.19,70.07Z" transform="translate(-0.58)"/><path class="cls-3" d="M163.68,64.19V74.64h5.73v1.3h-7.16V64.19Z" transform="translate(-0.58)"/><path class="cls-3" d="M173,74.64h6v1.3h-7.45V64.19h7.13v1.29H173v3.79h5.07v1.29H173Z" transform="translate(-0.58)"/></g><g class="cls-2"><path class="cls-3" d="M82.3,93h-.57l-.53,0v4.59H79.05V85.76h3.39a12.87,12.87,0,0,1,1.49.08,6.66,6.66,0,0,1,1.13.22,3.72,3.72,0,0,1,1.86,1.18,3.18,3.18,0,0,1,.65,2.05,3.39,3.39,0,0,1-.35,1.54,3.31,3.31,0,0,1-1,1.15,5,5,0,0,1-1.65.73A8.92,8.92,0,0,1,82.3,93Zm-1.1-1.85.47,0h.59A6.06,6.06,0,0,0,83.72,91a2.69,2.69,0,0,0,1-.39,1.48,1.48,0,0,0,.52-.6,2,2,0,0,0,.16-.78,1.66,1.66,0,0,0-.24-.9,1.53,1.53,0,0,0-.83-.58,3.84,3.84,0,0,0-.76-.16c-.3,0-.67,0-1.11,0H81.2Z" transform="translate(-0.58)"/><path class="cls-3" d="M98.54,89.29a3.28,3.28,0,0,1-.68,2.09,4,4,0,0,1-2.1,1.27v0l3.49,4.83H96.67L93.48,93H92v4.55H89.85V85.76h3.57a12.13,12.13,0,0,1,1.65.11,5.39,5.39,0,0,1,1.31.3A3.4,3.4,0,0,1,98,87.34,3.28,3.28,0,0,1,98.54,89.29Zm-5.48,1.87a11,11,0,0,0,1.25-.06,4.16,4.16,0,0,0,.87-.2,1.7,1.7,0,0,0,.9-.67,1.86,1.86,0,0,0,.25-1,1.74,1.74,0,0,0-.2-.84,1.33,1.33,0,0,0-.67-.57,2.52,2.52,0,0,0-.77-.21,9.07,9.07,0,0,0-1.15-.07H92v3.6Z" transform="translate(-0.58)"/><path class="cls-3" d="M112.06,91.64a7.47,7.47,0,0,1-.38,2.46A5.49,5.49,0,0,1,110.57,96a4.9,4.9,0,0,1-1.8,1.25,6.79,6.79,0,0,1-4.86,0,4.9,4.9,0,0,1-1.8-1.25A5.34,5.34,0,0,1,101,94.1a7.47,7.47,0,0,1-.39-2.46,7.38,7.38,0,0,1,.39-2.46,5.34,5.34,0,0,1,1.11-1.93,5,5,0,0,1,1.8-1.26,6.93,6.93,0,0,1,4.86,0,5,5,0,0,1,1.8,1.26,5.49,5.49,0,0,1,1.11,1.93A7.38,7.38,0,0,1,112.06,91.64Zm-2.22,0a6.23,6.23,0,0,0-.26-1.88,4,4,0,0,0-.73-1.34,2.9,2.9,0,0,0-1.11-.79,3.53,3.53,0,0,0-1.4-.27,3.62,3.62,0,0,0-1.41.27,3,3,0,0,0-1.1.79,3.83,3.83,0,0,0-.73,1.34,5.92,5.92,0,0,0-.27,1.88,5.85,5.85,0,0,0,.27,1.87,3.74,3.74,0,0,0,.73,1.34,3.09,3.09,0,0,0,1.1.8,3.61,3.61,0,0,0,1.41.26,3.53,3.53,0,0,0,1.4-.26,3,3,0,0,0,1.11-.8,3.9,3.9,0,0,0,.73-1.34A6.16,6.16,0,0,0,109.84,91.64Z" transform="translate(-0.58)"/><path class="cls-3" d="M116.18,85.76h2.15v8.69a5.58,5.58,0,0,1-.08,1,2.92,2.92,0,0,1-.25.74,2.32,2.32,0,0,1-.56.71,2.94,2.94,0,0,1-.75.49,4.28,4.28,0,0,1-.9.27,6.66,6.66,0,0,1-1,.08,6,6,0,0,1-1-.09,3.92,3.92,0,0,1-.84-.22V95.58a4.13,4.13,0,0,0,.82.25,4.33,4.33,0,0,0,.87.08,1.61,1.61,0,0,0,1.21-.38,1.58,1.58,0,0,0,.38-1.14Z" transform="translate(-0.58)"/><path class="cls-3" d="M123.25,95.71H129v1.8H121.1V85.76h7.61v1.8h-5.46v3h4.69v1.8h-4.69Z" transform="translate(-0.58)"/><path class="cls-3" d="M137,87.36a4.52,4.52,0,0,0-1.62.29,3.68,3.68,0,0,0-1.27.85,3.85,3.85,0,0,0-.83,1.36,6,6,0,0,0,0,3.68,3.49,3.49,0,0,0,.78,1.31,3.28,3.28,0,0,0,1.24.8,4.78,4.78,0,0,0,1.66.26,9,9,0,0,0,1.36-.1,7.07,7.07,0,0,0,1.3-.31v1.85a9.9,9.9,0,0,1-1.32.28,10.22,10.22,0,0,1-1.48.1,7.5,7.5,0,0,1-2.62-.42,5,5,0,0,1-3-3.07,7.26,7.26,0,0,1-.38-2.39,7.39,7.39,0,0,1,.41-2.49,5.64,5.64,0,0,1,1.18-2A5.31,5.31,0,0,1,134.29,86a6.57,6.57,0,0,1,2.61-.49,9,9,0,0,1,1.41.1,6.53,6.53,0,0,1,1.21.28v1.83a8.45,8.45,0,0,0-1.31-.31A8,8,0,0,0,137,87.36Z" transform="translate(-0.58)"/><path class="cls-3" d="M146.62,97.51h-2.15v-10h-3.79v-1.8h9.73v1.8h-3.79Z" transform="translate(-0.58)"/><path class="cls-3" d="M161.82,94.36c.26-.92.58-1.92,1-3l2-5.62h3V97.51h-2.15v-6c0-.87,0-1.89.11-3h-.08l-.35,1.13-.42,1.22-2.43,6.64h-1.39l-2.43-6.64c-.15-.4-.29-.81-.43-1.22l-.35-1.13h-.08c.07,1.08.11,2.09.11,3v6h-2.15V85.76h3l2,5.6q.51,1.4,1,3Z" transform="translate(-0.58)"/><path class="cls-3" d="M177.36,94.52h-4.43l-1.15,3h-2.29l4.66-11.75h2l4.66,11.75h-2.27Zm-2.23-5.93c-.41,1.23-.78,2.26-1.1,3.08l-.4,1h3l-.41-1c-.32-.83-.68-1.86-1.1-3.08Z" transform="translate(-0.58)"/><path class="cls-3" d="M188.57,91.23c.84,1.2,1.53,2.26,2.06,3.19h.05c-.07-1.53-.11-2.64-.11-3.33V85.76h2.15V97.51h-2.25l-3.83-5.41c-.67-.93-1.37-2-2.09-3.25h-.05c.07,1.44.1,2.55.1,3.34v5.32h-2.15V85.76h2.26Z" transform="translate(-0.58)"/><path class="cls-3" d="M202.26,94.52h-4.43l-1.15,3h-2.29l4.66-11.75h2l4.66,11.75h-2.27ZM200,88.59c-.41,1.23-.78,2.26-1.1,3.08l-.4,1h3l-.4-1c-.32-.83-.68-1.86-1.1-3.08Z" transform="translate(-0.58)"/><path class="cls-3" d="M214.48,93h-2.63v-1.8h4.78v5.92a5.64,5.64,0,0,1-.67.2,9,9,0,0,1-.91.19c-.34.06-.69.1-1,.14s-.71,0-1.07,0a8.26,8.26,0,0,1-2.76-.42,5.5,5.5,0,0,1-2-1.2A4.89,4.89,0,0,1,207,94.27a6.83,6.83,0,0,1-.39-2.36,7,7,0,0,1,.21-1.74,5.61,5.61,0,0,1,.6-1.54,6.08,6.08,0,0,1,1-1.28,5.78,5.78,0,0,1,1.31-1,6.26,6.26,0,0,1,1.6-.62,8,8,0,0,1,1.88-.21,11.26,11.26,0,0,1,1.68.12,8.21,8.21,0,0,1,1.31.31v1.83a8.64,8.64,0,0,0-1.38-.33,8.39,8.39,0,0,0-1.41-.12,5.46,5.46,0,0,0-1.79.29,3.88,3.88,0,0,0-2.41,2.21,4.86,4.86,0,0,0-.35,1.89A3.73,3.73,0,0,0,213,95.91a6.85,6.85,0,0,0,.77,0,5.69,5.69,0,0,0,.69-.1Z" transform="translate(-0.58)"/><path class="cls-3" d="M221.42,95.71h5.77v1.8h-7.92V85.76h7.61v1.8h-5.46v3h4.68v1.8h-4.68Z" transform="translate(-0.58)"/><path class="cls-3" d="M238.17,89.29a3.28,3.28,0,0,1-.68,2.09,4.11,4.11,0,0,1-2.1,1.27v0l3.49,4.83H236.3L233.1,93h-1.47v4.55h-2.15V85.76h3.57a12.13,12.13,0,0,1,1.65.11,5.39,5.39,0,0,1,1.31.3,3.4,3.4,0,0,1,1.6,1.17A3.28,3.28,0,0,1,238.17,89.29Zm-5.48,1.87a11,11,0,0,0,1.25-.06,4.31,4.31,0,0,0,.87-.2,1.7,1.7,0,0,0,.9-.67,2,2,0,0,0,.25-1,1.74,1.74,0,0,0-.2-.84,1.37,1.37,0,0,0-.67-.57,2.59,2.59,0,0,0-.78-.21,9,9,0,0,0-1.15-.07h-1.53v3.6Z" transform="translate(-0.58)"/></g><g id="_2-3" data-name=" 2"><rect class="cls-5" x="66.42" y="53.84" width="514.75" height="51.88"/></g><rect class="cls-1" x="285.22" y="39.34" width="79.56" height="29"/><path class="cls-3" d="M302.61,65.57l9.58-23.52h2.48l9.58,23.52h-3.12l-2.8-7.08h-9.84l-2.81,7.08ZM313.4,45.71q-1.57,4.4-3,8l-.88,2.22h7.8l-.89-2.22q-1.46-3.64-2.95-8Z" transform="translate(-0.58)"/><path class="cls-3" d="M327.85,65.57V42.05h2.86V65.57Z" transform="translate(-0.58)"/><path class="cls-3" d="M352.07,56.06h-5.36V53.48h8.23V64.85a6.49,6.49,0,0,1-1.08.4c-.48.13-1,.26-1.63.38s-1.26.21-2,.28-1.39.1-2.06.1a15.85,15.85,0,0,1-5.34-.82A10.69,10.69,0,0,1,339,62.85a9.82,9.82,0,0,1-2.37-3.68,13.6,13.6,0,0,1-.81-4.81,14.81,14.81,0,0,1,.89-5.24,11.16,11.16,0,0,1,2.56-4,11.45,11.45,0,0,1,4.07-2.57,14.71,14.71,0,0,1,5.24-.91c.52,0,1,0,1.55.07s1,.1,1.48.17.9.17,1.3.27a7.2,7.2,0,0,1,1,.34V45a16,16,0,0,0-2.43-.59,15.77,15.77,0,0,0-2.74-.24,12.13,12.13,0,0,0-3.82.61,9.15,9.15,0,0,0-3.21,1.84,9,9,0,0,0-2.21,3.08,10.65,10.65,0,0,0-.83,4.35,11.63,11.63,0,0,0,.69,4.22,7.67,7.67,0,0,0,1.94,2.94,7.82,7.82,0,0,0,3,1.71,13.44,13.44,0,0,0,4,.55,19.05,19.05,0,0,0,2-.1,12.41,12.41,0,0,0,1.75-.3Z" transform="translate(-0.58)"/><path class="cls-3" d="M442.21,96.33a6.58,6.58,0,0,0,3.35,1c1.91,0,3-1,3-2.47s-.77-2.13-2.73-2.88c-2.36-.84-3.82-2.07-3.82-4.11,0-2.25,1.87-3.93,4.68-3.93a6.6,6.6,0,0,1,3.2.71l-.51,1.53a5.73,5.73,0,0,0-2.75-.69c-2,0-2.73,1.18-2.73,2.17,0,1.35.88,2,2.88,2.79,2.45.95,3.69,2.13,3.69,4.26s-1.65,4.16-5.07,4.16a7.43,7.43,0,0,1-3.69-.92Z" transform="translate(-0.58)"/><path class="cls-3" d="M462.53,93.32c0,3.85-2.66,5.52-5.17,5.52-2.82,0-5-2.06-5-5.34,0-3.49,2.28-5.53,5.16-5.53S462.53,90.14,462.53,93.32Zm-8.25.11c0,2.28,1.31,4,3.16,4s3.16-1.7,3.16-4c0-1.76-.88-4-3.12-4S454.28,91.45,454.28,93.43Z" transform="translate(-0.58)"/><path class="cls-3" d="M464.92,83.35h1.89V98.61h-1.89Z" transform="translate(-0.58)"/><path class="cls-3" d="M470.72,88.21l2,5.84a26.74,26.74,0,0,1,.83,2.67h.07c.24-.86.54-1.72.88-2.67l2-5.84h2l-4.09,10.4h-1.8l-3.95-10.4Z" transform="translate(-0.58)"/><path class="cls-3" d="M481.16,93.75a3.32,3.32,0,0,0,3.56,3.61,6.85,6.85,0,0,0,2.88-.53l.32,1.35a8.41,8.41,0,0,1-3.46.64c-3.2,0-5.11-2.1-5.11-5.24S481.2,88,484.23,88c3.39,0,4.3,3,4.3,4.9a7.06,7.06,0,0,1-.07.88Zm5.54-1.35c0-1.2-.49-3.07-2.62-3.07-1.91,0-2.75,1.76-2.9,3.07Z" transform="translate(-0.58)"/><path class="cls-3" d="M490.87,91c0-1.07,0-2-.09-2.81h1.68l.1,1.72h.05A3.8,3.8,0,0,1,496,88c1.44,0,3.68.86,3.68,4.43v6.21h-1.89v-6c0-1.67-.63-3.07-2.41-3.07a2.69,2.69,0,0,0-2.54,1.94,2.84,2.84,0,0,0-.12.88v6.25h-1.89Z" transform="translate(-0.58)"/><path class="cls-3" d="M510.2,98.22a6.93,6.93,0,0,1-3,.6,4.93,4.93,0,0,1-5.17-5.3A5.28,5.28,0,0,1,507.62,88a6.26,6.26,0,0,1,2.62.53L509.81,90a4.47,4.47,0,0,0-2.19-.49c-2.38,0-3.67,1.76-3.67,3.93a3.56,3.56,0,0,0,3.61,3.89,5.33,5.33,0,0,0,2.32-.52Z" transform="translate(-0.58)"/><path class="cls-3" d="M513.48,88.21l2.28,6.14c.24.69.5,1.51.67,2.13h0c.19-.62.41-1.42.67-2.17l2.06-6.1h2l-2.84,7.41c-1.35,3.57-2.28,5.39-3.57,6.51a5.1,5.1,0,0,1-2.32,1.23l-.47-1.59a5,5,0,0,0,1.66-.93,5.85,5.85,0,0,0,1.59-2.1,1.64,1.64,0,0,0,.15-.45,1.91,1.91,0,0,0-.13-.5l-3.85-9.58Z" transform="translate(-0.58)"/><path class="cls-3" d="M529.4,84.13V98.61h-1.87V84.13Z" transform="translate(-0.58)"/><path class="cls-3" d="M534.54,84.13V98.61h-1.87V84.13Z" transform="translate(-0.58)"/><path class="cls-3" d="M83.81,299.32v10.79H82.42V299.32Z" transform="translate(-0.58)"/><path class="cls-3" d="M86.35,304.46c0-.8,0-1.46-.06-2.1h1.23l.07,1.25h0a2.69,2.69,0,0,1,2.44-1.43,2.31,2.31,0,0,1,2.19,1.56h0a3.23,3.23,0,0,1,.87-1,2.64,2.64,0,0,1,1.71-.55c1,0,2.54.68,2.54,3.37v4.56H96v-4.39c0-1.49-.55-2.38-1.68-2.38a1.83,1.83,0,0,0-1.67,1.28,2.45,2.45,0,0,0-.11.7v4.79H91.2v-4.64c0-1.24-.54-2.13-1.61-2.13a1.93,1.93,0,0,0-1.75,1.41,1.87,1.87,0,0,0-.11.68v4.68H86.35Z" transform="translate(-0.58)"/><path class="cls-3" d="M99.7,304.89c0-1,0-1.79-.07-2.53h1.27l.06,1.33h0a3.07,3.07,0,0,1,2.76-1.51c1.87,0,3.28,1.59,3.28,3.94,0,2.79-1.7,4.16-3.52,4.16a2.72,2.72,0,0,1-2.39-1.21h0v4.21H99.7Zm1.39,2.07a3.32,3.32,0,0,0,.06.57,2.18,2.18,0,0,0,2.12,1.65c1.49,0,2.35-1.22,2.35-3,0-1.56-.82-2.88-2.31-2.88a2.23,2.23,0,0,0-2.12,1.74,2.2,2.2,0,0,0-.1.58Z" transform="translate(-0.58)"/><path class="cls-3" d="M108.8,298.74h1.41v11.37H108.8Z" transform="translate(-0.58)"/><path class="cls-3" d="M113.36,306.49a2.48,2.48,0,0,0,2.66,2.69,5.1,5.1,0,0,0,2.14-.4l.24,1a6.29,6.29,0,0,1-2.57.48,3.6,3.6,0,0,1-3.81-3.91c0-2.33,1.37-4.18,3.63-4.18,2.53,0,3.2,2.23,3.2,3.65a4.54,4.54,0,0,1,0,.66Zm4.13-1a2,2,0,0,0-1.95-2.29,2.33,2.33,0,0,0-2.16,2.29Z" transform="translate(-0.58)"/><path class="cls-3" d="M120.59,304.46c0-.8,0-1.46-.06-2.1h1.23l.07,1.25h0a2.69,2.69,0,0,1,2.44-1.43,2.31,2.31,0,0,1,2.19,1.56h0a3.23,3.23,0,0,1,.87-1,2.64,2.64,0,0,1,1.71-.55c1,0,2.54.68,2.54,3.37v4.56h-1.37v-4.39c0-1.49-.55-2.38-1.68-2.38a1.83,1.83,0,0,0-1.67,1.28,2.45,2.45,0,0,0-.11.7v4.79h-1.38v-4.64c0-1.24-.54-2.13-1.61-2.13a1.93,1.93,0,0,0-1.75,1.41,1.87,1.87,0,0,0-.11.68v4.68h-1.38Z" transform="translate(-0.58)"/><path class="cls-3" d="M134.72,306.49a2.48,2.48,0,0,0,2.66,2.69,5.1,5.1,0,0,0,2.14-.4l.24,1a6.29,6.29,0,0,1-2.57.48,3.6,3.6,0,0,1-3.81-3.91c0-2.33,1.37-4.18,3.63-4.18,2.53,0,3.2,2.23,3.2,3.65a4.54,4.54,0,0,1-.05.66Zm4.13-1a2,2,0,0,0-1.95-2.29,2.33,2.33,0,0,0-2.16,2.29Z" transform="translate(-0.58)"/><path class="cls-3" d="M142,304.46c0-.8,0-1.46-.06-2.1h1.25l.08,1.28h0a2.86,2.86,0,0,1,2.56-1.46c1.07,0,2.74.65,2.74,3.3v4.63h-1.41v-4.47c0-1.25-.46-2.29-1.79-2.29a2,2,0,0,0-1.89,1.44,1.91,1.91,0,0,0-.1.66v4.66H142Z" transform="translate(-0.58)"/><path class="cls-3" d="M152.47,300.14v2.22h2v1.07h-2v4.18c0,1,.27,1.51,1.05,1.51a3.06,3.06,0,0,0,.82-.1l.06,1.06a3.48,3.48,0,0,1-1.25.19,2,2,0,0,1-1.52-.59,2.89,2.89,0,0,1-.54-2v-4.23h-1.2v-1.07h1.2V300.5Z" transform="translate(-0.58)"/><path class="cls-3" d="M160.35,310.11l-.11-1h-.05a2.86,2.86,0,0,1-2.36,1.15,2.2,2.2,0,0,1-2.37-2.22c0-1.87,1.66-2.9,4.65-2.88V305a1.59,1.59,0,0,0-1.76-1.79,3.84,3.84,0,0,0-2,.57l-.32-.93a4.84,4.84,0,0,1,2.54-.69c2.37,0,2.95,1.62,2.95,3.17v2.9a11.7,11.7,0,0,0,.12,1.86Zm-.2-4c-1.54,0-3.29.24-3.29,1.75a1.25,1.25,0,0,0,1.33,1.34,1.94,1.94,0,0,0,1.88-1.29,1.86,1.86,0,0,0,.08-.45Z" transform="translate(-0.58)"/><path class="cls-3" d="M165.41,300.14v2.22h2v1.07h-2v4.18c0,1,.27,1.51,1.06,1.51a3,3,0,0,0,.81-.1l.07,1.06a3.56,3.56,0,0,1-1.25.19,2,2,0,0,1-1.52-.59,2.89,2.89,0,0,1-.55-2v-4.23h-1.2v-1.07H164V300.5Z" transform="translate(-0.58)"/><path class="cls-3" d="M170.58,300.18a.88.88,0,0,1-1.75,0,.86.86,0,0,1,.88-.88A.84.84,0,0,1,170.58,300.18ZM169,310.11v-7.75h1.41v7.75Z" transform="translate(-0.58)"/><path class="cls-3" d="M179.76,306.17a3.78,3.78,0,0,1-3.85,4.11,3.68,3.68,0,0,1-3.72-4,3.79,3.79,0,0,1,3.84-4.12A3.67,3.67,0,0,1,179.76,306.17Zm-6.14.08c0,1.7,1,3,2.35,3s2.35-1.27,2.35-3c0-1.31-.65-3-2.32-3S173.62,304.78,173.62,306.25Z" transform="translate(-0.58)"/><path class="cls-3" d="M181.54,304.46c0-.8,0-1.46-.07-2.1h1.25l.08,1.28h0a2.87,2.87,0,0,1,2.56-1.46c1.08,0,2.74.65,2.74,3.3v4.63h-1.41v-4.47c0-1.25-.46-2.29-1.79-2.29a2,2,0,0,0-1.89,1.44,2.18,2.18,0,0,0-.1.66v4.66h-1.4Z" transform="translate(-0.58)"/><path class="cls-3" d="M193.66,308.41a4.91,4.91,0,0,0,2.5.71c1.43,0,2.26-.76,2.26-1.84s-.58-1.59-2-2.15c-1.76-.62-2.84-1.54-2.84-3.06,0-1.68,1.39-2.93,3.48-2.93a4.93,4.93,0,0,1,2.39.53l-.38,1.14a4.38,4.38,0,0,0-2.05-.51c-1.48,0-2,.88-2,1.61,0,1,.66,1.51,2.15,2.08,1.82.71,2.75,1.59,2.75,3.17s-1.23,3.11-3.78,3.11a5.62,5.62,0,0,1-2.75-.69Z" transform="translate(-0.58)"/><path class="cls-3" d="M208.18,308c0,.8,0,1.5.06,2.11H207l-.08-1.27h0a2.9,2.9,0,0,1-2.56,1.44c-1.22,0-2.67-.67-2.67-3.39v-4.53h1.41v4.29c0,1.47.45,2.47,1.73,2.47a2,2,0,0,0,1.85-1.28,2.09,2.09,0,0,0,.13-.72v-4.76h1.41Z" transform="translate(-0.58)"/><path class="cls-3" d="M216,309.82a5.16,5.16,0,0,1-2.22.45,3.69,3.69,0,0,1-3.86-4,3.93,3.93,0,0,1,4.16-4.11,4.77,4.77,0,0,1,2,.4l-.32,1.09a3.33,3.33,0,0,0-1.64-.37,2.92,2.92,0,0,0-.05,5.83,3.91,3.91,0,0,0,1.73-.39Z" transform="translate(-0.58)"/><path class="cls-3" d="M223.11,309.82a5.25,5.25,0,0,1-2.23.45,3.69,3.69,0,0,1-3.86-4,3.94,3.94,0,0,1,4.17-4.11,4.76,4.76,0,0,1,1.95.4l-.32,1.09a3.31,3.31,0,0,0-1.63-.37,2.92,2.92,0,0,0-.05,5.83,3.94,3.94,0,0,0,1.73-.39Z" transform="translate(-0.58)"/><path class="cls-3" d="M225.44,306.49a2.48,2.48,0,0,0,2.66,2.69,5.13,5.13,0,0,0,2.14-.4l.24,1a6.29,6.29,0,0,1-2.57.48,3.6,3.6,0,0,1-3.81-3.91c0-2.33,1.37-4.18,3.63-4.18,2.53,0,3.2,2.23,3.2,3.65a4.54,4.54,0,0,1-.05.66Zm4.13-1a2,2,0,0,0-1.95-2.29,2.33,2.33,0,0,0-2.16,2.29Z" transform="translate(-0.58)"/><path class="cls-3" d="M232.48,308.67a3.72,3.72,0,0,0,1.86.56c1,0,1.5-.51,1.5-1.15s-.4-1-1.44-1.43c-1.39-.5-2.05-1.26-2.05-2.19a2.39,2.39,0,0,1,2.67-2.28,3.82,3.82,0,0,1,1.91.49l-.35,1a3.07,3.07,0,0,0-1.59-.45c-.83,0-1.29.48-1.29,1.06s.46.93,1.47,1.31c1.34.51,2,1.18,2,2.34,0,1.36-1,2.32-2.9,2.32a4.4,4.4,0,0,1-2.17-.53Z" transform="translate(-0.58)"/><path class="cls-3" d="M238.82,308.67a3.68,3.68,0,0,0,1.85.56c1,0,1.51-.51,1.51-1.15s-.4-1-1.44-1.43c-1.4-.5-2.05-1.26-2.05-2.19a2.39,2.39,0,0,1,2.67-2.28,3.85,3.85,0,0,1,1.91.49l-.36,1a3,3,0,0,0-1.58-.45c-.83,0-1.3.48-1.3,1.06s.47.93,1.47,1.31c1.35.51,2,1.18,2,2.34,0,1.36-1.06,2.32-2.9,2.32a4.44,4.44,0,0,1-2.18-.53Z" transform="translate(-0.58)"/><path class="cls-3" d="M245,303.64a1,1,0,0,1,1-1,1,1,0,1,1-1,1Zm0,5.65a1,1,0,0,1,1-1,1,1,0,1,1-1,1Z" transform="translate(-0.58)"/><path class="cls-3" d="M251.9,308.41a4.91,4.91,0,0,0,2.5.71c1.43,0,2.26-.76,2.26-1.84s-.58-1.59-2-2.15c-1.76-.62-2.84-1.54-2.84-3.06,0-1.68,1.39-2.93,3.49-2.93a4.91,4.91,0,0,1,2.38.53l-.38,1.14a4.38,4.38,0,0,0-2-.51c-1.48,0-2,.88-2,1.61,0,1,.66,1.51,2.15,2.08,1.82.71,2.75,1.59,2.75,3.17s-1.23,3.11-3.77,3.11a5.63,5.63,0,0,1-2.76-.69Z" transform="translate(-0.58)"/><path class="cls-3" d="M260.82,306.49a2.47,2.47,0,0,0,2.65,2.69,5.19,5.19,0,0,0,2.15-.4l.24,1a6.39,6.39,0,0,1-2.58.48,3.6,3.6,0,0,1-3.81-3.91c0-2.33,1.38-4.18,3.63-4.18,2.53,0,3.21,2.23,3.21,3.65,0,.29,0,.52-.05.66Zm4.12-1a2,2,0,0,0-1.95-2.29,2.34,2.34,0,0,0-2.16,2.29Z" transform="translate(-0.58)"/><path class="cls-3" d="M268.05,298.74h1.41v11.37h-1.41Z" transform="translate(-0.58)"/><path class="cls-3" d="M272,310.11v-6.68h-1.09v-1.07H272V302a3.65,3.65,0,0,1,.89-2.7,2.72,2.72,0,0,1,1.89-.72,3.29,3.29,0,0,1,1.2.22l-.19,1.09a2.06,2.06,0,0,0-.9-.18c-1.2,0-1.5,1.06-1.5,2.25v.41h1.87v1.07h-1.87v6.68Z" transform="translate(-0.58)"/><path class="cls-3" d="M284.18,310.11l-.12-1h0a2.9,2.9,0,0,1-2.37,1.15,2.2,2.2,0,0,1-2.37-2.22c0-1.87,1.66-2.9,4.66-2.88V305a1.6,1.6,0,0,0-1.76-1.79,3.88,3.88,0,0,0-2,.57l-.32-.93a4.86,4.86,0,0,1,2.54-.69c2.37,0,2.95,1.62,2.95,3.17v2.9a10.57,10.57,0,0,0,.13,1.86Zm-.21-4c-1.54,0-3.28.24-3.28,1.75a1.25,1.25,0,0,0,1.33,1.34,1.94,1.94,0,0,0,1.87-1.29,1.47,1.47,0,0,0,.08-.45Z" transform="translate(-0.58)"/><path class="cls-3" d="M287.6,304.46c0-.8,0-1.46-.07-2.1h1.25l.08,1.28h0a2.86,2.86,0,0,1,2.56-1.46c1.07,0,2.73.65,2.73,3.3v4.63h-1.41v-4.47c0-1.25-.46-2.29-1.79-2.29a2,2,0,0,0-1.89,1.44,2.19,2.19,0,0,0-.09.66v4.66H287.6Z" transform="translate(-0.58)"/><path class="cls-3" d="M303.17,298.74v9.37c0,.69,0,1.47.06,2H302l-.07-1.35h0a2.85,2.85,0,0,1-2.64,1.52c-1.87,0-3.31-1.58-3.31-3.93,0-2.58,1.58-4.17,3.47-4.17a2.6,2.6,0,0,1,2.34,1.19h0v-4.63Zm-1.41,6.77a3,3,0,0,0-.06-.59,2.08,2.08,0,0,0-2-1.63c-1.45,0-2.32,1.28-2.32,3s.77,2.87,2.29,2.87a2.13,2.13,0,0,0,2.07-1.68,2.93,2.93,0,0,0,.06-.61Z" transform="translate(-0.58)"/><path class="cls-3" d="M308.9,304.46c0-.8,0-1.46-.07-2.1h1.23l.07,1.25h.05a2.66,2.66,0,0,1,2.43-1.43,2.31,2.31,0,0,1,2.19,1.56h0a3.23,3.23,0,0,1,.87-1,2.64,2.64,0,0,1,1.71-.55c1,0,2.54.68,2.54,3.37v4.56h-1.37v-4.39c0-1.49-.55-2.38-1.68-2.38a1.83,1.83,0,0,0-1.67,1.28,2.45,2.45,0,0,0-.11.7v4.79h-1.38v-4.64c0-1.24-.54-2.13-1.61-2.13a1.93,1.93,0,0,0-1.75,1.41,1.87,1.87,0,0,0-.11.68v4.68H308.9Z" transform="translate(-0.58)"/><path class="cls-3" d="M322.54,302.36l1.7,4.58c.18.51.37,1.12.5,1.58h0c.14-.46.3-1,.49-1.61l1.54-4.55h1.49l-2.11,5.52c-1,2.66-1.7,4-2.66,4.85a3.92,3.92,0,0,1-1.73.92l-.35-1.19a3.61,3.61,0,0,0,1.23-.69,4.18,4.18,0,0,0,1.18-1.57.89.89,0,0,0,.12-.33,1.13,1.13,0,0,0-.1-.37L321,302.36Z" transform="translate(-0.58)"/><path class="cls-3" d="M334.4,300.5h-3.28v-1.18h8v1.18h-3.3v9.61H334.4Z" transform="translate(-0.58)"/><path class="cls-3" d="M339.9,306.49a2.48,2.48,0,0,0,2.66,2.69,5.19,5.19,0,0,0,2.15-.4l.24,1a6.39,6.39,0,0,1-2.58.48,3.6,3.6,0,0,1-3.81-3.91c0-2.33,1.37-4.18,3.63-4.18,2.53,0,3.2,2.23,3.2,3.65a4.54,4.54,0,0,1-.05.66Zm4.13-1a2,2,0,0,0-1.95-2.29,2.33,2.33,0,0,0-2.16,2.29Z" transform="translate(-0.58)"/><path class="cls-3" d="M351.42,310.11l-.11-1h-.05a2.87,2.87,0,0,1-2.37,1.15,2.2,2.2,0,0,1-2.36-2.22c0-1.87,1.66-2.9,4.65-2.88V305a1.59,1.59,0,0,0-1.76-1.79,3.84,3.84,0,0,0-2,.57l-.32-.93a4.84,4.84,0,0,1,2.54-.69c2.37,0,2.95,1.62,2.95,3.17v2.9a11.7,11.7,0,0,0,.12,1.86Zm-.21-4c-1.53,0-3.28.24-3.28,1.75a1.25,1.25,0,0,0,1.33,1.34,1.92,1.92,0,0,0,1.87-1.29,1.47,1.47,0,0,0,.08-.45Z" transform="translate(-0.58)"/><path class="cls-3" d="M354.85,304.46c0-.8,0-1.46-.07-2.1H356l.06,1.25h.05a2.66,2.66,0,0,1,2.43-1.43,2.29,2.29,0,0,1,2.19,1.56h0a3.21,3.21,0,0,1,.86-1,2.65,2.65,0,0,1,1.71-.55c1,0,2.55.68,2.55,3.37v4.56h-1.38v-4.39c0-1.49-.54-2.38-1.68-2.38a1.82,1.82,0,0,0-1.66,1.28,2.13,2.13,0,0,0-.12.7v4.79H359.7v-4.64c0-1.24-.55-2.13-1.62-2.13a1.91,1.91,0,0,0-1.74,1.41,1.87,1.87,0,0,0-.12.68v4.68h-1.37Z" transform="translate(-0.58)"/><path class="cls-3" d="M373.15,300.18a.87.87,0,1,1-1.74,0,.86.86,0,0,1,.88-.88A.84.84,0,0,1,373.15,300.18Zm-1.57,9.93v-7.75H373v7.75Z" transform="translate(-0.58)"/><path class="cls-3" d="M375.33,304.46c0-.8,0-1.46-.07-2.1h1.23l.07,1.25h.05a2.66,2.66,0,0,1,2.43-1.43,2.29,2.29,0,0,1,2.19,1.56h0a3.23,3.23,0,0,1,.87-1,2.65,2.65,0,0,1,1.71-.55c1,0,2.55.68,2.55,3.37v4.56H385v-4.39c0-1.49-.54-2.38-1.68-2.38a1.83,1.83,0,0,0-1.67,1.28,2.45,2.45,0,0,0-.11.7v4.79h-1.37v-4.64c0-1.24-.55-2.13-1.62-2.13a1.93,1.93,0,0,0-1.75,1.41,1.87,1.87,0,0,0-.11.68v4.68h-1.37Z" transform="translate(-0.58)"/><path class="cls-3" d="M388.67,304.89c0-1,0-1.79-.06-2.53h1.26l.06,1.33h0a3.05,3.05,0,0,1,2.75-1.51c1.87,0,3.28,1.59,3.28,3.94,0,2.79-1.7,4.16-3.52,4.16a2.73,2.73,0,0,1-2.39-1.21h0v4.21h-1.39Zm1.39,2.07a2.54,2.54,0,0,0,.07.57,2.16,2.16,0,0,0,2.11,1.65c1.49,0,2.35-1.22,2.35-3,0-1.56-.81-2.88-2.3-2.88a2.24,2.24,0,0,0-2.13,1.74,2.2,2.2,0,0,0-.1.58Z" transform="translate(-0.58)"/><path class="cls-3" d="M397.77,298.74h1.41v11.37h-1.41Z" transform="translate(-0.58)"/><path class="cls-3" d="M402.33,306.49a2.49,2.49,0,0,0,2.66,2.69,5.19,5.19,0,0,0,2.15-.4l.24,1a6.39,6.39,0,0,1-2.58.48,3.6,3.6,0,0,1-3.81-3.91c0-2.33,1.38-4.18,3.63-4.18,2.53,0,3.2,2.23,3.2,3.65,0,.29,0,.52,0,.66Zm4.13-1a2,2,0,0,0-1.95-2.29,2.34,2.34,0,0,0-2.16,2.29Z" transform="translate(-0.58)"/><path class="cls-3" d="M409.57,304.46c0-.8,0-1.46-.07-2.1h1.23l.07,1.25h.05a2.66,2.66,0,0,1,2.43-1.43,2.3,2.3,0,0,1,2.19,1.56h0a3.23,3.23,0,0,1,.87-1,2.64,2.64,0,0,1,1.71-.55c1,0,2.55.68,2.55,3.37v4.56h-1.38v-4.39c0-1.49-.54-2.38-1.68-2.38a1.83,1.83,0,0,0-1.67,1.28,2.45,2.45,0,0,0-.11.7v4.79h-1.37v-4.64c0-1.24-.55-2.13-1.62-2.13a1.93,1.93,0,0,0-1.75,1.41,1.87,1.87,0,0,0-.11.68v4.68h-1.37Z" transform="translate(-0.58)"/><path class="cls-3" d="M423.69,306.49a2.48,2.48,0,0,0,2.66,2.69,5.19,5.19,0,0,0,2.15-.4l.24,1a6.39,6.39,0,0,1-2.58.48,3.6,3.6,0,0,1-3.81-3.91c0-2.33,1.37-4.18,3.63-4.18,2.53,0,3.2,2.23,3.2,3.65a4.54,4.54,0,0,1-.05.66Zm4.13-1a2,2,0,0,0-1.95-2.29,2.34,2.34,0,0,0-2.16,2.29Z" transform="translate(-0.58)"/><path class="cls-3" d="M430.93,304.46c0-.8,0-1.46-.07-2.1h1.25l.08,1.28h0a2.87,2.87,0,0,1,2.56-1.46c1.08,0,2.74.65,2.74,3.3v4.63h-1.41v-4.47c0-1.25-.46-2.29-1.79-2.29a2,2,0,0,0-1.89,1.44,2.18,2.18,0,0,0-.1.66v4.66h-1.4Z" transform="translate(-0.58)"/><path class="cls-3" d="M441.44,300.14v2.22h2v1.07h-2v4.18c0,1,.27,1.51,1.05,1.51a3.06,3.06,0,0,0,.82-.1l.07,1.06a3.56,3.56,0,0,1-1.25.19,2,2,0,0,1-1.52-.59,2.89,2.89,0,0,1-.55-2v-4.23h-1.2v-1.07h1.2V300.5Z" transform="translate(-0.58)"/><path class="cls-3" d="M445.73,306.49a2.47,2.47,0,0,0,2.65,2.69,5.19,5.19,0,0,0,2.15-.4l.24,1a6.39,6.39,0,0,1-2.58.48,3.6,3.6,0,0,1-3.81-3.91c0-2.33,1.38-4.18,3.64-4.18,2.52,0,3.2,2.23,3.2,3.65,0,.29,0,.52-.05.66Zm4.13-1a2,2,0,0,0-2-2.29,2.34,2.34,0,0,0-2.16,2.29Z" transform="translate(-0.58)"/><path class="cls-3" d="M459.65,298.74v9.37c0,.69,0,1.47.06,2h-1.26l-.07-1.35h0a2.86,2.86,0,0,1-2.64,1.52c-1.87,0-3.31-1.58-3.31-3.93,0-2.58,1.58-4.17,3.47-4.17a2.61,2.61,0,0,1,2.34,1.19h0v-4.63Zm-1.41,6.77a3,3,0,0,0-.06-.59,2.08,2.08,0,0,0-2-1.63c-1.45,0-2.32,1.28-2.32,3s.77,2.87,2.29,2.87a2.14,2.14,0,0,0,2.07-1.68,2.93,2.93,0,0,0,.06-.61Z" transform="translate(-0.58)"/><path class="cls-3" d="M467.07,300.14v2.22h2v1.07h-2v4.18c0,1,.27,1.51,1.06,1.51a3,3,0,0,0,.81-.1l.07,1.06a3.56,3.56,0,0,1-1.25.19,2,2,0,0,1-1.52-.59,2.89,2.89,0,0,1-.55-2v-4.23h-1.2v-1.07h1.2V300.5Z" transform="translate(-0.58)"/><path class="cls-3" d="M470.67,298.74h1.41v4.84h0a2.69,2.69,0,0,1,1-1,2.87,2.87,0,0,1,1.44-.4c1,0,2.7.65,2.7,3.32v4.61h-1.4v-4.45c0-1.25-.47-2.31-1.8-2.31a2,2,0,0,0-1.89,1.41,1.7,1.7,0,0,0-.09.67v4.68h-1.41Z" transform="translate(-0.58)"/><path class="cls-3" d="M481.12,300.18a.88.88,0,0,1-1.75,0,.86.86,0,0,1,.88-.88A.84.84,0,0,1,481.12,300.18Zm-1.57,9.93v-7.75H481v7.75Z" transform="translate(-0.58)"/><path class="cls-3" d="M483.1,308.67a3.72,3.72,0,0,0,1.86.56c1,0,1.5-.51,1.5-1.15s-.4-1-1.44-1.43c-1.39-.5-2-1.26-2-2.19a2.39,2.39,0,0,1,2.67-2.28,3.82,3.82,0,0,1,1.91.49l-.35,1a3.07,3.07,0,0,0-1.59-.45c-.83,0-1.29.48-1.29,1.06s.46.93,1.47,1.31c1.34.51,2,1.18,2,2.34,0,1.36-1.05,2.32-2.9,2.32a4.4,4.4,0,0,1-2.17-.53Z" transform="translate(-0.58)"/><path class="cls-3" d="M498.54,309.82a5.2,5.2,0,0,1-2.22.45,3.69,3.69,0,0,1-3.86-4,3.93,3.93,0,0,1,4.16-4.11,4.68,4.68,0,0,1,1.95.4l-.32,1.09a3.25,3.25,0,0,0-1.63-.37,2.92,2.92,0,0,0-.05,5.83,3.91,3.91,0,0,0,1.73-.39Z" transform="translate(-0.58)"/><path class="cls-3" d="M507.1,306.17a3.78,3.78,0,0,1-3.85,4.11,3.68,3.68,0,0,1-3.72-4,3.79,3.79,0,0,1,3.85-4.12A3.67,3.67,0,0,1,507.1,306.17Zm-6.14.08c0,1.7,1,3,2.35,3s2.35-1.27,2.35-3c0-1.31-.65-3-2.32-3S501,304.78,501,306.25Z" transform="translate(-0.58)"/><path class="cls-3" d="M508.88,304.46c0-.8,0-1.46-.07-2.1H510l.07,1.25h.05a2.66,2.66,0,0,1,2.43-1.43,2.29,2.29,0,0,1,2.19,1.56h0a3.23,3.23,0,0,1,.87-1,2.64,2.64,0,0,1,1.71-.55c1,0,2.55.68,2.55,3.37v4.56h-1.38v-4.39c0-1.49-.54-2.38-1.68-2.38a1.84,1.84,0,0,0-1.67,1.28,2.45,2.45,0,0,0-.11.7v4.79h-1.37v-4.64c0-1.24-.55-2.13-1.62-2.13a1.91,1.91,0,0,0-1.74,1.41,1.87,1.87,0,0,0-.12.68v4.68h-1.37Z" transform="translate(-0.58)"/><path class="cls-3" d="M522.22,304.89c0-1,0-1.79-.06-2.53h1.26l.06,1.33h0a3,3,0,0,1,2.75-1.51c1.87,0,3.28,1.59,3.28,3.94,0,2.79-1.7,4.16-3.52,4.16a2.72,2.72,0,0,1-2.39-1.21h0v4.21h-1.39Zm1.39,2.07a2.54,2.54,0,0,0,.07.57,2.16,2.16,0,0,0,2.11,1.65c1.49,0,2.35-1.22,2.35-3,0-1.56-.81-2.88-2.3-2.88a2.24,2.24,0,0,0-2.13,1.74,2.2,2.2,0,0,0-.1.58Z" transform="translate(-0.58)"/><path class="cls-3" d="M531.32,298.74h1.41v11.37h-1.41Z" transform="translate(-0.58)"/><path class="cls-3" d="M536.67,300.18a.88.88,0,0,1-1.75,0,.86.86,0,0,1,.88-.88A.84.84,0,0,1,536.67,300.18Zm-1.57,9.93v-7.75h1.41v7.75Z" transform="translate(-0.58)"/><path class="cls-3" d="M543.13,310.11l-.11-1h0a2.87,2.87,0,0,1-2.37,1.15,2.2,2.2,0,0,1-2.36-2.22c0-1.87,1.66-2.9,4.65-2.88V305a1.59,1.59,0,0,0-1.76-1.79,3.84,3.84,0,0,0-2,.57l-.33-.93a4.93,4.93,0,0,1,2.55-.69c2.37,0,2.95,1.62,2.95,3.17v2.9a11.7,11.7,0,0,0,.12,1.86Zm-.2-4c-1.54,0-3.29.24-3.29,1.75a1.25,1.25,0,0,0,1.33,1.34,1.94,1.94,0,0,0,1.88-1.29,1.86,1.86,0,0,0,.08-.45Z" transform="translate(-0.58)"/><path class="cls-3" d="M546.56,304.46c0-.8,0-1.46-.07-2.1h1.25l.08,1.28h0a2.87,2.87,0,0,1,2.56-1.46c1.08,0,2.74.65,2.74,3.3v4.63h-1.41v-4.47c0-1.25-.46-2.29-1.79-2.29a2,2,0,0,0-1.89,1.44,2.18,2.18,0,0,0-.1.66v4.66h-1.4Z" transform="translate(-0.58)"/><path class="cls-3" d="M561,309.82a5.25,5.25,0,0,1-2.23.45,3.68,3.68,0,0,1-3.85-4A3.93,3.93,0,0,1,559,302.2a4.72,4.72,0,0,1,2,.4l-.32,1.09a3.31,3.31,0,0,0-1.63-.37,2.92,2.92,0,0,0,0,5.83,3.94,3.94,0,0,0,1.73-.39Z" transform="translate(-0.58)"/><path class="cls-3" d="M563.29,306.49a2.48,2.48,0,0,0,2.66,2.69,5.1,5.1,0,0,0,2.14-.4l.24,1a6.29,6.29,0,0,1-2.57.48,3.6,3.6,0,0,1-3.81-3.91c0-2.33,1.37-4.18,3.63-4.18,2.53,0,3.2,2.23,3.2,3.65a4.54,4.54,0,0,1,0,.66Zm4.13-1a2,2,0,0,0-1.95-2.29,2.33,2.33,0,0,0-2.16,2.29Z" transform="translate(-0.58)"/><path class="cls-3" d="M82.37,324.09c0-1,0-1.79-.06-2.53h1.26l.06,1.33h0a3,3,0,0,1,2.75-1.5c1.87,0,3.28,1.58,3.28,3.93,0,2.79-1.7,4.16-3.52,4.16a2.72,2.72,0,0,1-2.39-1.21h0v4.21H82.37Zm1.39,2.07a2.54,2.54,0,0,0,.07.57,2.16,2.16,0,0,0,2.11,1.65c1.49,0,2.35-1.22,2.35-3,0-1.56-.81-2.88-2.3-2.88a2.24,2.24,0,0,0-2.13,1.74,2.2,2.2,0,0,0-.1.58Z" transform="translate(-0.58)"/><path class="cls-3" d="M91.47,324c0-.91,0-1.7-.06-2.42h1.23l0,1.52h.06a2.33,2.33,0,0,1,2.15-1.69,1.64,1.64,0,0,1,.4,0v1.33a2.21,2.21,0,0,0-.48-.05,2,2,0,0,0-1.89,1.81,4.25,4.25,0,0,0-.06.66v4.13h-1.4Z" transform="translate(-0.58)"/><path class="cls-3" d="M103.56,325.37a3.78,3.78,0,0,1-3.86,4.11,3.67,3.67,0,0,1-3.71-4,3.78,3.78,0,0,1,3.84-4.11A3.67,3.67,0,0,1,103.56,325.37Zm-6.15.08c0,1.7,1,3,2.35,3s2.36-1.27,2.36-3c0-1.31-.66-3-2.33-3S97.41,324,97.41,325.45Z" transform="translate(-0.58)"/><path class="cls-3" d="M103.44,331.55A2.3,2.3,0,0,0,105,331c.38-.45.53-1.06.53-2.92v-6.48h1.4v7a4.27,4.27,0,0,1-.92,3.18,3.56,3.56,0,0,1-2.41.88Zm3.63-12.17a.83.83,0,0,1-.88.87.84.84,0,0,1-.86-.87.87.87,0,0,1,.9-.88A.83.83,0,0,1,107.07,319.38Z" transform="translate(-0.58)"/><path class="cls-3" d="M110,325.69a2.48,2.48,0,0,0,2.66,2.69,5.1,5.1,0,0,0,2.14-.4l.24,1a6.29,6.29,0,0,1-2.57.48,3.6,3.6,0,0,1-3.81-3.91c0-2.33,1.37-4.17,3.63-4.17,2.53,0,3.2,2.22,3.2,3.65a4.51,4.51,0,0,1,0,.65Zm4.13-1a2,2,0,0,0-1.95-2.29,2.33,2.33,0,0,0-2.16,2.29Z" transform="translate(-0.58)"/><path class="cls-3" d="M122.76,329a5.25,5.25,0,0,1-2.23.45,3.69,3.69,0,0,1-3.86-4,3.94,3.94,0,0,1,4.16-4.11,4.77,4.77,0,0,1,2,.4l-.32,1.09a3.33,3.33,0,0,0-1.64-.37,2.92,2.92,0,0,0,0,5.83,3.94,3.94,0,0,0,1.73-.39Z" transform="translate(-0.58)"/><path class="cls-3" d="M126.31,319.34v2.22h2v1.07h-2v4.18c0,1,.27,1.51,1,1.51a3.06,3.06,0,0,0,.82-.1l.06,1.06a3.48,3.48,0,0,1-1.25.19,2,2,0,0,1-1.52-.59,2.89,2.89,0,0,1-.54-2v-4.23h-1.2v-1.07h1.2v-1.85Z" transform="translate(-0.58)"/><path class="cls-3" d="M133.44,329.31v-6.68h-1.09v-1.07h1.09v-.37a3.62,3.62,0,0,1,.9-2.7,2.7,2.7,0,0,1,1.89-.72,3.38,3.38,0,0,1,1.2.22l-.2,1.09a2,2,0,0,0-.89-.18c-1.2,0-1.51,1.06-1.51,2.25v.41h1.88v1.07h-1.88v6.68Z" transform="translate(-0.58)"/><path class="cls-3" d="M144.77,325.37a3.78,3.78,0,0,1-3.86,4.11,3.68,3.68,0,0,1-3.71-4,3.78,3.78,0,0,1,3.84-4.11A3.66,3.66,0,0,1,144.77,325.37Zm-6.14.08c0,1.7,1,3,2.35,3s2.35-1.27,2.35-3c0-1.31-.66-3-2.32-3S138.63,324,138.63,325.45Z" transform="translate(-0.58)"/><path class="cls-3" d="M146.54,324c0-.91,0-1.7-.06-2.42h1.23l0,1.52h.07a2.31,2.31,0,0,1,2.14-1.69,1.64,1.64,0,0,1,.4,0v1.33a2.21,2.21,0,0,0-.48-.05,2,2,0,0,0-1.89,1.81,4.25,4.25,0,0,0-.06.66v4.13h-1.4Z" transform="translate(-0.58)"/><path class="cls-3" d="M155.06,327.69a4.63,4.63,0,0,0,2.3.66c1.81,0,2.37-1.15,2.35-2,0-1.45-1.32-2.08-2.68-2.08h-.79v-1.06H157c1,0,2.32-.52,2.32-1.76,0-.83-.53-1.56-1.83-1.56a3.83,3.83,0,0,0-2.08.68l-.37-1a5,5,0,0,1,2.72-.8c2.05,0,3,1.21,3,2.48a2.59,2.59,0,0,1-1.92,2.45v0a2.71,2.71,0,0,1,2.32,2.67c0,1.67-1.3,3.12-3.79,3.12a5.26,5.26,0,0,1-2.71-.7Z" transform="translate(-0.58)"/><path class="cls-3" d="M174.35,329a7,7,0,0,1-2.84.51c-3,0-5.33-1.92-5.33-5.46a5.36,5.36,0,0,1,5.63-5.67,5.83,5.83,0,0,1,2.56.48L174,320a5.21,5.21,0,0,0-2.18-.45c-2.53,0-4.21,1.62-4.21,4.45,0,2.64,1.52,4.34,4.14,4.34a5.64,5.64,0,0,0,2.28-.45Z" transform="translate(-0.58)"/><path class="cls-3" d="M182.88,325.37a3.78,3.78,0,0,1-3.85,4.11,3.68,3.68,0,0,1-3.72-4,3.78,3.78,0,0,1,3.84-4.11A3.66,3.66,0,0,1,182.88,325.37Zm-6.14.08c0,1.7,1,3,2.35,3s2.35-1.27,2.35-3c0-1.31-.65-3-2.32-3S176.74,324,176.74,325.45Z" transform="translate(-0.58)"/><path class="cls-3" d="M191.14,327.2c0,.8,0,1.5.06,2.11H190l-.08-1.27h0a2.9,2.9,0,0,1-2.56,1.44c-1.22,0-2.67-.67-2.67-3.39v-4.53H186v4.29c0,1.47.44,2.47,1.73,2.47A2,2,0,0,0,189.6,327a2.09,2.09,0,0,0,.13-.72v-4.76h1.41Z" transform="translate(-0.58)"/><path class="cls-3" d="M193.47,323.66c0-.8,0-1.46-.06-2.1h1.25l.08,1.28h0a2.85,2.85,0,0,1,2.56-1.45c1.07,0,2.74.64,2.74,3.29v4.63h-1.41v-4.47c0-1.25-.47-2.29-1.8-2.29A2,2,0,0,0,195,324a1.91,1.91,0,0,0-.1.66v4.66h-1.41Z" transform="translate(-0.58)"/><path class="cls-3" d="M204,319.34v2.22h2v1.07h-2v4.18c0,1,.28,1.51,1.06,1.51a3.06,3.06,0,0,0,.82-.1l.06,1.06a3.48,3.48,0,0,1-1.25.19,2,2,0,0,1-1.52-.59,2.89,2.89,0,0,1-.54-2v-4.23h-1.2v-1.07h1.2v-1.85Z" transform="translate(-0.58)"/><path class="cls-3" d="M207.58,324c0-.91,0-1.7-.06-2.42h1.23l.05,1.52h.06a2.33,2.33,0,0,1,2.15-1.69,1.64,1.64,0,0,1,.4,0v1.33a2.21,2.21,0,0,0-.48-.05,2,2,0,0,0-1.89,1.81,4.25,4.25,0,0,0-.06.66v4.13h-1.4Z" transform="translate(-0.58)"/><path class="cls-3" d="M214.45,319.38a.88.88,0,0,1-1.75,0,.86.86,0,0,1,.88-.88A.84.84,0,0,1,214.45,319.38Zm-1.57,9.93v-7.75h1.41v7.75Z" transform="translate(-0.58)"/><path class="cls-3" d="M217.41,325.69a2.48,2.48,0,0,0,2.65,2.69,5.19,5.19,0,0,0,2.15-.4l.24,1a6.35,6.35,0,0,1-2.58.48,3.6,3.6,0,0,1-3.81-3.91c0-2.33,1.38-4.17,3.64-4.17,2.53,0,3.2,2.22,3.2,3.65a4.51,4.51,0,0,1-.05.65Zm4.13-1a2,2,0,0,0-1.95-2.29,2.35,2.35,0,0,0-2.17,2.29Z" transform="translate(-0.58)"/><path class="cls-3" d="M224.45,327.87a3.68,3.68,0,0,0,1.85.56c1,0,1.51-.51,1.51-1.15s-.4-1-1.44-1.43c-1.39-.49-2.05-1.26-2.05-2.19a2.39,2.39,0,0,1,2.67-2.27,3.82,3.82,0,0,1,1.91.48l-.35,1a3.07,3.07,0,0,0-1.59-.45c-.83,0-1.3.48-1.3,1.06s.47.93,1.48,1.31c1.34.51,2,1.19,2,2.34,0,1.36-1.06,2.32-2.9,2.32a4.37,4.37,0,0,1-2.17-.53Z" transform="translate(-0.58)"/></svg>