<?xml version="1.0" encoding="utf-8"?>
<!-- Generator: Adobe Illustrator 24.0.1, SVG Export Plug-In . SVG Version: 6.00 Build 0)  -->
<svg version="1.1" id="_41" xmlns="http://www.w3.org/2000/svg" xmlns:xlink="http://www.w3.org/1999/xlink" x="0px" y="0px"
	 viewBox="0 0 650 400" style="enable-background:new 0 0 650 400;" xml:space="preserve">
<style type="text/css">
	.st0{fill:#6A9BCC;}
	.st1{fill:#011325;}
	.st2{font-family:'Corbel';}
	.st3{font-size:16px;}
	.st4{letter-spacing:1.1;}
	.st5{font-family:'Corbel-Bold';}
	.st6{font-size:18px;}
	.st7{fill:#03315E;}
	.st8{font-size:15px;}
	.st9{font-size:27.7732px;}
</style>
<title>41</title>
<rect class="st0" width="650" height="400"/>
<g id="Adoption_Rate:_Lead_the_Program_when_I_took_over_the_current">
	<text transform="matrix(0.9 0 0 1 81.916 295.0791)" class="st1 st2 st3">Adoption</text>
	<text transform="matrix(0.9 0 0 1 146.3486 295.0791)" class="st1 st2 st3 st4"> </text>
	<text transform="matrix(0.9 0 0 1 152.0244 295.0791)" class="st1 st2 st3">Rate:</text>
	<text transform="matrix(0.9 0 0 1 188.9663 295.0791)" class="st1 st2 st3 st4"> </text>
	<text transform="matrix(0.9 0 0 1 194.6416 295.0791)" class="st1 st2 st3">Lead</text>
	<text transform="matrix(0.9 0 0 1 228.3872 295.0791)" class="st1 st2 st3 st4"> </text>
	<text transform="matrix(0.9 0 0 1 234.063 295.0791)" class="st1 st2 st3">the</text>
	<text transform="matrix(0.9 0 0 1 257.1309 295.0791)" class="st1 st2 st3 st4"> </text>
	<text transform="matrix(0.9 0 0 1 262.8071 295.0791)" class="st1 st2 st3">Program,</text>
	<text transform="matrix(0.9 0 0 1 327.4082 295.0791)" class="st1 st2 st3 st4"> </text>
	<text transform="matrix(0.9 0 0 1 333.0835 295.0791)" class="st1 st2 st3">when</text>
	<text transform="matrix(0.9 0 0 1 370.0781 295.0791)" class="st1 st2 st3 st4"> </text>
	<text transform="matrix(0.9 0 0 1 375.7534 295.0791)" class="st1 st2 st3">I</text>
	<text transform="matrix(0.9 0 0 1 380.3696 295.0791)" class="st1 st2 st3 st4"> </text>
	<text transform="matrix(0.9 0 0 1 386.0449 295.0791)" class="st1 st2 st3">took</text>
	<text transform="matrix(0.9 0 0 1 417.7314 295.0791)" class="st1 st2 st3 st4"> </text>
	<text transform="matrix(0.9 0 0 1 423.4067 295.0791)" class="st1 st2 st3">ove</text>
	<text transform="matrix(0.9 0 0 1 448.1411 295.0791)" class="st1 st2 st3">r</text>
	<text transform="matrix(0.9 0 0 1 453.3413 295.0791)" class="st1 st2 st3">,</text>
	<text transform="matrix(0.9 0 0 1 458.2178 295.0791)" class="st1 st2 st3 st4"> </text>
	<text transform="matrix(0.9 0 0 1 463.8931 295.0791)" class="st1 st2 st3">the</text>
	<text transform="matrix(0.9 0 0 1 486.9619 295.0791)" class="st1 st2 st3 st4"> </text>
	<text transform="matrix(0.9 0 0 1 492.6372 295.0791)" class="st1 st2 st3">current</text>
	<text transform="matrix(0.9 0 0 1 543.3682 295.0791)" class="st1 st2 st3 st4"> </text>
	<text transform="matrix(0.9 0 0 1 549.0439 295.0791)" class="st1 st2 st3">IT </text>
	<text transform="matrix(0.9 0 0 1 81.916 315.0791)" class="st1 st2 st3">partners</text>
	<text transform="matrix(0.9 0 0 1 140.478 315.0791)" class="st1 st2 st3"> </text>
	<text transform="matrix(0.9 0 0 1 144.1699 315.0791)" class="st1 st2 st3">were</text>
	<text transform="matrix(0.9 0 0 1 177.8945 315.0791)" class="st1 st2 st3"> </text>
	<text transform="matrix(0.9 0 0 1 181.5874 315.0791)" class="st1 st2 st3">not</text>
	<text transform="matrix(0.9 0 0 1 205.0981 315.0791)" class="st1 st2 st3"> </text>
	<text transform="matrix(0.9 0 0 1 208.79 315.0791)" class="st1 st2 st3">able</text>
	<text transform="matrix(0.9 0 0 1 238.3799 315.0791)" class="st1 st2 st3"> </text>
	<text transform="matrix(0.9 0 0 1 242.0728 315.0791)" class="st1 st2 st3">to</text>
	<text transform="matrix(0.9 0 0 1 256.9102 315.0791)" class="st1 st2 st3"> </text>
	<text transform="matrix(0.9 0 0 1 260.6021 315.0791)" class="st1 st2 st3">fix</text>
	<text transform="matrix(0.9 0 0 1 277.0361 315.0791)" class="st1 st2 st3"> </text>
	<text transform="matrix(0.9 0 0 1 280.7275 315.0791)" class="st1 st2 st3">the</text>
	<text transform="matrix(0.9 0 0 1 303.7959 315.0791)" class="st1 st2 st3"> </text>
	<text transform="matrix(0.9 0 0 1 307.4883 315.0791)" class="st1 st2 st3">historical</text>
	<text transform="matrix(0.9 0 0 1 372.6611 315.0791)" class="st1 st2 st3"> </text>
	<text transform="matrix(0.9 0 0 1 376.3525 315.0791)" class="st1 st2 st3">k</text>
	<text transform="matrix(0.9 0 0 1 384.1621 315.0791)" class="st1 st2 st3">e</text>
	<text transform="matrix(0.9 0 0 1 392.3369 315.0791)" class="st1 st2 st3">y</text>
	<text transform="matrix(0.9 0 0 1 400.3213 315.0791)" class="st1 st2 st3"> </text>
	<text transform="matrix(0.9 0 0 1 404.0132 315.0791)" class="st1 st2 st3">issues</text>
	<text transform="matrix(0.9 0 0 1 445.9175 315.0791)" class="st1 st2 st3"> </text>
	<text transform="matrix(0.9 0 0 1 449.6094 315.0791)" class="st1 st2 st3">&amp;</text>
	<text transform="matrix(0.9 0 0 1 460.3291 315.0791)" class="st1 st2 st3"> </text>
	<text transform="matrix(0.9 0 0 1 464.021 315.0791)" class="st1 st2 st3">turned</text>
	<text transform="matrix(0.9 0 0 1 510.2495 315.0791)" class="st1 st2 st3"> </text>
	<text transform="matrix(0.9 0 0 1 513.9414 315.0791)" class="st1 st2 st3">around </text>
	<text transform="matrix(0.9 0 0 1 81.916 335.0791)" class="st1 st2 st3">and fixed the issue and increased the adoption from 8% to 90%  </text>
</g>
<g id="corda_Image">
	
		<image style="overflow:visible;enable-background:new    ;" width="48" height="38" id="corda_Image-2" xlink:href="E58C4E6B.png"  transform="matrix(1 0 0 1 68 186)">
	</image>
</g>
<g id="angular_js_Image">
	
		<image style="overflow:visible;enable-background:new    ;" width="47" height="50" id="angular_js_Image-2" xlink:href="E58C4E69.png"  transform="matrix(1 0 0 1 129 180)">
	</image>
</g>
<g id="Layer_6_Image">
	
		<image style="overflow:visible;enable-background:new    ;" width="131" height="58" id="Layer_6_Image-2" xlink:href="E58C4E6F.png"  transform="matrix(1 0 0 1 454 176)">
	</image>
</g>
<g id="KEY_ACHIVEMENTS:">
	<text transform="matrix(0.9 0 0 1 80.6509 277.729)" class="st1 st5 st6">KEY</text>
	<text transform="matrix(0.9 0 0 1 114.0068 277.729)" class="st1 st5 st6"> </text>
	<text transform="matrix(0.9 0 0 1 117.8481 277.729)" class="st1 st5 st6">A</text>
	<text transform="matrix(0.9 0 0 1 129.5518 277.729)" class="st1 st5 st6">CHIVEMENTS:</text>
</g>
<g id="_3-achieve">
	<path class="st7" d="M578.8,256.6v93.9H70.6v-93.9H578.8 M581.8,253.6H67.6v99.9h514.2V253.6z"/>
</g>
<g id="_2">
	<path class="st7" d="M578.8,109v45.9H70V109H578.8 M581.8,106H67v51.9h514.8V106z"/>
</g>
<g id="_1_Image">
	
		<image style="overflow:visible;enable-background:new    ;" width="515" height="52" id="_1_Image-2" xlink:href="E58C4E68.png"  transform="matrix(1 0 0 1 67 57)">
	</image>
</g>
<g id="Life_Policy_Quote_Underwriting_for_Agency_Bancassurance_Bro">
	<text transform="matrix(0.9 0 0 1 79.0801 130.2939)" class="st1 st2 st8">Life </text>
	<text transform="matrix(0.9 0 0 1 108.0112 130.2939)" class="st1 st2 st8">P</text>
	<text transform="matrix(0.9 0 0 1 116.1294 130.2939)" class="st1 st2 st8">olicy</text>
	<text transform="matrix(0.9 0 0 1 147.0454 130.2939)" class="st1 st2 st8"> </text>
	<text transform="matrix(0.9 0 0 1 150.2329 130.2939)" class="st1 st2 st8">Quote,</text>
	<text transform="matrix(0.9 0 0 1 195.4365 130.2939)" class="st1 st2 st8"> </text>
	<text transform="matrix(0.9 0 0 1 198.7568 130.2939)" class="st1 st2 st8">Underwriting for</text>
	<text transform="matrix(0.9 0 0 1 307.6836 130.2939)" class="st1 st2 st8"> </text>
	<text transform="matrix(0.9 0 0 1 310.8057 130.2939)" class="st1 st2 st8">Agenc</text>
	<text transform="matrix(0.9 0 0 1 351.3652 130.2939)" class="st1 st2 st8">y</text>
	<text transform="matrix(0.9 0 0 1 358.3887 130.2939)" class="st1 st2 st8">, Bancassurance &amp; Bro</text>
	<text transform="matrix(0.9 0 0 1 503.1484 130.2939)" class="st1 st2 st8">k</text>
	<text transform="matrix(0.9 0 0 1 510.4697 130.2939)" class="st1 st2 st8">ers</text>
</g>
<g id="PROGRAM_NAME_AZ_JOURNEY">
	<text transform="matrix(0.9 0 0 1 426.0659 80.7778)" class="st1 st2 st6">PROGRAM NAME</text>
	<text transform="matrix(0.9 0 0 1 440.8467 98.7778)" class="st1 st5 st6">AZ</text>
	<text transform="matrix(0.9 0 0 1 463.6606 98.7778)" class="st1 st5 st6"> </text>
	<text transform="matrix(0.9 0 0 1 467.897 98.7778)" class="st1 st5 st6">JOURNEY</text>
</g>
<g id="ROLE_HEAD_OF_DIGITAL">
	<text transform="matrix(0.9 0 0 1 129.291 78.9351)" class="st1 st2 st6">ROLE</text>
	<text transform="matrix(0.9 0 0 1 78.2915 96.9351)" class="st1 st5 st6">HEAD</text>
	<text transform="matrix(0.9 0 0 1 125.4712 96.9351)" class="st1 st5 st6"> </text>
	<text transform="matrix(0.9 0 0 1 129.3916 96.9351)" class="st1 st5 st6">OF DIGI</text>
	<text transform="matrix(0.9 0 0 1 192.5635 96.9351)" class="st1 st5 st6">T</text>
	<text transform="matrix(0.9 0 0 1 202.1479 96.9351)" class="st1 st5 st6">AL</text>
</g>
<text transform="matrix(1 0 0 1 244.0728 67.5796)" class="st1 st2 st9">ALLIANZ PNB</text>
</svg>
